<?xml version="1.0" encoding="utf-8"?>
<svg viewBox="0.00 0.00 1157.87 1029.0" xmlns="http://www.w3.org/2000/svg" xmlns:xlink="http://www.w3.org/1999/xlink" preserveAspectRatio="xMinYMin">
	<g id="graph0" class="graph" transform="scale(1 1) rotate(0) translate(4 1025)">
		<title>Tree-Decomposition</title>
		<polygon fill="white" stroke="none" points="-4,4 -4,-1025 702,-1025 702,4 -4,4"></polygon>
		<g id="node1" class="node">
			<title>bag 1</title>
			<path fill="white" stroke="black" d="M283,-880C283,-880 188,-880 188,-880 182,-880 176,-874 176,-868 176,-868 176,-810 176,-810 176,-804 182,-798 188,-798 188,-798 283,-798 283,-798 289,-798 295,-804 295,-810 295,-810 295,-868 295,-868 295,-874 289,-880 283,-880"></path>
			<polygon fill="white" stroke="none" points="184.5,-860 184.5,-879 287.5,-879 287.5,-860 184.5,-860"></polygon>
			<text text-anchor="start" x="220.5" y="-865.8" font-family="Times New Roman,serif" font-size="14.00">bag 1</text>
			<text text-anchor="start" x="220.5" y="-842.8" font-family="Times New Roman,serif" font-size="14.00">[2, 3]</text>
			<text text-anchor="start" x="194.5" y="-823.8" font-family="Times New Roman,serif" font-size="14.00">dtime=0.0010s</text>
			<text text-anchor="start" x="186.5" y="-804.8" font-family="Times New Roman,serif" font-size="14.00">05/21/20 16:13:14</text>
		</g>
		<g id="node2" class="node">
			<title>bag 2</title>
			<path fill="white" stroke="black" d="M171,-758C171,-758 76,-758 76,-758 70,-758 64,-752 64,-746 64,-746 64,-688 64,-688 64,-682 70,-676 76,-676 76,-676 171,-676 171,-676 177,-676 183,-682 183,-688 183,-688 183,-746 183,-746 183,-752 177,-758 171,-758"></path>
			<polygon fill="white" stroke="none" points="72.5,-738 72.5,-757 175.5,-757 175.5,-738 72.5,-738"></polygon>
			<text text-anchor="start" x="108.5" y="-743.8" font-family="Times New Roman,serif" font-size="14.00">bag 2</text>
			<text text-anchor="start" x="101.5" y="-720.8" font-family="Times New Roman,serif" font-size="14.00">[3, 4, 5]</text>
			<text text-anchor="start" x="82.5" y="-701.8" font-family="Times New Roman,serif" font-size="14.00">dtime=0.0010s</text>
			<text text-anchor="start" x="74.5" y="-682.8" font-family="Times New Roman,serif" font-size="14.00">05/21/20 16:13:14</text>
		</g>
		<g id="edge1" class="edge">
			<title>bag 2-&gt;bag 1</title>
			<path fill="none" stroke="black" d="M161.106,-758.292C170.617,-768.483 180.925,-779.527 190.751,-790.055"></path>
			<polygon fill="black" stroke="black" points="188.421,-792.688 197.803,-797.61 193.538,-787.911 188.421,-792.688"></polygon>
		</g>
		<g id="node3" class="node">
			<title>bag 3</title>
			<path fill="white" stroke="black" d="M395,-758C395,-758 300,-758 300,-758 294,-758 288,-752 288,-746 288,-746 288,-688 288,-688 288,-682 294,-676 300,-676 300,-676 395,-676 395,-676 401,-676 407,-682 407,-688 407,-688 407,-746 407,-746 407,-752 401,-758 395,-758"></path>
			<polygon fill="white" stroke="none" points="296.5,-738 296.5,-757 399.5,-757 399.5,-738 296.5,-738"></polygon>
			<text text-anchor="start" x="332.5" y="-743.8" font-family="Times New Roman,serif" font-size="14.00">bag 3</text>
			<text text-anchor="start" x="332.5" y="-720.8" font-family="Times New Roman,serif" font-size="14.00">[1, 2]</text>
			<text text-anchor="start" x="306.5" y="-701.8" font-family="Times New Roman,serif" font-size="14.00">dtime=0.0013s</text>
			<text text-anchor="start" x="298.5" y="-682.8" font-family="Times New Roman,serif" font-size="14.00">05/21/20 16:13:14</text>
		</g>
		<g id="edge2" class="edge">
			<title>bag 3-&gt;bag 1</title>
			<path fill="none" stroke="black" d="M309.894,-758.292C300.383,-768.483 290.075,-779.527 280.249,-790.055"></path>
			<polygon fill="black" stroke="black" points="277.462,-787.911 273.197,-797.61 282.579,-792.688 277.462,-787.911"></polygon>
		</g>
		<g id="node20" class="node">
			<title>sol3</title>
			<path fill="white" stroke="black" d="M325.5,-796.5C325.5,-796.5 369.5,-796.5 369.5,-796.5 375.5,-796.5 381.5,-802.5 381.5,-808.5 381.5,-808.5 381.5,-869.5 381.5,-869.5 381.5,-875.5 375.5,-881.5 369.5,-881.5 369.5,-881.5 325.5,-881.5 325.5,-881.5 319.5,-881.5 313.5,-875.5 313.5,-869.5 313.5,-869.5 313.5,-808.5 313.5,-808.5 313.5,-802.5 319.5,-796.5 325.5,-796.5"></path>
			<text text-anchor="middle" x="347.5" y="-869.3" font-family="Times New Roman,serif" font-size="14.00">sol bag 3</text>
			<text text-anchor="middle" x="328.5" y="-852.3" font-family="Times New Roman,serif" font-size="14.00">v2</text>
			<text text-anchor="middle" x="328.5" y="-835.3" font-family="Times New Roman,serif" font-size="14.00">0</text>
			<text text-anchor="middle" x="328.5" y="-818.3" font-family="Times New Roman,serif" font-size="14.00">1</text>
			<text text-anchor="middle" x="362.5" y="-852.3" font-family="Times New Roman,serif" font-size="14.00">size</text>
			<text text-anchor="middle" x="362.5" y="-835.3" font-family="Times New Roman,serif" font-size="14.00">1</text>
			<text text-anchor="middle" x="362.5" y="-818.3" font-family="Times New Roman,serif" font-size="14.00">1</text>
			<text text-anchor="middle" x="347.5" y="-801.3" font-family="Times New Roman,serif" font-size="14.00">sum: 2</text>
			<polyline fill="none" stroke="black" points="313.5,-864.5 381.5,-864.5 "></polyline>
			<polyline fill="none" stroke="black" points="313.5,-847.5 343.5,-847.5 "></polyline>
			<polyline fill="none" stroke="black" points="313.5,-830.5 343.5,-830.5 "></polyline>
			<polyline fill="none" stroke="black" points="343.5,-813.5 343.5,-864.5 "></polyline>
			<polyline fill="none" stroke="black" points="343.5,-847.5 381.5,-847.5 "></polyline>
			<polyline fill="none" stroke="black" points="343.5,-830.5 381.5,-830.5 "></polyline>
			<polyline fill="none" stroke="black" points="313.5,-813.5 381.5,-813.5 "></polyline>
		</g>
		<g id="edge19" class="edge">
			<title>bag 3-&gt;sol3</title>
			<path fill="none" stroke="black" d="M347.5,-758.292C347.5,-767.293 347.5,-776.959 347.5,-786.347"></path>
			<polygon fill="black" stroke="black" points="344,-786.38 347.5,-796.38 351,-786.38 344,-786.38"></polygon>
		</g>
		<g id="node4" class="node">
			<title>bag 4</title>
			<path fill="white" stroke="black" d="M227,-636C227,-636 132,-636 132,-636 126,-636 120,-630 120,-624 120,-624 120,-566 120,-566 120,-560 126,-554 132,-554 132,-554 227,-554 227,-554 233,-554 239,-560 239,-566 239,-566 239,-624 239,-624 239,-630 233,-636 227,-636"></path>
			<polygon fill="white" stroke="none" points="128.5,-616 128.5,-635 231.5,-635 231.5,-616 128.5,-616"></polygon>
			<text text-anchor="start" x="164.5" y="-621.8" font-family="Times New Roman,serif" font-size="14.00">bag 4</text>
			<text text-anchor="start" x="164.5" y="-598.8" font-family="Times New Roman,serif" font-size="14.00">[4, 6]</text>
			<text text-anchor="start" x="138.5" y="-579.8" font-family="Times New Roman,serif" font-size="14.00">dtime=0.0012s</text>
			<text text-anchor="start" x="130.5" y="-560.8" font-family="Times New Roman,serif" font-size="14.00">05/21/20 16:13:14</text>
		</g>
		<g id="edge3" class="edge">
			<title>bag 4-&gt;bag 2</title>
			<path fill="none" stroke="black" d="M160.697,-636.292C156.172,-645.988 151.287,-656.457 146.591,-666.518"></path>
			<polygon fill="black" stroke="black" points="143.406,-665.068 142.349,-675.61 149.749,-668.028 143.406,-665.068"></polygon>
		</g>
		<g id="node5" class="node">
			<title>bag 5</title>
			<path fill="white" stroke="black" d="M283,-514C283,-514 188,-514 188,-514 182,-514 176,-508 176,-502 176,-502 176,-444 176,-444 176,-438 182,-432 188,-432 188,-432 283,-432 283,-432 289,-432 295,-438 295,-444 295,-444 295,-502 295,-502 295,-508 289,-514 283,-514"></path>
			<polygon fill="white" stroke="none" points="184.5,-494 184.5,-513 287.5,-513 287.5,-494 184.5,-494"></polygon>
			<text text-anchor="start" x="220.5" y="-499.8" font-family="Times New Roman,serif" font-size="14.00">bag 5</text>
			<text text-anchor="start" x="220.5" y="-476.8" font-family="Times New Roman,serif" font-size="14.00">[6, 7]</text>
			<text text-anchor="start" x="194.5" y="-457.8" font-family="Times New Roman,serif" font-size="14.00">dtime=0.0012s</text>
			<text text-anchor="start" x="186.5" y="-438.8" font-family="Times New Roman,serif" font-size="14.00">05/21/20 16:13:14</text>
		</g>
		<g id="edge4" class="edge">
			<title>bag 5-&gt;bag 4</title>
			<path fill="none" stroke="black" d="M216.697,-514.292C212.172,-523.988 207.287,-534.457 202.591,-544.518"></path>
			<polygon fill="black" stroke="black" points="199.406,-543.068 198.349,-553.61 205.749,-546.028 199.406,-543.068"></polygon>
		</g>
		<g id="node6" class="node">
			<title>bag 6</title>
			<path fill="white" stroke="black" d="M107,-375C107,-375 12,-375 12,-375 6,-375 -7.10543e-015,-369 -7.10543e-015,-363 -7.10543e-015,-363 -7.10543e-015,-305 -7.10543e-015,-305 -7.10543e-015,-299 6,-293 12,-293 12,-293 107,-293 107,-293 113,-293 119,-299 119,-305 119,-305 119,-363 119,-363 119,-369 113,-375 107,-375"></path>
			<polygon fill="white" stroke="none" points="8.5,-355 8.5,-374 111.5,-374 111.5,-355 8.5,-355"></polygon>
			<text text-anchor="start" x="44.5" y="-360.8" font-family="Times New Roman,serif" font-size="14.00">bag 6</text>
			<text text-anchor="start" x="41.5" y="-337.8" font-family="Times New Roman,serif" font-size="14.00">[6, 15]</text>
			<text text-anchor="start" x="18.5" y="-318.8" font-family="Times New Roman,serif" font-size="14.00">dtime=0.0019s</text>
			<text text-anchor="start" x="10.5" y="-299.8" font-family="Times New Roman,serif" font-size="14.00">05/21/20 16:13:14</text>
		</g>
		<g id="edge5" class="edge">
			<title>bag 6-&gt;bag 5</title>
			<path fill="none" stroke="black" d="M104.75,-375.24C112.255,-381.63 120.027,-388.079 127.5,-394 140.911,-404.626 155.59,-415.625 169.685,-425.893"></path>
			<polygon fill="black" stroke="black" points="167.75,-428.814 177.902,-431.847 171.857,-423.145 167.75,-428.814"></polygon>
		</g>
		<g id="node18" class="node">
			<title>sol6</title>
			<path fill="white" stroke="black" d="M37.5,-430.5C37.5,-430.5 81.5,-430.5 81.5,-430.5 87.5,-430.5 93.5,-436.5 93.5,-442.5 93.5,-442.5 93.5,-503.5 93.5,-503.5 93.5,-509.5 87.5,-515.5 81.5,-515.5 81.5,-515.5 37.5,-515.5 37.5,-515.5 31.5,-515.5 25.5,-509.5 25.5,-503.5 25.5,-503.5 25.5,-442.5 25.5,-442.5 25.5,-436.5 31.5,-430.5 37.5,-430.5"></path>
			<text text-anchor="middle" x="59.5" y="-503.3" font-family="Times New Roman,serif" font-size="14.00">sol bag 6</text>
			<text text-anchor="middle" x="40.5" y="-486.3" font-family="Times New Roman,serif" font-size="14.00">v6</text>
			<text text-anchor="middle" x="40.5" y="-469.3" font-family="Times New Roman,serif" font-size="14.00">0</text>
			<text text-anchor="middle" x="40.5" y="-452.3" font-family="Times New Roman,serif" font-size="14.00">1</text>
			<text text-anchor="middle" x="74.5" y="-486.3" font-family="Times New Roman,serif" font-size="14.00">size</text>
			<text text-anchor="middle" x="74.5" y="-469.3" font-family="Times New Roman,serif" font-size="14.00">1</text>
			<text text-anchor="middle" x="74.5" y="-452.3" font-family="Times New Roman,serif" font-size="14.00">2</text>
			<text text-anchor="middle" x="59.5" y="-435.3" font-family="Times New Roman,serif" font-size="14.00">sum: 3</text>
			<polyline fill="none" stroke="black" points="25.5,-498.5 93.5,-498.5 "></polyline>
			<polyline fill="none" stroke="black" points="25.5,-481.5 55.5,-481.5 "></polyline>
			<polyline fill="none" stroke="black" points="25.5,-464.5 55.5,-464.5 "></polyline>
			<polyline fill="none" stroke="black" points="55.5,-447.5 55.5,-498.5 "></polyline>
			<polyline fill="none" stroke="black" points="55.5,-481.5 93.5,-481.5 "></polyline>
			<polyline fill="none" stroke="black" points="55.5,-464.5 93.5,-464.5 "></polyline>
			<polyline fill="none" stroke="black" points="25.5,-447.5 93.5,-447.5 "></polyline>
		</g>
		<g id="edge17" class="edge">
			<title>bag 6-&gt;sol6</title>
			<path fill="none" stroke="black" d="M59.5,-375.364C59.5,-389.344 59.5,-405.217 59.5,-419.999"></path>
			<polygon fill="black" stroke="black" points="56.0001,-420.023 59.5,-430.023 63.0001,-420.023 56.0001,-420.023"></polygon>
		</g>
		<g id="node7" class="node">
			<title>bag 7</title>
			<path fill="yellow" stroke="black" stroke-width="2.5" d="M460,-375C460,-375 365,-375 365,-375 359,-375 353,-369 353,-363 353,-363 353,-305 353,-305 353,-299 359,-293 365,-293 365,-293 460,-293 460,-293 466,-293 472,-299 472,-305 472,-305 472,-363 472,-363 472,-369 466,-375 460,-375"></path>
			<polygon fill="white" stroke="none" points="361.5,-355 361.5,-374 464.5,-374 464.5,-355 361.5,-355"></polygon>
			<text text-anchor="start" x="397.5" y="-360.8" font-family="Times New Roman,serif" font-size="14.00">bag 7</text>
			<text text-anchor="start" x="384" y="-337.8" font-family="Times New Roman,serif" font-size="14.00">[7, 11, 14]</text>
			<text text-anchor="start" x="371.5" y="-318.8" font-family="Times New Roman,serif" font-size="14.00">dtime=0.0033s</text>
			<text text-anchor="start" x="363.5" y="-299.8" font-family="Times New Roman,serif" font-size="14.00">05/21/20 16:13:14</text>
		</g>
		<g id="edge6" class="edge">
			<title>bag 7-&gt;bag 5</title>
			<path fill="none" stroke="black" d="M366.54,-375.201C358.93,-381.595 351.057,-388.056 343.5,-394 329.975,-404.638 315.189,-415.68 301.018,-425.994"></path>
			<polygon fill="black" stroke="black" points="298.807,-423.274 292.76,-431.973 302.912,-428.944 298.807,-423.274"></polygon>
		</g>
		<g id="node8" class="node">
			<title>bag 8</title>
			<path fill="white" stroke="black" d="M108,-219C108,-219 13,-219 13,-219 7,-219 1,-213 1,-207 1,-207 1,-149 1,-149 1,-143 7,-137 13,-137 13,-137 108,-137 108,-137 114,-137 120,-143 120,-149 120,-149 120,-207 120,-207 120,-213 114,-219 108,-219"></path>
			<polygon fill="white" stroke="none" points="9.5,-199 9.5,-218 112.5,-218 112.5,-199 9.5,-199"></polygon>
			<text text-anchor="start" x="45.5" y="-204.8" font-family="Times New Roman,serif" font-size="14.00">bag 8</text>
			<text text-anchor="start" x="39" y="-181.8" font-family="Times New Roman,serif" font-size="14.00">[15, 16]</text>
			<text text-anchor="start" x="19.5" y="-162.8" font-family="Times New Roman,serif" font-size="14.00">dtime=0.0036s</text>
			<text text-anchor="start" x="11.5" y="-143.8" font-family="Times New Roman,serif" font-size="14.00">05/21/20 16:13:14</text>
		</g>
		<g id="edge7" class="edge">
			<title>bag 8-&gt;bag 6</title>
			<path fill="none" stroke="black" d="M60.2399,-219.06C60.1136,-238.501 59.9607,-262.059 59.8266,-282.697"></path>
			<polygon fill="black" stroke="black" points="56.3257,-282.851 59.7606,-292.874 63.3255,-282.897 56.3257,-282.851"></polygon>
		</g>
		<g id="node14" class="node">
			<title>sol8</title>
			<path fill="white" stroke="black" d="M149,-291.5C149,-291.5 200,-291.5 200,-291.5 206,-291.5 212,-297.5 212,-303.5 212,-303.5 212,-364.5 212,-364.5 212,-370.5 206,-376.5 200,-376.5 200,-376.5 149,-376.5 149,-376.5 143,-376.5 137,-370.5 137,-364.5 137,-364.5 137,-303.5 137,-303.5 137,-297.5 143,-291.5 149,-291.5"></path>
			<text text-anchor="middle" x="174.5" y="-364.3" font-family="Times New Roman,serif" font-size="14.00">sol bag 8</text>
			<text text-anchor="middle" x="155.5" y="-347.3" font-family="Times New Roman,serif" font-size="14.00">v15</text>
			<text text-anchor="middle" x="155.5" y="-330.3" font-family="Times New Roman,serif" font-size="14.00">0</text>
			<text text-anchor="middle" x="155.5" y="-313.3" font-family="Times New Roman,serif" font-size="14.00">1</text>
			<text text-anchor="middle" x="193" y="-347.3" font-family="Times New Roman,serif" font-size="14.00">size</text>
			<text text-anchor="middle" x="193" y="-330.3" font-family="Times New Roman,serif" font-size="14.00">1</text>
			<text text-anchor="middle" x="193" y="-313.3" font-family="Times New Roman,serif" font-size="14.00">1</text>
			<text text-anchor="middle" x="174.5" y="-296.3" font-family="Times New Roman,serif" font-size="14.00">sum: 2</text>
			<polyline fill="none" stroke="black" points="137,-359.5 212,-359.5 "></polyline>
			<polyline fill="none" stroke="black" points="137,-342.5 174,-342.5 "></polyline>
			<polyline fill="none" stroke="black" points="137,-325.5 174,-325.5 "></polyline>
			<polyline fill="none" stroke="black" points="174,-308.5 174,-359.5 "></polyline>
			<polyline fill="none" stroke="black" points="174,-342.5 212,-342.5 "></polyline>
			<polyline fill="none" stroke="black" points="174,-325.5 212,-325.5 "></polyline>
			<polyline fill="none" stroke="black" points="137,-308.5 212,-308.5 "></polyline>
		</g>
		<g id="edge13" class="edge">
			<title>bag 8-&gt;sol8</title>
			<path fill="none" stroke="black" d="M90.1546,-219.06C104.657,-238.65 122.253,-262.421 137.615,-283.172"></path>
			<polygon fill="black" stroke="black" points="134.838,-285.305 143.601,-291.26 140.465,-281.14 134.838,-285.305"></polygon>
		</g>
		<g id="node9" class="node">
			<title>bag 9</title>
			<path fill="white" stroke="black" d="M339,-219C339,-219 244,-219 244,-219 238,-219 232,-213 232,-207 232,-207 232,-149 232,-149 232,-143 238,-137 244,-137 244,-137 339,-137 339,-137 345,-137 351,-143 351,-149 351,-149 351,-207 351,-207 351,-213 345,-219 339,-219"></path>
			<polygon fill="white" stroke="none" points="240.5,-199 240.5,-218 343.5,-218 343.5,-199 240.5,-199"></polygon>
			<text text-anchor="start" x="276.5" y="-204.8" font-family="Times New Roman,serif" font-size="14.00">bag 9</text>
			<text text-anchor="start" x="266" y="-181.8" font-family="Times New Roman,serif" font-size="14.00">[7, 9, 11]</text>
			<text text-anchor="start" x="250.5" y="-162.8" font-family="Times New Roman,serif" font-size="14.00">dtime=0.0052s</text>
			<text text-anchor="start" x="242.5" y="-143.8" font-family="Times New Roman,serif" font-size="14.00">05/21/20 16:13:14</text>
		</g>
		<g id="edge8" class="edge">
			<title>bag 9-&gt;bag 7</title>
			<path fill="none" stroke="black" d="M322.975,-219.06C338.809,-239.211 358.117,-263.786 374.744,-284.947"></path>
			<polygon fill="black" stroke="black" points="372.042,-287.173 380.972,-292.874 377.546,-282.848 372.042,-287.173"></polygon>
		</g>
		<g id="node19" class="node">
			<title>sol9</title>
			<path fill="white" stroke="black" d="M242,-274.5C242,-274.5 323,-274.5 323,-274.5 329,-274.5 335,-280.5 335,-286.5 335,-286.5 335,-381.5 335,-381.5 335,-387.5 329,-393.5 323,-393.5 323,-393.5 242,-393.5 242,-393.5 236,-393.5 230,-387.5 230,-381.5 230,-381.5 230,-286.5 230,-286.5 230,-280.5 236,-274.5 242,-274.5"></path>
			<text text-anchor="middle" x="282.5" y="-381.3" font-family="Times New Roman,serif" font-size="14.00">sol bag 9</text>
			<text text-anchor="middle" x="245" y="-364.3" font-family="Times New Roman,serif" font-size="14.00">v7</text>
			<text text-anchor="middle" x="245" y="-347.3" font-family="Times New Roman,serif" font-size="14.00">0</text>
			<text text-anchor="middle" x="245" y="-330.3" font-family="Times New Roman,serif" font-size="14.00">1</text>
			<text text-anchor="middle" x="245" y="-313.3" font-family="Times New Roman,serif" font-size="14.00">1</text>
			<text text-anchor="middle" x="245" y="-296.3" font-family="Times New Roman,serif" font-size="14.00">0</text>
			<text text-anchor="middle" x="278.5" y="-364.3" font-family="Times New Roman,serif" font-size="14.00">v11</text>
			<text text-anchor="middle" x="278.5" y="-347.3" font-family="Times New Roman,serif" font-size="14.00">0</text>
			<text text-anchor="middle" x="278.5" y="-330.3" font-family="Times New Roman,serif" font-size="14.00">1</text>
			<text text-anchor="middle" x="278.5" y="-313.3" font-family="Times New Roman,serif" font-size="14.00">0</text>
			<text text-anchor="middle" x="278.5" y="-296.3" font-family="Times New Roman,serif" font-size="14.00">1</text>
			<text text-anchor="middle" x="316" y="-364.3" font-family="Times New Roman,serif" font-size="14.00">size</text>
			<text text-anchor="middle" x="316" y="-347.3" font-family="Times New Roman,serif" font-size="14.00">2</text>
			<text text-anchor="middle" x="316" y="-330.3" font-family="Times New Roman,serif" font-size="14.00">3</text>
			<text text-anchor="middle" x="316" y="-313.3" font-family="Times New Roman,serif" font-size="14.00">2</text>
			<text text-anchor="middle" x="316" y="-296.3" font-family="Times New Roman,serif" font-size="14.00">3</text>
			<text text-anchor="middle" x="282.5" y="-279.3" font-family="Times New Roman,serif" font-size="14.00">sum: 10</text>
			<polyline fill="none" stroke="black" points="230,-376.5 335,-376.5 "></polyline>
			<polyline fill="none" stroke="black" points="230,-359.5 260,-359.5 "></polyline>
			<polyline fill="none" stroke="black" points="230,-342.5 260,-342.5 "></polyline>
			<polyline fill="none" stroke="black" points="230,-325.5 260,-325.5 "></polyline>
			<polyline fill="none" stroke="black" points="230,-308.5 260,-308.5 "></polyline>
			<polyline fill="none" stroke="black" points="260,-291.5 260,-376.5 "></polyline>
			<polyline fill="none" stroke="black" points="260,-359.5 297,-359.5 "></polyline>
			<polyline fill="none" stroke="black" points="260,-342.5 297,-342.5 "></polyline>
			<polyline fill="none" stroke="black" points="260,-325.5 297,-325.5 "></polyline>
			<polyline fill="none" stroke="black" points="260,-308.5 297,-308.5 "></polyline>
			<polyline fill="none" stroke="black" points="297,-291.5 297,-376.5 "></polyline>
			<polyline fill="none" stroke="black" points="297,-359.5 335,-359.5 "></polyline>
			<polyline fill="none" stroke="black" points="297,-342.5 335,-342.5 "></polyline>
			<polyline fill="none" stroke="black" points="297,-325.5 335,-325.5 "></polyline>
			<polyline fill="none" stroke="black" points="297,-308.5 335,-308.5 "></polyline>
			<polyline fill="none" stroke="black" points="230,-291.5 335,-291.5 "></polyline>
		</g>
		<g id="edge18" class="edge">
			<title>bag 9-&gt;sol9</title>
			<path fill="none" stroke="black" d="M289.159,-219.06C288.351,-232.877 287.422,-248.774 286.519,-264.224"></path>
			<polygon fill="black" stroke="black" points="283.021,-264.099 285.931,-274.286 290.009,-264.507 283.021,-264.099"></polygon>
		</g>
		<g id="node10" class="node">
			<title>bag 10</title>
			<path fill="white" stroke="black" d="M593,-219C593,-219 498,-219 498,-219 492,-219 486,-213 486,-207 486,-207 486,-149 486,-149 486,-143 492,-137 498,-137 498,-137 593,-137 593,-137 599,-137 605,-143 605,-149 605,-149 605,-207 605,-207 605,-213 599,-219 593,-219"></path>
			<polygon fill="white" stroke="none" points="494.5,-199 494.5,-218 597.5,-218 597.5,-199 494.5,-199"></polygon>
			<text text-anchor="start" x="527" y="-204.8" font-family="Times New Roman,serif" font-size="14.00">bag 10</text>
			<text text-anchor="start" x="513.5" y="-181.8" font-family="Times New Roman,serif" font-size="14.00">[11, 12, 14]</text>
			<text text-anchor="start" x="504.5" y="-162.8" font-family="Times New Roman,serif" font-size="14.00">dtime=0.0039s</text>
			<text text-anchor="start" x="496.5" y="-143.8" font-family="Times New Roman,serif" font-size="14.00">05/21/20 16:13:14</text>
		</g>
		<g id="edge9" class="edge">
			<title>bag 10-&gt;bag 7</title>
			<path fill="none" stroke="black" d="M510.903,-219.06C493.423,-239.3 472.089,-264.002 453.759,-285.226"></path>
			<polygon fill="black" stroke="black" points="451.042,-283.018 447.155,-292.874 456.34,-287.593 451.042,-283.018"></polygon>
		</g>
		<g id="node11" class="node">
			<title>bag 11</title>
			<path fill="white" stroke="black" d="M265,-82C265,-82 170,-82 170,-82 164,-82 158,-76 158,-70 158,-70 158,-12 158,-12 158,-6 164,-0 170,-0 170,-0 265,-0 265,-0 271,-0 277,-6 277,-12 277,-12 277,-70 277,-70 277,-76 271,-82 265,-82"></path>
			<polygon fill="white" stroke="none" points="166.5,-62 166.5,-81 269.5,-81 269.5,-62 166.5,-62"></polygon>
			<text text-anchor="start" x="199" y="-67.8" font-family="Times New Roman,serif" font-size="14.00">bag 11</text>
			<text text-anchor="start" x="199.5" y="-44.8" font-family="Times New Roman,serif" font-size="14.00">[9, 10]</text>
			<text text-anchor="start" x="176.5" y="-25.8" font-family="Times New Roman,serif" font-size="14.00">dtime=0.0023s</text>
			<text text-anchor="start" x="168.5" y="-6.8" font-family="Times New Roman,serif" font-size="14.00">05/21/20 16:13:14</text>
		</g>
		<g id="edge10" class="edge">
			<title>bag 11-&gt;bag 9</title>
			<path fill="none" stroke="black" d="M239.502,-82.1389C247.335,-96.4279 256.246,-112.686 264.453,-127.657"></path>
			<polygon fill="black" stroke="black" points="261.579,-129.696 269.455,-136.783 267.717,-126.331 261.579,-129.696"></polygon>
		</g>
		<g id="node15" class="node">
			<title>sol11</title>
			<path fill="white" stroke="black" d="M151.5,-135.5C151.5,-135.5 201.5,-135.5 201.5,-135.5 207.5,-135.5 213.5,-141.5 213.5,-147.5 213.5,-147.5 213.5,-208.5 213.5,-208.5 213.5,-214.5 207.5,-220.5 201.5,-220.5 201.5,-220.5 151.5,-220.5 151.5,-220.5 145.5,-220.5 139.5,-214.5 139.5,-208.5 139.5,-208.5 139.5,-147.5 139.5,-147.5 139.5,-141.5 145.5,-135.5 151.5,-135.5"></path>
			<text text-anchor="middle" x="176.5" y="-208.3" font-family="Times New Roman,serif" font-size="14.00">sol bag 11</text>
			<text text-anchor="middle" x="156" y="-191.3" font-family="Times New Roman,serif" font-size="14.00">v9</text>
			<text text-anchor="middle" x="156" y="-174.3" font-family="Times New Roman,serif" font-size="14.00">0</text>
			<text text-anchor="middle" x="156" y="-157.3" font-family="Times New Roman,serif" font-size="14.00">1</text>
			<text text-anchor="middle" x="193" y="-191.3" font-family="Times New Roman,serif" font-size="14.00">size</text>
			<text text-anchor="middle" x="193" y="-174.3" font-family="Times New Roman,serif" font-size="14.00">1</text>
			<text text-anchor="middle" x="193" y="-157.3" font-family="Times New Roman,serif" font-size="14.00">1</text>
			<text text-anchor="middle" x="176.5" y="-140.3" font-family="Times New Roman,serif" font-size="14.00">sum: 2</text>
			<polyline fill="none" stroke="black" points="139.5,-203.5 213.5,-203.5 "></polyline>
			<polyline fill="none" stroke="black" points="139.5,-186.5 172.5,-186.5 "></polyline>
			<polyline fill="none" stroke="black" points="139.5,-169.5 172.5,-169.5 "></polyline>
			<polyline fill="none" stroke="black" points="172.5,-152.5 172.5,-203.5 "></polyline>
			<polyline fill="none" stroke="black" points="172.5,-186.5 213.5,-186.5 "></polyline>
			<polyline fill="none" stroke="black" points="172.5,-169.5 213.5,-169.5 "></polyline>
			<polyline fill="none" stroke="black" points="139.5,-152.5 213.5,-152.5 "></polyline>
		</g>
		<g id="edge14" class="edge">
			<title>bag 11-&gt;sol11</title>
			<path fill="none" stroke="black" d="M205.31,-82.1389C201.167,-95.7794 196.479,-111.214 192.107,-125.611"></path>
			<polygon fill="black" stroke="black" points="188.698,-124.791 189.141,-135.377 195.396,-126.825 188.698,-124.791"></polygon>
		</g>
		<g id="node12" class="node">
			<title>bag 12</title>
			<path fill="white" stroke="black" d="M449,-82C449,-82 354,-82 354,-82 348,-82 342,-76 342,-70 342,-70 342,-12 342,-12 342,-6 348,-0 354,-0 354,-0 449,-0 449,-0 455,-0 461,-6 461,-12 461,-12 461,-70 461,-70 461,-76 455,-82 449,-82"></path>
			<polygon fill="white" stroke="none" points="350.5,-62 350.5,-81 453.5,-81 453.5,-62 350.5,-62"></polygon>
			<text text-anchor="start" x="383" y="-67.8" font-family="Times New Roman,serif" font-size="14.00">bag 12</text>
			<text text-anchor="start" x="379.5" y="-44.8" font-family="Times New Roman,serif" font-size="14.00">[7, 8, 9]</text>
			<text text-anchor="start" x="360.5" y="-25.8" font-family="Times New Roman,serif" font-size="14.00">dtime=0.0026s</text>
			<text text-anchor="start" x="352.5" y="-6.8" font-family="Times New Roman,serif" font-size="14.00">05/21/20 16:13:14</text>
		</g>
		<g id="edge11" class="edge">
			<title>bag 12-&gt;bag 9</title>
			<path fill="none" stroke="black" d="M368.794,-82.1389C356.822,-96.8323 343.153,-113.608 330.673,-128.925"></path>
			<polygon fill="black" stroke="black" points="327.873,-126.819 324.27,-136.783 333.3,-131.241 327.873,-126.819"></polygon>
		</g>
		<g id="node16" class="node">
			<title>sol12</title>
			<path fill="white" stroke="black" d="M381.5,-118.5C381.5,-118.5 455.5,-118.5 455.5,-118.5 461.5,-118.5 467.5,-124.5 467.5,-130.5 467.5,-130.5 467.5,-225.5 467.5,-225.5 467.5,-231.5 461.5,-237.5 455.5,-237.5 455.5,-237.5 381.5,-237.5 381.5,-237.5 375.5,-237.5 369.5,-231.5 369.5,-225.5 369.5,-225.5 369.5,-130.5 369.5,-130.5 369.5,-124.5 375.5,-118.5 381.5,-118.5"></path>
			<text text-anchor="middle" x="418.5" y="-225.3" font-family="Times New Roman,serif" font-size="14.00">sol bag 12</text>
			<text text-anchor="middle" x="384.5" y="-208.3" font-family="Times New Roman,serif" font-size="14.00">v7</text>
			<text text-anchor="middle" x="384.5" y="-191.3" font-family="Times New Roman,serif" font-size="14.00">0</text>
			<text text-anchor="middle" x="384.5" y="-174.3" font-family="Times New Roman,serif" font-size="14.00">1</text>
			<text text-anchor="middle" x="384.5" y="-157.3" font-family="Times New Roman,serif" font-size="14.00">1</text>
			<text text-anchor="middle" x="384.5" y="-140.3" font-family="Times New Roman,serif" font-size="14.00">0</text>
			<text text-anchor="middle" x="414.5" y="-208.3" font-family="Times New Roman,serif" font-size="14.00">v9</text>
			<text text-anchor="middle" x="414.5" y="-191.3" font-family="Times New Roman,serif" font-size="14.00">0</text>
			<text text-anchor="middle" x="414.5" y="-174.3" font-family="Times New Roman,serif" font-size="14.00">1</text>
			<text text-anchor="middle" x="414.5" y="-157.3" font-family="Times New Roman,serif" font-size="14.00">0</text>
			<text text-anchor="middle" x="414.5" y="-140.3" font-family="Times New Roman,serif" font-size="14.00">1</text>
			<text text-anchor="middle" x="448.5" y="-208.3" font-family="Times New Roman,serif" font-size="14.00">size</text>
			<text text-anchor="middle" x="448.5" y="-191.3" font-family="Times New Roman,serif" font-size="14.00">1</text>
			<text text-anchor="middle" x="448.5" y="-174.3" font-family="Times New Roman,serif" font-size="14.00">2</text>
			<text text-anchor="middle" x="448.5" y="-157.3" font-family="Times New Roman,serif" font-size="14.00">2</text>
			<text text-anchor="middle" x="448.5" y="-140.3" font-family="Times New Roman,serif" font-size="14.00">2</text>
			<text text-anchor="middle" x="418.5" y="-123.3" font-family="Times New Roman,serif" font-size="14.00">sum: 7</text>
			<polyline fill="none" stroke="black" points="369.5,-220.5 467.5,-220.5 "></polyline>
			<polyline fill="none" stroke="black" points="369.5,-203.5 399.5,-203.5 "></polyline>
			<polyline fill="none" stroke="black" points="369.5,-186.5 399.5,-186.5 "></polyline>
			<polyline fill="none" stroke="black" points="369.5,-169.5 399.5,-169.5 "></polyline>
			<polyline fill="none" stroke="black" points="369.5,-152.5 399.5,-152.5 "></polyline>
			<polyline fill="none" stroke="black" points="399.5,-135.5 399.5,-220.5 "></polyline>
			<polyline fill="none" stroke="black" points="399.5,-203.5 429.5,-203.5 "></polyline>
			<polyline fill="none" stroke="black" points="399.5,-186.5 429.5,-186.5 "></polyline>
			<polyline fill="none" stroke="black" points="399.5,-169.5 429.5,-169.5 "></polyline>
			<polyline fill="none" stroke="black" points="399.5,-152.5 429.5,-152.5 "></polyline>
			<polyline fill="none" stroke="black" points="429.5,-135.5 429.5,-220.5 "></polyline>
			<polyline fill="none" stroke="black" points="429.5,-203.5 467.5,-203.5 "></polyline>
			<polyline fill="none" stroke="black" points="429.5,-186.5 467.5,-186.5 "></polyline>
			<polyline fill="none" stroke="black" points="429.5,-169.5 467.5,-169.5 "></polyline>
			<polyline fill="none" stroke="black" points="429.5,-152.5 467.5,-152.5 "></polyline>
			<polyline fill="none" stroke="black" points="369.5,-135.5 467.5,-135.5 "></polyline>
		</g>
		<g id="edge15" class="edge">
			<title>bag 12-&gt;sol12</title>
			<path fill="none" stroke="black" d="M406.555,-82.1389C407.593,-90.3837 408.714,-99.284 409.838,-108.214"></path>
			<polygon fill="black" stroke="black" points="406.383,-108.792 411.105,-118.276 413.328,-107.917 406.383,-108.792"></polygon>
		</g>
		<g id="node13" class="node">
			<title>bag 13</title>
			<path fill="white" stroke="black" d="M610,-82C610,-82 515,-82 515,-82 509,-82 503,-76 503,-70 503,-70 503,-12 503,-12 503,-6 509,-0 515,-0 515,-0 610,-0 610,-0 616,-0 622,-6 622,-12 622,-12 622,-70 622,-70 622,-76 616,-82 610,-82"></path>
			<polygon fill="white" stroke="none" points="511.5,-62 511.5,-81 614.5,-81 614.5,-62 511.5,-62"></polygon>
			<text text-anchor="start" x="544" y="-67.8" font-family="Times New Roman,serif" font-size="14.00">bag 13</text>
			<text text-anchor="start" x="541" y="-44.8" font-family="Times New Roman,serif" font-size="14.00">[12, 13]</text>
			<text text-anchor="start" x="521.5" y="-25.8" font-family="Times New Roman,serif" font-size="14.00">dtime=0.0033s</text>
			<text text-anchor="start" x="513.5" y="-6.8" font-family="Times New Roman,serif" font-size="14.00">05/21/20 16:13:14</text>
		</g>
		<g id="edge12" class="edge">
			<title>bag 13-&gt;bag 10</title>
			<path fill="none" stroke="black" d="M557.445,-82.1389C555.68,-96.1583 553.676,-112.073 551.82,-126.808"></path>
			<polygon fill="black" stroke="black" points="548.341,-126.424 550.564,-136.783 555.286,-127.298 548.341,-126.424"></polygon>
		</g>
		<g id="node17" class="node">
			<title>sol13</title>
			<path fill="white" stroke="black" d="M635,-135.5C635,-135.5 686,-135.5 686,-135.5 692,-135.5 698,-141.5 698,-147.5 698,-147.5 698,-208.5 698,-208.5 698,-214.5 692,-220.5 686,-220.5 686,-220.5 635,-220.5 635,-220.5 629,-220.5 623,-214.5 623,-208.5 623,-208.5 623,-147.5 623,-147.5 623,-141.5 629,-135.5 635,-135.5"></path>
			<text text-anchor="middle" x="660.5" y="-208.3" font-family="Times New Roman,serif" font-size="14.00">sol bag 13</text>
			<text text-anchor="middle" x="641.5" y="-191.3" font-family="Times New Roman,serif" font-size="14.00">v12</text>
			<text text-anchor="middle" x="641.5" y="-174.3" font-family="Times New Roman,serif" font-size="14.00">0</text>
			<text text-anchor="middle" x="641.5" y="-157.3" font-family="Times New Roman,serif" font-size="14.00">1</text>
			<text text-anchor="middle" x="679" y="-191.3" font-family="Times New Roman,serif" font-size="14.00">size</text>
			<text text-anchor="middle" x="679" y="-174.3" font-family="Times New Roman,serif" font-size="14.00">1</text>
			<text text-anchor="middle" x="679" y="-157.3" font-family="Times New Roman,serif" font-size="14.00">1</text>
			<text text-anchor="middle" x="660.5" y="-140.3" font-family="Times New Roman,serif" font-size="14.00">sum: 2</text>
			<polyline fill="none" stroke="black" points="623,-203.5 698,-203.5 "></polyline>
			<polyline fill="none" stroke="black" points="623,-186.5 660,-186.5 "></polyline>
			<polyline fill="none" stroke="black" points="623,-169.5 660,-169.5 "></polyline>
			<polyline fill="none" stroke="black" points="660,-152.5 660,-203.5 "></polyline>
			<polyline fill="none" stroke="black" points="660,-186.5 698,-186.5 "></polyline>
			<polyline fill="none" stroke="black" points="660,-169.5 698,-169.5 "></polyline>
			<polyline fill="none" stroke="black" points="623,-152.5 698,-152.5 "></polyline>
		</g>
		<g id="edge16" class="edge">
			<title>bag 13-&gt;sol13</title>
			<path fill="none" stroke="black" d="M591.638,-82.1389C601.921,-96.304 613.608,-112.404 624.398,-127.267"></path>
			<polygon fill="black" stroke="black" points="621.578,-129.34 630.285,-135.377 627.242,-125.228 621.578,-129.34"></polygon>
		</g>
	</g>
	<g id="graph0" class="graph" transform="scale(1 1) rotate(0) translate(190.981 351.062) translate(746.000000 0.000000)">
		<title>graph</title>
		<polygon fill="white" stroke="none" points="-190.981,267.383 -190.981,-351.062 220.887,-351.062 220.887,267.383 -190.981,267.383"></polygon>
		<g id="node1" class="node">
			<title>9</title>
			<ellipse fill="none" stroke="black" stroke-width="2.2" cx="51.3008" cy="180.888" rx="27" ry="18"></ellipse>
			<text text-anchor="middle" x="51.3008" y="184.588" font-family="Times New Roman,serif" font-size="14.00">9</text>
		</g>
		<g id="node2" class="node">
			<title>8</title>
			<ellipse fill="none" stroke="black" stroke-width="2.2" cx="73.1953" cy="102.375" rx="27" ry="18"></ellipse>
			<text text-anchor="middle" x="73.1953" y="106.075" font-family="Times New Roman,serif" font-size="14.00">8</text>
		</g>
		<g id="edge1" class="edge">
			<title>9--8</title>
			<path fill="none" stroke="black" d="M56.269,163.072C59.8522,150.223 64.6681,132.953 68.2467,120.12"></path>
		</g>
		<g id="node7" class="node">
			<title>11</title>
			<ellipse fill="none" stroke="black" stroke-width="2.2" cx="-26.3483" cy="174.835" rx="27" ry="18"></ellipse>
			<text text-anchor="middle" x="-26.3483" y="178.535" font-family="Times New Roman,serif" font-size="14.00">11</text>
		</g>
		<g id="edge7" class="edge">
			<title>9--11</title>
			<path fill="none" stroke="black" d="M24.1429,178.771C16.5332,178.178 8.26432,177.533 0.663127,176.941"></path>
		</g>
		<g id="node12" class="node">
			<title>7</title>
			<ellipse fill="none" stroke="black" stroke-width="2.2" cx="13.5764" cy="43.0963" rx="27" ry="18"></ellipse>
			<text text-anchor="middle" x="13.5764" y="46.7963" font-family="Times New Roman,serif" font-size="14.00">7</text>
		</g>
		<g id="edge16" class="edge">
			<title>8--7</title>
			<path fill="none" stroke="black" d="M58.1509,87.4164C49.1821,78.4988 37.8277,67.2092 28.8234,58.2562"></path>
		</g>
		<g id="node3" class="node">
			<title>2</title>
			<ellipse fill="none" stroke="black" stroke-width="2.2" cx="-45.1714" cy="-257.398" rx="27" ry="18"></ellipse>
			<text text-anchor="middle" x="-45.1714" y="-253.698" font-family="Times New Roman,serif" font-size="14.00">2</text>
		</g>
		<g id="node4" class="node">
			<title>1</title>
			<ellipse fill="none" stroke="black" stroke-width="2.2" cx="-60.984" cy="-329.062" rx="27" ry="18"></ellipse>
			<text text-anchor="middle" x="-60.984" y="-325.362" font-family="Times New Roman,serif" font-size="14.00">1</text>
		</g>
		<g id="edge2" class="edge">
			<title>2--1</title>
			<path fill="none" stroke="black" d="M-49.1616,-275.482C-51.577,-286.429 -54.6447,-300.332 -57.0499,-311.232"></path>
		</g>
		<g id="node5" class="node">
			<title>15</title>
			<ellipse fill="none" stroke="black" stroke-width="2.2" cx="114.339" cy="-62.5381" rx="27" ry="18"></ellipse>
			<text text-anchor="middle" x="114.339" y="-58.8381" font-family="Times New Roman,serif" font-size="14.00">15</text>
		</g>
		<g id="node6" class="node">
			<title>16</title>
			<ellipse fill="none" stroke="black" stroke-width="2.2" cx="189.887" cy="-83.9685" rx="27" ry="18"></ellipse>
			<text text-anchor="middle" x="189.887" y="-80.2685" font-family="Times New Roman,serif" font-size="14.00">16</text>
		</g>
		<g id="edge3" class="edge">
			<title>15--16</title>
			<path fill="none" stroke="black" d="M139.496,-69.6741C147.651,-71.9876 156.693,-74.5525 164.841,-76.8637"></path>
		</g>
		<g id="node8" class="node">
			<title>14</title>
			<ellipse fill="none" stroke="black" stroke-width="2.2" cx="-47.4629" cy="98.5862" rx="27" ry="18"></ellipse>
			<text text-anchor="middle" x="-47.4629" y="102.286" font-family="Times New Roman,serif" font-size="14.00">14</text>
		</g>
		<g id="edge4" class="edge">
			<title>11--14</title>
			<path fill="none" stroke="black" d="M-31.3522,156.765C-34.718,144.61 -39.1367,128.654 -42.495,116.526"></path>
		</g>
		<g id="node9" class="node">
			<title>13</title>
			<ellipse fill="none" stroke="black" stroke-width="2.2" cx="-159.981" cy="198.386" rx="27" ry="18"></ellipse>
			<text text-anchor="middle" x="-159.981" y="202.086" font-family="Times New Roman,serif" font-size="14.00">13</text>
		</g>
		<g id="node10" class="node">
			<title>12</title>
			<ellipse fill="none" stroke="black" stroke-width="2.2" cx="-96.1423" cy="156.791" rx="27" ry="18"></ellipse>
			<text text-anchor="middle" x="-96.1423" y="160.491" font-family="Times New Roman,serif" font-size="14.00">12</text>
		</g>
		<g id="edge5" class="edge">
			<title>13--12</title>
			<path fill="none" stroke="black" d="M-140.48,185.68C-132.56,180.52 -123.431,174.572 -115.523,169.419"></path>
		</g>
		<g id="edge17" class="edge">
			<title>12--11</title>
			<path fill="none" stroke="black" d="M-70.9451,163.305C-64.6977,164.92 -57.9998,166.652 -51.743,168.269"></path>
		</g>
		<g id="edge15" class="edge">
			<title>12--14</title>
			<path fill="none" stroke="black" d="M-82.8404,140.886C-75.9717,132.673 -67.6151,122.682 -60.7487,114.472"></path>
		</g>
		<g id="node11" class="node">
			<title>6</title>
			<ellipse fill="none" stroke="black" stroke-width="2.2" cx="32.6057" cy="-39.6041" rx="27" ry="18"></ellipse>
			<text text-anchor="middle" x="32.6057" y="-35.9041" font-family="Times New Roman,serif" font-size="14.00">6</text>
		</g>
		<g id="edge9" class="edge">
			<title>6--15</title>
			<path fill="none" stroke="black" d="M57.5725,-46.6097C67.6189,-49.4287 79.1841,-52.6738 89.2435,-55.4964"></path>
		</g>
		<g id="edge6" class="edge">
			<title>6--7</title>
			<path fill="none" stroke="black" d="M28.4766,-21.6594C25.2848,-7.78772 20.8873,11.3238 17.6975,25.1866"></path>
		</g>
		<g id="node14" class="node">
			<title>4</title>
			<ellipse fill="none" stroke="black" stroke-width="2.2" cx="-15.5221" cy="-107.342" rx="27" ry="18"></ellipse>
			<text text-anchor="middle" x="-15.5221" y="-103.642" font-family="Times New Roman,serif" font-size="14.00">4</text>
		</g>
		<g id="edge11" class="edge">
			<title>6--4</title>
			<path fill="none" stroke="black" d="M20.9553,-56.0017C13.4997,-66.4952 3.85482,-80.07 -3.64467,-90.6253"></path>
		</g>
		<g id="edge14" class="edge">
			<title>7--14</title>
			<path fill="none" stroke="black" d="M-2.46093,57.6756C-11.3621,65.7675 -22.4029,75.8045 -31.3207,83.9116"></path>
		</g>
		<g id="node13" class="node">
			<title>3</title>
			<ellipse fill="none" stroke="black" stroke-width="2.2" cx="-32.438" cy="-182.692" rx="27" ry="18"></ellipse>
			<text text-anchor="middle" x="-32.438" y="-178.992" font-family="Times New Roman,serif" font-size="14.00">3</text>
		</g>
		<g id="edge12" class="edge">
			<title>3--2</title>
			<path fill="none" stroke="black" d="M-35.5204,-200.777C-37.5224,-212.522 -40.121,-227.768 -42.1174,-239.48"></path>
		</g>
		<g id="edge8" class="edge">
			<title>3--4</title>
			<path fill="none" stroke="black" d="M-28.4292,-164.836C-25.7522,-152.911 -22.2439,-137.284 -19.5608,-125.332"></path>
		</g>
		<g id="node15" class="node">
			<title>10</title>
			<ellipse fill="none" stroke="black" stroke-width="2.2" cx="94.4463" cy="245.383" rx="27" ry="18"></ellipse>
			<text text-anchor="middle" x="94.4463" y="249.083" font-family="Times New Roman,serif" font-size="14.00">10</text>
		</g>
		<g id="edge10" class="edge">
			<title>10--9</title>
			<path fill="none" stroke="black" d="M83.3353,228.774C76.9434,219.219 68.9348,207.248 62.5242,197.665"></path>
		</g>
		<g id="node16" class="node">
			<title>5</title>
			<ellipse fill="none" stroke="black" stroke-width="2.2" cx="-85.3008" cy="-137.734" rx="27" ry="18"></ellipse>
			<text text-anchor="middle" x="-85.3008" y="-134.034" font-family="Times New Roman,serif" font-size="14.00">5</text>
		</g>
		<g id="edge18" class="edge">
			<title>5--3</title>
			<path fill="none" stroke="black" d="M-68.5747,-151.959C-62.404,-157.207 -55.4138,-163.152 -49.2368,-168.406"></path>
		</g>
		<g id="edge13" class="edge">
			<title>5--4</title>
			<path fill="none" stroke="black" d="M-62.4527,-127.783C-54.6623,-124.39 -45.9589,-120.599 -38.1833,-117.213"></path>
		</g>
	</g>
</svg>