<?xml version="1.0" encoding="UTF-8" standalone="no"?>
<!DOCTYPE svg PUBLIC "-//W3C//DTD SVG 1.1//EN"
 "http://www.w3.org/Graphics/SVG/1.1/DTD/svg11.dtd">
<!-- Generated by graphviz version 2.38.0 (20140413.2041)
 -->
<!-- Title: graph Pages: 1 -->
<svg width="412pt" height="618pt"
 viewBox="0.00 0.00 411.87 618.45" xmlns="http://www.w3.org/2000/svg" xmlns:xlink="http://www.w3.org/1999/xlink">
<g id="graph0" class="graph" transform="scale(1 1) rotate(0) translate(190.981 351.062)">
<title>graph</title>
<polygon fill="white" stroke="none" points="-190.981,267.383 -190.981,-351.062 220.887,-351.062 220.887,267.383 -190.981,267.383"/>
<!-- 9 -->
<g id="node1" class="node"><title>9</title>
<ellipse fill="yellow" stroke="black" stroke-width="2.2" cx="51.3008" cy="180.888" rx="27" ry="18"/>
<text text-anchor="middle" x="51.3008" y="184.588" font-family="Times New Roman,serif" font-size="14.00">9</text>
</g>
<!-- 8 -->
<g id="node2" class="node"><title>8</title>
<ellipse fill="yellow" stroke="black" stroke-width="2.2" cx="73.1953" cy="102.375" rx="27" ry="18"/>
<text text-anchor="middle" x="73.1953" y="106.075" font-family="Times New Roman,serif" font-size="14.00">8</text>
</g>
<!-- 9&#45;&#45;8 -->
<g id="edge1" class="edge"><title>9&#45;&#45;8</title>
<path fill="none" stroke="black" d="M56.269,163.072C59.8522,150.223 64.6681,132.953 68.2467,120.12"/>
</g>
<!-- 11 -->
<g id="node7" class="node"><title>11</title>
<ellipse fill="green" stroke="green" stroke-width="2.2" stroke-dasharray="1,5" cx="-26.3483" cy="174.835" rx="27" ry="18"/>
<text text-anchor="middle" x="-26.3483" y="178.535" font-family="Times New Roman,serif" font-size="14.00">11</text>
</g>
<!-- 9&#45;&#45;11 -->
<g id="edge7" class="edge"><title>9&#45;&#45;11</title>
<path fill="none" stroke="black" d="M24.1429,178.771C16.5332,178.178 8.26432,177.533 0.663127,176.941"/>
</g>
<!-- 7 -->
<g id="node12" class="node"><title>7</title>
<ellipse fill="yellow" stroke="black" stroke-width="2.2" cx="13.5764" cy="43.0963" rx="27" ry="18"/>
<text text-anchor="middle" x="13.5764" y="46.7963" font-family="Times New Roman,serif" font-size="14.00">7</text>
</g>
<!-- 8&#45;&#45;7 -->
<g id="edge16" class="edge"><title>8&#45;&#45;7</title>
<path fill="none" stroke="black" d="M58.1509,87.4164C49.1821,78.4988 37.8277,67.2092 28.8234,58.2562"/>
</g>
<!-- 2 -->
<g id="node3" class="node"><title>2</title>
<ellipse fill="none" stroke="black" stroke-width="2.2" cx="-45.1714" cy="-257.398" rx="27" ry="18"/>
<text text-anchor="middle" x="-45.1714" y="-253.698" font-family="Times New Roman,serif" font-size="14.00">2</text>
</g>
<!-- 1 -->
<g id="node4" class="node"><title>1</title>
<ellipse fill="none" stroke="black" stroke-width="2.2" cx="-60.984" cy="-329.062" rx="27" ry="18"/>
<text text-anchor="middle" x="-60.984" y="-325.362" font-family="Times New Roman,serif" font-size="14.00">1</text>
</g>
<!-- 2&#45;&#45;1 -->
<g id="edge2" class="edge"><title>2&#45;&#45;1</title>
<path fill="none" stroke="black" d="M-49.1616,-275.482C-51.577,-286.429 -54.6447,-300.332 -57.0499,-311.232"/>
</g>
<!-- 15 -->
<g id="node5" class="node"><title>15</title>
<ellipse fill="none" stroke="black" stroke-width="2.2" cx="114.339" cy="-62.5381" rx="27" ry="18"/>
<text text-anchor="middle" x="114.339" y="-58.8381" font-family="Times New Roman,serif" font-size="14.00">15</text>
</g>
<!-- 16 -->
<g id="node6" class="node"><title>16</title>
<ellipse fill="none" stroke="black" stroke-width="2.2" cx="189.887" cy="-83.9685" rx="27" ry="18"/>
<text text-anchor="middle" x="189.887" y="-80.2685" font-family="Times New Roman,serif" font-size="14.00">16</text>
</g>
<!-- 15&#45;&#45;16 -->
<g id="edge3" class="edge"><title>15&#45;&#45;16</title>
<path fill="none" stroke="black" d="M139.496,-69.6741C147.651,-71.9876 156.693,-74.5525 164.841,-76.8637"/>
</g>
<!-- 14 -->
<g id="node8" class="node"><title>14</title>
<ellipse fill="green" stroke="green" stroke-width="2.2" stroke-dasharray="1,5" cx="-47.4629" cy="98.5862" rx="27" ry="18"/>
<text text-anchor="middle" x="-47.4629" y="102.286" font-family="Times New Roman,serif" font-size="14.00">14</text>
</g>
<!-- 11&#45;&#45;14 -->
<g id="edge4" class="edge"><title>11&#45;&#45;14</title>
<path fill="none" stroke="black" d="M-31.3522,156.765C-34.718,144.61 -39.1367,128.654 -42.495,116.526"/>
</g>
<!-- 13 -->
<g id="node9" class="node"><title>13</title>
<ellipse fill="none" stroke="black" stroke-width="2.2" cx="-159.981" cy="198.386" rx="27" ry="18"/>
<text text-anchor="middle" x="-159.981" y="202.086" font-family="Times New Roman,serif" font-size="14.00">13</text>
</g>
<!-- 12 -->
<g id="node10" class="node"><title>12</title>
<ellipse fill="none" stroke="black" stroke-width="2.2" cx="-96.1423" cy="156.791" rx="27" ry="18"/>
<text text-anchor="middle" x="-96.1423" y="160.491" font-family="Times New Roman,serif" font-size="14.00">12</text>
</g>
<!-- 13&#45;&#45;12 -->
<g id="edge5" class="edge"><title>13&#45;&#45;12</title>
<path fill="none" stroke="black" d="M-140.48,185.68C-132.56,180.52 -123.431,174.572 -115.523,169.419"/>
</g>
<!-- 12&#45;&#45;11 -->
<g id="edge17" class="edge"><title>12&#45;&#45;11</title>
<path fill="none" stroke="black" d="M-70.9451,163.305C-64.6977,164.92 -57.9998,166.652 -51.743,168.269"/>
</g>
<!-- 12&#45;&#45;14 -->
<g id="edge15" class="edge"><title>12&#45;&#45;14</title>
<path fill="none" stroke="black" d="M-82.8404,140.886C-75.9717,132.673 -67.6151,122.682 -60.7487,114.472"/>
</g>
<!-- 6 -->
<g id="node11" class="node"><title>6</title>
<ellipse fill="green" stroke="green" stroke-width="2.2" stroke-dasharray="1,5" cx="32.6057" cy="-39.6041" rx="27" ry="18"/>
<text text-anchor="middle" x="32.6057" y="-35.9041" font-family="Times New Roman,serif" font-size="14.00">6</text>
</g>
<!-- 6&#45;&#45;15 -->
<g id="edge9" class="edge"><title>6&#45;&#45;15</title>
<path fill="none" stroke="black" d="M57.5725,-46.6097C67.6189,-49.4287 79.1841,-52.6738 89.2435,-55.4964"/>
</g>
<!-- 6&#45;&#45;7 -->
<g id="edge6" class="edge"><title>6&#45;&#45;7</title>
<path fill="none" stroke="black" d="M28.4766,-21.6594C25.2848,-7.78772 20.8873,11.3238 17.6975,25.1866"/>
</g>
<!-- 4 -->
<g id="node14" class="node"><title>4</title>
<ellipse fill="none" stroke="black" stroke-width="2.2" cx="-15.5221" cy="-107.342" rx="27" ry="18"/>
<text text-anchor="middle" x="-15.5221" y="-103.642" font-family="Times New Roman,serif" font-size="14.00">4</text>
</g>
<!-- 6&#45;&#45;4 -->
<g id="edge11" class="edge"><title>6&#45;&#45;4</title>
<path fill="none" stroke="black" d="M20.9553,-56.0017C13.4997,-66.4952 3.85482,-80.07 -3.64467,-90.6253"/>
</g>
<!-- 7&#45;&#45;14 -->
<g id="edge14" class="edge"><title>7&#45;&#45;14</title>
<path fill="none" stroke="black" d="M-2.46093,57.6756C-11.3621,65.7675 -22.4029,75.8045 -31.3207,83.9116"/>
</g>
<!-- 3 -->
<g id="node13" class="node"><title>3</title>
<ellipse fill="none" stroke="black" stroke-width="2.2" cx="-32.438" cy="-182.692" rx="27" ry="18"/>
<text text-anchor="middle" x="-32.438" y="-178.992" font-family="Times New Roman,serif" font-size="14.00">3</text>
</g>
<!-- 3&#45;&#45;2 -->
<g id="edge12" class="edge"><title>3&#45;&#45;2</title>
<path fill="none" stroke="black" d="M-35.5204,-200.777C-37.5224,-212.522 -40.121,-227.768 -42.1174,-239.48"/>
</g>
<!-- 3&#45;&#45;4 -->
<g id="edge8" class="edge"><title>3&#45;&#45;4</title>
<path fill="none" stroke="black" d="M-28.4292,-164.836C-25.7522,-152.911 -22.2439,-137.284 -19.5608,-125.332"/>
</g>
<!-- 10 -->
<g id="node15" class="node"><title>10</title>
<ellipse fill="green" stroke="green" stroke-width="2.2" stroke-dasharray="1,5" cx="94.4463" cy="245.383" rx="27" ry="18"/>
<text text-anchor="middle" x="94.4463" y="249.083" font-family="Times New Roman,serif" font-size="14.00">10</text>
</g>
<!-- 10&#45;&#45;9 -->
<g id="edge10" class="edge"><title>10&#45;&#45;9</title>
<path fill="none" stroke="black" d="M83.3353,228.774C76.9434,219.219 68.9348,207.248 62.5242,197.665"/>
</g>
<!-- 5 -->
<g id="node16" class="node"><title>5</title>
<ellipse fill="none" stroke="black" stroke-width="2.2" cx="-85.3008" cy="-137.734" rx="27" ry="18"/>
<text text-anchor="middle" x="-85.3008" y="-134.034" font-family="Times New Roman,serif" font-size="14.00">5</text>
</g>
<!-- 5&#45;&#45;3 -->
<g id="edge18" class="edge"><title>5&#45;&#45;3</title>
<path fill="none" stroke="black" d="M-68.5747,-151.959C-62.404,-157.207 -55.4138,-163.152 -49.2368,-168.406"/>
</g>
<!-- 5&#45;&#45;4 -->
<g id="edge13" class="edge"><title>5&#45;&#45;4</title>
<path fill="none" stroke="black" d="M-62.4527,-127.783C-54.6623,-124.39 -45.9589,-120.599 -38.1833,-117.213"/>
</g>
</g>
</svg>
