<?xml version="1.0" encoding="UTF-8" standalone="no"?>
<!DOCTYPE svg PUBLIC "-//W3C//DTD SVG 1.1//EN"
 "http://www.w3.org/Graphics/SVG/1.1/DTD/svg11.dtd">
<!-- Generated by graphviz version 2.38.0 (20140413.2041)
 -->
<!-- Title: Tree&#45;Decomposition Pages: 1 -->
<svg width="706pt" height="1029pt"
 viewBox="0.00 0.00 706.00 1029.00" xmlns="http://www.w3.org/2000/svg" xmlns:xlink="http://www.w3.org/1999/xlink">
<g id="graph0" class="graph" transform="scale(1 1) rotate(0) translate(4 1025)">
<title>Tree&#45;Decomposition</title>
<polygon fill="white" stroke="none" points="-4,4 -4,-1025 702,-1025 702,4 -4,4"/>
<!-- bag 1 -->
<g id="node1" class="node"><title>bag 1</title>
<path fill="white" stroke="black" d="M283,-880C283,-880 188,-880 188,-880 182,-880 176,-874 176,-868 176,-868 176,-810 176,-810 176,-804 182,-798 188,-798 188,-798 283,-798 283,-798 289,-798 295,-804 295,-810 295,-810 295,-868 295,-868 295,-874 289,-880 283,-880"/>
<polygon fill="white" stroke="none" points="184.5,-860 184.5,-879 287.5,-879 287.5,-860 184.5,-860"/>
<text text-anchor="start" x="220.5" y="-865.8" font-family="Times New Roman,serif" font-size="14.00">bag 1</text>
<text text-anchor="start" x="220.5" y="-842.8" font-family="Times New Roman,serif" font-size="14.00">[2, 3]</text>
<text text-anchor="start" x="194.5" y="-823.8" font-family="Times New Roman,serif" font-size="14.00">dtime=0.0010s</text>
<text text-anchor="start" x="186.5" y="-804.8" font-family="Times New Roman,serif" font-size="14.00">05/21/20 16:13:14</text>
</g>
<!-- sol1 -->
<!-- bag 1&#45;&gt;sol1 -->
<!-- bag 2 -->
<g id="node2" class="node"><title>bag 2</title>
<path fill="white" stroke="black" d="M171,-758C171,-758 76,-758 76,-758 70,-758 64,-752 64,-746 64,-746 64,-688 64,-688 64,-682 70,-676 76,-676 76,-676 171,-676 171,-676 177,-676 183,-682 183,-688 183,-688 183,-746 183,-746 183,-752 177,-758 171,-758"/>
<polygon fill="white" stroke="none" points="72.5,-738 72.5,-757 175.5,-757 175.5,-738 72.5,-738"/>
<text text-anchor="start" x="108.5" y="-743.8" font-family="Times New Roman,serif" font-size="14.00">bag 2</text>
<text text-anchor="start" x="101.5" y="-720.8" font-family="Times New Roman,serif" font-size="14.00">[3, 4, 5]</text>
<text text-anchor="start" x="82.5" y="-701.8" font-family="Times New Roman,serif" font-size="14.00">dtime=0.0010s</text>
<text text-anchor="start" x="74.5" y="-682.8" font-family="Times New Roman,serif" font-size="14.00">05/21/20 16:13:14</text>
</g>
<!-- bag 2&#45;&gt;bag 1 -->
<g id="edge1" class="edge"><title>bag 2&#45;&gt;bag 1</title>
<path fill="none" stroke="black" d="M161.106,-758.292C170.617,-768.483 180.925,-779.527 190.751,-790.055"/>
<polygon fill="black" stroke="black" points="188.421,-792.688 197.803,-797.61 193.538,-787.911 188.421,-792.688"/>
</g>
<!-- sol2 -->
<!-- bag 2&#45;&gt;sol2 -->
<!-- bag 3 -->
<g id="node3" class="node"><title>bag 3</title>
<path fill="white" stroke="black" d="M395,-758C395,-758 300,-758 300,-758 294,-758 288,-752 288,-746 288,-746 288,-688 288,-688 288,-682 294,-676 300,-676 300,-676 395,-676 395,-676 401,-676 407,-682 407,-688 407,-688 407,-746 407,-746 407,-752 401,-758 395,-758"/>
<polygon fill="white" stroke="none" points="296.5,-738 296.5,-757 399.5,-757 399.5,-738 296.5,-738"/>
<text text-anchor="start" x="332.5" y="-743.8" font-family="Times New Roman,serif" font-size="14.00">bag 3</text>
<text text-anchor="start" x="332.5" y="-720.8" font-family="Times New Roman,serif" font-size="14.00">[1, 2]</text>
<text text-anchor="start" x="306.5" y="-701.8" font-family="Times New Roman,serif" font-size="14.00">dtime=0.0013s</text>
<text text-anchor="start" x="298.5" y="-682.8" font-family="Times New Roman,serif" font-size="14.00">05/21/20 16:13:14</text>
</g>
<!-- bag 3&#45;&gt;bag 1 -->
<g id="edge2" class="edge"><title>bag 3&#45;&gt;bag 1</title>
<path fill="none" stroke="black" d="M309.894,-758.292C300.383,-768.483 290.075,-779.527 280.249,-790.055"/>
<polygon fill="black" stroke="black" points="277.462,-787.911 273.197,-797.61 282.579,-792.688 277.462,-787.911"/>
</g>
<!-- sol3 -->
<!-- bag 3&#45;&gt;sol3 -->
<!-- bag 4 -->
<g id="node4" class="node"><title>bag 4</title>
<path fill="white" stroke="black" d="M227,-636C227,-636 132,-636 132,-636 126,-636 120,-630 120,-624 120,-624 120,-566 120,-566 120,-560 126,-554 132,-554 132,-554 227,-554 227,-554 233,-554 239,-560 239,-566 239,-566 239,-624 239,-624 239,-630 233,-636 227,-636"/>
<polygon fill="white" stroke="none" points="128.5,-616 128.5,-635 231.5,-635 231.5,-616 128.5,-616"/>
<text text-anchor="start" x="164.5" y="-621.8" font-family="Times New Roman,serif" font-size="14.00">bag 4</text>
<text text-anchor="start" x="164.5" y="-598.8" font-family="Times New Roman,serif" font-size="14.00">[4, 6]</text>
<text text-anchor="start" x="138.5" y="-579.8" font-family="Times New Roman,serif" font-size="14.00">dtime=0.0012s</text>
<text text-anchor="start" x="130.5" y="-560.8" font-family="Times New Roman,serif" font-size="14.00">05/21/20 16:13:14</text>
</g>
<!-- bag 4&#45;&gt;bag 2 -->
<g id="edge3" class="edge"><title>bag 4&#45;&gt;bag 2</title>
<path fill="none" stroke="black" d="M160.697,-636.292C156.172,-645.988 151.287,-656.457 146.591,-666.518"/>
<polygon fill="black" stroke="black" points="143.406,-665.068 142.349,-675.61 149.749,-668.028 143.406,-665.068"/>
</g>
<!-- sol4 -->
<!-- bag 4&#45;&gt;sol4 -->
<!-- bag 5 -->
<g id="node5" class="node"><title>bag 5</title>
<path fill="yellow" stroke="black" stroke-width="2.5" d="M283,-514C283,-514 188,-514 188,-514 182,-514 176,-508 176,-502 176,-502 176,-444 176,-444 176,-438 182,-432 188,-432 188,-432 283,-432 283,-432 289,-432 295,-438 295,-444 295,-444 295,-502 295,-502 295,-508 289,-514 283,-514"/>
<polygon fill="white" stroke="none" points="184.5,-494 184.5,-513 287.5,-513 287.5,-494 184.5,-494"/>
<text text-anchor="start" x="220.5" y="-499.8" font-family="Times New Roman,serif" font-size="14.00">bag 5</text>
<text text-anchor="start" x="220.5" y="-476.8" font-family="Times New Roman,serif" font-size="14.00">[6, 7]</text>
<text text-anchor="start" x="194.5" y="-457.8" font-family="Times New Roman,serif" font-size="14.00">dtime=0.0012s</text>
<text text-anchor="start" x="186.5" y="-438.8" font-family="Times New Roman,serif" font-size="14.00">05/21/20 16:13:14</text>
</g>
<!-- bag 5&#45;&gt;bag 4 -->
<g id="edge4" class="edge"><title>bag 5&#45;&gt;bag 4</title>
<path fill="none" stroke="black" d="M216.697,-514.292C212.172,-523.988 207.287,-534.457 202.591,-544.518"/>
<polygon fill="black" stroke="black" points="199.406,-543.068 198.349,-553.61 205.749,-546.028 199.406,-543.068"/>
</g>
<!-- sol5 -->
<!-- bag 5&#45;&gt;sol5 -->
<!-- bag 6 -->
<g id="node6" class="node"><title>bag 6</title>
<path fill="white" stroke="black" d="M107,-375C107,-375 12,-375 12,-375 6,-375 -7.10543e-015,-369 -7.10543e-015,-363 -7.10543e-015,-363 -7.10543e-015,-305 -7.10543e-015,-305 -7.10543e-015,-299 6,-293 12,-293 12,-293 107,-293 107,-293 113,-293 119,-299 119,-305 119,-305 119,-363 119,-363 119,-369 113,-375 107,-375"/>
<polygon fill="white" stroke="none" points="8.5,-355 8.5,-374 111.5,-374 111.5,-355 8.5,-355"/>
<text text-anchor="start" x="44.5" y="-360.8" font-family="Times New Roman,serif" font-size="14.00">bag 6</text>
<text text-anchor="start" x="41.5" y="-337.8" font-family="Times New Roman,serif" font-size="14.00">[6, 15]</text>
<text text-anchor="start" x="18.5" y="-318.8" font-family="Times New Roman,serif" font-size="14.00">dtime=0.0019s</text>
<text text-anchor="start" x="10.5" y="-299.8" font-family="Times New Roman,serif" font-size="14.00">05/21/20 16:13:14</text>
</g>
<!-- bag 6&#45;&gt;bag 5 -->
<g id="edge5" class="edge"><title>bag 6&#45;&gt;bag 5</title>
<path fill="none" stroke="black" d="M104.75,-375.24C112.255,-381.63 120.027,-388.079 127.5,-394 140.911,-404.626 155.59,-415.625 169.685,-425.893"/>
<polygon fill="black" stroke="black" points="167.75,-428.814 177.902,-431.847 171.857,-423.145 167.75,-428.814"/>
</g>
<!-- sol6 -->
<g id="node18" class="node"><title>sol6</title>
<path fill="white" stroke="black" d="M37.5,-430.5C37.5,-430.5 81.5,-430.5 81.5,-430.5 87.5,-430.5 93.5,-436.5 93.5,-442.5 93.5,-442.5 93.5,-503.5 93.5,-503.5 93.5,-509.5 87.5,-515.5 81.5,-515.5 81.5,-515.5 37.5,-515.5 37.5,-515.5 31.5,-515.5 25.5,-509.5 25.5,-503.5 25.5,-503.5 25.5,-442.5 25.5,-442.5 25.5,-436.5 31.5,-430.5 37.5,-430.5"/>
<text text-anchor="middle" x="59.5" y="-503.3" font-family="Times New Roman,serif" font-size="14.00">sol bag 6</text>
<polyline fill="none" stroke="black" points="25.5,-498.5 93.5,-498.5 "/>
<text text-anchor="middle" x="40.5" y="-486.3" font-family="Times New Roman,serif" font-size="14.00">v6</text>
<polyline fill="none" stroke="black" points="25.5,-481.5 55.5,-481.5 "/>
<text text-anchor="middle" x="40.5" y="-469.3" font-family="Times New Roman,serif" font-size="14.00">0</text>
<polyline fill="none" stroke="black" points="25.5,-464.5 55.5,-464.5 "/>
<text text-anchor="middle" x="40.5" y="-452.3" font-family="Times New Roman,serif" font-size="14.00">1</text>
<polyline fill="none" stroke="black" points="55.5,-447.5 55.5,-498.5 "/>
<text text-anchor="middle" x="74.5" y="-486.3" font-family="Times New Roman,serif" font-size="14.00">size</text>
<polyline fill="none" stroke="black" points="55.5,-481.5 93.5,-481.5 "/>
<text text-anchor="middle" x="74.5" y="-469.3" font-family="Times New Roman,serif" font-size="14.00">1</text>
<polyline fill="none" stroke="black" points="55.5,-464.5 93.5,-464.5 "/>
<text text-anchor="middle" x="74.5" y="-452.3" font-family="Times New Roman,serif" font-size="14.00">2</text>
<polyline fill="none" stroke="black" points="25.5,-447.5 93.5,-447.5 "/>
<text text-anchor="middle" x="59.5" y="-435.3" font-family="Times New Roman,serif" font-size="14.00">sum: 3</text>
</g>
<!-- bag 6&#45;&gt;sol6 -->
<g id="edge17" class="edge"><title>bag 6&#45;&gt;sol6</title>
<path fill="none" stroke="black" d="M59.5,-375.364C59.5,-389.344 59.5,-405.217 59.5,-419.999"/>
<polygon fill="black" stroke="black" points="56.0001,-420.023 59.5,-430.023 63.0001,-420.023 56.0001,-420.023"/>
</g>
<!-- bag 7 -->
<g id="node7" class="node"><title>bag 7</title>
<path fill="white" stroke="black" d="M460,-375C460,-375 365,-375 365,-375 359,-375 353,-369 353,-363 353,-363 353,-305 353,-305 353,-299 359,-293 365,-293 365,-293 460,-293 460,-293 466,-293 472,-299 472,-305 472,-305 472,-363 472,-363 472,-369 466,-375 460,-375"/>
<polygon fill="white" stroke="none" points="361.5,-355 361.5,-374 464.5,-374 464.5,-355 361.5,-355"/>
<text text-anchor="start" x="397.5" y="-360.8" font-family="Times New Roman,serif" font-size="14.00">bag 7</text>
<text text-anchor="start" x="384" y="-337.8" font-family="Times New Roman,serif" font-size="14.00">[7, 11, 14]</text>
<text text-anchor="start" x="371.5" y="-318.8" font-family="Times New Roman,serif" font-size="14.00">dtime=0.0033s</text>
<text text-anchor="start" x="363.5" y="-299.8" font-family="Times New Roman,serif" font-size="14.00">05/21/20 16:13:14</text>
</g>
<!-- bag 7&#45;&gt;bag 5 -->
<g id="edge6" class="edge"><title>bag 7&#45;&gt;bag 5</title>
<path fill="none" stroke="black" d="M366.54,-375.201C358.93,-381.595 351.057,-388.056 343.5,-394 329.975,-404.638 315.189,-415.68 301.018,-425.994"/>
<polygon fill="black" stroke="black" points="298.807,-423.274 292.76,-431.973 302.912,-428.944 298.807,-423.274"/>
</g>
<!-- sol7 -->
<!-- bag 7&#45;&gt;sol7 -->
<!-- bag 8 -->
<g id="node8" class="node"><title>bag 8</title>
<path fill="white" stroke="black" d="M108,-219C108,-219 13,-219 13,-219 7,-219 1,-213 1,-207 1,-207 1,-149 1,-149 1,-143 7,-137 13,-137 13,-137 108,-137 108,-137 114,-137 120,-143 120,-149 120,-149 120,-207 120,-207 120,-213 114,-219 108,-219"/>
<polygon fill="white" stroke="none" points="9.5,-199 9.5,-218 112.5,-218 112.5,-199 9.5,-199"/>
<text text-anchor="start" x="45.5" y="-204.8" font-family="Times New Roman,serif" font-size="14.00">bag 8</text>
<text text-anchor="start" x="39" y="-181.8" font-family="Times New Roman,serif" font-size="14.00">[15, 16]</text>
<text text-anchor="start" x="19.5" y="-162.8" font-family="Times New Roman,serif" font-size="14.00">dtime=0.0036s</text>
<text text-anchor="start" x="11.5" y="-143.8" font-family="Times New Roman,serif" font-size="14.00">05/21/20 16:13:14</text>
</g>
<!-- bag 8&#45;&gt;bag 6 -->
<g id="edge7" class="edge"><title>bag 8&#45;&gt;bag 6</title>
<path fill="none" stroke="black" d="M60.2399,-219.06C60.1136,-238.501 59.9607,-262.059 59.8266,-282.697"/>
<polygon fill="black" stroke="black" points="56.3257,-282.851 59.7606,-292.874 63.3255,-282.897 56.3257,-282.851"/>
</g>
<!-- sol8 -->
<g id="node14" class="node"><title>sol8</title>
<path fill="white" stroke="black" d="M149,-291.5C149,-291.5 200,-291.5 200,-291.5 206,-291.5 212,-297.5 212,-303.5 212,-303.5 212,-364.5 212,-364.5 212,-370.5 206,-376.5 200,-376.5 200,-376.5 149,-376.5 149,-376.5 143,-376.5 137,-370.5 137,-364.5 137,-364.5 137,-303.5 137,-303.5 137,-297.5 143,-291.5 149,-291.5"/>
<text text-anchor="middle" x="174.5" y="-364.3" font-family="Times New Roman,serif" font-size="14.00">sol bag 8</text>
<polyline fill="none" stroke="black" points="137,-359.5 212,-359.5 "/>
<text text-anchor="middle" x="155.5" y="-347.3" font-family="Times New Roman,serif" font-size="14.00">v15</text>
<polyline fill="none" stroke="black" points="137,-342.5 174,-342.5 "/>
<text text-anchor="middle" x="155.5" y="-330.3" font-family="Times New Roman,serif" font-size="14.00">0</text>
<polyline fill="none" stroke="black" points="137,-325.5 174,-325.5 "/>
<text text-anchor="middle" x="155.5" y="-313.3" font-family="Times New Roman,serif" font-size="14.00">1</text>
<polyline fill="none" stroke="black" points="174,-308.5 174,-359.5 "/>
<text text-anchor="middle" x="193" y="-347.3" font-family="Times New Roman,serif" font-size="14.00">size</text>
<polyline fill="none" stroke="black" points="174,-342.5 212,-342.5 "/>
<text text-anchor="middle" x="193" y="-330.3" font-family="Times New Roman,serif" font-size="14.00">1</text>
<polyline fill="none" stroke="black" points="174,-325.5 212,-325.5 "/>
<text text-anchor="middle" x="193" y="-313.3" font-family="Times New Roman,serif" font-size="14.00">1</text>
<polyline fill="none" stroke="black" points="137,-308.5 212,-308.5 "/>
<text text-anchor="middle" x="174.5" y="-296.3" font-family="Times New Roman,serif" font-size="14.00">sum: 2</text>
</g>
<!-- bag 8&#45;&gt;sol8 -->
<g id="edge13" class="edge"><title>bag 8&#45;&gt;sol8</title>
<path fill="none" stroke="black" d="M90.1546,-219.06C104.657,-238.65 122.253,-262.421 137.615,-283.172"/>
<polygon fill="black" stroke="black" points="134.838,-285.305 143.601,-291.26 140.465,-281.14 134.838,-285.305"/>
</g>
<!-- bag 9 -->
<g id="node9" class="node"><title>bag 9</title>
<path fill="white" stroke="black" d="M339,-219C339,-219 244,-219 244,-219 238,-219 232,-213 232,-207 232,-207 232,-149 232,-149 232,-143 238,-137 244,-137 244,-137 339,-137 339,-137 345,-137 351,-143 351,-149 351,-149 351,-207 351,-207 351,-213 345,-219 339,-219"/>
<polygon fill="white" stroke="none" points="240.5,-199 240.5,-218 343.5,-218 343.5,-199 240.5,-199"/>
<text text-anchor="start" x="276.5" y="-204.8" font-family="Times New Roman,serif" font-size="14.00">bag 9</text>
<text text-anchor="start" x="266" y="-181.8" font-family="Times New Roman,serif" font-size="14.00">[7, 9, 11]</text>
<text text-anchor="start" x="250.5" y="-162.8" font-family="Times New Roman,serif" font-size="14.00">dtime=0.0052s</text>
<text text-anchor="start" x="242.5" y="-143.8" font-family="Times New Roman,serif" font-size="14.00">05/21/20 16:13:14</text>
</g>
<!-- bag 9&#45;&gt;bag 7 -->
<g id="edge8" class="edge"><title>bag 9&#45;&gt;bag 7</title>
<path fill="none" stroke="black" d="M322.975,-219.06C338.809,-239.211 358.117,-263.786 374.744,-284.947"/>
<polygon fill="black" stroke="black" points="372.042,-287.173 380.972,-292.874 377.546,-282.848 372.042,-287.173"/>
</g>
<!-- sol9 -->
<!-- bag 9&#45;&gt;sol9 -->
<!-- bag 10 -->
<g id="node10" class="node"><title>bag 10</title>
<path fill="white" stroke="black" d="M593,-219C593,-219 498,-219 498,-219 492,-219 486,-213 486,-207 486,-207 486,-149 486,-149 486,-143 492,-137 498,-137 498,-137 593,-137 593,-137 599,-137 605,-143 605,-149 605,-149 605,-207 605,-207 605,-213 599,-219 593,-219"/>
<polygon fill="white" stroke="none" points="494.5,-199 494.5,-218 597.5,-218 597.5,-199 494.5,-199"/>
<text text-anchor="start" x="527" y="-204.8" font-family="Times New Roman,serif" font-size="14.00">bag 10</text>
<text text-anchor="start" x="513.5" y="-181.8" font-family="Times New Roman,serif" font-size="14.00">[11, 12, 14]</text>
<text text-anchor="start" x="504.5" y="-162.8" font-family="Times New Roman,serif" font-size="14.00">dtime=0.0039s</text>
<text text-anchor="start" x="496.5" y="-143.8" font-family="Times New Roman,serif" font-size="14.00">05/21/20 16:13:14</text>
</g>
<!-- bag 10&#45;&gt;bag 7 -->
<g id="edge9" class="edge"><title>bag 10&#45;&gt;bag 7</title>
<path fill="none" stroke="black" d="M510.903,-219.06C493.423,-239.3 472.089,-264.002 453.759,-285.226"/>
<polygon fill="black" stroke="black" points="451.042,-283.018 447.155,-292.874 456.34,-287.593 451.042,-283.018"/>
</g>
<!-- sol10 -->
<!-- bag 10&#45;&gt;sol10 -->
<!-- bag 11 -->
<g id="node11" class="node"><title>bag 11</title>
<path fill="white" stroke="black" d="M265,-82C265,-82 170,-82 170,-82 164,-82 158,-76 158,-70 158,-70 158,-12 158,-12 158,-6 164,-0 170,-0 170,-0 265,-0 265,-0 271,-0 277,-6 277,-12 277,-12 277,-70 277,-70 277,-76 271,-82 265,-82"/>
<polygon fill="white" stroke="none" points="166.5,-62 166.5,-81 269.5,-81 269.5,-62 166.5,-62"/>
<text text-anchor="start" x="199" y="-67.8" font-family="Times New Roman,serif" font-size="14.00">bag 11</text>
<text text-anchor="start" x="199.5" y="-44.8" font-family="Times New Roman,serif" font-size="14.00">[9, 10]</text>
<text text-anchor="start" x="176.5" y="-25.8" font-family="Times New Roman,serif" font-size="14.00">dtime=0.0023s</text>
<text text-anchor="start" x="168.5" y="-6.8" font-family="Times New Roman,serif" font-size="14.00">05/21/20 16:13:14</text>
</g>
<!-- bag 11&#45;&gt;bag 9 -->
<g id="edge10" class="edge"><title>bag 11&#45;&gt;bag 9</title>
<path fill="none" stroke="black" d="M239.502,-82.1389C247.335,-96.4279 256.246,-112.686 264.453,-127.657"/>
<polygon fill="black" stroke="black" points="261.579,-129.696 269.455,-136.783 267.717,-126.331 261.579,-129.696"/>
</g>
<!-- sol11 -->
<g id="node15" class="node"><title>sol11</title>
<path fill="white" stroke="black" d="M151.5,-135.5C151.5,-135.5 201.5,-135.5 201.5,-135.5 207.5,-135.5 213.5,-141.5 213.5,-147.5 213.5,-147.5 213.5,-208.5 213.5,-208.5 213.5,-214.5 207.5,-220.5 201.5,-220.5 201.5,-220.5 151.5,-220.5 151.5,-220.5 145.5,-220.5 139.5,-214.5 139.5,-208.5 139.5,-208.5 139.5,-147.5 139.5,-147.5 139.5,-141.5 145.5,-135.5 151.5,-135.5"/>
<text text-anchor="middle" x="176.5" y="-208.3" font-family="Times New Roman,serif" font-size="14.00">sol bag 11</text>
<polyline fill="none" stroke="black" points="139.5,-203.5 213.5,-203.5 "/>
<text text-anchor="middle" x="156" y="-191.3" font-family="Times New Roman,serif" font-size="14.00">v9</text>
<polyline fill="none" stroke="black" points="139.5,-186.5 172.5,-186.5 "/>
<text text-anchor="middle" x="156" y="-174.3" font-family="Times New Roman,serif" font-size="14.00">0</text>
<polyline fill="none" stroke="black" points="139.5,-169.5 172.5,-169.5 "/>
<text text-anchor="middle" x="156" y="-157.3" font-family="Times New Roman,serif" font-size="14.00">1</text>
<polyline fill="none" stroke="black" points="172.5,-152.5 172.5,-203.5 "/>
<text text-anchor="middle" x="193" y="-191.3" font-family="Times New Roman,serif" font-size="14.00">size</text>
<polyline fill="none" stroke="black" points="172.5,-186.5 213.5,-186.5 "/>
<text text-anchor="middle" x="193" y="-174.3" font-family="Times New Roman,serif" font-size="14.00">1</text>
<polyline fill="none" stroke="black" points="172.5,-169.5 213.5,-169.5 "/>
<text text-anchor="middle" x="193" y="-157.3" font-family="Times New Roman,serif" font-size="14.00">1</text>
<polyline fill="none" stroke="black" points="139.5,-152.5 213.5,-152.5 "/>
<text text-anchor="middle" x="176.5" y="-140.3" font-family="Times New Roman,serif" font-size="14.00">sum: 2</text>
</g>
<!-- bag 11&#45;&gt;sol11 -->
<g id="edge14" class="edge"><title>bag 11&#45;&gt;sol11</title>
<path fill="none" stroke="black" d="M205.31,-82.1389C201.167,-95.7794 196.479,-111.214 192.107,-125.611"/>
<polygon fill="black" stroke="black" points="188.698,-124.791 189.141,-135.377 195.396,-126.825 188.698,-124.791"/>
</g>
<!-- bag 12 -->
<g id="node12" class="node"><title>bag 12</title>
<path fill="white" stroke="black" d="M449,-82C449,-82 354,-82 354,-82 348,-82 342,-76 342,-70 342,-70 342,-12 342,-12 342,-6 348,-0 354,-0 354,-0 449,-0 449,-0 455,-0 461,-6 461,-12 461,-12 461,-70 461,-70 461,-76 455,-82 449,-82"/>
<polygon fill="white" stroke="none" points="350.5,-62 350.5,-81 453.5,-81 453.5,-62 350.5,-62"/>
<text text-anchor="start" x="383" y="-67.8" font-family="Times New Roman,serif" font-size="14.00">bag 12</text>
<text text-anchor="start" x="379.5" y="-44.8" font-family="Times New Roman,serif" font-size="14.00">[7, 8, 9]</text>
<text text-anchor="start" x="360.5" y="-25.8" font-family="Times New Roman,serif" font-size="14.00">dtime=0.0026s</text>
<text text-anchor="start" x="352.5" y="-6.8" font-family="Times New Roman,serif" font-size="14.00">05/21/20 16:13:14</text>
</g>
<!-- bag 12&#45;&gt;bag 9 -->
<g id="edge11" class="edge"><title>bag 12&#45;&gt;bag 9</title>
<path fill="none" stroke="black" d="M368.794,-82.1389C356.822,-96.8323 343.153,-113.608 330.673,-128.925"/>
<polygon fill="black" stroke="black" points="327.873,-126.819 324.27,-136.783 333.3,-131.241 327.873,-126.819"/>
</g>
<!-- sol12 -->
<g id="node16" class="node"><title>sol12</title>
<path fill="white" stroke="black" d="M381.5,-118.5C381.5,-118.5 455.5,-118.5 455.5,-118.5 461.5,-118.5 467.5,-124.5 467.5,-130.5 467.5,-130.5 467.5,-225.5 467.5,-225.5 467.5,-231.5 461.5,-237.5 455.5,-237.5 455.5,-237.5 381.5,-237.5 381.5,-237.5 375.5,-237.5 369.5,-231.5 369.5,-225.5 369.5,-225.5 369.5,-130.5 369.5,-130.5 369.5,-124.5 375.5,-118.5 381.5,-118.5"/>
<text text-anchor="middle" x="418.5" y="-225.3" font-family="Times New Roman,serif" font-size="14.00">sol bag 12</text>
<polyline fill="none" stroke="black" points="369.5,-220.5 467.5,-220.5 "/>
<text text-anchor="middle" x="384.5" y="-208.3" font-family="Times New Roman,serif" font-size="14.00">v7</text>
<polyline fill="none" stroke="black" points="369.5,-203.5 399.5,-203.5 "/>
<text text-anchor="middle" x="384.5" y="-191.3" font-family="Times New Roman,serif" font-size="14.00">0</text>
<polyline fill="none" stroke="black" points="369.5,-186.5 399.5,-186.5 "/>
<text text-anchor="middle" x="384.5" y="-174.3" font-family="Times New Roman,serif" font-size="14.00">1</text>
<polyline fill="none" stroke="black" points="369.5,-169.5 399.5,-169.5 "/>
<text text-anchor="middle" x="384.5" y="-157.3" font-family="Times New Roman,serif" font-size="14.00">1</text>
<polyline fill="none" stroke="black" points="369.5,-152.5 399.5,-152.5 "/>
<text text-anchor="middle" x="384.5" y="-140.3" font-family="Times New Roman,serif" font-size="14.00">0</text>
<polyline fill="none" stroke="black" points="399.5,-135.5 399.5,-220.5 "/>
<text text-anchor="middle" x="414.5" y="-208.3" font-family="Times New Roman,serif" font-size="14.00">v9</text>
<polyline fill="none" stroke="black" points="399.5,-203.5 429.5,-203.5 "/>
<text text-anchor="middle" x="414.5" y="-191.3" font-family="Times New Roman,serif" font-size="14.00">0</text>
<polyline fill="none" stroke="black" points="399.5,-186.5 429.5,-186.5 "/>
<text text-anchor="middle" x="414.5" y="-174.3" font-family="Times New Roman,serif" font-size="14.00">1</text>
<polyline fill="none" stroke="black" points="399.5,-169.5 429.5,-169.5 "/>
<text text-anchor="middle" x="414.5" y="-157.3" font-family="Times New Roman,serif" font-size="14.00">0</text>
<polyline fill="none" stroke="black" points="399.5,-152.5 429.5,-152.5 "/>
<text text-anchor="middle" x="414.5" y="-140.3" font-family="Times New Roman,serif" font-size="14.00">1</text>
<polyline fill="none" stroke="black" points="429.5,-135.5 429.5,-220.5 "/>
<text text-anchor="middle" x="448.5" y="-208.3" font-family="Times New Roman,serif" font-size="14.00">size</text>
<polyline fill="none" stroke="black" points="429.5,-203.5 467.5,-203.5 "/>
<text text-anchor="middle" x="448.5" y="-191.3" font-family="Times New Roman,serif" font-size="14.00">1</text>
<polyline fill="none" stroke="black" points="429.5,-186.5 467.5,-186.5 "/>
<text text-anchor="middle" x="448.5" y="-174.3" font-family="Times New Roman,serif" font-size="14.00">2</text>
<polyline fill="none" stroke="black" points="429.5,-169.5 467.5,-169.5 "/>
<text text-anchor="middle" x="448.5" y="-157.3" font-family="Times New Roman,serif" font-size="14.00">2</text>
<polyline fill="none" stroke="black" points="429.5,-152.5 467.5,-152.5 "/>
<text text-anchor="middle" x="448.5" y="-140.3" font-family="Times New Roman,serif" font-size="14.00">2</text>
<polyline fill="none" stroke="black" points="369.5,-135.5 467.5,-135.5 "/>
<text text-anchor="middle" x="418.5" y="-123.3" font-family="Times New Roman,serif" font-size="14.00">sum: 7</text>
</g>
<!-- bag 12&#45;&gt;sol12 -->
<g id="edge15" class="edge"><title>bag 12&#45;&gt;sol12</title>
<path fill="none" stroke="black" d="M406.555,-82.1389C407.593,-90.3837 408.714,-99.284 409.838,-108.214"/>
<polygon fill="black" stroke="black" points="406.383,-108.792 411.105,-118.276 413.328,-107.917 406.383,-108.792"/>
</g>
<!-- bag 13 -->
<g id="node13" class="node"><title>bag 13</title>
<path fill="white" stroke="black" d="M610,-82C610,-82 515,-82 515,-82 509,-82 503,-76 503,-70 503,-70 503,-12 503,-12 503,-6 509,-0 515,-0 515,-0 610,-0 610,-0 616,-0 622,-6 622,-12 622,-12 622,-70 622,-70 622,-76 616,-82 610,-82"/>
<polygon fill="white" stroke="none" points="511.5,-62 511.5,-81 614.5,-81 614.5,-62 511.5,-62"/>
<text text-anchor="start" x="544" y="-67.8" font-family="Times New Roman,serif" font-size="14.00">bag 13</text>
<text text-anchor="start" x="541" y="-44.8" font-family="Times New Roman,serif" font-size="14.00">[12, 13]</text>
<text text-anchor="start" x="521.5" y="-25.8" font-family="Times New Roman,serif" font-size="14.00">dtime=0.0033s</text>
<text text-anchor="start" x="513.5" y="-6.8" font-family="Times New Roman,serif" font-size="14.00">05/21/20 16:13:14</text>
</g>
<!-- bag 13&#45;&gt;bag 10 -->
<g id="edge12" class="edge"><title>bag 13&#45;&gt;bag 10</title>
<path fill="none" stroke="black" d="M557.445,-82.1389C555.68,-96.1583 553.676,-112.073 551.82,-126.808"/>
<polygon fill="black" stroke="black" points="548.341,-126.424 550.564,-136.783 555.286,-127.298 548.341,-126.424"/>
</g>
<!-- sol13 -->
<g id="node17" class="node"><title>sol13</title>
<path fill="white" stroke="black" d="M635,-135.5C635,-135.5 686,-135.5 686,-135.5 692,-135.5 698,-141.5 698,-147.5 698,-147.5 698,-208.5 698,-208.5 698,-214.5 692,-220.5 686,-220.5 686,-220.5 635,-220.5 635,-220.5 629,-220.5 623,-214.5 623,-208.5 623,-208.5 623,-147.5 623,-147.5 623,-141.5 629,-135.5 635,-135.5"/>
<text text-anchor="middle" x="660.5" y="-208.3" font-family="Times New Roman,serif" font-size="14.00">sol bag 13</text>
<polyline fill="none" stroke="black" points="623,-203.5 698,-203.5 "/>
<text text-anchor="middle" x="641.5" y="-191.3" font-family="Times New Roman,serif" font-size="14.00">v12</text>
<polyline fill="none" stroke="black" points="623,-186.5 660,-186.5 "/>
<text text-anchor="middle" x="641.5" y="-174.3" font-family="Times New Roman,serif" font-size="14.00">0</text>
<polyline fill="none" stroke="black" points="623,-169.5 660,-169.5 "/>
<text text-anchor="middle" x="641.5" y="-157.3" font-family="Times New Roman,serif" font-size="14.00">1</text>
<polyline fill="none" stroke="black" points="660,-152.5 660,-203.5 "/>
<text text-anchor="middle" x="679" y="-191.3" font-family="Times New Roman,serif" font-size="14.00">size</text>
<polyline fill="none" stroke="black" points="660,-186.5 698,-186.5 "/>
<text text-anchor="middle" x="679" y="-174.3" font-family="Times New Roman,serif" font-size="14.00">1</text>
<polyline fill="none" stroke="black" points="660,-169.5 698,-169.5 "/>
<text text-anchor="middle" x="679" y="-157.3" font-family="Times New Roman,serif" font-size="14.00">1</text>
<polyline fill="none" stroke="black" points="623,-152.5 698,-152.5 "/>
<text text-anchor="middle" x="660.5" y="-140.3" font-family="Times New Roman,serif" font-size="14.00">sum: 2</text>
</g>
<!-- bag 13&#45;&gt;sol13 -->
<g id="edge16" class="edge"><title>bag 13&#45;&gt;sol13</title>
<path fill="none" stroke="black" d="M591.638,-82.1389C601.921,-96.304 613.608,-112.404 624.398,-127.267"/>
<polygon fill="black" stroke="black" points="621.578,-129.34 630.285,-135.377 627.242,-125.228 621.578,-129.34"/>
</g>
</g>
</svg>
