<?xml version="1.0" encoding="UTF-8" standalone="no"?>
<!DOCTYPE svg PUBLIC "-//W3C//DTD SVG 1.1//EN"
 "http://www.w3.org/Graphics/SVG/1.1/DTD/svg11.dtd">
<!-- Generated by graphviz version 2.41.20170921.1950 (20170921.1950)
 -->
<!-- Title: %3 Pages: 1 -->
<svg width="276pt" height="554pt"
 viewBox="0.00 0.00 276.00 554.00" xmlns="http://www.w3.org/2000/svg" xmlns:xlink="http://www.w3.org/1999/xlink">
<g id="graph0" class="graph" transform="scale(1 1) rotate(0) translate(4 550)">
<title>%3</title>
<polygon fill="white" stroke="transparent" points="-4,4 -4,-550 272,-550 272,4 -4,4"/>
<g id="clust2" class="cluster">
<title>cluster_ivar</title>
<polygon fill="none" stroke="black" points="164,-8 164,-538 260,-538 260,-8 164,-8"/>
<text text-anchor="middle" x="212" y="-521.2" font-family="Times New Roman,serif" font-size="16.00">variables</text>
</g>
<g id="clust1" class="cluster">
<title>cluster_clause</title>
<polygon fill="none" stroke="black" points="8,-210 8,-538 78,-538 78,-210 8,-210"/>
<text text-anchor="middle" x="43" y="-521.2" font-family="Times New Roman,serif" font-size="16.00">clauses</text>
</g>
<!-- c_1 -->
<g id="node1" class="node">
<title>c_1</title>
<ellipse fill="white" stroke="black" cx="43" cy="-486" rx="27" ry="18"/>
<text text-anchor="middle" x="43" y="-482.3" font-family="Times New Roman,serif" font-size="14.00">c_1</text>
</g>
<!-- c_2 -->
<g id="node2" class="node">
<title>c_2</title>
<ellipse fill="white" stroke="black" cx="43" cy="-436" rx="27" ry="18"/>
<text text-anchor="middle" x="43" y="-432.3" font-family="Times New Roman,serif" font-size="14.00">c_2</text>
</g>
<!-- c_1&#45;&#45;c_2 -->
<!-- v_1 -->
<g id="node7" class="node">
<title>v_1</title>
<polygon fill="none" stroke="#b14923" stroke-width="2.2" stroke-dasharray="1,5" points="212,-504 177.14,-486 212,-468 246.86,-486 212,-504"/>
<text text-anchor="middle" x="212" y="-482.3" font-family="Times New Roman,serif" font-size="14.00">v_1</text>
</g>
<!-- c_1&#45;&#45;v_1 -->
<!-- v_2 -->
<g id="node8" class="node">
<title>v_2</title>
<polygon fill="none" stroke="#244320" stroke-width="2.2" stroke-dasharray="1,5" points="212,-454 177.14,-436 212,-418 246.86,-436 212,-454"/>
<text text-anchor="middle" x="212" y="-432.3" font-family="Times New Roman,serif" font-size="14.00">v_2</text>
</g>
<!-- c_1&#45;&#45;v_2 -->
<g id="edge16" class="edge">
<title>c_1&#45;&#45;v_2</title>
<path fill="none" stroke="#244320" stroke-width="2.2" d="M75.35,-475.81C109.24,-466.18 161.52,-451.34 190.61,-443.08"/>
<ellipse fill="none" stroke="#244320" stroke-width="2.2" cx="71.42" cy="-476.93" rx="4" ry="4"/>
</g>
<!-- v_4 -->
<g id="node10" class="node">
<title>v_4</title>
<polygon fill="none" stroke="#a682ff" stroke-width="2.2" stroke-dasharray="1,5" points="212,-354 177.14,-336 212,-318 246.86,-336 212,-354"/>
<text text-anchor="middle" x="212" y="-332.3" font-family="Times New Roman,serif" font-size="14.00">v_4</text>
</g>
<!-- c_1&#45;&#45;v_4 -->
<g id="edge17" class="edge">
<title>c_1&#45;&#45;v_4</title>
<path fill="none" stroke="#a682ff" stroke-width="2.2" d="M65.83,-465.74C101.76,-433.84 170.39,-372.93 198.99,-347.55"/>
<ellipse fill="none" stroke="#a682ff" stroke-width="2.2" cx="62.5" cy="-468.69" rx="4" ry="4"/>
</g>
<!-- v_9 -->
<g id="node15" class="node">
<title>v_9</title>
<polygon fill="none" stroke="#0073a1" stroke-width="2.2" stroke-dasharray="1,5" points="212,-102 177.14,-84 212,-66 246.86,-84 212,-102"/>
<text text-anchor="middle" x="212" y="-80.3" font-family="Times New Roman,serif" font-size="14.00">v_9</text>
</g>
<!-- c_1&#45;&#45;v_9 -->
<g id="edge18" class="edge">
<title>c_1&#45;&#45;v_9</title>
<path fill="none" stroke="#0073a1" stroke-width="2.2" d="M50.37,-468.47C78.58,-401.37 179.41,-161.52 205.7,-98.99"/>
</g>
<!-- v_10 -->
<g id="node16" class="node">
<title>v_10</title>
<polygon fill="none" stroke="#b14923" stroke-width="2.2" stroke-dasharray="1,5" points="212,-52 171.61,-34 212,-16 252.39,-34 212,-52"/>
<text text-anchor="middle" x="212" y="-30.3" font-family="Times New Roman,serif" font-size="14.00">v_10</text>
</g>
<!-- c_1&#45;&#45;v_10 -->
<g id="edge19" class="edge">
<title>c_1&#45;&#45;v_10</title>
<path fill="none" stroke="#b14923" stroke-width="2.2" d="M49.63,-468.28C76.9,-395.32 180.32,-118.74 206.13,-49.69"/>
</g>
<!-- c_3 -->
<g id="node3" class="node">
<title>c_3</title>
<ellipse fill="white" stroke="black" cx="43" cy="-386" rx="27" ry="18"/>
<text text-anchor="middle" x="43" y="-382.3" font-family="Times New Roman,serif" font-size="14.00">c_3</text>
</g>
<!-- c_2&#45;&#45;c_3 -->
<!-- v_7 -->
<g id="node13" class="node">
<title>v_7</title>
<polygon fill="none" stroke="#da1167" stroke-width="2.2" stroke-dasharray="1,5" points="212,-202 177.14,-184 212,-166 246.86,-184 212,-202"/>
<text text-anchor="middle" x="212" y="-180.3" font-family="Times New Roman,serif" font-size="14.00">v_7</text>
</g>
<!-- c_2&#45;&#45;v_7 -->
<g id="edge20" class="edge">
<title>c_2&#45;&#45;v_7</title>
<path fill="none" stroke="#da1167" stroke-width="2.2" d="M58.65,-412.66C93.31,-360.98 175.62,-238.25 202.98,-197.45"/>
<ellipse fill="none" stroke="#da1167" stroke-width="2.2" cx="56.32" cy="-416.14" rx="4" ry="4"/>
</g>
<!-- c_2&#45;&#45;v_10 -->
<g id="edge21" class="edge">
<title>c_2&#45;&#45;v_10</title>
<path fill="none" stroke="#b14923" stroke-width="2.2" d="M50.37,-418.47C78.51,-351.52 178.96,-112.6 205.52,-49.42"/>
</g>
<!-- c_4 -->
<g id="node4" class="node">
<title>c_4</title>
<ellipse fill="white" stroke="black" cx="43" cy="-336" rx="27" ry="18"/>
<text text-anchor="middle" x="43" y="-332.3" font-family="Times New Roman,serif" font-size="14.00">c_4</text>
</g>
<!-- c_3&#45;&#45;c_4 -->
<!-- v_3 -->
<g id="node9" class="node">
<title>v_3</title>
<polygon fill="none" stroke="#b1740f" stroke-width="2.2" stroke-dasharray="1,5" points="212,-404 177.14,-386 212,-368 246.86,-386 212,-404"/>
<text text-anchor="middle" x="212" y="-382.3" font-family="Times New Roman,serif" font-size="14.00">v_3</text>
</g>
<!-- c_3&#45;&#45;v_3 -->
<g id="edge22" class="edge">
<title>c_3&#45;&#45;v_3</title>
<path fill="none" stroke="#b1740f" stroke-width="2.2" d="M70.07,-386C105.73,-386 141.4,-386 177.07,-386"/>
</g>
<!-- c_3&#45;&#45;v_9 -->
<g id="edge23" class="edge">
<title>c_3&#45;&#45;v_9</title>
<path fill="none" stroke="#0073a1" stroke-width="2.2" d="M56.61,-361.68C90.43,-301.24 177.5,-145.66 204.14,-98.05"/>
<ellipse fill="none" stroke="#0073a1" stroke-width="2.2" cx="54.52" cy="-365.41" rx="4" ry="4"/>
</g>
<!-- c_3&#45;&#45;v_10 -->
<g id="edge24" class="edge">
<title>c_3&#45;&#45;v_10</title>
<path fill="none" stroke="#b14923" stroke-width="2.2" d="M51.38,-368.54C80.55,-307.78 177.36,-106.15 204.73,-49.14"/>
</g>
<!-- c_5 -->
<g id="node5" class="node">
<title>c_5</title>
<ellipse fill="white" stroke="black" cx="43" cy="-286" rx="27" ry="18"/>
<text text-anchor="middle" x="43" y="-282.3" font-family="Times New Roman,serif" font-size="14.00">c_5</text>
</g>
<!-- c_4&#45;&#45;c_5 -->
<!-- c_4&#45;&#45;v_1 -->
<g id="edge25" class="edge">
<title>c_4&#45;&#45;v_1</title>
<path fill="none" stroke="#b14923" stroke-width="2.2" d="M65.75,-356.2C101.69,-388.09 170.42,-449.1 199.02,-474.48"/>
<ellipse fill="none" stroke="#b14923" stroke-width="2.2" cx="62.44" cy="-353.25" rx="4" ry="4"/>
</g>
<!-- v_5 -->
<g id="node11" class="node">
<title>v_5</title>
<polygon fill="none" stroke="#004066" stroke-width="2.2" stroke-dasharray="1,5" points="212,-304 177.14,-286 212,-268 246.86,-286 212,-304"/>
<text text-anchor="middle" x="212" y="-282.3" font-family="Times New Roman,serif" font-size="14.00">v_5</text>
</g>
<!-- c_4&#45;&#45;v_5 -->
<g id="edge26" class="edge">
<title>c_4&#45;&#45;v_5</title>
<path fill="none" stroke="#004066" stroke-width="2.2" d="M67.57,-328.02C100.71,-318.61 159.19,-302 190.61,-293.08"/>
</g>
<!-- c_4&#45;&#45;v_7 -->
<g id="edge27" class="edge">
<title>c_4&#45;&#45;v_7</title>
<path fill="none" stroke="#da1167" stroke-width="2.2" d="M59.2,-321.43C92.58,-291.41 168.42,-223.2 198.93,-195.76"/>
</g>
<!-- c_6 -->
<g id="node6" class="node">
<title>c_6</title>
<ellipse fill="white" stroke="black" cx="43" cy="-236" rx="27" ry="18"/>
<text text-anchor="middle" x="43" y="-232.3" font-family="Times New Roman,serif" font-size="14.00">c_6</text>
</g>
<!-- c_5&#45;&#45;c_6 -->
<!-- c_5&#45;&#45;v_1 -->
<g id="edge28" class="edge">
<title>c_5&#45;&#45;v_1</title>
<path fill="none" stroke="#b14923" stroke-width="2.2" d="M61.82,-308.27C97.3,-350.26 173.03,-439.88 201.17,-473.18"/>
<ellipse fill="none" stroke="#b14923" stroke-width="2.2" cx="59.07" cy="-305.02" rx="4" ry="4"/>
</g>
<!-- c_5&#45;&#45;v_4 -->
<g id="edge29" class="edge">
<title>c_5&#45;&#45;v_4</title>
<path fill="none" stroke="#a682ff" stroke-width="2.2" d="M75.28,-296.17C109.17,-305.79 161.49,-320.65 190.6,-328.92"/>
<ellipse fill="none" stroke="#a682ff" stroke-width="2.2" cx="71.36" cy="-295.05" rx="4" ry="4"/>
</g>
<!-- c_5&#45;&#45;v_5 -->
<g id="edge30" class="edge">
<title>c_5&#45;&#45;v_5</title>
<path fill="none" stroke="#004066" stroke-width="2.2" d="M78.43,-286C111.31,-286 144.19,-286 177.07,-286"/>
<ellipse fill="none" stroke="#004066" stroke-width="2.2" cx="74.07" cy="-286" rx="4" ry="4"/>
</g>
<!-- c_5&#45;&#45;v_9 -->
<g id="edge31" class="edge">
<title>c_5&#45;&#45;v_9</title>
<path fill="none" stroke="#0073a1" stroke-width="2.2" d="M61.59,-263.77C97.1,-221.34 173.5,-130.01 201.47,-96.59"/>
<ellipse fill="none" stroke="#0073a1" stroke-width="2.2" cx="58.83" cy="-267.08" rx="4" ry="4"/>
</g>
<!-- c_6&#45;&#45;v_2 -->
<g id="edge32" class="edge">
<title>c_6&#45;&#45;v_2</title>
<path fill="none" stroke="#244320" stroke-width="2.2" d="M56.49,-251.96C89.06,-290.51 171.52,-388.1 201.17,-423.18"/>
</g>
<!-- c_6&#45;&#45;v_3 -->
<g id="edge33" class="edge">
<title>c_6&#45;&#45;v_3</title>
<path fill="none" stroke="#b1740f" stroke-width="2.2" d="M65.75,-256.2C101.69,-288.09 170.42,-349.1 199.02,-374.48"/>
<ellipse fill="none" stroke="#b1740f" stroke-width="2.2" cx="62.44" cy="-253.25" rx="4" ry="4"/>
</g>
<!-- v_8 -->
<g id="node14" class="node">
<title>v_8</title>
<polygon fill="none" stroke="#604909" stroke-width="2.2" stroke-dasharray="1,5" points="212,-152 177.14,-134 212,-116 246.86,-134 212,-152"/>
<text text-anchor="middle" x="212" y="-130.3" font-family="Times New Roman,serif" font-size="14.00">v_8</text>
</g>
<!-- c_6&#45;&#45;v_8 -->
<g id="edge34" class="edge">
<title>c_6&#45;&#45;v_8</title>
<path fill="none" stroke="#604909" stroke-width="2.2" d="M70.2,-219.58C105.61,-198.21 166.39,-161.53 195.51,-143.95"/>
<ellipse fill="none" stroke="#604909" stroke-width="2.2" cx="66.47" cy="-221.83" rx="4" ry="4"/>
</g>
<!-- c_6&#45;&#45;v_9 -->
<g id="edge35" class="edge">
<title>c_6&#45;&#45;v_9</title>
<path fill="none" stroke="#0073a1" stroke-width="2.2" d="M59.2,-221.43C92.58,-191.41 168.42,-123.2 198.93,-95.76"/>
</g>
<!-- c_6&#45;&#45;v_10 -->
<g id="edge36" class="edge">
<title>c_6&#45;&#45;v_10</title>
<path fill="none" stroke="#b14923" stroke-width="2.2" d="M61.55,-213.82C96.77,-171.73 172.34,-81.41 200.83,-47.36"/>
<ellipse fill="none" stroke="#b14923" stroke-width="2.2" cx="58.83" cy="-217.08" rx="4" ry="4"/>
</g>
<!-- v_1&#45;&#45;v_2 -->
<!-- v_2&#45;&#45;v_3 -->
<!-- v_3&#45;&#45;v_4 -->
<!-- v_4&#45;&#45;v_5 -->
<!-- v_6 -->
<g id="node12" class="node">
<title>v_6</title>
<polygon fill="none" stroke="#0d1321" stroke-width="2.2" stroke-dasharray="1,5" points="212,-254 177.14,-236 212,-218 246.86,-236 212,-254"/>
<text text-anchor="middle" x="212" y="-232.3" font-family="Times New Roman,serif" font-size="14.00">v_6</text>
</g>
<!-- v_5&#45;&#45;v_6 -->
<!-- v_6&#45;&#45;v_7 -->
<!-- v_7&#45;&#45;v_8 -->
<!-- v_8&#45;&#45;v_9 -->
<!-- v_9&#45;&#45;v_10 -->
</g>
</svg>
