<?xml version="1.0" encoding="UTF-8" standalone="no"?>
<!DOCTYPE svg PUBLIC "-//W3C//DTD SVG 1.1//EN"
 "http://www.w3.org/Graphics/SVG/1.1/DTD/svg11.dtd">
<!-- Generated by graphviz version 2.38.0 (20140413.2041)
 -->
<!-- Title: %3 Pages: 1 -->
<svg width="421pt" height="408pt"
 viewBox="0.00 0.00 420.96 408.49" xmlns="http://www.w3.org/2000/svg" xmlns:xlink="http://www.w3.org/1999/xlink">
<g id="graph0" class="graph" transform="scale(1 1) rotate(0) translate(204.899 204.246)">
<title>%3</title>
<polygon fill="white" stroke="none" points="-204.899,204.246 -204.899,-204.246 216.058,-204.246 216.058,204.246 -204.899,204.246"/>
<!-- v_1 -->
<g id="node1" class="node"><title>v_1</title>
<ellipse fill="yellow" stroke="black" stroke-width="2.2" cx="-173.899" cy="-63.2952" rx="27" ry="18"/>
<text text-anchor="middle" x="-173.899" y="-59.5952" font-family="Times New Roman,serif" font-size="14.00">v_1</text>
</g>
<!-- v_2 -->
<g id="node2" class="node"><title>v_2</title>
<ellipse fill="green" stroke="green" stroke-width="2.2" stroke-dasharray="1,5" cx="32.137" cy="-182.246" rx="27" ry="18"/>
<text text-anchor="middle" x="32.137" y="-178.546" font-family="Times New Roman,serif" font-size="14.00">v_2</text>
</g>
<!-- v_1&#45;&#45;v_2 -->
<g id="edge1" class="edge"><title>v_1&#45;&#45;v_2</title>
<path fill="none" stroke="black" d="M-153.39,-75.1356C-113.897,-97.9361 -27.7163,-147.691 11.7111,-170.454"/>
</g>
<!-- v_4 -->
<g id="node3" class="node"><title>v_4</title>
<ellipse fill="yellow" stroke="black" stroke-width="2.2" cx="185.058" cy="-0" rx="27" ry="18"/>
<text text-anchor="middle" x="185.058" y="3.7" font-family="Times New Roman,serif" font-size="14.00">v_4</text>
</g>
<!-- v_1&#45;&#45;v_4 -->
<g id="edge2" class="edge"><title>v_1&#45;&#45;v_4</title>
<path fill="none" stroke="black" d="M-147.795,-58.6922C-81.6483,-47.0286 92.0023,-16.4086 158.566,-4.67131"/>
</g>
<!-- v_9 -->
<g id="node4" class="node"><title>v_9</title>
<ellipse fill="yellow" stroke="black" stroke-width="2.2" cx="-173.899" cy="63.2952" rx="27" ry="18"/>
<text text-anchor="middle" x="-173.899" y="66.9952" font-family="Times New Roman,serif" font-size="14.00">v_9</text>
</g>
<!-- v_1&#45;&#45;v_9 -->
<g id="edge3" class="edge"><title>v_1&#45;&#45;v_9</title>
<path fill="none" stroke="black" d="M-173.899,-45.1579C-173.899,-21.0931 -173.899,21.1437 -173.899,45.1915"/>
</g>
<!-- v_10 -->
<g id="node5" class="node"><title>v_10</title>
<ellipse fill="yellow" stroke="black" stroke-width="2.2" cx="-92.531" cy="-160.265" rx="28.6953" ry="18"/>
<text text-anchor="middle" x="-92.531" y="-156.565" font-family="Times New Roman,serif" font-size="14.00">v_10</text>
</g>
<!-- v_1&#45;&#45;v_10 -->
<g id="edge4" class="edge"><title>v_1&#45;&#45;v_10</title>
<path fill="none" stroke="black" d="M-160.463,-79.3078C-145.387,-97.2747 -121.072,-126.252 -105.987,-144.228"/>
</g>
<!-- v_7 -->
<g id="node6" class="node"><title>v_7</title>
<ellipse fill="green" stroke="green" stroke-width="2.2" stroke-dasharray="1,5" cx="32.137" cy="182.246" rx="27" ry="18"/>
<text text-anchor="middle" x="32.137" y="185.946" font-family="Times New Roman,serif" font-size="14.00">v_7</text>
</g>
<!-- v_1&#45;&#45;v_7 -->
<g id="edge15" class="edge"><title>v_1&#45;&#45;v_7</title>
<path fill="none" stroke="black" d="M-160.697,-47.5619C-123.572,-3.31795 -18.5375,121.856 18.7784,166.326"/>
</g>
<!-- v_5 -->
<g id="node8" class="node"><title>v_5</title>
<ellipse fill="yellow" stroke="black" stroke-width="2.2" cx="141.764" cy="118.951" rx="27" ry="18"/>
<text text-anchor="middle" x="141.764" y="122.651" font-family="Times New Roman,serif" font-size="14.00">v_5</text>
</g>
<!-- v_1&#45;&#45;v_5 -->
<g id="edge14" class="edge"><title>v_1&#45;&#45;v_5</title>
<path fill="none" stroke="black" d="M-153.187,-51.3375C-95.9912,-18.3156 63.6891,73.875 120.976,106.949"/>
</g>
<!-- v_2&#45;&#45;v_4 -->
<g id="edge5" class="edge"><title>v_2&#45;&#45;v_4</title>
<path fill="none" stroke="black" d="M45.4402,-166.392C74.361,-131.925 142.685,-50.4989 171.676,-15.9475"/>
</g>
<!-- v_2&#45;&#45;v_10 -->
<g id="edge7" class="edge"><title>v_2&#45;&#45;v_10</title>
<path fill="none" stroke="black" d="M6.00246,-177.638C-14.7035,-173.987 -43.5646,-168.899 -64.6998,-165.172"/>
</g>
<!-- v_3 -->
<g id="node7" class="node"><title>v_3</title>
<ellipse fill="green" stroke="green" stroke-width="2.2" stroke-dasharray="1,5" cx="141.764" cy="-118.951" rx="27" ry="18"/>
<text text-anchor="middle" x="141.764" y="-115.251" font-family="Times New Roman,serif" font-size="14.00">v_3</text>
</g>
<!-- v_2&#45;&#45;v_3 -->
<g id="edge19" class="edge"><title>v_2&#45;&#45;v_3</title>
<path fill="none" stroke="black" d="M52.757,-170.341C72.3566,-159.025 101.668,-142.102 121.237,-130.803"/>
</g>
<!-- v_4&#45;&#45;v_5 -->
<g id="edge17" class="edge"><title>v_4&#45;&#45;v_5</title>
<path fill="none" stroke="black" d="M178.67,17.5517C170.484,40.0413 156.376,78.8032 148.178,101.328"/>
</g>
<!-- v_9&#45;&#45;v_2 -->
<g id="edge6" class="edge"><title>v_9&#45;&#45;v_2</title>
<path fill="none" stroke="black" d="M-160.697,47.5619C-123.572,3.31795 -18.5375,-121.856 18.7784,-166.326"/>
</g>
<!-- v_9&#45;&#45;v_4 -->
<g id="edge8" class="edge"><title>v_9&#45;&#45;v_4</title>
<path fill="none" stroke="black" d="M-147.795,58.6922C-81.6483,47.0286 92.0023,16.4086 158.566,4.67131"/>
</g>
<!-- v_9&#45;&#45;v_10 -->
<g id="edge10" class="edge"><title>v_9&#45;&#45;v_10</title>
<path fill="none" stroke="black" d="M-167.514,45.7528C-152.341,4.06457 -114.255,-100.578 -98.9988,-142.495"/>
</g>
<!-- v_9&#45;&#45;v_3 -->
<g id="edge12" class="edge"><title>v_9&#45;&#45;v_3</title>
<path fill="none" stroke="black" d="M-153.187,51.3375C-95.9912,18.3156 63.6891,-73.875 120.976,-106.949"/>
</g>
<!-- v_9&#45;&#45;v_5 -->
<g id="edge18" class="edge"><title>v_9&#45;&#45;v_5</title>
<path fill="none" stroke="black" d="M-147.529,67.9447C-88.1098,78.4211 55.6893,103.775 115.247,114.276"/>
</g>
<!-- v_10&#45;&#45;v_4 -->
<g id="edge9" class="edge"><title>v_10&#45;&#45;v_4</title>
<path fill="none" stroke="black" d="M-71.21,-147.955C-19.2855,-117.977 113.213,-41.4795 164.421,-11.9145"/>
</g>
<!-- v_10&#45;&#45;v_7 -->
<g id="edge11" class="edge"><title>v_10&#45;&#45;v_7</title>
<path fill="none" stroke="black" d="M-86.0039,-142.332C-64.4607,-83.1448 4.22583,105.564 25.6744,164.491"/>
</g>
<!-- v_10&#45;&#45;v_3 -->
<g id="edge13" class="edge"><title>v_10&#45;&#45;v_3</title>
<path fill="none" stroke="black" d="M-64.7342,-155.363C-19.1572,-147.327 70.8445,-131.457 115.442,-123.593"/>
</g>
<!-- v_5&#45;&#45;v_7 -->
<g id="edge16" class="edge"><title>v_5&#45;&#45;v_7</title>
<path fill="none" stroke="black" d="M121.144,130.857C101.545,142.173 72.2335,159.096 52.6645,170.394"/>
</g>
<!-- v_8 -->
<g id="node9" class="node"><title>v_8</title>
<ellipse fill="green" stroke="green" stroke-width="2.2" stroke-dasharray="1,5" cx="-92.531" cy="160.265" rx="27" ry="18"/>
<text text-anchor="middle" x="-92.531" y="163.965" font-family="Times New Roman,serif" font-size="14.00">v_8</text>
</g>
<!-- v_8&#45;&#45;v_2 -->
<g id="edge20" class="edge"><title>v_8&#45;&#45;v_2</title>
<path fill="none" stroke="black" d="M-86.0039,142.332C-64.4607,83.1448 4.22583,-105.564 25.6744,-164.491"/>
</g>
<!-- v_8&#45;&#45;v_9 -->
<g id="edge22" class="edge"><title>v_8&#45;&#45;v_9</title>
<path fill="none" stroke="black" d="M-105.967,144.252C-121.134,126.178 -145.65,96.9607 -160.713,79.0098"/>
</g>
<!-- v_8&#45;&#45;v_10 -->
<g id="edge23" class="edge"><title>v_8&#45;&#45;v_10</title>
<path fill="none" stroke="black" d="M-92.531,142.113C-92.531,85.8291 -92.531,-85.362 -92.531,-141.915"/>
</g>
<!-- v_8&#45;&#45;v_3 -->
<g id="edge21" class="edge"><title>v_8&#45;&#45;v_3</title>
<path fill="none" stroke="black" d="M-79.263,144.453C-38.1213,95.4232 87.013,-53.7028 128.351,-102.967"/>
</g>
</g>
</svg>
