<?xml version="1.0" encoding="UTF-8" standalone="no"?>
<!DOCTYPE svg PUBLIC "-//W3C//DTD SVG 1.1//EN"
 "http://www.w3.org/Graphics/SVG/1.1/DTD/svg11.dtd">
<!-- Generated by graphviz version 2.41.20170921.1950 (20170921.1950)
 -->
<!-- Title: structs Pages: 1 -->
<svg width="536pt" height="731pt"
 viewBox="0.00 0.00 536.00 731.00" xmlns="http://www.w3.org/2000/svg" xmlns:xlink="http://www.w3.org/1999/xlink">
<g id="graph0" class="graph" transform="scale(1 1) rotate(0) translate(4 727)">
<title>structs</title>
<polygon fill="white" stroke="transparent" points="-4,4 -4,-727 532,-727 532,4 -4,4"/>
<!-- bag 1 -->
<g id="node1" class="node">
<title>bag 1</title>
<path fill="white" stroke="black" d="M199.5,-531C199.5,-531 104.5,-531 104.5,-531 98.5,-531 92.5,-525 92.5,-519 92.5,-519 92.5,-461 92.5,-461 92.5,-455 98.5,-449 104.5,-449 104.5,-449 199.5,-449 199.5,-449 205.5,-449 211.5,-455 211.5,-461 211.5,-461 211.5,-519 211.5,-519 211.5,-525 205.5,-531 199.5,-531"/>
<polygon fill="white" stroke="transparent" points="101,-511 101,-530 204,-530 204,-511 101,-511"/>
<text text-anchor="start" x="137" y="-516.8" font-family="Times New Roman,serif" font-size="14.00">bag 1</text>
<text text-anchor="start" x="130" y="-493.8" font-family="Times New Roman,serif" font-size="14.00">[1, 4, 7]</text>
<text text-anchor="start" x="103" y="-474.8" font-family="Times New Roman,serif" font-size="14.00">04/08/20 14:36:32</text>
<text text-anchor="start" x="111" y="-455.8" font-family="Times New Roman,serif" font-size="14.00">dtime=0.0009s</text>
</g>
<!-- sol1 -->
<!-- bag 1&#45;&gt;sol1 -->
<!-- bag 2 -->
<g id="node2" class="node">
<title>bag 2</title>
<path fill="yellow" stroke="black" stroke-width="2.5" d="M275.5,-375C275.5,-375 180.5,-375 180.5,-375 174.5,-375 168.5,-369 168.5,-363 168.5,-363 168.5,-305 168.5,-305 168.5,-299 174.5,-293 180.5,-293 180.5,-293 275.5,-293 275.5,-293 281.5,-293 287.5,-299 287.5,-305 287.5,-305 287.5,-363 287.5,-363 287.5,-369 281.5,-375 275.5,-375"/>
<polygon fill="white" stroke="transparent" points="177,-355 177,-374 280,-374 280,-355 177,-355"/>
<text text-anchor="start" x="213" y="-360.8" font-family="Times New Roman,serif" font-size="14.00">bag 2</text>
<text text-anchor="start" x="199" y="-337.8" font-family="Times New Roman,serif" font-size="14.00">[1, 2, 4, 6]</text>
<text text-anchor="start" x="179" y="-318.8" font-family="Times New Roman,serif" font-size="14.00">04/08/20 14:36:32</text>
<text text-anchor="start" x="187" y="-299.8" font-family="Times New Roman,serif" font-size="14.00">dtime=0.0010s</text>
</g>
<!-- bag 2&#45;&gt;bag 1 -->
<g id="edge1" class="edge">
<title>bag 2&#45;&gt;bag 1</title>
<path fill="none" stroke="black" d="M208.23,-375.06C198.46,-394.86 186.58,-418.92 176.27,-439.83"/>
<polygon fill="black" stroke="black" points="173.09,-438.36 171.8,-448.87 179.37,-441.46 173.09,-438.36"/>
</g>
<!-- sol2 -->
<g id="node9" class="node">
<title>sol2</title>
<path fill="yellow" stroke="black" stroke-width="2.5" d="M242,-430.5C242,-430.5 368,-430.5 368,-430.5 374,-430.5 380,-436.5 380,-442.5 380,-442.5 380,-537.5 380,-537.5 380,-543.5 374,-549.5 368,-549.5 368,-549.5 242,-549.5 242,-549.5 236,-549.5 230,-543.5 230,-537.5 230,-537.5 230,-442.5 230,-442.5 230,-436.5 236,-430.5 242,-430.5"/>
<text text-anchor="middle" x="305" y="-537.3" font-family="Times New Roman,serif" font-size="14.00">sol bag 2</text>
<polyline fill="none" stroke="black" stroke-width="2.5" points="230,-532.5 380,-532.5 "/>
<text text-anchor="middle" x="245" y="-520.3" font-family="Times New Roman,serif" font-size="14.00">v1</text>
<polyline fill="none" stroke="black" stroke-width="2.5" points="230,-515.5 260,-515.5 "/>
<text text-anchor="middle" x="245" y="-503.3" font-family="Times New Roman,serif" font-size="14.00">0</text>
<polyline fill="none" stroke="black" stroke-width="2.5" points="230,-498.5 260,-498.5 "/>
<text text-anchor="middle" x="245" y="-486.3" font-family="Times New Roman,serif" font-size="14.00">1</text>
<polyline fill="none" stroke="black" stroke-width="2.5" points="230,-481.5 260,-481.5 "/>
<text text-anchor="middle" x="245" y="-469.3" font-family="Times New Roman,serif" font-size="14.00">1</text>
<polyline fill="none" stroke="black" stroke-width="2.5" points="230,-464.5 260,-464.5 "/>
<text text-anchor="middle" x="245" y="-452.3" font-family="Times New Roman,serif" font-size="14.00">0</text>
<polyline fill="none" stroke="black" stroke-width="2.5" points="260,-447.5 260,-532.5 "/>
<text text-anchor="middle" x="275" y="-520.3" font-family="Times New Roman,serif" font-size="14.00">v4</text>
<polyline fill="none" stroke="black" stroke-width="2.5" points="260,-515.5 290,-515.5 "/>
<text text-anchor="middle" x="275" y="-503.3" font-family="Times New Roman,serif" font-size="14.00">0</text>
<polyline fill="none" stroke="black" stroke-width="2.5" points="260,-498.5 290,-498.5 "/>
<text text-anchor="middle" x="275" y="-486.3" font-family="Times New Roman,serif" font-size="14.00">1</text>
<polyline fill="none" stroke="black" stroke-width="2.5" points="260,-481.5 290,-481.5 "/>
<text text-anchor="middle" x="275" y="-469.3" font-family="Times New Roman,serif" font-size="14.00">0</text>
<polyline fill="none" stroke="black" stroke-width="2.5" points="260,-464.5 290,-464.5 "/>
<text text-anchor="middle" x="275" y="-452.3" font-family="Times New Roman,serif" font-size="14.00">1</text>
<polyline fill="none" stroke="black" stroke-width="2.5" points="290,-447.5 290,-532.5 "/>
<text text-anchor="middle" x="335" y="-520.3" font-family="Times New Roman,serif" font-size="14.00">model_count</text>
<polyline fill="none" stroke="black" stroke-width="2.5" points="290,-515.5 380,-515.5 "/>
<text text-anchor="middle" x="335" y="-503.3" font-family="Times New Roman,serif" font-size="14.00">2</text>
<polyline fill="none" stroke="black" stroke-width="2.5" points="290,-498.5 380,-498.5 "/>
<text text-anchor="middle" x="335" y="-486.3" font-family="Times New Roman,serif" font-size="14.00">6</text>
<polyline fill="none" stroke="black" stroke-width="2.5" points="290,-481.5 380,-481.5 "/>
<text text-anchor="middle" x="335" y="-469.3" font-family="Times New Roman,serif" font-size="14.00">9</text>
<polyline fill="none" stroke="black" stroke-width="2.5" points="290,-464.5 380,-464.5 "/>
<text text-anchor="middle" x="335" y="-452.3" font-family="Times New Roman,serif" font-size="14.00">3</text>
<polyline fill="none" stroke="black" stroke-width="2.5" points="230,-447.5 380,-447.5 "/>
<text text-anchor="middle" x="305" y="-435.3" font-family="Times New Roman,serif" font-size="14.00">sum: 20</text>
</g>
<!-- bag 2&#45;&gt;sol2 -->
<g id="edge8" class="edge">
<title>bag 2&#45;&gt;sol2</title>
<path fill="none" stroke="black" d="M248.03,-375.06C255.07,-389.14 263.19,-405.38 271.05,-421.11"/>
<polygon fill="black" stroke="black" points="268.04,-422.91 275.64,-430.29 274.3,-419.78 268.04,-422.91"/>
</g>
<!-- bag 3 -->
<g id="node3" class="node">
<title>bag 3</title>
<path fill="white" stroke="black" d="M202.5,-219C202.5,-219 107.5,-219 107.5,-219 101.5,-219 95.5,-213 95.5,-207 95.5,-207 95.5,-149 95.5,-149 95.5,-143 101.5,-137 107.5,-137 107.5,-137 202.5,-137 202.5,-137 208.5,-137 214.5,-143 214.5,-149 214.5,-149 214.5,-207 214.5,-207 214.5,-213 208.5,-219 202.5,-219"/>
<polygon fill="white" stroke="transparent" points="104,-199 104,-218 207,-218 207,-199 104,-199"/>
<text text-anchor="start" x="140" y="-204.8" font-family="Times New Roman,serif" font-size="14.00">bag 3</text>
<text text-anchor="start" x="133" y="-181.8" font-family="Times New Roman,serif" font-size="14.00">[1, 2, 5]</text>
<text text-anchor="start" x="106" y="-162.8" font-family="Times New Roman,serif" font-size="14.00">04/08/20 14:36:32</text>
<text text-anchor="start" x="114" y="-143.8" font-family="Times New Roman,serif" font-size="14.00">dtime=0.0033s</text>
</g>
<!-- bag 3&#45;&gt;bag 2 -->
<g id="edge2" class="edge">
<title>bag 3&#45;&gt;bag 2</title>
<path fill="none" stroke="black" d="M173.99,-219.06C183.37,-238.86 194.78,-262.92 204.69,-283.83"/>
<polygon fill="black" stroke="black" points="201.53,-285.34 208.98,-292.87 207.86,-282.34 201.53,-285.34"/>
</g>
<!-- sol3 -->
<g id="node6" class="node">
<title>sol3</title>
<path fill="white" stroke="black" d="M12,-283C12,-283 138,-283 138,-283 144,-283 150,-289 150,-295 150,-295 150,-373 150,-373 150,-379 144,-385 138,-385 138,-385 12,-385 12,-385 6,-385 0,-379 0,-373 0,-373 0,-295 0,-295 0,-289 6,-283 12,-283"/>
<text text-anchor="middle" x="75" y="-372.8" font-family="Times New Roman,serif" font-size="14.00">sol bag 3</text>
<polyline fill="none" stroke="black" points="0,-368 150,-368 "/>
<text text-anchor="middle" x="15" y="-355.8" font-family="Times New Roman,serif" font-size="14.00">v1</text>
<polyline fill="none" stroke="black" points="0,-351 30,-351 "/>
<text text-anchor="middle" x="15" y="-338.8" font-family="Times New Roman,serif" font-size="14.00">1</text>
<polyline fill="none" stroke="black" points="0,-334 30,-334 "/>
<text text-anchor="middle" x="15" y="-321.8" font-family="Times New Roman,serif" font-size="14.00">1</text>
<polyline fill="none" stroke="black" points="0,-317 30,-317 "/>
<text text-anchor="middle" x="15" y="-304.8" font-family="Times New Roman,serif" font-size="14.00">0</text>
<polyline fill="none" stroke="black" points="30,-300 30,-368 "/>
<text text-anchor="middle" x="45" y="-355.8" font-family="Times New Roman,serif" font-size="14.00">v2</text>
<polyline fill="none" stroke="black" points="30,-351 60,-351 "/>
<text text-anchor="middle" x="45" y="-338.8" font-family="Times New Roman,serif" font-size="14.00">1</text>
<polyline fill="none" stroke="black" points="30,-334 60,-334 "/>
<text text-anchor="middle" x="45" y="-321.8" font-family="Times New Roman,serif" font-size="14.00">0</text>
<polyline fill="none" stroke="black" points="30,-317 60,-317 "/>
<text text-anchor="middle" x="45" y="-304.8" font-family="Times New Roman,serif" font-size="14.00">1</text>
<polyline fill="none" stroke="black" points="60,-300 60,-368 "/>
<text text-anchor="middle" x="105" y="-355.8" font-family="Times New Roman,serif" font-size="14.00">model_count</text>
<polyline fill="none" stroke="black" points="60,-351 150,-351 "/>
<text text-anchor="middle" x="105" y="-338.8" font-family="Times New Roman,serif" font-size="14.00">2</text>
<polyline fill="none" stroke="black" points="60,-334 150,-334 "/>
<text text-anchor="middle" x="105" y="-321.8" font-family="Times New Roman,serif" font-size="14.00">1</text>
<polyline fill="none" stroke="black" points="60,-317 150,-317 "/>
<text text-anchor="middle" x="105" y="-304.8" font-family="Times New Roman,serif" font-size="14.00">1</text>
<polyline fill="none" stroke="black" points="0,-300 150,-300 "/>
<text text-anchor="middle" x="75" y="-287.8" font-family="Times New Roman,serif" font-size="14.00">sum: 4</text>
</g>
<!-- bag 3&#45;&gt;sol3 -->
<g id="edge5" class="edge">
<title>bag 3&#45;&gt;sol3</title>
<path fill="none" stroke="black" d="M134.19,-219.06C125.48,-235.83 115.17,-255.67 105.62,-274.05"/>
<polygon fill="black" stroke="black" points="102.51,-272.45 101.01,-282.94 108.72,-275.68 102.51,-272.45"/>
</g>
<!-- bag 4 -->
<g id="node4" class="node">
<title>bag 4</title>
<path fill="white" stroke="black" d="M347.5,-219C347.5,-219 252.5,-219 252.5,-219 246.5,-219 240.5,-213 240.5,-207 240.5,-207 240.5,-149 240.5,-149 240.5,-143 246.5,-137 252.5,-137 252.5,-137 347.5,-137 347.5,-137 353.5,-137 359.5,-143 359.5,-149 359.5,-149 359.5,-207 359.5,-207 359.5,-213 353.5,-219 347.5,-219"/>
<polygon fill="white" stroke="transparent" points="249,-199 249,-218 352,-218 352,-199 249,-199"/>
<text text-anchor="start" x="285" y="-204.8" font-family="Times New Roman,serif" font-size="14.00">bag 4</text>
<text text-anchor="start" x="278" y="-181.8" font-family="Times New Roman,serif" font-size="14.00">[2, 4, 8]</text>
<text text-anchor="start" x="251" y="-162.8" font-family="Times New Roman,serif" font-size="14.00">04/08/20 14:36:32</text>
<text text-anchor="start" x="259" y="-143.8" font-family="Times New Roman,serif" font-size="14.00">dtime=0.0022s</text>
</g>
<!-- bag 4&#45;&gt;bag 2 -->
<g id="edge3" class="edge">
<title>bag 4&#45;&gt;bag 2</title>
<path fill="none" stroke="black" d="M281.27,-219.06C272.06,-238.77 260.87,-262.71 251.12,-283.54"/>
<polygon fill="black" stroke="black" points="247.83,-282.33 246.76,-292.87 254.17,-285.3 247.83,-282.33"/>
</g>
<!-- sol4 -->
<g id="node8" class="node">
<title>sol4</title>
<path fill="white" stroke="black" d="M318,-274.5C318,-274.5 444,-274.5 444,-274.5 450,-274.5 456,-280.5 456,-286.5 456,-286.5 456,-381.5 456,-381.5 456,-387.5 450,-393.5 444,-393.5 444,-393.5 318,-393.5 318,-393.5 312,-393.5 306,-387.5 306,-381.5 306,-381.5 306,-286.5 306,-286.5 306,-280.5 312,-274.5 318,-274.5"/>
<text text-anchor="middle" x="381" y="-381.3" font-family="Times New Roman,serif" font-size="14.00">sol bag 4</text>
<polyline fill="none" stroke="black" points="306,-376.5 456,-376.5 "/>
<text text-anchor="middle" x="321" y="-364.3" font-family="Times New Roman,serif" font-size="14.00">v2</text>
<polyline fill="none" stroke="black" points="306,-359.5 336,-359.5 "/>
<text text-anchor="middle" x="321" y="-347.3" font-family="Times New Roman,serif" font-size="14.00">1</text>
<polyline fill="none" stroke="black" points="306,-342.5 336,-342.5 "/>
<text text-anchor="middle" x="321" y="-330.3" font-family="Times New Roman,serif" font-size="14.00">0</text>
<polyline fill="none" stroke="black" points="306,-325.5 336,-325.5 "/>
<text text-anchor="middle" x="321" y="-313.3" font-family="Times New Roman,serif" font-size="14.00">1</text>
<polyline fill="none" stroke="black" points="306,-308.5 336,-308.5 "/>
<text text-anchor="middle" x="321" y="-296.3" font-family="Times New Roman,serif" font-size="14.00">0</text>
<polyline fill="none" stroke="black" points="336,-291.5 336,-376.5 "/>
<text text-anchor="middle" x="351" y="-364.3" font-family="Times New Roman,serif" font-size="14.00">v4</text>
<polyline fill="none" stroke="black" points="336,-359.5 366,-359.5 "/>
<text text-anchor="middle" x="351" y="-347.3" font-family="Times New Roman,serif" font-size="14.00">1</text>
<polyline fill="none" stroke="black" points="336,-342.5 366,-342.5 "/>
<text text-anchor="middle" x="351" y="-330.3" font-family="Times New Roman,serif" font-size="14.00">0</text>
<polyline fill="none" stroke="black" points="336,-325.5 366,-325.5 "/>
<text text-anchor="middle" x="351" y="-313.3" font-family="Times New Roman,serif" font-size="14.00">0</text>
<polyline fill="none" stroke="black" points="336,-308.5 366,-308.5 "/>
<text text-anchor="middle" x="351" y="-296.3" font-family="Times New Roman,serif" font-size="14.00">1</text>
<polyline fill="none" stroke="black" points="366,-291.5 366,-376.5 "/>
<text text-anchor="middle" x="411" y="-364.3" font-family="Times New Roman,serif" font-size="14.00">model_count</text>
<polyline fill="none" stroke="black" points="366,-359.5 456,-359.5 "/>
<text text-anchor="middle" x="411" y="-347.3" font-family="Times New Roman,serif" font-size="14.00">3</text>
<polyline fill="none" stroke="black" points="366,-342.5 456,-342.5 "/>
<text text-anchor="middle" x="411" y="-330.3" font-family="Times New Roman,serif" font-size="14.00">1</text>
<polyline fill="none" stroke="black" points="366,-325.5 456,-325.5 "/>
<text text-anchor="middle" x="411" y="-313.3" font-family="Times New Roman,serif" font-size="14.00">2</text>
<polyline fill="none" stroke="black" points="366,-308.5 456,-308.5 "/>
<text text-anchor="middle" x="411" y="-296.3" font-family="Times New Roman,serif" font-size="14.00">2</text>
<polyline fill="none" stroke="black" points="306,-291.5 456,-291.5 "/>
<text text-anchor="middle" x="381" y="-279.3" font-family="Times New Roman,serif" font-size="14.00">sum: 8</text>
</g>
<!-- bag 4&#45;&gt;sol4 -->
<g id="edge7" class="edge">
<title>bag 4&#45;&gt;sol4</title>
<path fill="none" stroke="black" d="M321.07,-219.06C328.48,-233.14 337.02,-249.38 345.29,-265.11"/>
<polygon fill="black" stroke="black" points="342.37,-267.06 350.12,-274.29 348.56,-263.81 342.37,-267.06"/>
</g>
<!-- bag 5 -->
<g id="node5" class="node">
<title>bag 5</title>
<path fill="white" stroke="black" d="M423.5,-82C423.5,-82 328.5,-82 328.5,-82 322.5,-82 316.5,-76 316.5,-70 316.5,-70 316.5,-12 316.5,-12 316.5,-6 322.5,0 328.5,0 328.5,0 423.5,0 423.5,0 429.5,0 435.5,-6 435.5,-12 435.5,-12 435.5,-70 435.5,-70 435.5,-76 429.5,-82 423.5,-82"/>
<polygon fill="white" stroke="transparent" points="325,-62 325,-81 428,-81 428,-62 325,-62"/>
<text text-anchor="start" x="361" y="-67.8" font-family="Times New Roman,serif" font-size="14.00">bag 5</text>
<text text-anchor="start" x="354" y="-44.8" font-family="Times New Roman,serif" font-size="14.00">[2, 3, 8]</text>
<text text-anchor="start" x="327" y="-25.8" font-family="Times New Roman,serif" font-size="14.00">04/08/20 14:36:32</text>
<text text-anchor="start" x="335" y="-6.8" font-family="Times New Roman,serif" font-size="14.00">dtime=0.0021s</text>
</g>
<!-- bag 5&#45;&gt;bag 4 -->
<g id="edge4" class="edge">
<title>bag 5&#45;&gt;bag 4</title>
<path fill="none" stroke="black" d="M353.4,-82.14C345.36,-96.43 336.21,-112.69 327.78,-127.66"/>
<polygon fill="black" stroke="black" points="324.5,-126.35 322.64,-136.78 330.6,-129.79 324.5,-126.35"/>
</g>
<!-- sol5 -->
<g id="node7" class="node">
<title>sol5</title>
<path fill="white" stroke="black" d="M390,-118.5C390,-118.5 516,-118.5 516,-118.5 522,-118.5 528,-124.5 528,-130.5 528,-130.5 528,-225.5 528,-225.5 528,-231.5 522,-237.5 516,-237.5 516,-237.5 390,-237.5 390,-237.5 384,-237.5 378,-231.5 378,-225.5 378,-225.5 378,-130.5 378,-130.5 378,-124.5 384,-118.5 390,-118.5"/>
<text text-anchor="middle" x="453" y="-225.3" font-family="Times New Roman,serif" font-size="14.00">sol bag 5</text>
<polyline fill="none" stroke="black" points="378,-220.5 528,-220.5 "/>
<text text-anchor="middle" x="393" y="-208.3" font-family="Times New Roman,serif" font-size="14.00">v2</text>
<polyline fill="none" stroke="black" points="378,-203.5 408,-203.5 "/>
<text text-anchor="middle" x="393" y="-191.3" font-family="Times New Roman,serif" font-size="14.00">0</text>
<polyline fill="none" stroke="black" points="378,-186.5 408,-186.5 "/>
<text text-anchor="middle" x="393" y="-174.3" font-family="Times New Roman,serif" font-size="14.00">1</text>
<polyline fill="none" stroke="black" points="378,-169.5 408,-169.5 "/>
<text text-anchor="middle" x="393" y="-157.3" font-family="Times New Roman,serif" font-size="14.00">1</text>
<polyline fill="none" stroke="black" points="378,-152.5 408,-152.5 "/>
<text text-anchor="middle" x="393" y="-140.3" font-family="Times New Roman,serif" font-size="14.00">0</text>
<polyline fill="none" stroke="black" points="408,-135.5 408,-220.5 "/>
<text text-anchor="middle" x="423" y="-208.3" font-family="Times New Roman,serif" font-size="14.00">v8</text>
<polyline fill="none" stroke="black" points="408,-203.5 438,-203.5 "/>
<text text-anchor="middle" x="423" y="-191.3" font-family="Times New Roman,serif" font-size="14.00">0</text>
<polyline fill="none" stroke="black" points="408,-186.5 438,-186.5 "/>
<text text-anchor="middle" x="423" y="-174.3" font-family="Times New Roman,serif" font-size="14.00">1</text>
<polyline fill="none" stroke="black" points="408,-169.5 438,-169.5 "/>
<text text-anchor="middle" x="423" y="-157.3" font-family="Times New Roman,serif" font-size="14.00">0</text>
<polyline fill="none" stroke="black" points="408,-152.5 438,-152.5 "/>
<text text-anchor="middle" x="423" y="-140.3" font-family="Times New Roman,serif" font-size="14.00">1</text>
<polyline fill="none" stroke="black" points="438,-135.5 438,-220.5 "/>
<text text-anchor="middle" x="483" y="-208.3" font-family="Times New Roman,serif" font-size="14.00">model_count</text>
<polyline fill="none" stroke="black" points="438,-203.5 528,-203.5 "/>
<text text-anchor="middle" x="483" y="-191.3" font-family="Times New Roman,serif" font-size="14.00">1</text>
<polyline fill="none" stroke="black" points="438,-186.5 528,-186.5 "/>
<text text-anchor="middle" x="483" y="-174.3" font-family="Times New Roman,serif" font-size="14.00">1</text>
<polyline fill="none" stroke="black" points="438,-169.5 528,-169.5 "/>
<text text-anchor="middle" x="483" y="-157.3" font-family="Times New Roman,serif" font-size="14.00">2</text>
<polyline fill="none" stroke="black" points="438,-152.5 528,-152.5 "/>
<text text-anchor="middle" x="483" y="-140.3" font-family="Times New Roman,serif" font-size="14.00">1</text>
<polyline fill="none" stroke="black" points="378,-135.5 528,-135.5 "/>
<text text-anchor="middle" x="453" y="-123.3" font-family="Times New Roman,serif" font-size="14.00">sum: 5</text>
</g>
<!-- bag 5&#45;&gt;sol5 -->
<g id="edge6" class="edge">
<title>bag 5&#45;&gt;sol5</title>
<path fill="none" stroke="black" d="M398.89,-82.14C403.8,-90.74 409.11,-100.05 414.42,-109.37"/>
<polygon fill="black" stroke="black" points="411.51,-111.32 419.51,-118.28 417.59,-107.86 411.51,-111.32"/>
</g>
</g>
</svg>
