<?xml version="1.0" encoding="UTF-8" standalone="no"?>
<!DOCTYPE svg PUBLIC "-//W3C//DTD SVG 1.1//EN"
 "http://www.w3.org/Graphics/SVG/1.1/DTD/svg11.dtd">
<!-- Generated by graphviz version 2.41.20170921.1950 (20170921.1950)
 -->
<!-- Title: structs Pages: 1 -->
<svg width="873pt" height="685pt"
 viewBox="0.00 0.00 873.00 685.00" xmlns="http://www.w3.org/2000/svg" xmlns:xlink="http://www.w3.org/1999/xlink">
<g id="graph0" class="graph" transform="scale(1 1) rotate(0) translate(4 681)">
<title>structs</title>
<polygon fill="white" stroke="transparent" points="-4,4 -4,-681 869,-681 869,4 -4,4"/>
<!-- bag 1 -->
<g id="node1" class="node">
<title>bag 1</title>
<path fill="yellow" stroke="black" stroke-width="2.5" d="M364,-462C364,-462 94,-462 94,-462 88,-462 82,-456 82,-450 82,-450 82,-438 82,-438 82,-432 88,-426 94,-426 94,-426 364,-426 364,-426 370,-426 376,-432 376,-438 376,-438 376,-450 376,-450 376,-456 370,-462 364,-462"/>
<polygon fill="white" stroke="transparent" points="90,-434 90,-453 125,-453 125,-434 90,-434"/>
<text text-anchor="start" x="92" y="-439.8" font-family="Times New Roman,serif" font-size="14.00">bag 1</text>
<text text-anchor="start" x="131" y="-439.8" font-family="Times New Roman,serif" font-size="14.00">[1, 4, 7]</text>
<text text-anchor="start" x="180" y="-439.8" font-family="Times New Roman,serif" font-size="14.00">03/31/20 09:29:51</text>
<text text-anchor="start" x="283" y="-439.8" font-family="Times New Roman,serif" font-size="14.00">dtime=0.0011s</text>
</g>
<!-- sol1 -->
<!-- bag 1&#45;&gt;sol1 -->
<!-- bag 2 -->
<g id="node2" class="node">
<title>bag 2</title>
<path fill="white" stroke="black" d="M491,-306C491,-306 207,-306 207,-306 201,-306 195,-300 195,-294 195,-294 195,-282 195,-282 195,-276 201,-270 207,-270 207,-270 491,-270 491,-270 497,-270 503,-276 503,-282 503,-282 503,-294 503,-294 503,-300 497,-306 491,-306"/>
<polygon fill="white" stroke="transparent" points="203,-278 203,-297 238,-297 238,-278 203,-278"/>
<text text-anchor="start" x="205" y="-283.8" font-family="Times New Roman,serif" font-size="14.00">bag 2</text>
<text text-anchor="start" x="244" y="-283.8" font-family="Times New Roman,serif" font-size="14.00">[1, 2, 4, 6]</text>
<text text-anchor="start" x="307" y="-283.8" font-family="Times New Roman,serif" font-size="14.00">03/31/20 09:29:51</text>
<text text-anchor="start" x="410" y="-283.8" font-family="Times New Roman,serif" font-size="14.00">dtime=0.0013s</text>
</g>
<!-- bag 2&#45;&gt;bag 1 -->
<g id="edge1" class="edge">
<title>bag 2&#45;&gt;bag 1</title>
<path fill="none" stroke="black" d="M335.7,-306.07C314.62,-333.13 273.4,-386.02 248.82,-417.56"/>
<polygon fill="black" stroke="black" points="245.75,-415.82 242.36,-425.85 251.27,-420.12 245.75,-415.82"/>
</g>
<!-- sol2 -->
<g id="node9" class="node">
<title>sol2</title>
<path fill="white" stroke="black" d="M406,-384.5C406,-384.5 532,-384.5 532,-384.5 538,-384.5 544,-390.5 544,-396.5 544,-396.5 544,-491.5 544,-491.5 544,-497.5 538,-503.5 532,-503.5 532,-503.5 406,-503.5 406,-503.5 400,-503.5 394,-497.5 394,-491.5 394,-491.5 394,-396.5 394,-396.5 394,-390.5 400,-384.5 406,-384.5"/>
<text text-anchor="middle" x="469" y="-491.3" font-family="Times New Roman,serif" font-size="14.00">sol bag 2</text>
<polyline fill="none" stroke="black" points="394,-486.5 544,-486.5 "/>
<text text-anchor="middle" x="409" y="-474.3" font-family="Times New Roman,serif" font-size="14.00">v1</text>
<polyline fill="none" stroke="black" points="394,-469.5 424,-469.5 "/>
<text text-anchor="middle" x="409" y="-457.3" font-family="Times New Roman,serif" font-size="14.00">0</text>
<polyline fill="none" stroke="black" points="394,-452.5 424,-452.5 "/>
<text text-anchor="middle" x="409" y="-440.3" font-family="Times New Roman,serif" font-size="14.00">1</text>
<polyline fill="none" stroke="black" points="394,-435.5 424,-435.5 "/>
<text text-anchor="middle" x="409" y="-423.3" font-family="Times New Roman,serif" font-size="14.00">0</text>
<polyline fill="none" stroke="black" points="394,-418.5 424,-418.5 "/>
<text text-anchor="middle" x="409" y="-406.3" font-family="Times New Roman,serif" font-size="14.00">1</text>
<polyline fill="none" stroke="black" points="424,-401.5 424,-486.5 "/>
<text text-anchor="middle" x="439" y="-474.3" font-family="Times New Roman,serif" font-size="14.00">v4</text>
<polyline fill="none" stroke="black" points="424,-469.5 454,-469.5 "/>
<text text-anchor="middle" x="439" y="-457.3" font-family="Times New Roman,serif" font-size="14.00">0</text>
<polyline fill="none" stroke="black" points="424,-452.5 454,-452.5 "/>
<text text-anchor="middle" x="439" y="-440.3" font-family="Times New Roman,serif" font-size="14.00">1</text>
<polyline fill="none" stroke="black" points="424,-435.5 454,-435.5 "/>
<text text-anchor="middle" x="439" y="-423.3" font-family="Times New Roman,serif" font-size="14.00">1</text>
<polyline fill="none" stroke="black" points="424,-418.5 454,-418.5 "/>
<text text-anchor="middle" x="439" y="-406.3" font-family="Times New Roman,serif" font-size="14.00">0</text>
<polyline fill="none" stroke="black" points="454,-401.5 454,-486.5 "/>
<text text-anchor="middle" x="499" y="-474.3" font-family="Times New Roman,serif" font-size="14.00">model_count</text>
<polyline fill="none" stroke="black" points="454,-469.5 544,-469.5 "/>
<text text-anchor="middle" x="499" y="-457.3" font-family="Times New Roman,serif" font-size="14.00">2</text>
<polyline fill="none" stroke="black" points="454,-452.5 544,-452.5 "/>
<text text-anchor="middle" x="499" y="-440.3" font-family="Times New Roman,serif" font-size="14.00">6</text>
<polyline fill="none" stroke="black" points="454,-435.5 544,-435.5 "/>
<text text-anchor="middle" x="499" y="-423.3" font-family="Times New Roman,serif" font-size="14.00">3</text>
<polyline fill="none" stroke="black" points="454,-418.5 544,-418.5 "/>
<text text-anchor="middle" x="499" y="-406.3" font-family="Times New Roman,serif" font-size="14.00">9</text>
<polyline fill="none" stroke="black" points="394,-401.5 544,-401.5 "/>
<text text-anchor="middle" x="469" y="-389.3" font-family="Times New Roman,serif" font-size="14.00">sum: 20</text>
</g>
<!-- bag 2&#45;&gt;sol2 -->
<g id="edge8" class="edge">
<title>bag 2&#45;&gt;sol2</title>
<path fill="none" stroke="black" d="M362.3,-306.07C375.63,-323.17 397,-350.6 417.13,-376.43"/>
<polygon fill="black" stroke="black" points="414.42,-378.65 423.33,-384.39 419.94,-374.35 414.42,-378.65"/>
</g>
<!-- bag 3 -->
<g id="node3" class="node">
<title>bag 3</title>
<path fill="white" stroke="black" d="M282,-150C282,-150 12,-150 12,-150 6,-150 0,-144 0,-138 0,-138 0,-126 0,-126 0,-120 6,-114 12,-114 12,-114 282,-114 282,-114 288,-114 294,-120 294,-126 294,-126 294,-138 294,-138 294,-144 288,-150 282,-150"/>
<polygon fill="white" stroke="transparent" points="8,-122 8,-141 43,-141 43,-122 8,-122"/>
<text text-anchor="start" x="10" y="-127.8" font-family="Times New Roman,serif" font-size="14.00">bag 3</text>
<text text-anchor="start" x="49" y="-127.8" font-family="Times New Roman,serif" font-size="14.00">[1, 2, 5]</text>
<text text-anchor="start" x="98" y="-127.8" font-family="Times New Roman,serif" font-size="14.00">03/31/20 09:29:51</text>
<text text-anchor="start" x="201" y="-127.8" font-family="Times New Roman,serif" font-size="14.00">dtime=0.0051s</text>
</g>
<!-- bag 3&#45;&gt;bag 2 -->
<g id="edge2" class="edge">
<title>bag 3&#45;&gt;bag 2</title>
<path fill="none" stroke="black" d="M169.39,-150.07C205.72,-177.76 277.55,-232.53 318.51,-263.75"/>
<polygon fill="black" stroke="black" points="316.44,-266.57 326.51,-269.85 320.68,-261.01 316.44,-266.57"/>
</g>
<!-- sol3 -->
<g id="node6" class="node">
<title>sol3</title>
<path fill="white" stroke="black" d="M39,-237C39,-237 165,-237 165,-237 171,-237 177,-243 177,-249 177,-249 177,-327 177,-327 177,-333 171,-339 165,-339 165,-339 39,-339 39,-339 33,-339 27,-333 27,-327 27,-327 27,-249 27,-249 27,-243 33,-237 39,-237"/>
<text text-anchor="middle" x="102" y="-326.8" font-family="Times New Roman,serif" font-size="14.00">sol bag 3</text>
<polyline fill="none" stroke="black" points="27,-322 177,-322 "/>
<text text-anchor="middle" x="42" y="-309.8" font-family="Times New Roman,serif" font-size="14.00">v1</text>
<polyline fill="none" stroke="black" points="27,-305 57,-305 "/>
<text text-anchor="middle" x="42" y="-292.8" font-family="Times New Roman,serif" font-size="14.00">1</text>
<polyline fill="none" stroke="black" points="27,-288 57,-288 "/>
<text text-anchor="middle" x="42" y="-275.8" font-family="Times New Roman,serif" font-size="14.00">1</text>
<polyline fill="none" stroke="black" points="27,-271 57,-271 "/>
<text text-anchor="middle" x="42" y="-258.8" font-family="Times New Roman,serif" font-size="14.00">0</text>
<polyline fill="none" stroke="black" points="57,-254 57,-322 "/>
<text text-anchor="middle" x="72" y="-309.8" font-family="Times New Roman,serif" font-size="14.00">v2</text>
<polyline fill="none" stroke="black" points="57,-305 87,-305 "/>
<text text-anchor="middle" x="72" y="-292.8" font-family="Times New Roman,serif" font-size="14.00">1</text>
<polyline fill="none" stroke="black" points="57,-288 87,-288 "/>
<text text-anchor="middle" x="72" y="-275.8" font-family="Times New Roman,serif" font-size="14.00">0</text>
<polyline fill="none" stroke="black" points="57,-271 87,-271 "/>
<text text-anchor="middle" x="72" y="-258.8" font-family="Times New Roman,serif" font-size="14.00">1</text>
<polyline fill="none" stroke="black" points="87,-254 87,-322 "/>
<text text-anchor="middle" x="132" y="-309.8" font-family="Times New Roman,serif" font-size="14.00">model_count</text>
<polyline fill="none" stroke="black" points="87,-305 177,-305 "/>
<text text-anchor="middle" x="132" y="-292.8" font-family="Times New Roman,serif" font-size="14.00">2</text>
<polyline fill="none" stroke="black" points="87,-288 177,-288 "/>
<text text-anchor="middle" x="132" y="-275.8" font-family="Times New Roman,serif" font-size="14.00">1</text>
<polyline fill="none" stroke="black" points="87,-271 177,-271 "/>
<text text-anchor="middle" x="132" y="-258.8" font-family="Times New Roman,serif" font-size="14.00">1</text>
<polyline fill="none" stroke="black" points="27,-254 177,-254 "/>
<text text-anchor="middle" x="102" y="-241.8" font-family="Times New Roman,serif" font-size="14.00">sum: 4</text>
</g>
<!-- bag 3&#45;&gt;sol3 -->
<g id="edge5" class="edge">
<title>bag 3&#45;&gt;sol3</title>
<path fill="none" stroke="black" d="M142.01,-150.07C136.57,-168.7 127.54,-199.59 119.44,-227.32"/>
<polygon fill="black" stroke="black" points="116.06,-226.39 116.62,-236.97 122.78,-228.35 116.06,-226.39"/>
</g>
<!-- bag 4 -->
<g id="node4" class="node">
<title>bag 4</title>
<path fill="white" stroke="black" d="M685,-150C685,-150 415,-150 415,-150 409,-150 403,-144 403,-138 403,-138 403,-126 403,-126 403,-120 409,-114 415,-114 415,-114 685,-114 685,-114 691,-114 697,-120 697,-126 697,-126 697,-138 697,-138 697,-144 691,-150 685,-150"/>
<polygon fill="white" stroke="transparent" points="411,-122 411,-141 446,-141 446,-122 411,-122"/>
<text text-anchor="start" x="413" y="-127.8" font-family="Times New Roman,serif" font-size="14.00">bag 4</text>
<text text-anchor="start" x="452" y="-127.8" font-family="Times New Roman,serif" font-size="14.00">[2, 4, 8]</text>
<text text-anchor="start" x="501" y="-127.8" font-family="Times New Roman,serif" font-size="14.00">03/31/20 09:29:51</text>
<text text-anchor="start" x="604" y="-127.8" font-family="Times New Roman,serif" font-size="14.00">dtime=0.0029s</text>
</g>
<!-- bag 4&#45;&gt;bag 2 -->
<g id="edge3" class="edge">
<title>bag 4&#45;&gt;bag 2</title>
<path fill="none" stroke="black" d="M527.72,-150.07C491.58,-177.76 420.1,-232.53 379.34,-263.75"/>
<polygon fill="black" stroke="black" points="377.19,-260.99 371.38,-269.85 381.44,-266.55 377.19,-260.99"/>
</g>
<!-- sol4 -->
<g id="node8" class="node">
<title>sol4</title>
<path fill="white" stroke="black" d="M533,-228.5C533,-228.5 659,-228.5 659,-228.5 665,-228.5 671,-234.5 671,-240.5 671,-240.5 671,-335.5 671,-335.5 671,-341.5 665,-347.5 659,-347.5 659,-347.5 533,-347.5 533,-347.5 527,-347.5 521,-341.5 521,-335.5 521,-335.5 521,-240.5 521,-240.5 521,-234.5 527,-228.5 533,-228.5"/>
<text text-anchor="middle" x="596" y="-335.3" font-family="Times New Roman,serif" font-size="14.00">sol bag 4</text>
<polyline fill="none" stroke="black" points="521,-330.5 671,-330.5 "/>
<text text-anchor="middle" x="536" y="-318.3" font-family="Times New Roman,serif" font-size="14.00">v2</text>
<polyline fill="none" stroke="black" points="521,-313.5 551,-313.5 "/>
<text text-anchor="middle" x="536" y="-301.3" font-family="Times New Roman,serif" font-size="14.00">1</text>
<polyline fill="none" stroke="black" points="521,-296.5 551,-296.5 "/>
<text text-anchor="middle" x="536" y="-284.3" font-family="Times New Roman,serif" font-size="14.00">0</text>
<polyline fill="none" stroke="black" points="521,-279.5 551,-279.5 "/>
<text text-anchor="middle" x="536" y="-267.3" font-family="Times New Roman,serif" font-size="14.00">1</text>
<polyline fill="none" stroke="black" points="521,-262.5 551,-262.5 "/>
<text text-anchor="middle" x="536" y="-250.3" font-family="Times New Roman,serif" font-size="14.00">0</text>
<polyline fill="none" stroke="black" points="551,-245.5 551,-330.5 "/>
<text text-anchor="middle" x="566" y="-318.3" font-family="Times New Roman,serif" font-size="14.00">v4</text>
<polyline fill="none" stroke="black" points="551,-313.5 581,-313.5 "/>
<text text-anchor="middle" x="566" y="-301.3" font-family="Times New Roman,serif" font-size="14.00">1</text>
<polyline fill="none" stroke="black" points="551,-296.5 581,-296.5 "/>
<text text-anchor="middle" x="566" y="-284.3" font-family="Times New Roman,serif" font-size="14.00">0</text>
<polyline fill="none" stroke="black" points="551,-279.5 581,-279.5 "/>
<text text-anchor="middle" x="566" y="-267.3" font-family="Times New Roman,serif" font-size="14.00">0</text>
<polyline fill="none" stroke="black" points="551,-262.5 581,-262.5 "/>
<text text-anchor="middle" x="566" y="-250.3" font-family="Times New Roman,serif" font-size="14.00">1</text>
<polyline fill="none" stroke="black" points="581,-245.5 581,-330.5 "/>
<text text-anchor="middle" x="626" y="-318.3" font-family="Times New Roman,serif" font-size="14.00">model_count</text>
<polyline fill="none" stroke="black" points="581,-313.5 671,-313.5 "/>
<text text-anchor="middle" x="626" y="-301.3" font-family="Times New Roman,serif" font-size="14.00">3</text>
<polyline fill="none" stroke="black" points="581,-296.5 671,-296.5 "/>
<text text-anchor="middle" x="626" y="-284.3" font-family="Times New Roman,serif" font-size="14.00">1</text>
<polyline fill="none" stroke="black" points="581,-279.5 671,-279.5 "/>
<text text-anchor="middle" x="626" y="-267.3" font-family="Times New Roman,serif" font-size="14.00">2</text>
<polyline fill="none" stroke="black" points="581,-262.5 671,-262.5 "/>
<text text-anchor="middle" x="626" y="-250.3" font-family="Times New Roman,serif" font-size="14.00">2</text>
<polyline fill="none" stroke="black" points="521,-245.5 671,-245.5 "/>
<text text-anchor="middle" x="596" y="-233.3" font-family="Times New Roman,serif" font-size="14.00">sum: 8</text>
</g>
<!-- bag 4&#45;&gt;sol4 -->
<g id="edge7" class="edge">
<title>bag 4&#45;&gt;sol4</title>
<path fill="none" stroke="black" d="M555.1,-150.07C560.1,-166.8 568.05,-193.42 575.62,-218.76"/>
<polygon fill="black" stroke="black" points="572.28,-219.81 578.49,-228.39 578.98,-217.8 572.28,-219.81"/>
</g>
<!-- bag 5 -->
<g id="node5" class="node">
<title>bag 5</title>
<path fill="white" stroke="black" d="M805,-36C805,-36 535,-36 535,-36 529,-36 523,-30 523,-24 523,-24 523,-12 523,-12 523,-6 529,0 535,0 535,0 805,0 805,0 811,0 817,-6 817,-12 817,-12 817,-24 817,-24 817,-30 811,-36 805,-36"/>
<polygon fill="white" stroke="transparent" points="531,-8 531,-27 566,-27 566,-8 531,-8"/>
<text text-anchor="start" x="533" y="-13.8" font-family="Times New Roman,serif" font-size="14.00">bag 5</text>
<text text-anchor="start" x="572" y="-13.8" font-family="Times New Roman,serif" font-size="14.00">[2, 3, 8]</text>
<text text-anchor="start" x="621" y="-13.8" font-family="Times New Roman,serif" font-size="14.00">03/31/20 09:29:51</text>
<text text-anchor="start" x="724" y="-13.8" font-family="Times New Roman,serif" font-size="14.00">dtime=0.0025s</text>
</g>
<!-- bag 5&#45;&gt;bag 4 -->
<g id="edge4" class="edge">
<title>bag 5&#45;&gt;bag 4</title>
<path fill="none" stroke="black" d="M651.77,-36.01C631.51,-54.92 598.63,-85.62 575.74,-106.97"/>
<polygon fill="black" stroke="black" points="573.32,-104.45 568.4,-113.83 578.1,-109.57 573.32,-104.45"/>
</g>
<!-- sol5 -->
<g id="node7" class="node">
<title>sol5</title>
<path fill="white" stroke="black" d="M727,-72.5C727,-72.5 853,-72.5 853,-72.5 859,-72.5 865,-78.5 865,-84.5 865,-84.5 865,-179.5 865,-179.5 865,-185.5 859,-191.5 853,-191.5 853,-191.5 727,-191.5 727,-191.5 721,-191.5 715,-185.5 715,-179.5 715,-179.5 715,-84.5 715,-84.5 715,-78.5 721,-72.5 727,-72.5"/>
<text text-anchor="middle" x="790" y="-179.3" font-family="Times New Roman,serif" font-size="14.00">sol bag 5</text>
<polyline fill="none" stroke="black" points="715,-174.5 865,-174.5 "/>
<text text-anchor="middle" x="730" y="-162.3" font-family="Times New Roman,serif" font-size="14.00">v2</text>
<polyline fill="none" stroke="black" points="715,-157.5 745,-157.5 "/>
<text text-anchor="middle" x="730" y="-145.3" font-family="Times New Roman,serif" font-size="14.00">0</text>
<polyline fill="none" stroke="black" points="715,-140.5 745,-140.5 "/>
<text text-anchor="middle" x="730" y="-128.3" font-family="Times New Roman,serif" font-size="14.00">1</text>
<polyline fill="none" stroke="black" points="715,-123.5 745,-123.5 "/>
<text text-anchor="middle" x="730" y="-111.3" font-family="Times New Roman,serif" font-size="14.00">0</text>
<polyline fill="none" stroke="black" points="715,-106.5 745,-106.5 "/>
<text text-anchor="middle" x="730" y="-94.3" font-family="Times New Roman,serif" font-size="14.00">1</text>
<polyline fill="none" stroke="black" points="745,-89.5 745,-174.5 "/>
<text text-anchor="middle" x="760" y="-162.3" font-family="Times New Roman,serif" font-size="14.00">v8</text>
<polyline fill="none" stroke="black" points="745,-157.5 775,-157.5 "/>
<text text-anchor="middle" x="760" y="-145.3" font-family="Times New Roman,serif" font-size="14.00">0</text>
<polyline fill="none" stroke="black" points="745,-140.5 775,-140.5 "/>
<text text-anchor="middle" x="760" y="-128.3" font-family="Times New Roman,serif" font-size="14.00">1</text>
<polyline fill="none" stroke="black" points="745,-123.5 775,-123.5 "/>
<text text-anchor="middle" x="760" y="-111.3" font-family="Times New Roman,serif" font-size="14.00">1</text>
<polyline fill="none" stroke="black" points="745,-106.5 775,-106.5 "/>
<text text-anchor="middle" x="760" y="-94.3" font-family="Times New Roman,serif" font-size="14.00">0</text>
<polyline fill="none" stroke="black" points="775,-89.5 775,-174.5 "/>
<text text-anchor="middle" x="820" y="-162.3" font-family="Times New Roman,serif" font-size="14.00">model_count</text>
<polyline fill="none" stroke="black" points="775,-157.5 865,-157.5 "/>
<text text-anchor="middle" x="820" y="-145.3" font-family="Times New Roman,serif" font-size="14.00">1</text>
<polyline fill="none" stroke="black" points="775,-140.5 865,-140.5 "/>
<text text-anchor="middle" x="820" y="-128.3" font-family="Times New Roman,serif" font-size="14.00">1</text>
<polyline fill="none" stroke="black" points="775,-123.5 865,-123.5 "/>
<text text-anchor="middle" x="820" y="-111.3" font-family="Times New Roman,serif" font-size="14.00">1</text>
<polyline fill="none" stroke="black" points="775,-106.5 865,-106.5 "/>
<text text-anchor="middle" x="820" y="-94.3" font-family="Times New Roman,serif" font-size="14.00">2</text>
<polyline fill="none" stroke="black" points="715,-89.5 865,-89.5 "/>
<text text-anchor="middle" x="790" y="-77.3" font-family="Times New Roman,serif" font-size="14.00">sum: 5</text>
</g>
<!-- bag 5&#45;&gt;sol5 -->
<g id="edge6" class="edge">
<title>bag 5&#45;&gt;sol5</title>
<path fill="none" stroke="black" d="M688.23,-36.01C697.02,-44.22 708.2,-54.65 719.9,-65.57"/>
<polygon fill="black" stroke="black" points="717.54,-68.15 727.24,-72.42 722.31,-63.04 717.54,-68.15"/>
</g>
</g>
</svg>
