<?xml version="1.0" encoding="utf-8"?>
<svg width="1328.75pt" height="1219.0pt" viewBox="0.00 0.00 1328.75 1219.0" xmlns="http://www.w3.org/2000/svg" xmlns:xlink="http://www.w3.org/1999/xlink" preserveAspectRatio="xMinYMin">
	<g id="graph0" class="graph" transform="scale(1 1) rotate(0) translate(4 1215)">
		<title>Tree-Decomposition</title>
		<polygon fill="white" stroke="transparent" points="-4,4 -4,-1215 840.5,-1215 840.5,4 -4,4"></polygon>
		<g id="node1" class="node">
			<title>bag 1</title>
			<path fill="white" stroke="black" d="M260.5,-1070C260.5,-1070 165.5,-1070 165.5,-1070 159.5,-1070 153.5,-1064 153.5,-1058 153.5,-1058 153.5,-1000 153.5,-1000 153.5,-994 159.5,-988 165.5,-988 165.5,-988 260.5,-988 260.5,-988 266.5,-988 272.5,-994 272.5,-1000 272.5,-1000 272.5,-1058 272.5,-1058 272.5,-1064 266.5,-1070 260.5,-1070"></path>
			<polygon fill="white" stroke="transparent" points="162,-1050 162,-1069 265,-1069 265,-1050 162,-1050"></polygon>
			<text text-anchor="start" x="198" y="-1055.8" font-family="Times New Roman,serif" font-size="14.00">bag 1</text>
			<text text-anchor="start" x="191.5" y="-1032.8" font-family="Times New Roman,serif" font-size="14.00">[15, 16]</text>
			<text text-anchor="start" x="172" y="-1013.8" font-family="Times New Roman,serif" font-size="14.00">dtime=0.0007s</text>
			<text text-anchor="start" x="164" y="-994.8" font-family="Times New Roman,serif" font-size="14.00">05/23/20 19:06:14</text>
		</g>
		<g id="node2" class="node">
			<title>bag 2</title>
			<path fill="white" stroke="black" d="M318.5,-948C318.5,-948 223.5,-948 223.5,-948 217.5,-948 211.5,-942 211.5,-936 211.5,-936 211.5,-878 211.5,-878 211.5,-872 217.5,-866 223.5,-866 223.5,-866 318.5,-866 318.5,-866 324.5,-866 330.5,-872 330.5,-878 330.5,-878 330.5,-936 330.5,-936 330.5,-942 324.5,-948 318.5,-948"></path>
			<polygon fill="white" stroke="transparent" points="220,-928 220,-947 323,-947 323,-928 220,-928"></polygon>
			<text text-anchor="start" x="256" y="-933.8" font-family="Times New Roman,serif" font-size="14.00">bag 2</text>
			<text text-anchor="start" x="253" y="-910.8" font-family="Times New Roman,serif" font-size="14.00">[6, 15]</text>
			<text text-anchor="start" x="230" y="-891.8" font-family="Times New Roman,serif" font-size="14.00">dtime=0.0008s</text>
			<text text-anchor="start" x="222" y="-872.8" font-family="Times New Roman,serif" font-size="14.00">05/23/20 19:06:14</text>
		</g>
		<g id="edge1" class="edge">
			<title>bag 2-&gt;bag 1</title>
			<path fill="none" stroke="black" d="M251.53,-948.29C246.84,-957.99 241.78,-968.46 236.92,-978.52"></path>
			<polygon fill="black" stroke="black" points="233.72,-977.08 232.52,-987.61 240.02,-980.13 233.72,-977.08"></polygon>
		</g>
		<g id="node3" class="node">
			<title>bag 3</title>
			<path fill="white" stroke="black" d="M376.5,-809C376.5,-809 281.5,-809 281.5,-809 275.5,-809 269.5,-803 269.5,-797 269.5,-797 269.5,-739 269.5,-739 269.5,-733 275.5,-727 281.5,-727 281.5,-727 376.5,-727 376.5,-727 382.5,-727 388.5,-733 388.5,-739 388.5,-739 388.5,-797 388.5,-797 388.5,-803 382.5,-809 376.5,-809"></path>
			<polygon fill="white" stroke="transparent" points="278,-789 278,-808 381,-808 381,-789 278,-789"></polygon>
			<text text-anchor="start" x="314" y="-794.8" font-family="Times New Roman,serif" font-size="14.00">bag 3</text>
			<text text-anchor="start" x="307" y="-771.8" font-family="Times New Roman,serif" font-size="14.00">[4, 6, 7]</text>
			<text text-anchor="start" x="288" y="-752.8" font-family="Times New Roman,serif" font-size="14.00">dtime=0.0007s</text>
			<text text-anchor="start" x="280" y="-733.8" font-family="Times New Roman,serif" font-size="14.00">05/23/20 19:06:14</text>
		</g>
		<g id="edge2" class="edge">
			<title>bag 3-&gt;bag 2</title>
			<path fill="none" stroke="black" d="M311.91,-809.36C305.66,-824.14 298.51,-841.02 291.96,-856.5"></path>
			<polygon fill="black" stroke="black" points="288.64,-855.35 287.97,-865.92 295.09,-858.08 288.64,-855.35"></polygon>
		</g>
		<g id="node4" class="node">
			<title>bag 4</title>
			<path fill="white" stroke="black" d="M440.5,-653C440.5,-653 345.5,-653 345.5,-653 339.5,-653 333.5,-647 333.5,-641 333.5,-641 333.5,-583 333.5,-583 333.5,-577 339.5,-571 345.5,-571 345.5,-571 440.5,-571 440.5,-571 446.5,-571 452.5,-577 452.5,-583 452.5,-583 452.5,-641 452.5,-641 452.5,-647 446.5,-653 440.5,-653"></path>
			<polygon fill="white" stroke="transparent" points="342,-633 342,-652 445,-652 445,-633 342,-633"></polygon>
			<text text-anchor="start" x="378" y="-638.8" font-family="Times New Roman,serif" font-size="14.00">bag 4</text>
			<text text-anchor="start" x="371" y="-615.8" font-family="Times New Roman,serif" font-size="14.00">[3, 4, 7]</text>
			<text text-anchor="start" x="352" y="-596.8" font-family="Times New Roman,serif" font-size="14.00">dtime=0.0014s</text>
			<text text-anchor="start" x="344" y="-577.8" font-family="Times New Roman,serif" font-size="14.00">05/23/20 19:06:14</text>
		</g>
		<g id="edge3" class="edge">
			<title>bag 4-&gt;bag 3</title>
			<path fill="none" stroke="black" d="M376.35,-653.06C368.16,-672.77 358.21,-696.71 349.55,-717.54"></path>
			<polygon fill="black" stroke="black" points="346.28,-716.3 345.68,-726.87 352.75,-718.98 346.28,-716.3"></polygon>
		</g>
		<g id="node5" class="node">
			<title>bag 5</title>
			<path fill="white" stroke="black" d="M570.5,-497C570.5,-497 475.5,-497 475.5,-497 469.5,-497 463.5,-491 463.5,-485 463.5,-485 463.5,-427 463.5,-427 463.5,-421 469.5,-415 475.5,-415 475.5,-415 570.5,-415 570.5,-415 576.5,-415 582.5,-421 582.5,-427 582.5,-427 582.5,-485 582.5,-485 582.5,-491 576.5,-497 570.5,-497"></path>
			<polygon fill="white" stroke="transparent" points="472,-477 472,-496 575,-496 575,-477 472,-477"></polygon>
			<text text-anchor="start" x="508" y="-482.8" font-family="Times New Roman,serif" font-size="14.00">bag 5</text>
			<text text-anchor="start" x="497.5" y="-459.8" font-family="Times New Roman,serif" font-size="14.00">[3, 7, 11]</text>
			<text text-anchor="start" x="482" y="-440.8" font-family="Times New Roman,serif" font-size="14.00">dtime=0.0026s</text>
			<text text-anchor="start" x="474" y="-421.8" font-family="Times New Roman,serif" font-size="14.00">05/23/20 19:06:14</text>
		</g>
		<g id="edge4" class="edge">
			<title>bag 5-&gt;bag 4</title>
			<path fill="none" stroke="black" d="M489.18,-497.06C472.1,-517.3 451.24,-542 433.33,-563.23"></path>
			<polygon fill="black" stroke="black" points="430.65,-560.97 426.87,-570.87 436,-565.49 430.65,-560.97"></polygon>
		</g>
		<g id="node6" class="node">
			<title>bag 6</title>
			<path fill="white" stroke="black" d="M310.5,-497C310.5,-497 215.5,-497 215.5,-497 209.5,-497 203.5,-491 203.5,-485 203.5,-485 203.5,-427 203.5,-427 203.5,-421 209.5,-415 215.5,-415 215.5,-415 310.5,-415 310.5,-415 316.5,-415 322.5,-421 322.5,-427 322.5,-427 322.5,-485 322.5,-485 322.5,-491 316.5,-497 310.5,-497"></path>
			<polygon fill="white" stroke="transparent" points="212,-477 212,-496 315,-496 315,-477 212,-477"></polygon>
			<text text-anchor="start" x="248" y="-482.8" font-family="Times New Roman,serif" font-size="14.00">bag 6</text>
			<text text-anchor="start" x="241" y="-459.8" font-family="Times New Roman,serif" font-size="14.00">[3, 4, 5]</text>
			<text text-anchor="start" x="222" y="-440.8" font-family="Times New Roman,serif" font-size="14.00">dtime=0.0019s</text>
			<text text-anchor="start" x="214" y="-421.8" font-family="Times New Roman,serif" font-size="14.00">05/23/20 19:06:14</text>
		</g>
		<g id="edge5" class="edge">
			<title>bag 6-&gt;bag 4</title>
			<path fill="none" stroke="black" d="M296.82,-497.06C313.9,-517.3 334.76,-542 352.67,-563.23"></path>
			<polygon fill="black" stroke="black" points="350,-565.49 359.13,-570.87 355.35,-560.97 350,-565.49"></polygon>
		</g>
		<g id="node7" class="node">
			<title>bag 7</title>
			<path fill="white" stroke="black" d="M201.5,-341C201.5,-341 106.5,-341 106.5,-341 100.5,-341 94.5,-335 94.5,-329 94.5,-329 94.5,-271 94.5,-271 94.5,-265 100.5,-259 106.5,-259 106.5,-259 201.5,-259 201.5,-259 207.5,-259 213.5,-265 213.5,-271 213.5,-271 213.5,-329 213.5,-329 213.5,-335 207.5,-341 201.5,-341"></path>
			<polygon fill="white" stroke="transparent" points="103,-321 103,-340 206,-340 206,-321 103,-321"></polygon>
			<text text-anchor="start" x="139" y="-326.8" font-family="Times New Roman,serif" font-size="14.00">bag 7</text>
			<text text-anchor="start" x="139" y="-303.8" font-family="Times New Roman,serif" font-size="14.00">[2, 3]</text>
			<text text-anchor="start" x="113" y="-284.8" font-family="Times New Roman,serif" font-size="14.00">dtime=0.0013s</text>
			<text text-anchor="start" x="105" y="-265.8" font-family="Times New Roman,serif" font-size="14.00">05/23/20 19:06:14</text>
		</g>
		<g id="edge6" class="edge">
			<title>bag 7-&gt;bag 5</title>
			<path fill="none" stroke="black" d="M198.25,-341.2C208.13,-348.45 218.97,-355.21 230,-360 322.9,-400.31 363.23,-353.17 455,-396 462.17,-399.35 469.16,-403.68 475.77,-408.47"></path>
			<polygon fill="black" stroke="black" points="473.86,-411.42 483.92,-414.75 478.13,-405.87 473.86,-411.42"></polygon>
		</g>
		<g id="node8" class="node">
			<title>bag 8</title>
			<path fill="white" stroke="black" d="M440.5,-341C440.5,-341 345.5,-341 345.5,-341 339.5,-341 333.5,-335 333.5,-329 333.5,-329 333.5,-271 333.5,-271 333.5,-265 339.5,-259 345.5,-259 345.5,-259 440.5,-259 440.5,-259 446.5,-259 452.5,-265 452.5,-271 452.5,-271 452.5,-329 452.5,-329 452.5,-335 446.5,-341 440.5,-341"></path>
			<polygon fill="white" stroke="transparent" points="342,-321 342,-340 445,-340 445,-321 342,-321"></polygon>
			<text text-anchor="start" x="378" y="-326.8" font-family="Times New Roman,serif" font-size="14.00">bag 8</text>
			<text text-anchor="start" x="367.5" y="-303.8" font-family="Times New Roman,serif" font-size="14.00">[7, 9, 11]</text>
			<text text-anchor="start" x="352" y="-284.8" font-family="Times New Roman,serif" font-size="14.00">dtime=0.0037s</text>
			<text text-anchor="start" x="344" y="-265.8" font-family="Times New Roman,serif" font-size="14.00">05/23/20 19:06:14</text>
		</g>
		<g id="edge7" class="edge">
			<title>bag 8-&gt;bag 5</title>
			<path fill="none" stroke="black" d="M426.82,-341.06C443.9,-361.3 464.76,-386 482.67,-407.23"></path>
			<polygon fill="black" stroke="black" points="480,-409.49 489.13,-414.87 485.35,-404.97 480,-409.49"></polygon>
		</g>
		<g id="node9" class="node">
			<title>bag 9</title>
			<path fill="white" stroke="black" d="M824.5,-341C824.5,-341 729.5,-341 729.5,-341 723.5,-341 717.5,-335 717.5,-329 717.5,-329 717.5,-271 717.5,-271 717.5,-265 723.5,-259 729.5,-259 729.5,-259 824.5,-259 824.5,-259 830.5,-259 836.5,-265 836.5,-271 836.5,-271 836.5,-329 836.5,-329 836.5,-335 830.5,-341 824.5,-341"></path>
			<polygon fill="white" stroke="transparent" points="726,-321 726,-340 829,-340 829,-321 726,-321"></polygon>
			<text text-anchor="start" x="762" y="-326.8" font-family="Times New Roman,serif" font-size="14.00">bag 9</text>
			<text text-anchor="start" x="748.5" y="-303.8" font-family="Times New Roman,serif" font-size="14.00">[7, 11, 14]</text>
			<text text-anchor="start" x="736" y="-284.8" font-family="Times New Roman,serif" font-size="14.00">dtime=0.0009s</text>
			<text text-anchor="start" x="728" y="-265.8" font-family="Times New Roman,serif" font-size="14.00">05/23/20 19:06:14</text>
		</g>
		<g id="edge8" class="edge">
			<title>bag 9-&gt;bag 5</title>
			<path fill="none" stroke="black" d="M732.92,-341.3C724.88,-347.88 716.38,-354.38 708,-360 671.53,-384.47 627.96,-407.13 592.26,-424.18"></path>
			<polygon fill="black" stroke="black" points="590.43,-421.17 582.89,-428.61 593.42,-427.5 590.43,-421.17"></polygon>
		</g>
		<g id="node10" class="node">
			<title>bag 10</title>
			<path fill="white" stroke="black" d="M152.5,-202C152.5,-202 57.5,-202 57.5,-202 51.5,-202 45.5,-196 45.5,-190 45.5,-190 45.5,-132 45.5,-132 45.5,-126 51.5,-120 57.5,-120 57.5,-120 152.5,-120 152.5,-120 158.5,-120 164.5,-126 164.5,-132 164.5,-132 164.5,-190 164.5,-190 164.5,-196 158.5,-202 152.5,-202"></path>
			<polygon fill="white" stroke="transparent" points="54,-182 54,-201 157,-201 157,-182 54,-182"></polygon>
			<text text-anchor="start" x="86.5" y="-187.8" font-family="Times New Roman,serif" font-size="14.00">bag 10</text>
			<text text-anchor="start" x="90" y="-164.8" font-family="Times New Roman,serif" font-size="14.00">[1, 2]</text>
			<text text-anchor="start" x="64" y="-145.8" font-family="Times New Roman,serif" font-size="14.00">dtime=0.0029s</text>
			<text text-anchor="start" x="56" y="-126.8" font-family="Times New Roman,serif" font-size="14.00">05/23/20 19:06:14</text>
		</g>
		<g id="edge9" class="edge">
			<title>bag 10-&gt;bag 7</title>
			<path fill="none" stroke="black" d="M119.44,-202.36C124.72,-217.14 130.76,-234.02 136.3,-249.5"></path>
			<polygon fill="black" stroke="black" points="133,-250.69 139.67,-258.92 139.59,-248.33 133,-250.69"></polygon>
		</g>
		<g id="node15" class="node">
			<title>sol10</title>
			<path fill="white" stroke="black" d="M12,-257.5C12,-257.5 64,-257.5 64,-257.5 70,-257.5 76,-263.5 76,-269.5 76,-269.5 76,-330.5 76,-330.5 76,-336.5 70,-342.5 64,-342.5 64,-342.5 12,-342.5 12,-342.5 6,-342.5 0,-336.5 0,-330.5 0,-330.5 0,-269.5 0,-269.5 0,-263.5 6,-257.5 12,-257.5"></path>
			<text text-anchor="middle" x="38" y="-330.3" font-family="Times New Roman,serif" font-size="14.00">sol bag 10</text>
			<text text-anchor="middle" x="17" y="-313.3" font-family="Times New Roman,serif" font-size="14.00">v2</text>
			<text text-anchor="middle" x="17" y="-296.3" font-family="Times New Roman,serif" font-size="14.00">0</text>
			<text text-anchor="middle" x="17" y="-279.3" font-family="Times New Roman,serif" font-size="14.00">1</text>
			<text text-anchor="middle" x="55" y="-313.3" font-family="Times New Roman,serif" font-size="14.00">size</text>
			<text text-anchor="middle" x="55" y="-296.3" font-family="Times New Roman,serif" font-size="14.00">1</text>
			<text text-anchor="middle" x="55" y="-279.3" font-family="Times New Roman,serif" font-size="14.00">1</text>
			<text text-anchor="middle" x="38" y="-262.3" font-family="Times New Roman,serif" font-size="14.00">min-size: 1</text>
			<polyline fill="none" stroke="black" points="0,-325.5 76,-325.5 "></polyline>
			<polyline fill="none" stroke="black" points="0,-308.5 34,-308.5 "></polyline>
			<polyline fill="none" stroke="black" points="0,-291.5 34,-291.5 "></polyline>
			<polyline fill="none" stroke="black" points="34,-274.5 34,-325.5 "></polyline>
			<polyline fill="none" stroke="black" points="34,-308.5 76,-308.5 "></polyline>
			<polyline fill="none" stroke="black" points="34,-291.5 76,-291.5 "></polyline>
			<polyline fill="none" stroke="black" points="0,-274.5 76,-274.5 "></polyline>
		</g>
		<g id="edge14" class="edge">
			<title>bag 10-&gt;sol10</title>
			<path fill="none" stroke="black" d="M85.26,-202.36C78.29,-216.61 70.36,-232.83 63.01,-247.85"></path>
			<polygon fill="black" stroke="black" points="59.78,-246.5 58.53,-257.02 66.07,-249.58 59.78,-246.5"></polygon>
		</g>
		<g id="node11" class="node">
			<title>bag 11</title>
			<path fill="yellow" stroke="black" stroke-width="2.5" d="M343.5,-202C343.5,-202 248.5,-202 248.5,-202 242.5,-202 236.5,-196 236.5,-190 236.5,-190 236.5,-132 236.5,-132 236.5,-126 242.5,-120 248.5,-120 248.5,-120 343.5,-120 343.5,-120 349.5,-120 355.5,-126 355.5,-132 355.5,-132 355.5,-190 355.5,-190 355.5,-196 349.5,-202 343.5,-202"></path>
			<polygon fill="white" stroke="transparent" points="245,-182 245,-201 348,-201 348,-182 245,-182"></polygon>
			<text text-anchor="start" x="277.5" y="-187.8" font-family="Times New Roman,serif" font-size="14.00">bag 11</text>
			<text text-anchor="start" x="278" y="-164.8" font-family="Times New Roman,serif" font-size="14.00">[9, 10]</text>
			<text text-anchor="start" x="255" y="-145.8" font-family="Times New Roman,serif" font-size="14.00">dtime=0.0019s</text>
			<text text-anchor="start" x="247" y="-126.8" font-family="Times New Roman,serif" font-size="14.00">05/23/20 19:06:14</text>
		</g>
		<g id="edge10" class="edge">
			<title>bag 11-&gt;bag 8</title>
			<path fill="none" stroke="black" d="M324.58,-202.36C335.23,-217.41 347.44,-234.66 358.57,-250.37"></path>
			<polygon fill="black" stroke="black" points="355.99,-252.79 364.63,-258.92 361.7,-248.74 355.99,-252.79"></polygon>
		</g>
		<g id="node16" class="node">
			<title>sol11</title>
			<path fill="yellow" stroke="black" stroke-width="2.5" d="M251,-257.5C251,-257.5 303,-257.5 303,-257.5 309,-257.5 315,-263.5 315,-269.5 315,-269.5 315,-330.5 315,-330.5 315,-336.5 309,-342.5 303,-342.5 303,-342.5 251,-342.5 251,-342.5 245,-342.5 239,-336.5 239,-330.5 239,-330.5 239,-269.5 239,-269.5 239,-263.5 245,-257.5 251,-257.5"></path>
			<text text-anchor="middle" x="277" y="-330.3" font-family="Times New Roman,serif" font-size="14.00">sol bag 11</text>
			<text text-anchor="middle" x="256" y="-313.3" font-family="Times New Roman,serif" font-size="14.00">v9</text>
			<text text-anchor="middle" x="256" y="-296.3" font-family="Times New Roman,serif" font-size="14.00">0</text>
			<text text-anchor="middle" x="256" y="-279.3" font-family="Times New Roman,serif" font-size="14.00">1</text>
			<text text-anchor="middle" x="294" y="-313.3" font-family="Times New Roman,serif" font-size="14.00">size</text>
			<text text-anchor="middle" x="294" y="-296.3" font-family="Times New Roman,serif" font-size="14.00">1</text>
			<text text-anchor="middle" x="294" y="-279.3" font-family="Times New Roman,serif" font-size="14.00">1</text>
			<text text-anchor="middle" x="277" y="-262.3" font-family="Times New Roman,serif" font-size="14.00">min-size: 1</text>
			<polyline fill="none" stroke="black" stroke-width="2.5" points="239,-325.5 315,-325.5 "></polyline>
			<polyline fill="none" stroke="black" stroke-width="2.5" points="239,-308.5 273,-308.5 "></polyline>
			<polyline fill="none" stroke="black" stroke-width="2.5" points="239,-291.5 273,-291.5 "></polyline>
			<polyline fill="none" stroke="black" stroke-width="2.5" points="273,-274.5 273,-325.5 "></polyline>
			<polyline fill="none" stroke="black" stroke-width="2.5" points="273,-308.5 315,-308.5 "></polyline>
			<polyline fill="none" stroke="black" stroke-width="2.5" points="273,-291.5 315,-291.5 "></polyline>
			<polyline fill="none" stroke="black" stroke-width="2.5" points="239,-274.5 315,-274.5 "></polyline>
		</g>
		<g id="edge15" class="edge">
			<title>bag 11-&gt;sol11</title>
			<path fill="none" stroke="black" d="M290.4,-202.36C288.46,-216.34 286.26,-232.22 284.21,-247"></path>
			<polygon fill="black" stroke="black" points="280.73,-246.64 282.82,-257.02 287.66,-247.6 280.73,-246.64"></polygon>
		</g>
		<g id="node12" class="node">
			<title>bag 12</title>
			<path fill="white" stroke="black" d="M533.5,-202C533.5,-202 438.5,-202 438.5,-202 432.5,-202 426.5,-196 426.5,-190 426.5,-190 426.5,-132 426.5,-132 426.5,-126 432.5,-120 438.5,-120 438.5,-120 533.5,-120 533.5,-120 539.5,-120 545.5,-126 545.5,-132 545.5,-132 545.5,-190 545.5,-190 545.5,-196 539.5,-202 533.5,-202"></path>
			<polygon fill="white" stroke="transparent" points="435,-182 435,-201 538,-201 538,-182 435,-182"></polygon>
			<text text-anchor="start" x="467.5" y="-187.8" font-family="Times New Roman,serif" font-size="14.00">bag 12</text>
			<text text-anchor="start" x="464" y="-164.8" font-family="Times New Roman,serif" font-size="14.00">[7, 8, 9]</text>
			<text text-anchor="start" x="445" y="-145.8" font-family="Times New Roman,serif" font-size="14.00">dtime=0.0022s</text>
			<text text-anchor="start" x="437" y="-126.8" font-family="Times New Roman,serif" font-size="14.00">05/23/20 19:06:14</text>
		</g>
		<g id="edge11" class="edge">
			<title>bag 12-&gt;bag 8</title>
			<path fill="none" stroke="black" d="M458.6,-202.36C448.38,-217.41 436.68,-234.66 426.01,-250.37"></path>
			<polygon fill="black" stroke="black" points="422.92,-248.69 420.2,-258.92 428.72,-252.62 422.92,-248.69"></polygon>
		</g>
		<g id="node13" class="node">
			<title>bag 13</title>
			<path fill="white" stroke="black" d="M804.5,-202C804.5,-202 709.5,-202 709.5,-202 703.5,-202 697.5,-196 697.5,-190 697.5,-190 697.5,-132 697.5,-132 697.5,-126 703.5,-120 709.5,-120 709.5,-120 804.5,-120 804.5,-120 810.5,-120 816.5,-126 816.5,-132 816.5,-132 816.5,-190 816.5,-190 816.5,-196 810.5,-202 804.5,-202"></path>
			<polygon fill="white" stroke="transparent" points="706,-182 706,-201 809,-201 809,-182 706,-182"></polygon>
			<text text-anchor="start" x="738.5" y="-187.8" font-family="Times New Roman,serif" font-size="14.00">bag 13</text>
			<text text-anchor="start" x="725" y="-164.8" font-family="Times New Roman,serif" font-size="14.00">[11, 12, 14]</text>
			<text text-anchor="start" x="716" y="-145.8" font-family="Times New Roman,serif" font-size="14.00">dtime=0.0023s</text>
			<text text-anchor="start" x="708" y="-126.8" font-family="Times New Roman,serif" font-size="14.00">05/23/20 19:06:14</text>
		</g>
		<g id="edge12" class="edge">
			<title>bag 13-&gt;bag 9</title>
			<path fill="none" stroke="black" d="M762.89,-202.36C765.01,-216.86 767.42,-233.38 769.65,-248.62"></path>
			<polygon fill="black" stroke="black" points="766.24,-249.54 771.15,-258.92 773.17,-248.52 766.24,-249.54"></polygon>
		</g>
		<g id="node14" class="node">
			<title>bag 14</title>
			<path fill="white" stroke="black" d="M746.5,-82C746.5,-82 651.5,-82 651.5,-82 645.5,-82 639.5,-76 639.5,-70 639.5,-70 639.5,-12 639.5,-12 639.5,-6 645.5,0 651.5,0 651.5,0 746.5,0 746.5,0 752.5,0 758.5,-6 758.5,-12 758.5,-12 758.5,-70 758.5,-70 758.5,-76 752.5,-82 746.5,-82"></path>
			<polygon fill="white" stroke="transparent" points="648,-62 648,-81 751,-81 751,-62 648,-62"></polygon>
			<text text-anchor="start" x="680.5" y="-67.8" font-family="Times New Roman,serif" font-size="14.00">bag 14</text>
			<text text-anchor="start" x="677.5" y="-44.8" font-family="Times New Roman,serif" font-size="14.00">[12, 13]</text>
			<text text-anchor="start" x="658" y="-25.8" font-family="Times New Roman,serif" font-size="14.00">dtime=0.0021s</text>
			<text text-anchor="start" x="650" y="-6.8" font-family="Times New Roman,serif" font-size="14.00">05/23/20 19:06:14</text>
		</g>
		<g id="edge13" class="edge">
			<title>bag 14-&gt;bag 13</title>
			<path fill="none" stroke="black" d="M718.8,-82.28C723.32,-91.49 728.18,-101.37 732.87,-110.91"></path>
			<polygon fill="black" stroke="black" points="729.74,-112.47 737.29,-119.9 736.02,-109.38 729.74,-112.47"></polygon>
		</g>
	</g>
	<g id="graph0" class="graph" transform="scale(1 1) rotate(0) translate(222.126 213.128) translate(884.500000 0.000000)">
		<title>graph</title>
		<polygon fill="white" stroke="none" points="-222.126,213.126 -222.126,-213.128 222.128,-213.128 222.128,213.126 -222.126,213.126"></polygon>
		<g id="edge13" class="edge">
			<title>1--2</title>
			<path fill="none" stroke="black" d="M115.869,148.028C108.474,152.969 100.036,158.607 92.6226,163.561"></path>
		</g>
		<g id="edge16" class="edge">
			<title>3--2</title>
			<path fill="none" stroke="black" d="M25.9911,185.956C32.8896,184.584 40.3374,183.102 47.2314,181.731"></path>
		</g>
		<g id="edge2" class="edge">
			<title>3--4</title>
			<path fill="none" stroke="black" d="M-25.9943,185.956C-32.8921,184.584 -40.3392,183.102 -47.2325,181.731"></path>
		</g>
		<g id="edge5" class="edge">
			<title>4--6</title>
			<path fill="none" stroke="black" d="M-88.4027,161.315C-108.072,141.646 -142.053,107.664 -161.588,88.1291"></path>
		</g>
		<g id="edge11" class="edge">
			<title>5--3</title>
			<path fill="none" stroke="black" d="M-111.914,144.77C-87.161,155.023 -48.1943,171.164 -23.384,181.441"></path>
		</g>
		<g id="edge4" class="edge">
			<title>5--4</title>
			<path fill="none" stroke="black" d="M-115.867,148.028C-108.473,152.969 -100.035,158.607 -92.6211,163.561"></path>
		</g>
		<g id="edge14" class="edge">
			<title>6--7</title>
			<path fill="none" stroke="black" d="M-180.174,55.0613C-182.429,43.7247 -185.324,29.1708 -187.571,17.8738"></path>
		</g>
		<g id="edge1" class="edge">
			<title>6--15</title>
			<path fill="none" stroke="black" d="M-150.428,67.939C-82.8294,54.4936 97.1425,18.6968 164.865,5.22652"></path>
		</g>
		<g id="edge18" class="edge">
			<title>8--7</title>
			<path fill="none" stroke="black" d="M-180.174,-55.061C-182.429,-43.7232 -185.324,-29.1679 -187.571,-17.8698"></path>
		</g>
		<g id="edge7" class="edge">
			<title>8--9</title>
			<path fill="none" stroke="black" d="M-165.475,-89.7582C-159.53,-98.6547 -152.229,-109.582 -146.28,-118.485"></path>
		</g>
		<g id="edge9" class="edge">
			<title>9--11</title>
			<path fill="none" stroke="black" d="M-111.914,-144.771C-87.161,-155.025 -48.1943,-171.166 -23.384,-181.443"></path>
		</g>
		<g id="edge8" class="edge">
			<title>10--9</title>
			<path fill="none" stroke="red" stroke-width="2.2" d="M-92.4195,-163.695C-99.8141,-158.755 -108.252,-153.117 -115.666,-148.164"></path>
		</g>
		<g id="edge10" class="edge">
			<title>11--14</title>
			<path fill="none" stroke="black" d="M19.2304,-178.277C53.197,-155.581 123.417,-108.661 157.367,-85.977"></path>
		</g>
		<g id="edge17" class="edge">
			<title>12--11</title>
			<path fill="none" stroke="black" d="M47.1477,-181.748C40.2492,-183.12 32.8014,-184.602 25.9074,-185.973"></path>
		</g>
		<g id="edge6" class="edge">
			<title>12--13</title>
			<path fill="none" stroke="black" d="M92.4209,-163.695C99.8155,-158.755 108.254,-153.117 115.667,-148.164"></path>
		</g>
		<g id="edge3" class="edge">
			<title>14--7</title>
			<path fill="none" stroke="black" d="M150.427,-67.9399C82.8293,-54.4932 -97.1416,-18.6928 -164.864,-5.22127"></path>
		</g>
		<g id="edge12" class="edge">
			<title>14--12</title>
			<path fill="none" stroke="black" d="M161.314,-88.4039C141.646,-108.072 107.665,-142.053 88.1302,-161.588"></path>
		</g>
		<g id="edge15" class="edge">
			<title>15--16</title>
			<path fill="none" stroke="black" d="M187.531,18.0818C185.275,29.4184 182.38,43.9723 180.132,55.2693"></path>
		</g>
		<g id="node1" class="node">
			<title>16</title>
			<ellipse fill="white" stroke="black" stroke-width="2.2" cx="176.577" cy="73.1403" rx="27" ry="18"></ellipse>
			<text text-anchor="middle" x="176.577" y="76.8403" font-family="Times New Roman,serif" font-size="14.00">16</text>
		</g>
		<g id="node2" class="node">
			<title>1</title>
			<ellipse fill="white" stroke="black" stroke-width="2.2" cx="135.148" cy="135.146" rx="27" ry="18"></ellipse>
			<text text-anchor="middle" x="135.148" y="138.846" font-family="Times New Roman,serif" font-size="14.00">1</text>
		</g>
		<g id="node3" class="node">
			<title>2</title>
			<ellipse fill="white" stroke="black" stroke-width="2.2" cx="73.1417" cy="176.577" rx="27" ry="18"></ellipse>
			<text text-anchor="middle" x="73.1417" y="180.277" font-family="Times New Roman,serif" font-size="14.00">2</text>
		</g>
		<g id="node4" class="node">
			<title>3</title>
			<ellipse fill="white" stroke="black" stroke-width="2.2" cx="-0.00287999" cy="191.126" rx="27" ry="18"></ellipse>
			<text text-anchor="middle" x="-0.00287999" y="194.826" font-family="Times New Roman,serif" font-size="14.00">3</text>
		</g>
		<g id="node5" class="node">
			<title>4</title>
			<ellipse fill="white" stroke="black" stroke-width="2.2" cx="-73.1403" cy="176.577" rx="27" ry="18"></ellipse>
			<text text-anchor="middle" x="-73.1403" y="180.277" font-family="Times New Roman,serif" font-size="14.00">4</text>
		</g>
		<g id="node6" class="node">
			<title>5</title>
			<ellipse fill="white" stroke="black" stroke-width="2.2" cx="-135.146" cy="135.146" rx="27" ry="18"></ellipse>
			<text text-anchor="middle" x="-135.146" y="138.846" font-family="Times New Roman,serif" font-size="14.00">5</text>
		</g>
		<g id="node7" class="node">
			<title>6</title>
			<ellipse fill="white" stroke="black" stroke-width="2.2" cx="-176.577" cy="73.1403" rx="27" ry="18"></ellipse>
			<text text-anchor="middle" x="-176.577" y="76.8403" font-family="Times New Roman,serif" font-size="14.00">6</text>
		</g>
		<g id="node8" class="node">
			<title>7</title>
			<ellipse fill="white" stroke="black" stroke-width="2.2" cx="-191.126" cy="0.00287999" rx="27" ry="18"></ellipse>
			<text text-anchor="middle" x="-191.126" y="3.70288" font-family="Times New Roman,serif" font-size="14.00">7</text>
		</g>
		<g id="node9" class="node">
			<title>8</title>
			<ellipse fill="white" stroke="black" stroke-width="2.2" cx="-176.577" cy="-73.1417" rx="27" ry="18"></ellipse>
			<text text-anchor="middle" x="-176.577" y="-69.4417" font-family="Times New Roman,serif" font-size="14.00">8</text>
		</g>
		<g id="node10" class="node">
			<title>9</title>
			<ellipse fill="yellow" stroke="black" stroke-width="2.2" cx="-135.146" cy="-135.148" rx="27" ry="18"></ellipse>
			<text text-anchor="middle" x="-135.146" y="-131.448" font-family="Times New Roman,serif" font-size="14.00">9</text>
		</g>
		<g id="node11" class="node">
			<title>10</title>
			<ellipse fill="yellow" stroke="black" stroke-width="2.2" cx="-73.1403" cy="-176.577" rx="27" ry="18"></ellipse>
			<text text-anchor="middle" x="-73.1403" y="-172.877" font-family="Times New Roman,serif" font-size="14.00">10</text>
		</g>
		<g id="node12" class="node">
			<title>11</title>
			<ellipse fill="white" stroke="black" stroke-width="2.2" cx="-0.00287999" cy="-191.128" rx="27" ry="18"></ellipse>
			<text text-anchor="middle" x="-0.00287999" y="-187.428" font-family="Times New Roman,serif" font-size="14.00">11</text>
		</g>
		<g id="node13" class="node">
			<title>12</title>
			<ellipse fill="white" stroke="black" stroke-width="2.2" cx="73.1417" cy="-176.577" rx="27" ry="18"></ellipse>
			<text text-anchor="middle" x="73.1417" y="-172.877" font-family="Times New Roman,serif" font-size="14.00">12</text>
		</g>
		<g id="node14" class="node">
			<title>13</title>
			<ellipse fill="white" stroke="black" stroke-width="2.2" cx="135.148" cy="-135.148" rx="27" ry="18"></ellipse>
			<text text-anchor="middle" x="135.148" y="-131.448" font-family="Times New Roman,serif" font-size="14.00">13</text>
		</g>
		<g id="node15" class="node">
			<title>14</title>
			<ellipse fill="white" stroke="black" stroke-width="2.2" cx="176.577" cy="-73.1417" rx="27" ry="18"></ellipse>
			<text text-anchor="middle" x="176.577" y="-69.4417" font-family="Times New Roman,serif" font-size="14.00">14</text>
		</g>
		<g id="node16" class="node">
			<title>15</title>
			<ellipse fill="white" stroke="black" stroke-width="2.2" cx="191.128" cy="0.00287999" rx="27" ry="18"></ellipse>
			<text text-anchor="middle" x="191.128" y="3.70288" font-family="Times New Roman,serif" font-size="14.00">15</text>
		</g>
	</g>
</svg>