<?xml version="1.0" encoding="UTF-8" standalone="no"?>
<!DOCTYPE svg PUBLIC "-//W3C//DTD SVG 1.1//EN"
 "http://www.w3.org/Graphics/SVG/1.1/DTD/svg11.dtd">
<!-- Generated by graphviz version 2.38.0 (20140413.2041)
 -->
<!-- Title: graph Pages: 1 -->
<svg width="444pt" height="426pt"
 viewBox="0.00 0.00 444.25 426.25" xmlns="http://www.w3.org/2000/svg" xmlns:xlink="http://www.w3.org/1999/xlink">
<g id="graph0" class="graph" transform="scale(1 1) rotate(0) translate(222.126 213.128)">
<title>graph</title>
<polygon fill="white" stroke="none" points="-222.126,213.126 -222.126,-213.128 222.128,-213.128 222.128,213.126 -222.126,213.126"/>
<!-- 1&#45;&#45;2 -->
<g id="edge13" class="edge"><title>1&#45;&#45;2</title>
<path fill="none" stroke="red" stroke-width="2.2" d="M115.869,148.028C108.474,152.969 100.036,158.607 92.6226,163.561"/>
</g>
<!-- 3&#45;&#45;2 -->
<g id="edge16" class="edge"><title>3&#45;&#45;2</title>
<path fill="none" stroke="black" d="M25.9911,185.956C32.8896,184.584 40.3374,183.102 47.2314,181.731"/>
</g>
<!-- 3&#45;&#45;4 -->
<g id="edge2" class="edge"><title>3&#45;&#45;4</title>
<path fill="none" stroke="black" d="M-25.9943,185.956C-32.8921,184.584 -40.3392,183.102 -47.2325,181.731"/>
</g>
<!-- 4&#45;&#45;6 -->
<g id="edge5" class="edge"><title>4&#45;&#45;6</title>
<path fill="none" stroke="black" d="M-88.4027,161.315C-108.072,141.646 -142.053,107.664 -161.588,88.1291"/>
</g>
<!-- 5&#45;&#45;3 -->
<g id="edge11" class="edge"><title>5&#45;&#45;3</title>
<path fill="none" stroke="black" d="M-111.914,144.77C-87.161,155.023 -48.1943,171.164 -23.384,181.441"/>
</g>
<!-- 5&#45;&#45;4 -->
<g id="edge4" class="edge"><title>5&#45;&#45;4</title>
<path fill="none" stroke="black" d="M-115.867,148.028C-108.473,152.969 -100.035,158.607 -92.6211,163.561"/>
</g>
<!-- 6&#45;&#45;7 -->
<g id="edge14" class="edge"><title>6&#45;&#45;7</title>
<path fill="none" stroke="black" d="M-180.174,55.0613C-182.429,43.7247 -185.324,29.1708 -187.571,17.8738"/>
</g>
<!-- 6&#45;&#45;15 -->
<g id="edge1" class="edge"><title>6&#45;&#45;15</title>
<path fill="none" stroke="black" d="M-150.428,67.939C-82.8294,54.4936 97.1425,18.6968 164.865,5.22652"/>
</g>
<!-- 8&#45;&#45;7 -->
<g id="edge18" class="edge"><title>8&#45;&#45;7</title>
<path fill="none" stroke="black" d="M-180.174,-55.061C-182.429,-43.7232 -185.324,-29.1679 -187.571,-17.8698"/>
</g>
<!-- 8&#45;&#45;9 -->
<g id="edge7" class="edge"><title>8&#45;&#45;9</title>
<path fill="none" stroke="black" d="M-165.475,-89.7582C-159.53,-98.6547 -152.229,-109.582 -146.28,-118.485"/>
</g>
<!-- 9&#45;&#45;11 -->
<g id="edge9" class="edge"><title>9&#45;&#45;11</title>
<path fill="none" stroke="black" d="M-111.914,-144.771C-87.161,-155.025 -48.1943,-171.166 -23.384,-181.443"/>
</g>
<!-- 10&#45;&#45;9 -->
<g id="edge8" class="edge"><title>10&#45;&#45;9</title>
<path fill="none" stroke="black" d="M-92.4195,-163.695C-99.8141,-158.755 -108.252,-153.117 -115.666,-148.164"/>
</g>
<!-- 11&#45;&#45;14 -->
<g id="edge10" class="edge"><title>11&#45;&#45;14</title>
<path fill="none" stroke="black" d="M19.2304,-178.277C53.197,-155.581 123.417,-108.661 157.367,-85.977"/>
</g>
<!-- 12&#45;&#45;11 -->
<g id="edge17" class="edge"><title>12&#45;&#45;11</title>
<path fill="none" stroke="black" d="M47.1477,-181.748C40.2492,-183.12 32.8014,-184.602 25.9074,-185.973"/>
</g>
<!-- 12&#45;&#45;13 -->
<g id="edge6" class="edge"><title>12&#45;&#45;13</title>
<path fill="none" stroke="black" d="M92.4209,-163.695C99.8155,-158.755 108.254,-153.117 115.667,-148.164"/>
</g>
<!-- 14&#45;&#45;7 -->
<g id="edge3" class="edge"><title>14&#45;&#45;7</title>
<path fill="none" stroke="black" d="M150.427,-67.9399C82.8293,-54.4932 -97.1416,-18.6928 -164.864,-5.22127"/>
</g>
<!-- 14&#45;&#45;12 -->
<g id="edge12" class="edge"><title>14&#45;&#45;12</title>
<path fill="none" stroke="black" d="M161.314,-88.4039C141.646,-108.072 107.665,-142.053 88.1302,-161.588"/>
</g>
<!-- 15&#45;&#45;16 -->
<g id="edge15" class="edge"><title>15&#45;&#45;16</title>
<path fill="none" stroke="black" d="M187.531,18.0818C185.275,29.4184 182.38,43.9723 180.132,55.2693"/>
</g>
<!-- 16 -->
<g id="node1" class="node"><title>16</title>
<ellipse fill="white" stroke="black" stroke-width="2.2" cx="176.577" cy="73.1403" rx="27" ry="18"/>
<text text-anchor="middle" x="176.577" y="76.8403" font-family="Times New Roman,serif" font-size="14.00">16</text>
</g>
<!-- 1 -->
<g id="node2" class="node"><title>1</title>
<ellipse fill="yellow" stroke="black" stroke-width="2.2" cx="135.148" cy="135.146" rx="27" ry="18"/>
<text text-anchor="middle" x="135.148" y="138.846" font-family="Times New Roman,serif" font-size="14.00">1</text>
</g>
<!-- 2 -->
<g id="node3" class="node"><title>2</title>
<ellipse fill="yellow" stroke="black" stroke-width="2.2" cx="73.1417" cy="176.577" rx="27" ry="18"/>
<text text-anchor="middle" x="73.1417" y="180.277" font-family="Times New Roman,serif" font-size="14.00">2</text>
</g>
<!-- 3 -->
<g id="node4" class="node"><title>3</title>
<ellipse fill="white" stroke="black" stroke-width="2.2" cx="-0.00287999" cy="191.126" rx="27" ry="18"/>
<text text-anchor="middle" x="-0.00287999" y="194.826" font-family="Times New Roman,serif" font-size="14.00">3</text>
</g>
<!-- 4 -->
<g id="node5" class="node"><title>4</title>
<ellipse fill="white" stroke="black" stroke-width="2.2" cx="-73.1403" cy="176.577" rx="27" ry="18"/>
<text text-anchor="middle" x="-73.1403" y="180.277" font-family="Times New Roman,serif" font-size="14.00">4</text>
</g>
<!-- 5 -->
<g id="node6" class="node"><title>5</title>
<ellipse fill="white" stroke="black" stroke-width="2.2" cx="-135.146" cy="135.146" rx="27" ry="18"/>
<text text-anchor="middle" x="-135.146" y="138.846" font-family="Times New Roman,serif" font-size="14.00">5</text>
</g>
<!-- 6 -->
<g id="node7" class="node"><title>6</title>
<ellipse fill="white" stroke="black" stroke-width="2.2" cx="-176.577" cy="73.1403" rx="27" ry="18"/>
<text text-anchor="middle" x="-176.577" y="76.8403" font-family="Times New Roman,serif" font-size="14.00">6</text>
</g>
<!-- 7 -->
<g id="node8" class="node"><title>7</title>
<ellipse fill="white" stroke="black" stroke-width="2.2" cx="-191.126" cy="0.00287999" rx="27" ry="18"/>
<text text-anchor="middle" x="-191.126" y="3.70288" font-family="Times New Roman,serif" font-size="14.00">7</text>
</g>
<!-- 8 -->
<g id="node9" class="node"><title>8</title>
<ellipse fill="white" stroke="black" stroke-width="2.2" cx="-176.577" cy="-73.1417" rx="27" ry="18"/>
<text text-anchor="middle" x="-176.577" y="-69.4417" font-family="Times New Roman,serif" font-size="14.00">8</text>
</g>
<!-- 9 -->
<g id="node10" class="node"><title>9</title>
<ellipse fill="white" stroke="black" stroke-width="2.2" cx="-135.146" cy="-135.148" rx="27" ry="18"/>
<text text-anchor="middle" x="-135.146" y="-131.448" font-family="Times New Roman,serif" font-size="14.00">9</text>
</g>
<!-- 10 -->
<g id="node11" class="node"><title>10</title>
<ellipse fill="white" stroke="black" stroke-width="2.2" cx="-73.1403" cy="-176.577" rx="27" ry="18"/>
<text text-anchor="middle" x="-73.1403" y="-172.877" font-family="Times New Roman,serif" font-size="14.00">10</text>
</g>
<!-- 11 -->
<g id="node12" class="node"><title>11</title>
<ellipse fill="white" stroke="black" stroke-width="2.2" cx="-0.00287999" cy="-191.128" rx="27" ry="18"/>
<text text-anchor="middle" x="-0.00287999" y="-187.428" font-family="Times New Roman,serif" font-size="14.00">11</text>
</g>
<!-- 12 -->
<g id="node13" class="node"><title>12</title>
<ellipse fill="white" stroke="black" stroke-width="2.2" cx="73.1417" cy="-176.577" rx="27" ry="18"/>
<text text-anchor="middle" x="73.1417" y="-172.877" font-family="Times New Roman,serif" font-size="14.00">12</text>
</g>
<!-- 13 -->
<g id="node14" class="node"><title>13</title>
<ellipse fill="white" stroke="black" stroke-width="2.2" cx="135.148" cy="-135.148" rx="27" ry="18"/>
<text text-anchor="middle" x="135.148" y="-131.448" font-family="Times New Roman,serif" font-size="14.00">13</text>
</g>
<!-- 14 -->
<g id="node15" class="node"><title>14</title>
<ellipse fill="white" stroke="black" stroke-width="2.2" cx="176.577" cy="-73.1417" rx="27" ry="18"/>
<text text-anchor="middle" x="176.577" y="-69.4417" font-family="Times New Roman,serif" font-size="14.00">14</text>
</g>
<!-- 15 -->
<g id="node16" class="node"><title>15</title>
<ellipse fill="white" stroke="black" stroke-width="2.2" cx="191.128" cy="0.00287999" rx="27" ry="18"/>
<text text-anchor="middle" x="191.128" y="3.70288" font-family="Times New Roman,serif" font-size="14.00">15</text>
</g>
</g>
</svg>
