<?xml version="1.0" encoding="UTF-8" standalone="no"?>
<!DOCTYPE svg PUBLIC "-//W3C//DTD SVG 1.1//EN"
 "http://www.w3.org/Graphics/SVG/1.1/DTD/svg11.dtd">
<!-- Generated by graphviz version 2.41.20170921.1950 (20170921.1950)
 -->
<!-- Title: %3 Pages: 1 -->
<svg width="1158pt" height="2325pt"
 viewBox="0.00 0.00 278.00 558.00" xmlns="http://www.w3.org/2000/svg" xmlns:xlink="http://www.w3.org/1999/xlink">
<g id="graph0" class="graph" transform="scale(4.17 4.17) rotate(0) translate(4 554)">
<title>%3</title>
<polygon fill="white" stroke="transparent" points="-4,4 -4,-554 274,-554 274,4 -4,4"/>
<g id="clust2" class="cluster">
<title>cluster_ivar</title>
<polygon fill="none" stroke="black" points="166,-8 166,-542 262,-542 262,-8 166,-8"/>
<text text-anchor="middle" x="214" y="-522" font-family="Times New Roman,serif" font-size="20.00">variables</text>
</g>
<g id="clust1" class="cluster">
<title>cluster_clause</title>
<polygon fill="none" stroke="black" points="8,-210 8,-542 83,-542 83,-210 8,-210"/>
<text text-anchor="middle" x="45.5" y="-522" font-family="Times New Roman,serif" font-size="20.00">clauses</text>
</g>
<!-- c_1 -->
<g id="node1" class="node">
<title>c_1</title>
<ellipse fill="yellow" stroke="black" cx="45" cy="-486" rx="27" ry="18"/>
<text text-anchor="middle" x="45" y="-482.3" font-family="Times New Roman,serif" font-size="14.00">c_1</text>
</g>
<!-- c_2 -->
<g id="node2" class="node">
<title>c_2</title>
<ellipse fill="yellow" stroke="black" cx="45" cy="-436" rx="27" ry="18"/>
<text text-anchor="middle" x="45" y="-432.3" font-family="Times New Roman,serif" font-size="14.00">c_2</text>
</g>
<!-- c_1&#45;&#45;c_2 -->
<!-- v_1 -->
<g id="node7" class="node">
<title>v_1</title>
<polygon fill="yellow" stroke="#b14923" stroke-width="2.2" stroke-dasharray="1,5" points="214,-504 179.14,-486 214,-468 248.86,-486 214,-504"/>
<text text-anchor="middle" x="214" y="-482.3" font-family="Times New Roman,serif" font-size="14.00">v_1</text>
</g>
<!-- c_1&#45;&#45;v_1 -->
<g id="edge15" class="edge">
<title>c_1&#45;&#45;v_1</title>
<path fill="none" stroke="#b14923" stroke-width="2.2" d="M91.1,-486C116.07,-486 141.04,-486 166,-486"/>
<ellipse fill="none" stroke="#b14923" stroke-width="2.2" cx="87" cy="-486" rx="4" ry="4"/>
</g>
<!-- v_2 -->
<g id="node8" class="node">
<title>v_2</title>
<polygon fill="yellow" stroke="#244320" stroke-width="2.2" points="214,-454 179.14,-436 214,-418 248.86,-436 214,-454"/>
<text text-anchor="middle" x="214" y="-432.3" font-family="Times New Roman,serif" font-size="14.00">v_2</text>
</g>
<!-- c_1&#45;&#45;v_2 -->
<g id="edge16" class="edge">
<title>c_1&#45;&#45;v_2</title>
<path fill="none" stroke="#244320" stroke-width="2.2" d="M77.35,-475.81C111.24,-466.18 163.52,-451.34 192.61,-443.08"/>
<ellipse fill="none" stroke="#244320" stroke-width="2.2" cx="73.42" cy="-476.93" rx="4" ry="4"/>
</g>
<!-- v_4 -->
<g id="node10" class="node">
<title>v_4</title>
<polygon fill="yellow" stroke="#a682ff" stroke-width="2.2" stroke-dasharray="1,5" points="214,-354 179.14,-336 214,-318 248.86,-336 214,-354"/>
<text text-anchor="middle" x="214" y="-332.3" font-family="Times New Roman,serif" font-size="14.00">v_4</text>
</g>
<!-- c_1&#45;&#45;v_4 -->
<g id="edge17" class="edge">
<title>c_1&#45;&#45;v_4</title>
<path fill="none" stroke="#a682ff" stroke-width="2.2" d="M67.83,-465.74C103.76,-433.84 172.39,-372.93 200.99,-347.55"/>
<ellipse fill="none" stroke="#a682ff" stroke-width="2.2" cx="64.5" cy="-468.69" rx="4" ry="4"/>
</g>
<!-- v_9 -->
<g id="node15" class="node">
<title>v_9</title>
<polygon fill="yellow" stroke="#0073a1" stroke-width="2.2" points="214,-102 179.14,-84 214,-66 248.86,-84 214,-102"/>
<text text-anchor="middle" x="214" y="-80.3" font-family="Times New Roman,serif" font-size="14.00">v_9</text>
</g>
<!-- c_1&#45;&#45;v_9 -->
<g id="edge18" class="edge">
<title>c_1&#45;&#45;v_9</title>
<path fill="none" stroke="#0073a1" stroke-width="2.2" d="M52.37,-468.47C80.58,-401.37 181.41,-161.52 207.7,-98.99"/>
</g>
<!-- v_10 -->
<g id="node16" class="node">
<title>v_10</title>
<polygon fill="yellow" stroke="#b14923" stroke-width="2.2" points="214,-52 173.61,-34 214,-16 254.39,-34 214,-52"/>
<text text-anchor="middle" x="214" y="-30.3" font-family="Times New Roman,serif" font-size="14.00">v_10</text>
</g>
<!-- c_1&#45;&#45;v_10 -->
<g id="edge19" class="edge">
<title>c_1&#45;&#45;v_10</title>
<path fill="none" stroke="#b14923" stroke-width="2.2" d="M51.63,-468.28C78.9,-395.32 182.32,-118.74 208.13,-49.69"/>
</g>
<!-- c_3 -->
<g id="node3" class="node">
<title>c_3</title>
<ellipse fill="yellow" stroke="black" cx="45" cy="-386" rx="27" ry="18"/>
<text text-anchor="middle" x="45" y="-382.3" font-family="Times New Roman,serif" font-size="14.00">c_3</text>
</g>
<!-- c_2&#45;&#45;c_3 -->
<!-- v_7 -->
<g id="node13" class="node">
<title>v_7</title>
<polygon fill="yellow" stroke="#da1167" stroke-width="2.2" stroke-dasharray="1,5" points="214,-202 179.14,-184 214,-166 248.86,-184 214,-202"/>
<text text-anchor="middle" x="214" y="-180.3" font-family="Times New Roman,serif" font-size="14.00">v_7</text>
</g>
<!-- c_2&#45;&#45;v_7 -->
<g id="edge20" class="edge">
<title>c_2&#45;&#45;v_7</title>
<path fill="none" stroke="#da1167" stroke-width="2.2" d="M60.65,-412.66C95.31,-360.98 177.62,-238.25 204.98,-197.45"/>
<ellipse fill="none" stroke="#da1167" stroke-width="2.2" cx="58.32" cy="-416.14" rx="4" ry="4"/>
</g>
<!-- c_2&#45;&#45;v_10 -->
<g id="edge21" class="edge">
<title>c_2&#45;&#45;v_10</title>
<path fill="none" stroke="#b14923" stroke-width="2.2" d="M52.37,-418.47C80.51,-351.52 180.96,-112.6 207.52,-49.42"/>
</g>
<!-- c_4 -->
<g id="node4" class="node">
<title>c_4</title>
<ellipse fill="white" stroke="black" cx="45" cy="-336" rx="27" ry="18"/>
<text text-anchor="middle" x="45" y="-332.3" font-family="Times New Roman,serif" font-size="14.00">c_4</text>
</g>
<!-- c_3&#45;&#45;c_4 -->
<!-- v_3 -->
<g id="node9" class="node">
<title>v_3</title>
<polygon fill="yellow" stroke="#b1740f" stroke-width="2.2" points="214,-404 179.14,-386 214,-368 248.86,-386 214,-404"/>
<text text-anchor="middle" x="214" y="-382.3" font-family="Times New Roman,serif" font-size="14.00">v_3</text>
</g>
<!-- c_3&#45;&#45;v_3 -->
<g id="edge22" class="edge">
<title>c_3&#45;&#45;v_3</title>
<path fill="none" stroke="#b1740f" stroke-width="2.2" d="M72.07,-386C107.73,-386 143.4,-386 179.07,-386"/>
</g>
<!-- c_3&#45;&#45;v_9 -->
<g id="edge23" class="edge">
<title>c_3&#45;&#45;v_9</title>
<path fill="none" stroke="#0073a1" stroke-width="2.2" d="M58.61,-361.68C92.43,-301.24 179.5,-145.66 206.14,-98.05"/>
<ellipse fill="none" stroke="#0073a1" stroke-width="2.2" cx="56.52" cy="-365.41" rx="4" ry="4"/>
</g>
<!-- c_3&#45;&#45;v_10 -->
<g id="edge24" class="edge">
<title>c_3&#45;&#45;v_10</title>
<path fill="none" stroke="#b14923" stroke-width="2.2" d="M53.38,-368.54C82.55,-307.78 179.36,-106.15 206.73,-49.14"/>
</g>
<!-- c_5 -->
<g id="node5" class="node">
<title>c_5</title>
<ellipse fill="yellow" stroke="black" cx="45" cy="-286" rx="27" ry="18"/>
<text text-anchor="middle" x="45" y="-282.3" font-family="Times New Roman,serif" font-size="14.00">c_5</text>
</g>
<!-- c_4&#45;&#45;c_5 -->
<!-- c_4&#45;&#45;v_1 -->
<g id="edge25" class="edge">
<title>c_4&#45;&#45;v_1</title>
<path fill="none" stroke="#b14923" stroke-width="2.2" stroke-dasharray="1,5" d="M67.75,-356.2C103.69,-388.09 172.42,-449.1 201.02,-474.48"/>
<ellipse fill="none" stroke="#b14923" stroke-width="2.2" cx="64.44" cy="-353.25" rx="4" ry="4"/>
</g>
<!-- v_5 -->
<g id="node11" class="node">
<title>v_5</title>
<polygon fill="yellow" stroke="#004066" stroke-width="2.2" stroke-dasharray="1,5" points="214,-304 179.14,-286 214,-268 248.86,-286 214,-304"/>
<text text-anchor="middle" x="214" y="-282.3" font-family="Times New Roman,serif" font-size="14.00">v_5</text>
</g>
<!-- c_4&#45;&#45;v_5 -->
<g id="edge26" class="edge">
<title>c_4&#45;&#45;v_5</title>
<path fill="none" stroke="#004066" stroke-width="2.2" stroke-dasharray="1,5" d="M69.57,-328.02C102.71,-318.61 161.19,-302 192.61,-293.08"/>
</g>
<!-- c_4&#45;&#45;v_7 -->
<g id="edge27" class="edge">
<title>c_4&#45;&#45;v_7</title>
<path fill="none" stroke="#da1167" stroke-width="2.2" stroke-dasharray="1,5" d="M61.2,-321.43C94.58,-291.41 170.42,-223.2 200.93,-195.76"/>
</g>
<!-- c_6 -->
<g id="node6" class="node">
<title>c_6</title>
<ellipse fill="yellow" stroke="black" cx="45" cy="-236" rx="27" ry="18"/>
<text text-anchor="middle" x="45" y="-232.3" font-family="Times New Roman,serif" font-size="14.00">c_6</text>
</g>
<!-- c_5&#45;&#45;c_6 -->
<!-- c_5&#45;&#45;v_1 -->
<g id="edge28" class="edge">
<title>c_5&#45;&#45;v_1</title>
<path fill="none" stroke="#b14923" stroke-width="2.2" d="M63.82,-308.27C99.3,-350.26 175.03,-439.88 203.17,-473.18"/>
<ellipse fill="none" stroke="#b14923" stroke-width="2.2" cx="61.07" cy="-305.02" rx="4" ry="4"/>
</g>
<!-- c_5&#45;&#45;v_4 -->
<g id="edge29" class="edge">
<title>c_5&#45;&#45;v_4</title>
<path fill="none" stroke="#a682ff" stroke-width="2.2" d="M77.28,-296.17C111.17,-305.79 163.49,-320.65 192.6,-328.92"/>
<ellipse fill="none" stroke="#a682ff" stroke-width="2.2" cx="73.36" cy="-295.05" rx="4" ry="4"/>
</g>
<!-- c_5&#45;&#45;v_5 -->
<g id="edge30" class="edge">
<title>c_5&#45;&#45;v_5</title>
<path fill="none" stroke="#004066" stroke-width="2.2" d="M80.43,-286C113.31,-286 146.19,-286 179.07,-286"/>
<ellipse fill="none" stroke="#004066" stroke-width="2.2" cx="76.07" cy="-286" rx="4" ry="4"/>
</g>
<!-- c_5&#45;&#45;v_9 -->
<g id="edge31" class="edge">
<title>c_5&#45;&#45;v_9</title>
<path fill="none" stroke="#0073a1" stroke-width="2.2" d="M63.59,-263.77C99.1,-221.34 175.5,-130.01 203.47,-96.59"/>
<ellipse fill="none" stroke="#0073a1" stroke-width="2.2" cx="60.83" cy="-267.08" rx="4" ry="4"/>
</g>
<!-- c_6&#45;&#45;v_2 -->
<g id="edge32" class="edge">
<title>c_6&#45;&#45;v_2</title>
<path fill="none" stroke="#244320" stroke-width="2.2" d="M58.49,-251.96C91.06,-290.51 173.52,-388.1 203.17,-423.18"/>
</g>
<!-- c_6&#45;&#45;v_3 -->
<g id="edge33" class="edge">
<title>c_6&#45;&#45;v_3</title>
<path fill="none" stroke="#b1740f" stroke-width="2.2" d="M67.75,-256.2C103.69,-288.09 172.42,-349.1 201.02,-374.48"/>
<ellipse fill="none" stroke="#b1740f" stroke-width="2.2" cx="64.44" cy="-253.25" rx="4" ry="4"/>
</g>
<!-- v_8 -->
<g id="node14" class="node">
<title>v_8</title>
<polygon fill="yellow" stroke="#604909" stroke-width="2.2" points="214,-152 179.14,-134 214,-116 248.86,-134 214,-152"/>
<text text-anchor="middle" x="214" y="-130.3" font-family="Times New Roman,serif" font-size="14.00">v_8</text>
</g>
<!-- c_6&#45;&#45;v_8 -->
<g id="edge34" class="edge">
<title>c_6&#45;&#45;v_8</title>
<path fill="none" stroke="#604909" stroke-width="2.2" d="M72.2,-219.58C107.61,-198.21 168.39,-161.53 197.51,-143.95"/>
<ellipse fill="none" stroke="#604909" stroke-width="2.2" cx="68.47" cy="-221.83" rx="4" ry="4"/>
</g>
<!-- c_6&#45;&#45;v_9 -->
<g id="edge35" class="edge">
<title>c_6&#45;&#45;v_9</title>
<path fill="none" stroke="#0073a1" stroke-width="2.2" d="M61.2,-221.43C94.58,-191.41 170.42,-123.2 200.93,-95.76"/>
</g>
<!-- c_6&#45;&#45;v_10 -->
<g id="edge36" class="edge">
<title>c_6&#45;&#45;v_10</title>
<path fill="none" stroke="#b14923" stroke-width="2.2" d="M63.55,-213.82C98.77,-171.73 174.34,-81.41 202.83,-47.36"/>
<ellipse fill="none" stroke="#b14923" stroke-width="2.2" cx="60.83" cy="-217.08" rx="4" ry="4"/>
</g>
<!-- v_1&#45;&#45;v_2 -->
<!-- v_2&#45;&#45;v_3 -->
<!-- v_3&#45;&#45;v_4 -->
<!-- v_4&#45;&#45;v_5 -->
<!-- v_6 -->
<g id="node12" class="node">
<title>v_6</title>
<polygon fill="none" stroke="#0d1321" stroke-width="2.2" stroke-dasharray="1,5" points="214,-254 179.14,-236 214,-218 248.86,-236 214,-254"/>
<text text-anchor="middle" x="214" y="-232.3" font-family="Times New Roman,serif" font-size="14.00">v_6</text>
</g>
<!-- v_5&#45;&#45;v_6 -->
<!-- v_6&#45;&#45;v_7 -->
<!-- v_7&#45;&#45;v_8 -->
<!-- v_8&#45;&#45;v_9 -->
<!-- v_9&#45;&#45;v_10 -->
</g>
</svg>
