<?xml version="1.0" encoding="UTF-8" standalone="no"?>
<!DOCTYPE svg PUBLIC "-//W3C//DTD SVG 1.1//EN"
 "http://www.w3.org/Graphics/SVG/1.1/DTD/svg11.dtd">
<!-- Generated by graphviz version 2.41.20170921.1950 (20170921.1950)
 -->
<!-- Title: %3 Pages: 1 -->
<svg width="309pt" height="476pt"
 viewBox="0.00 0.00 309.00 476.00" xmlns="http://www.w3.org/2000/svg" xmlns:xlink="http://www.w3.org/1999/xlink">
<g id="graph0" class="graph" transform="scale(1 1) rotate(0) translate(4 472)">
<title>%3</title>
<polygon fill="white" stroke="transparent" points="-4,4 -4,-472 305,-472 305,4 -4,4"/>
<!-- v_1 -->
<g id="node1" class="node">
<title>v_1</title>
<ellipse fill="yellow" stroke="black" stroke-width="2.2" cx="30" cy="-450" rx="27" ry="18"/>
<text text-anchor="middle" x="30" y="-446.3" font-family="Times New Roman,serif" font-size="14.00">v_1</text>
</g>
<!-- v_2 -->
<g id="node2" class="node">
<title>v_2</title>
<ellipse fill="yellow" stroke="black" stroke-width="2.2" cx="199" cy="-306" rx="27" ry="18"/>
<text text-anchor="middle" x="199" y="-302.3" font-family="Times New Roman,serif" font-size="14.00">v_2</text>
</g>
<!-- v_1&#45;&#45;v_2 -->
<g id="edge1" class="edge">
<title>v_1&#45;&#45;v_2</title>
<path fill="none" stroke="black" d="M56.78,-453C102.33,-453 190,-453 190,-453 190,-453 190,-361.93 190,-323.15"/>
</g>
<!-- v_4 -->
<g id="node3" class="node">
<title>v_4</title>
<ellipse fill="yellow" stroke="black" stroke-width="2.2" cx="103" cy="-162" rx="27" ry="18"/>
<text text-anchor="middle" x="103" y="-158.3" font-family="Times New Roman,serif" font-size="14.00">v_4</text>
</g>
<!-- v_1&#45;&#45;v_4 -->
<g id="edge2" class="edge">
<title>v_1&#45;&#45;v_4</title>
<path fill="none" stroke="black" d="M51.49,-439C67.28,-439 86,-439 86,-439 86,-439 86,-232.56 86,-176.12"/>
</g>
<!-- v_9 -->
<g id="node4" class="node">
<title>v_9</title>
<ellipse fill="yellow" stroke="black" stroke-width="2.2" cx="123" cy="-378" rx="27" ry="18"/>
<text text-anchor="middle" x="123" y="-374.3" font-family="Times New Roman,serif" font-size="14.00">v_9</text>
</g>
<!-- v_1&#45;&#45;v_9 -->
<g id="edge3" class="edge">
<title>v_1&#45;&#45;v_9</title>
<path fill="none" stroke="black" d="M56.4,-446C83.9,-446 123,-446 123,-446 123,-446 123,-416.37 123,-396.22"/>
</g>
<!-- v_10 -->
<g id="node5" class="node">
<title>v_10</title>
<ellipse fill="yellow" stroke="black" stroke-width="2.2" cx="198" cy="-234" rx="28.7" ry="18"/>
<text text-anchor="middle" x="198" y="-230.3" font-family="Times New Roman,serif" font-size="14.00">v_10</text>
</g>
<!-- v_1&#45;&#45;v_10 -->
<g id="edge4" class="edge">
<title>v_1&#45;&#45;v_10</title>
<path fill="none" stroke="black" d="M33.6,-431.96C33.6,-380.04 33.6,-234 33.6,-234 33.6,-234 122.26,-234 169.36,-234"/>
</g>
<!-- v_7 -->
<g id="node6" class="node">
<title>v_7</title>
<ellipse fill="green" stroke="green" stroke-width="2.2" stroke-dasharray="1,5" cx="27" cy="-18" rx="27" ry="18"/>
<text text-anchor="middle" x="27" y="-14.3" font-family="Times New Roman,serif" font-size="14.00">v_7</text>
</g>
<!-- v_1&#45;&#45;v_7 -->
<g id="edge15" class="edge">
<title>v_1&#45;&#45;v_7</title>
<path fill="none" stroke="black" d="M52.49,-460C60,-460 66.5,-460 66.5,-460 66.5,-460 66.5,-24 66.5,-24 66.5,-24 60.23,-24 52.68,-24"/>
</g>
<!-- v_5 -->
<g id="node8" class="node">
<title>v_5</title>
<ellipse fill="green" stroke="green" stroke-width="2.2" stroke-dasharray="1,5" cx="27" cy="-90" rx="27" ry="18"/>
<text text-anchor="middle" x="27" y="-86.3" font-family="Times New Roman,serif" font-size="14.00">v_5</text>
</g>
<!-- v_1&#45;&#45;v_5 -->
<g id="edge14" class="edge">
<title>v_1&#45;&#45;v_5</title>
<path fill="none" stroke="black" d="M13.2,-435.89C13.2,-378.82 13.2,-165.33 13.2,-105.61"/>
</g>
<!-- v_2&#45;&#45;v_4 -->
<g id="edge5" class="edge">
<title>v_2&#45;&#45;v_4</title>
<path fill="none" stroke="black" d="M173.2,-300C147.87,-300 113,-300 113,-300 113,-300 113,-215.77 113,-178.92"/>
</g>
<!-- v_2&#45;&#45;v_10 -->
<g id="edge7" class="edge">
<title>v_2&#45;&#45;v_10</title>
<path fill="none" stroke="black" d="M199,-287.83C199,-277 199,-263.29 199,-252.41"/>
</g>
<!-- v_3 -->
<g id="node7" class="node">
<title>v_3</title>
<ellipse fill="green" stroke="green" stroke-width="2.2" stroke-dasharray="1,5" cx="274" cy="-162" rx="27" ry="18"/>
<text text-anchor="middle" x="274" y="-158.3" font-family="Times New Roman,serif" font-size="14.00">v_3</text>
</g>
<!-- v_2&#45;&#45;v_3 -->
<g id="edge19" class="edge">
<title>v_2&#45;&#45;v_3</title>
<path fill="none" stroke="black" d="M226,-306C239.5,-306 253,-306 253,-306 253,-306 253,-208.18 253,-173.78"/>
</g>
<!-- v_4&#45;&#45;v_5 -->
<g id="edge17" class="edge">
<title>v_4&#45;&#45;v_5</title>
<path fill="none" stroke="black" d="M75.83,-162C60.26,-162 43.8,-162 43.8,-162 43.8,-162 43.8,-125.21 43.8,-104.22"/>
</g>
<!-- v_9&#45;&#45;v_2 -->
<g id="edge6" class="edge">
<title>v_9&#45;&#45;v_2</title>
<path fill="none" stroke="black" d="M143.33,-365.89C143.33,-346.84 143.33,-312 143.33,-312 143.33,-312 158.81,-312 173.45,-312"/>
</g>
<!-- v_9&#45;&#45;v_4 -->
<g id="edge8" class="edge">
<title>v_9&#45;&#45;v_4</title>
<path fill="none" stroke="black" d="M104.5,-364.81C104.5,-327.72 104.5,-222.41 104.5,-180.01"/>
</g>
<!-- v_9&#45;&#45;v_10 -->
<g id="edge10" class="edge">
<title>v_9&#45;&#45;v_10</title>
<path fill="none" stroke="black" d="M136.67,-362.25C136.67,-326.64 136.67,-243 136.67,-243 136.67,-243 156.07,-243 173.05,-243"/>
</g>
<!-- v_9&#45;&#45;v_3 -->
<g id="edge12" class="edge">
<title>v_9&#45;&#45;v_3</title>
<path fill="none" stroke="black" d="M148.64,-372C187.29,-372 256,-372 256,-372 256,-372 256,-221.81 256,-175.46"/>
</g>
<!-- v_9&#45;&#45;v_5 -->
<g id="edge18" class="edge">
<title>v_9&#45;&#45;v_5</title>
<path fill="none" stroke="black" d="M95.78,-378C66.29,-378 23.4,-378 23.4,-378 23.4,-378 23.4,-171.07 23.4,-108.02"/>
</g>
<!-- v_10&#45;&#45;v_4 -->
<g id="edge9" class="edge">
<title>v_10&#45;&#45;v_4</title>
<path fill="none" stroke="black" d="M172.95,-225C150.64,-225 121.5,-225 121.5,-225 121.5,-225 121.5,-193.85 121.5,-175.36"/>
</g>
<!-- v_10&#45;&#45;v_7 -->
<g id="edge11" class="edge">
<title>v_10&#45;&#45;v_7</title>
<path fill="none" stroke="black" d="M198,-215.83C198,-162.81 198,-12 198,-12 198,-12 100.3,-12 52.6,-12"/>
</g>
<!-- v_10&#45;&#45;v_3 -->
<g id="edge13" class="edge">
<title>v_10&#45;&#45;v_3</title>
<path fill="none" stroke="black" d="M225.22,-228C237.8,-228 250,-228 250,-228 250,-228 250,-188.12 250,-170.36"/>
</g>
<!-- v_5&#45;&#45;v_7 -->
<g id="edge16" class="edge">
<title>v_5&#45;&#45;v_7</title>
<path fill="none" stroke="black" d="M27,-71.83C27,-61 27,-47.29 27,-36.41"/>
</g>
<!-- v_8 -->
<g id="node9" class="node">
<title>v_8</title>
<ellipse fill="green" stroke="green" stroke-width="2.2" stroke-dasharray="1,5" cx="235" cy="-450" rx="27" ry="18"/>
<text text-anchor="middle" x="235" y="-446.3" font-family="Times New Roman,serif" font-size="14.00">v_8</text>
</g>
<!-- v_8&#45;&#45;v_2 -->
<g id="edge20" class="edge">
<title>v_8&#45;&#45;v_2</title>
<path fill="none" stroke="black" d="M220,-434.86C220,-405.98 220,-343.57 220,-317.65"/>
</g>
<!-- v_8&#45;&#45;v_9 -->
<g id="edge22" class="edge">
<title>v_8&#45;&#45;v_9</title>
<path fill="none" stroke="black" d="M214,-438.5C214,-419.59 214,-384 214,-384 214,-384 175.74,-384 148.83,-384"/>
</g>
<!-- v_8&#45;&#45;v_10 -->
<g id="edge23" class="edge">
<title>v_8&#45;&#45;v_10</title>
<path fill="none" stroke="black" d="M236.8,-431.73C236.8,-380.64 236.8,-240 236.8,-240 236.8,-240 231.79,-240 225.37,-240"/>
</g>
<!-- v_8&#45;&#45;v_3 -->
<g id="edge21" class="edge">
<title>v_8&#45;&#45;v_3</title>
<path fill="none" stroke="black" d="M259,-441.69C259,-401.76 259,-229.33 259,-177.07"/>
</g>
</g>
</svg>
