<?xml version="1.0" encoding="UTF-8" standalone="no"?>
<!DOCTYPE svg PUBLIC "-//W3C//DTD SVG 1.1//EN"
 "http://www.w3.org/Graphics/SVG/1.1/DTD/svg11.dtd">
<!-- Generated by graphviz version 2.38.0 (20140413.2041)
 -->
<!-- Title: %3 Pages: 1 -->
<svg width="421pt" height="408pt"
 viewBox="0.00 0.00 420.96 408.49" xmlns="http://www.w3.org/2000/svg" xmlns:xlink="http://www.w3.org/1999/xlink">
<g id="graph0" class="graph" transform="scale(1 1) rotate(0) translate(209.899 204.246)">
<title>%3</title>
<polygon fill="white" stroke="none" points="-209.899,204.246 -209.899,-204.246 211.058,-204.246 211.058,204.246 -209.899,204.246"/>
<!-- v_1 -->
<g id="node1" class="node"><title>v_1</title>
<ellipse fill="none" stroke="black" stroke-width="2.2" cx="-178.899" cy="-63.2952" rx="27" ry="18"/>
<text text-anchor="middle" x="-178.899" y="-59.5952" font-family="Times New Roman,serif" font-size="14.00">v_1</text>
</g>
<!-- v_2 -->
<g id="node2" class="node"><title>v_2</title>
<ellipse fill="none" stroke="black" stroke-width="2.2" cx="27.137" cy="-182.246" rx="27" ry="18"/>
<text text-anchor="middle" x="27.137" y="-178.546" font-family="Times New Roman,serif" font-size="14.00">v_2</text>
</g>
<!-- v_1&#45;&#45;v_2 -->
<g id="edge1" class="edge"><title>v_1&#45;&#45;v_2</title>
<path fill="none" stroke="black" d="M-158.39,-75.1356C-118.897,-97.9361 -32.7163,-147.691 6.71114,-170.454"/>
</g>
<!-- v_4 -->
<g id="node3" class="node"><title>v_4</title>
<ellipse fill="none" stroke="black" stroke-width="2.2" cx="180.058" cy="-0" rx="27" ry="18"/>
<text text-anchor="middle" x="180.058" y="3.7" font-family="Times New Roman,serif" font-size="14.00">v_4</text>
</g>
<!-- v_1&#45;&#45;v_4 -->
<g id="edge2" class="edge"><title>v_1&#45;&#45;v_4</title>
<path fill="none" stroke="black" d="M-152.795,-58.6922C-86.6483,-47.0286 87.0023,-16.4086 153.566,-4.67131"/>
</g>
<!-- v_9 -->
<g id="node4" class="node"><title>v_9</title>
<ellipse fill="none" stroke="black" stroke-width="2.2" cx="-178.899" cy="63.2952" rx="27" ry="18"/>
<text text-anchor="middle" x="-178.899" y="66.9952" font-family="Times New Roman,serif" font-size="14.00">v_9</text>
</g>
<!-- v_1&#45;&#45;v_9 -->
<g id="edge3" class="edge"><title>v_1&#45;&#45;v_9</title>
<path fill="none" stroke="black" d="M-178.899,-45.1579C-178.899,-21.0931 -178.899,21.1437 -178.899,45.1915"/>
</g>
<!-- v_10 -->
<g id="node5" class="node"><title>v_10</title>
<ellipse fill="none" stroke="black" stroke-width="2.2" cx="-97.531" cy="-160.265" rx="28.6953" ry="18"/>
<text text-anchor="middle" x="-97.531" y="-156.565" font-family="Times New Roman,serif" font-size="14.00">v_10</text>
</g>
<!-- v_1&#45;&#45;v_10 -->
<g id="edge4" class="edge"><title>v_1&#45;&#45;v_10</title>
<path fill="none" stroke="black" d="M-165.463,-79.3078C-150.387,-97.2747 -126.072,-126.252 -110.987,-144.228"/>
</g>
<!-- v_7 -->
<g id="node6" class="node"><title>v_7</title>
<ellipse fill="none" stroke="black" stroke-width="2.2" cx="27.137" cy="182.246" rx="27" ry="18"/>
<text text-anchor="middle" x="27.137" y="185.946" font-family="Times New Roman,serif" font-size="14.00">v_7</text>
</g>
<!-- v_1&#45;&#45;v_7 -->
<g id="edge15" class="edge"><title>v_1&#45;&#45;v_7</title>
<path fill="none" stroke="black" d="M-165.697,-47.5619C-128.572,-3.31795 -23.5375,121.856 13.7784,166.326"/>
</g>
<!-- v_5 -->
<g id="node8" class="node"><title>v_5</title>
<ellipse fill="none" stroke="black" stroke-width="2.2" cx="136.764" cy="118.951" rx="27" ry="18"/>
<text text-anchor="middle" x="136.764" y="122.651" font-family="Times New Roman,serif" font-size="14.00">v_5</text>
</g>
<!-- v_1&#45;&#45;v_5 -->
<g id="edge14" class="edge"><title>v_1&#45;&#45;v_5</title>
<path fill="none" stroke="black" d="M-158.187,-51.3375C-100.991,-18.3156 58.6891,73.875 115.976,106.949"/>
</g>
<!-- v_2&#45;&#45;v_4 -->
<g id="edge5" class="edge"><title>v_2&#45;&#45;v_4</title>
<path fill="none" stroke="black" d="M40.4402,-166.392C69.361,-131.925 137.685,-50.4989 166.676,-15.9475"/>
</g>
<!-- v_2&#45;&#45;v_10 -->
<g id="edge7" class="edge"><title>v_2&#45;&#45;v_10</title>
<path fill="none" stroke="black" d="M1.00246,-177.638C-19.7035,-173.987 -48.5646,-168.899 -69.6998,-165.172"/>
</g>
<!-- v_3 -->
<g id="node7" class="node"><title>v_3</title>
<ellipse fill="none" stroke="black" stroke-width="2.2" cx="136.764" cy="-118.951" rx="27" ry="18"/>
<text text-anchor="middle" x="136.764" y="-115.251" font-family="Times New Roman,serif" font-size="14.00">v_3</text>
</g>
<!-- v_2&#45;&#45;v_3 -->
<g id="edge19" class="edge"><title>v_2&#45;&#45;v_3</title>
<path fill="none" stroke="black" d="M47.757,-170.341C67.3566,-159.025 96.6676,-142.102 116.237,-130.803"/>
</g>
<!-- v_4&#45;&#45;v_5 -->
<g id="edge17" class="edge"><title>v_4&#45;&#45;v_5</title>
<path fill="none" stroke="black" d="M173.67,17.5517C165.484,40.0413 151.376,78.8032 143.178,101.328"/>
</g>
<!-- v_9&#45;&#45;v_2 -->
<g id="edge6" class="edge"><title>v_9&#45;&#45;v_2</title>
<path fill="none" stroke="black" d="M-165.697,47.5619C-128.572,3.31795 -23.5375,-121.856 13.7784,-166.326"/>
</g>
<!-- v_9&#45;&#45;v_4 -->
<g id="edge8" class="edge"><title>v_9&#45;&#45;v_4</title>
<path fill="none" stroke="black" d="M-152.795,58.6922C-86.6483,47.0286 87.0023,16.4086 153.566,4.67131"/>
</g>
<!-- v_9&#45;&#45;v_10 -->
<g id="edge10" class="edge"><title>v_9&#45;&#45;v_10</title>
<path fill="none" stroke="black" d="M-172.514,45.7528C-157.341,4.06457 -119.255,-100.578 -103.999,-142.495"/>
</g>
<!-- v_9&#45;&#45;v_3 -->
<g id="edge12" class="edge"><title>v_9&#45;&#45;v_3</title>
<path fill="none" stroke="black" d="M-158.187,51.3375C-100.991,18.3156 58.6891,-73.875 115.976,-106.949"/>
</g>
<!-- v_9&#45;&#45;v_5 -->
<g id="edge18" class="edge"><title>v_9&#45;&#45;v_5</title>
<path fill="none" stroke="black" d="M-152.529,67.9447C-93.1098,78.4211 50.6893,103.775 110.247,114.276"/>
</g>
<!-- v_10&#45;&#45;v_4 -->
<g id="edge9" class="edge"><title>v_10&#45;&#45;v_4</title>
<path fill="none" stroke="black" d="M-76.21,-147.955C-24.2855,-117.977 108.213,-41.4795 159.421,-11.9145"/>
</g>
<!-- v_10&#45;&#45;v_7 -->
<g id="edge11" class="edge"><title>v_10&#45;&#45;v_7</title>
<path fill="none" stroke="black" d="M-91.0039,-142.332C-69.4607,-83.1448 -0.774173,105.564 20.6744,164.491"/>
</g>
<!-- v_10&#45;&#45;v_3 -->
<g id="edge13" class="edge"><title>v_10&#45;&#45;v_3</title>
<path fill="none" stroke="black" d="M-69.7342,-155.363C-24.1572,-147.327 65.8445,-131.457 110.442,-123.593"/>
</g>
<!-- v_5&#45;&#45;v_7 -->
<g id="edge16" class="edge"><title>v_5&#45;&#45;v_7</title>
<path fill="none" stroke="black" d="M116.144,130.857C96.5445,142.173 67.2335,159.096 47.6645,170.394"/>
</g>
<!-- v_8 -->
<g id="node9" class="node"><title>v_8</title>
<ellipse fill="none" stroke="black" stroke-width="2.2" cx="-97.531" cy="160.265" rx="27" ry="18"/>
<text text-anchor="middle" x="-97.531" y="163.965" font-family="Times New Roman,serif" font-size="14.00">v_8</text>
</g>
<!-- v_8&#45;&#45;v_2 -->
<g id="edge20" class="edge"><title>v_8&#45;&#45;v_2</title>
<path fill="none" stroke="black" d="M-91.0039,142.332C-69.4607,83.1448 -0.774173,-105.564 20.6744,-164.491"/>
</g>
<!-- v_8&#45;&#45;v_9 -->
<g id="edge22" class="edge"><title>v_8&#45;&#45;v_9</title>
<path fill="none" stroke="black" d="M-110.967,144.252C-126.134,126.178 -150.65,96.9607 -165.713,79.0098"/>
</g>
<!-- v_8&#45;&#45;v_10 -->
<g id="edge23" class="edge"><title>v_8&#45;&#45;v_10</title>
<path fill="none" stroke="black" d="M-97.531,142.113C-97.531,85.8291 -97.531,-85.362 -97.531,-141.915"/>
</g>
<!-- v_8&#45;&#45;v_3 -->
<g id="edge21" class="edge"><title>v_8&#45;&#45;v_3</title>
<path fill="none" stroke="black" d="M-84.263,144.453C-43.1213,95.4232 82.013,-53.7028 123.351,-102.967"/>
</g>
<!-- v_6 -->
<g id="node10" class="node"><title>v_6</title>
<ellipse fill="yellow" stroke="black" stroke-width="2.2" cx="-5" cy="-50" rx="27" ry="18"/>
<text text-anchor="middle" x="-5" y="-46.3" font-family="Times New Roman,serif" font-size="14.00">v_6</text>
</g>
</g>
</svg>
