<?xml version="1.0" encoding="UTF-8" standalone="no"?>
<!DOCTYPE svg PUBLIC "-//W3C//DTD SVG 1.1//EN"
 "http://www.w3.org/Graphics/SVG/1.1/DTD/svg11.dtd">
<!-- Generated by graphviz version 2.41.20170921.1950 (20170921.1950)
 -->
<!-- Title: structs Pages: 1 -->
<svg width="588pt" height="1274pt"
 viewBox="0.00 0.00 588.00 1274.00" xmlns="http://www.w3.org/2000/svg" xmlns:xlink="http://www.w3.org/1999/xlink">
<g id="graph0" class="graph" transform="scale(1 1) rotate(0) translate(4 1270)">
<title>structs</title>
<polygon fill="white" stroke="transparent" points="-4,4 -4,-1270 584,-1270 584,4 -4,4"/>
<!-- bag 0 -->
<g id="node1" class="node">
<title>bag 0</title>
<path fill="white" stroke="black" d="M127.5,-919C127.5,-919 66.5,-919 66.5,-919 60.5,-919 54.5,-913 54.5,-907 54.5,-907 54.5,-887 54.5,-887 54.5,-881 60.5,-875 66.5,-875 66.5,-875 127.5,-875 127.5,-875 133.5,-875 139.5,-881 139.5,-887 139.5,-887 139.5,-907 139.5,-907 139.5,-913 133.5,-919 127.5,-919"/>
<polygon fill="white" stroke="transparent" points="63,-899 63,-918 132,-918 132,-899 63,-899"/>
<text text-anchor="start" x="82" y="-904.8" font-family="Times New Roman,serif" font-size="14.00">bag 0</text>
<text text-anchor="start" x="65" y="-881.8" font-family="Times New Roman,serif" font-size="14.00">[2 3 8 9 10]</text>
</g>
<!-- sol0 -->
<!-- bag 0&#45;&gt;sol0 -->
<!-- bag 1 -->
<g id="node2" class="node">
<title>bag 1</title>
<path fill="white" stroke="black" d="M200.5,-669.5C200.5,-669.5 139.5,-669.5 139.5,-669.5 133.5,-669.5 127.5,-663.5 127.5,-657.5 127.5,-657.5 127.5,-637.5 127.5,-637.5 127.5,-631.5 133.5,-625.5 139.5,-625.5 139.5,-625.5 200.5,-625.5 200.5,-625.5 206.5,-625.5 212.5,-631.5 212.5,-637.5 212.5,-637.5 212.5,-657.5 212.5,-657.5 212.5,-663.5 206.5,-669.5 200.5,-669.5"/>
<polygon fill="white" stroke="transparent" points="136,-649.5 136,-668.5 205,-668.5 205,-649.5 136,-649.5"/>
<text text-anchor="start" x="155" y="-655.3" font-family="Times New Roman,serif" font-size="14.00">bag 1</text>
<text text-anchor="start" x="138" y="-632.3" font-family="Times New Roman,serif" font-size="14.00">[1 2 4 9 10]</text>
</g>
<!-- bag 1&#45;&gt;bag 0 -->
<g id="edge1" class="edge">
<title>bag 1&#45;&gt;bag 0</title>
<path fill="none" stroke="black" d="M163.78,-669.6C150.87,-713.35 121.16,-814.09 106.1,-865.14"/>
<polygon fill="black" stroke="black" points="102.68,-864.37 103.21,-874.95 109.39,-866.35 102.68,-864.37"/>
</g>
<!-- sol1 -->
<!-- bag 1&#45;&gt;sol1 -->
<!-- bag 2 -->
<g id="node3" class="node">
<title>bag 2</title>
<path fill="white" stroke="black" d="M279.5,-420C279.5,-420 218.5,-420 218.5,-420 212.5,-420 206.5,-414 206.5,-408 206.5,-408 206.5,-388 206.5,-388 206.5,-382 212.5,-376 218.5,-376 218.5,-376 279.5,-376 279.5,-376 285.5,-376 291.5,-382 291.5,-388 291.5,-388 291.5,-408 291.5,-408 291.5,-414 285.5,-420 279.5,-420"/>
<polygon fill="white" stroke="transparent" points="215,-400 215,-419 284,-419 284,-400 215,-400"/>
<text text-anchor="start" x="234" y="-405.8" font-family="Times New Roman,serif" font-size="14.00">bag 2</text>
<text text-anchor="start" x="217" y="-382.8" font-family="Times New Roman,serif" font-size="14.00">[1 4 5 9 10]</text>
</g>
<!-- bag 2&#45;&gt;bag 1 -->
<g id="edge2" class="edge">
<title>bag 2&#45;&gt;bag 1</title>
<path fill="none" stroke="black" d="M242.26,-420.1C228.3,-463.85 196.14,-564.59 179.85,-615.64"/>
<polygon fill="black" stroke="black" points="176.43,-614.86 176.72,-625.45 183.09,-616.99 176.43,-614.86"/>
</g>
<!-- sol2 -->
<!-- bag 2&#45;&gt;sol2 -->
<!-- bag 3 -->
<g id="node4" class="node">
<title>bag 3</title>
<path fill="white" stroke="black" d="M282,-44C282,-44 252,-44 252,-44 246,-44 240,-38 240,-32 240,-32 240,-12 240,-12 240,-6 246,0 252,0 252,0 282,0 282,0 288,0 294,-6 294,-12 294,-12 294,-32 294,-32 294,-38 288,-44 282,-44"/>
<polygon fill="white" stroke="transparent" points="250,-24 250,-43 285,-43 285,-24 250,-24"/>
<text text-anchor="start" x="252" y="-29.8" font-family="Times New Roman,serif" font-size="14.00">bag 3</text>
<text text-anchor="start" x="259.5" y="-6.8" font-family="Times New Roman,serif" font-size="14.00">[6]</text>
</g>
<!-- bag 3&#45;&gt;bag 2 -->
<!-- sol3 -->
<g id="node6" class="node">
<title>sol3</title>
<path fill="white" stroke="black" d="M210.5,-140C210.5,-140 259.5,-140 259.5,-140 265.5,-140 271.5,-146 271.5,-152 271.5,-152 271.5,-196 271.5,-196 271.5,-202 265.5,-208 259.5,-208 259.5,-208 210.5,-208 210.5,-208 204.5,-208 198.5,-202 198.5,-196 198.5,-196 198.5,-152 198.5,-152 198.5,-146 204.5,-140 210.5,-140"/>
<text text-anchor="middle" x="235" y="-195.8" font-family="Times New Roman,serif" font-size="14.00">sol bag 3</text>
<polyline fill="none" stroke="black" points="198.5,-191 271.5,-191 "/>
<text text-anchor="middle" x="212" y="-178.8" font-family="Times New Roman,serif" font-size="14.00">id</text>
<polyline fill="none" stroke="black" points="198.5,-174 225.5,-174 "/>
<text text-anchor="middle" x="212" y="-161.8" font-family="Times New Roman,serif" font-size="14.00">0</text>
<polyline fill="none" stroke="black" points="225.5,-157 225.5,-191 "/>
<text text-anchor="middle" x="248.5" y="-178.8" font-family="Times New Roman,serif" font-size="14.00">n Sol</text>
<polyline fill="none" stroke="black" points="225.5,-174 271.5,-174 "/>
<text text-anchor="middle" x="248.5" y="-161.8" font-family="Times New Roman,serif" font-size="14.00">2</text>
<polyline fill="none" stroke="black" points="198.5,-157 271.5,-157 "/>
<text text-anchor="middle" x="235" y="-144.8" font-family="Times New Roman,serif" font-size="14.00">sum: 2</text>
</g>
<!-- bag 3&#45;&gt;sol3 -->
<g id="edge5" class="edge">
<title>bag 3&#45;&gt;sol3</title>
<path fill="none" stroke="black" d="M262.48,-44.17C257.76,-66.33 250.21,-101.72 244.21,-129.81"/>
<polygon fill="black" stroke="black" points="240.75,-129.28 242.09,-139.79 247.59,-130.74 240.75,-129.28"/>
</g>
<!-- Join 3~4 -->
<g id="node9" class="node">
<title>Join 3~4</title>
<path fill="white" stroke="black" d="M342,-192C342,-192 302,-192 302,-192 296,-192 290,-186 290,-180 290,-180 290,-168 290,-168 290,-162 296,-156 302,-156 302,-156 342,-156 342,-156 348,-156 354,-162 354,-168 354,-168 354,-180 354,-180 354,-186 348,-192 342,-192"/>
<text text-anchor="middle" x="322" y="-170.3" font-family="Times New Roman,serif" font-size="14.00">Join 3~4</text>
</g>
<!-- bag 3&#45;&gt;Join 3~4 -->
<g id="edge8" class="edge">
<title>bag 3&#45;&gt;Join 3~4</title>
<path fill="none" stroke="black" d="M274.76,-44.17C284.56,-70.9 301.43,-116.91 312.14,-146.1"/>
<polygon fill="black" stroke="black" points="308.91,-147.48 315.64,-155.66 315.49,-145.07 308.91,-147.48"/>
</g>
<!-- bag 4 -->
<g id="node5" class="node">
<title>bag 4</title>
<path fill="yellow" stroke="black" stroke-width="2.5" d="M377.5,-44C377.5,-44 326.5,-44 326.5,-44 320.5,-44 314.5,-38 314.5,-32 314.5,-32 314.5,-12 314.5,-12 314.5,-6 320.5,0 326.5,0 326.5,0 377.5,0 377.5,0 383.5,0 389.5,-6 389.5,-12 389.5,-12 389.5,-32 389.5,-32 389.5,-38 383.5,-44 377.5,-44"/>
<polygon fill="white" stroke="transparent" points="323,-24 323,-43 382,-43 382,-24 323,-24"/>
<text text-anchor="start" x="337" y="-29.8" font-family="Times New Roman,serif" font-size="14.00">bag 4</text>
<text text-anchor="start" x="325" y="-6.8" font-family="Times New Roman,serif" font-size="14.00">[1 5 7 10]</text>
</g>
<!-- bag 4&#45;&gt;bag 2 -->
<!-- sol4 -->
<g id="node7" class="node">
<title>sol4</title>
<path fill="yellow" stroke="black" stroke-width="2.5" d="M422,-80.5C422,-80.5 568,-80.5 568,-80.5 574,-80.5 580,-86.5 580,-92.5 580,-92.5 580,-255.5 580,-255.5 580,-261.5 574,-267.5 568,-267.5 568,-267.5 422,-267.5 422,-267.5 416,-267.5 410,-261.5 410,-255.5 410,-255.5 410,-92.5 410,-92.5 410,-86.5 416,-80.5 422,-80.5"/>
<text text-anchor="middle" x="495" y="-255.3" font-family="Times New Roman,serif" font-size="14.00">sol bag 4</text>
<polyline fill="none" stroke="black" stroke-width="2.5" points="410,-250.5 580,-250.5 "/>
<text text-anchor="middle" x="423.5" y="-238.3" font-family="Times New Roman,serif" font-size="14.00">id</text>
<polyline fill="none" stroke="black" stroke-width="2.5" points="410,-233.5 437,-233.5 "/>
<text text-anchor="middle" x="423.5" y="-221.3" font-family="Times New Roman,serif" font-size="14.00">0</text>
<polyline fill="none" stroke="black" stroke-width="2.5" points="410,-216.5 437,-216.5 "/>
<text text-anchor="middle" x="423.5" y="-204.3" font-family="Times New Roman,serif" font-size="14.00">1</text>
<polyline fill="none" stroke="black" stroke-width="2.5" points="410,-199.5 437,-199.5 "/>
<text text-anchor="middle" x="423.5" y="-187.3" font-family="Times New Roman,serif" font-size="14.00">2</text>
<polyline fill="none" stroke="black" stroke-width="2.5" points="410,-182.5 437,-182.5 "/>
<text text-anchor="middle" x="423.5" y="-170.3" font-family="Times New Roman,serif" font-size="14.00">3</text>
<polyline fill="none" stroke="black" stroke-width="2.5" points="410,-165.5 437,-165.5 "/>
<text text-anchor="middle" x="423.5" y="-153.3" font-family="Times New Roman,serif" font-size="14.00">4</text>
<polyline fill="none" stroke="black" stroke-width="2.5" points="410,-148.5 437,-148.5 "/>
<text text-anchor="middle" x="423.5" y="-136.3" font-family="Times New Roman,serif" font-size="14.00">5</text>
<polyline fill="none" stroke="black" stroke-width="2.5" points="410,-131.5 437,-131.5 "/>
<text text-anchor="middle" x="423.5" y="-119.3" font-family="Times New Roman,serif" font-size="14.00">6</text>
<polyline fill="none" stroke="black" stroke-width="2.5" points="410,-114.5 437,-114.5 "/>
<text text-anchor="middle" x="423.5" y="-102.3" font-family="Times New Roman,serif" font-size="14.00">7</text>
<polyline fill="none" stroke="black" stroke-width="2.5" points="437,-97.5 437,-250.5 "/>
<text text-anchor="middle" x="452" y="-238.3" font-family="Times New Roman,serif" font-size="14.00">v1</text>
<polyline fill="none" stroke="black" stroke-width="2.5" points="437,-233.5 467,-233.5 "/>
<text text-anchor="middle" x="452" y="-221.3" font-family="Times New Roman,serif" font-size="14.00">0</text>
<polyline fill="none" stroke="black" stroke-width="2.5" points="437,-216.5 467,-216.5 "/>
<text text-anchor="middle" x="452" y="-204.3" font-family="Times New Roman,serif" font-size="14.00">1</text>
<polyline fill="none" stroke="black" stroke-width="2.5" points="437,-199.5 467,-199.5 "/>
<text text-anchor="middle" x="452" y="-187.3" font-family="Times New Roman,serif" font-size="14.00">0</text>
<polyline fill="none" stroke="black" stroke-width="2.5" points="437,-182.5 467,-182.5 "/>
<text text-anchor="middle" x="452" y="-170.3" font-family="Times New Roman,serif" font-size="14.00">1</text>
<polyline fill="none" stroke="black" stroke-width="2.5" points="437,-165.5 467,-165.5 "/>
<text text-anchor="middle" x="452" y="-153.3" font-family="Times New Roman,serif" font-size="14.00">0</text>
<polyline fill="none" stroke="black" stroke-width="2.5" points="437,-148.5 467,-148.5 "/>
<text text-anchor="middle" x="452" y="-136.3" font-family="Times New Roman,serif" font-size="14.00">1</text>
<polyline fill="none" stroke="black" stroke-width="2.5" points="437,-131.5 467,-131.5 "/>
<text text-anchor="middle" x="452" y="-119.3" font-family="Times New Roman,serif" font-size="14.00">0</text>
<polyline fill="none" stroke="black" stroke-width="2.5" points="437,-114.5 467,-114.5 "/>
<text text-anchor="middle" x="452" y="-102.3" font-family="Times New Roman,serif" font-size="14.00">1</text>
<polyline fill="none" stroke="black" stroke-width="2.5" points="467,-97.5 467,-250.5 "/>
<text text-anchor="middle" x="482" y="-238.3" font-family="Times New Roman,serif" font-size="14.00">v5</text>
<polyline fill="none" stroke="black" stroke-width="2.5" points="467,-233.5 497,-233.5 "/>
<text text-anchor="middle" x="482" y="-221.3" font-family="Times New Roman,serif" font-size="14.00">0</text>
<polyline fill="none" stroke="black" stroke-width="2.5" points="467,-216.5 497,-216.5 "/>
<text text-anchor="middle" x="482" y="-204.3" font-family="Times New Roman,serif" font-size="14.00">0</text>
<polyline fill="none" stroke="black" stroke-width="2.5" points="467,-199.5 497,-199.5 "/>
<text text-anchor="middle" x="482" y="-187.3" font-family="Times New Roman,serif" font-size="14.00">1</text>
<polyline fill="none" stroke="black" stroke-width="2.5" points="467,-182.5 497,-182.5 "/>
<text text-anchor="middle" x="482" y="-170.3" font-family="Times New Roman,serif" font-size="14.00">1</text>
<polyline fill="none" stroke="black" stroke-width="2.5" points="467,-165.5 497,-165.5 "/>
<text text-anchor="middle" x="482" y="-153.3" font-family="Times New Roman,serif" font-size="14.00">0</text>
<polyline fill="none" stroke="black" stroke-width="2.5" points="467,-148.5 497,-148.5 "/>
<text text-anchor="middle" x="482" y="-136.3" font-family="Times New Roman,serif" font-size="14.00">0</text>
<polyline fill="none" stroke="black" stroke-width="2.5" points="467,-131.5 497,-131.5 "/>
<text text-anchor="middle" x="482" y="-119.3" font-family="Times New Roman,serif" font-size="14.00">1</text>
<polyline fill="none" stroke="black" stroke-width="2.5" points="467,-114.5 497,-114.5 "/>
<text text-anchor="middle" x="482" y="-102.3" font-family="Times New Roman,serif" font-size="14.00">1</text>
<polyline fill="none" stroke="black" stroke-width="2.5" points="497,-97.5 497,-250.5 "/>
<text text-anchor="middle" x="515.5" y="-238.3" font-family="Times New Roman,serif" font-size="14.00">v10</text>
<polyline fill="none" stroke="black" stroke-width="2.5" points="497,-233.5 534,-233.5 "/>
<text text-anchor="middle" x="515.5" y="-221.3" font-family="Times New Roman,serif" font-size="14.00">0</text>
<polyline fill="none" stroke="black" stroke-width="2.5" points="497,-216.5 534,-216.5 "/>
<text text-anchor="middle" x="515.5" y="-204.3" font-family="Times New Roman,serif" font-size="14.00">0</text>
<polyline fill="none" stroke="black" stroke-width="2.5" points="497,-199.5 534,-199.5 "/>
<text text-anchor="middle" x="515.5" y="-187.3" font-family="Times New Roman,serif" font-size="14.00">0</text>
<polyline fill="none" stroke="black" stroke-width="2.5" points="497,-182.5 534,-182.5 "/>
<text text-anchor="middle" x="515.5" y="-170.3" font-family="Times New Roman,serif" font-size="14.00">0</text>
<polyline fill="none" stroke="black" stroke-width="2.5" points="497,-165.5 534,-165.5 "/>
<text text-anchor="middle" x="515.5" y="-153.3" font-family="Times New Roman,serif" font-size="14.00">1</text>
<polyline fill="none" stroke="black" stroke-width="2.5" points="497,-148.5 534,-148.5 "/>
<text text-anchor="middle" x="515.5" y="-136.3" font-family="Times New Roman,serif" font-size="14.00">1</text>
<polyline fill="none" stroke="black" stroke-width="2.5" points="497,-131.5 534,-131.5 "/>
<text text-anchor="middle" x="515.5" y="-119.3" font-family="Times New Roman,serif" font-size="14.00">1</text>
<polyline fill="none" stroke="black" stroke-width="2.5" points="497,-114.5 534,-114.5 "/>
<text text-anchor="middle" x="515.5" y="-102.3" font-family="Times New Roman,serif" font-size="14.00">1</text>
<polyline fill="none" stroke="black" stroke-width="2.5" points="534,-97.5 534,-250.5 "/>
<text text-anchor="middle" x="557" y="-238.3" font-family="Times New Roman,serif" font-size="14.00">n Sol</text>
<polyline fill="none" stroke="black" stroke-width="2.5" points="534,-233.5 580,-233.5 "/>
<text text-anchor="middle" x="557" y="-221.3" font-family="Times New Roman,serif" font-size="14.00">1</text>
<polyline fill="none" stroke="black" stroke-width="2.5" points="534,-216.5 580,-216.5 "/>
<text text-anchor="middle" x="557" y="-204.3" font-family="Times New Roman,serif" font-size="14.00">0</text>
<polyline fill="none" stroke="black" stroke-width="2.5" points="534,-199.5 580,-199.5 "/>
<text text-anchor="middle" x="557" y="-187.3" font-family="Times New Roman,serif" font-size="14.00">1</text>
<polyline fill="none" stroke="black" stroke-width="2.5" points="534,-182.5 580,-182.5 "/>
<text text-anchor="middle" x="557" y="-170.3" font-family="Times New Roman,serif" font-size="14.00">1</text>
<polyline fill="none" stroke="black" stroke-width="2.5" points="534,-165.5 580,-165.5 "/>
<text text-anchor="middle" x="557" y="-153.3" font-family="Times New Roman,serif" font-size="14.00">2</text>
<polyline fill="none" stroke="black" stroke-width="2.5" points="534,-148.5 580,-148.5 "/>
<text text-anchor="middle" x="557" y="-136.3" font-family="Times New Roman,serif" font-size="14.00">1</text>
<polyline fill="none" stroke="black" stroke-width="2.5" points="534,-131.5 580,-131.5 "/>
<text text-anchor="middle" x="557" y="-119.3" font-family="Times New Roman,serif" font-size="14.00">2</text>
<polyline fill="none" stroke="black" stroke-width="2.5" points="534,-114.5 580,-114.5 "/>
<text text-anchor="middle" x="557" y="-102.3" font-family="Times New Roman,serif" font-size="14.00">2</text>
<polyline fill="none" stroke="black" stroke-width="2.5" points="410,-97.5 580,-97.5 "/>
<text text-anchor="middle" x="495" y="-85.3" font-family="Times New Roman,serif" font-size="14.00">sum: 10</text>
</g>
<!-- bag 4&#45;&gt;sol4 -->
<g id="edge6" class="edge">
<title>bag 4&#45;&gt;sol4</title>
<path fill="none" stroke="black" d="M372.19,-44.17C380.73,-53.13 391.34,-64.26 402.72,-76.2"/>
<polygon fill="black" stroke="black" points="400.45,-78.9 409.89,-83.72 405.52,-74.07 400.45,-78.9"/>
</g>
<!-- bag 4&#45;&gt;Join 3~4 -->
<g id="edge9" class="edge">
<title>bag 4&#45;&gt;Join 3~4</title>
<path fill="none" stroke="black" d="M347.77,-44.17C342.44,-70.79 333.3,-116.51 327.46,-145.72"/>
<polygon fill="black" stroke="black" points="324,-145.17 325.47,-155.66 330.86,-146.54 324,-145.17"/>
</g>
<!-- solJoin3~4 -->
<!-- Join 3~4&#45;&gt;bag 2 -->
<g id="edge10" class="edge">
<title>Join 3~4&#45;&gt;bag 2</title>
<path fill="none" stroke="black" d="M316.39,-192.05C304.14,-229.32 274.82,-318.49 259.2,-365.99"/>
<polygon fill="black" stroke="black" points="255.79,-365.14 255.99,-375.73 262.44,-367.33 255.79,-365.14"/>
</g>
<!-- Join 3~4&#45;&gt;solJoin3~4 -->
</g>
</svg>
