<?xml version="1.0" encoding="UTF-8" standalone="no"?>
<!DOCTYPE svg PUBLIC "-//W3C//DTD SVG 1.1//EN"
 "http://www.w3.org/Graphics/SVG/1.1/DTD/svg11.dtd">
<!-- Generated by graphviz version 2.38.0 (20140413.2041)
 -->
<!-- Title: graph Pages: 1 -->
<svg width="466pt" height="565pt"
 viewBox="0.00 0.00 465.90 565.36" xmlns="http://www.w3.org/2000/svg" xmlns:xlink="http://www.w3.org/1999/xlink">
<g id="graph0" class="graph" transform="scale(1 1) rotate(0) translate(238.772 295.4)">
<title>graph</title>
<polygon fill="white" stroke="none" points="-238.772,269.962 -238.772,-295.4 227.123,-295.4 227.123,269.962 -238.772,269.962"/>
<!-- 6 -->
<g id="node1" class="node"><title>6</title>
<ellipse fill="none" stroke="black" stroke-width="2.2" cx="-9.09732" cy="-48.0529" rx="27" ry="18"/>
<text text-anchor="middle" x="-9.09732" y="-44.3529" font-family="Times New Roman,serif" font-size="14.00">6</text>
</g>
<!-- 15 -->
<g id="node2" class="node"><title>15</title>
<ellipse fill="none" stroke="black" stroke-width="2.2" cx="-74.5781" cy="-101.562" rx="27" ry="18"/>
<text text-anchor="middle" x="-74.5781" y="-97.862" font-family="Times New Roman,serif" font-size="14.00">15</text>
</g>
<!-- 6&#45;&#45;15 -->
<g id="edge1" class="edge"><title>6&#45;&#45;15</title>
<path fill="none" stroke="black" d="M-26.3016,-62.1118C-35.8505,-69.9148 -47.6946,-79.5935 -57.2614,-87.4112"/>
</g>
<!-- 7 -->
<g id="node6" class="node"><title>7</title>
<ellipse fill="none" stroke="black" stroke-width="2.2" cx="-19.8247" cy="36.3523" rx="27" ry="18"/>
<text text-anchor="middle" x="-19.8247" y="40.0523" font-family="Times New Roman,serif" font-size="14.00">7</text>
</g>
<!-- 6&#45;&#45;7 -->
<g id="edge14" class="edge"><title>6&#45;&#45;7</title>
<path fill="none" stroke="black" d="M-11.425,-29.7382C-13.2367,-15.4837 -15.7373,4.19226 -17.5384,18.3633"/>
</g>
<!-- 16 -->
<g id="node16" class="node"><title>16</title>
<ellipse fill="none" stroke="black" stroke-width="2.2" cx="-133.568" cy="-153.241" rx="27" ry="18"/>
<text text-anchor="middle" x="-133.568" y="-149.541" font-family="Times New Roman,serif" font-size="14.00">16</text>
</g>
<!-- 15&#45;&#45;16 -->
<g id="edge15" class="edge"><title>15&#45;&#45;16</title>
<path fill="none" stroke="black" d="M-91.0101,-115.958C-99.0555,-123.006 -108.726,-131.478 -116.814,-138.564"/>
</g>
<!-- 3 -->
<g id="node3" class="node"><title>3</title>
<ellipse fill="none" stroke="black" stroke-width="2.2" cx="108.878" cy="-152.627" rx="27" ry="18"/>
<text text-anchor="middle" x="108.878" y="-148.927" font-family="Times New Roman,serif" font-size="14.00">3</text>
</g>
<!-- 4 -->
<g id="node4" class="node"><title>4</title>
<ellipse fill="none" stroke="black" stroke-width="2.2" cx="61.9481" cy="-91.4861" rx="27" ry="18"/>
<text text-anchor="middle" x="61.9481" y="-87.7861" font-family="Times New Roman,serif" font-size="14.00">4</text>
</g>
<!-- 3&#45;&#45;4 -->
<g id="edge2" class="edge"><title>3&#45;&#45;4</title>
<path fill="none" stroke="black" d="M96.5477,-136.563C89.7041,-127.647 81.2154,-116.588 74.3589,-107.655"/>
</g>
<!-- 2 -->
<g id="node15" class="node"><title>2</title>
<ellipse fill="none" stroke="black" stroke-width="2.2" cx="154.632" cy="-213.024" rx="27" ry="18"/>
<text text-anchor="middle" x="154.632" y="-209.324" font-family="Times New Roman,serif" font-size="14.00">2</text>
</g>
<!-- 3&#45;&#45;2 -->
<g id="edge16" class="edge"><title>3&#45;&#45;2</title>
<path fill="none" stroke="black" d="M121.139,-168.812C127.704,-177.478 135.767,-188.122 142.337,-196.794"/>
</g>
<!-- 4&#45;&#45;6 -->
<g id="edge5" class="edge"><title>4&#45;&#45;6</title>
<path fill="none" stroke="black" d="M41.7794,-79.156C32.0978,-73.2373 20.532,-66.1666 10.8759,-60.2634"/>
</g>
<!-- 14 -->
<g id="node5" class="node"><title>14</title>
<ellipse fill="none" stroke="black" stroke-width="2.2" cx="-84.5124" cy="86.1287" rx="27" ry="18"/>
<text text-anchor="middle" x="-84.5124" y="89.8287" font-family="Times New Roman,serif" font-size="14.00">14</text>
</g>
<!-- 14&#45;&#45;7 -->
<g id="edge3" class="edge"><title>14&#45;&#45;7</title>
<path fill="none" stroke="black" d="M-66.4933,72.2632C-57.5211,65.3592 -46.706,57.0372 -37.7472,50.1434"/>
</g>
<!-- 12 -->
<g id="node8" class="node"><title>12</title>
<ellipse fill="none" stroke="black" stroke-width="2.2" cx="-138.734" cy="138.363" rx="27" ry="18"/>
<text text-anchor="middle" x="-138.734" y="142.063" font-family="Times New Roman,serif" font-size="14.00">12</text>
</g>
<!-- 14&#45;&#45;12 -->
<g id="edge12" class="edge"><title>14&#45;&#45;12</title>
<path fill="none" stroke="black" d="M-99.9051,100.957C-107.169,107.955 -115.822,116.291 -123.115,123.316"/>
</g>
<!-- 5 -->
<g id="node7" class="node"><title>5</title>
<ellipse fill="none" stroke="black" stroke-width="2.2" cx="138.229" cy="-89.5824" rx="27" ry="18"/>
<text text-anchor="middle" x="138.229" y="-85.8824" font-family="Times New Roman,serif" font-size="14.00">5</text>
</g>
<!-- 5&#45;&#45;3 -->
<g id="edge11" class="edge"><title>5&#45;&#45;3</title>
<path fill="none" stroke="black" d="M130.209,-106.81C126.067,-115.705 121.029,-126.528 116.889,-135.421"/>
</g>
<!-- 5&#45;&#45;4 -->
<g id="edge4" class="edge"><title>5&#45;&#45;4</title>
<path fill="none" stroke="black" d="M111.12,-90.2589C103.926,-90.4385 96.159,-90.6323 88.9694,-90.8117"/>
</g>
<!-- 13 -->
<g id="node9" class="node"><title>13</title>
<ellipse fill="none" stroke="black" stroke-width="2.2" cx="-207.772" cy="169.898" rx="27" ry="18"/>
<text text-anchor="middle" x="-207.772" y="173.598" font-family="Times New Roman,serif" font-size="14.00">13</text>
</g>
<!-- 12&#45;&#45;13 -->
<g id="edge6" class="edge"><title>12&#45;&#45;13</title>
<path fill="none" stroke="black" d="M-161.34,148.689C-169.047,152.21 -177.658,156.143 -185.351,159.657"/>
</g>
<!-- 11 -->
<g id="node13" class="node"><title>11</title>
<ellipse fill="none" stroke="black" stroke-width="2.2" cx="-71.2158" cy="164.175" rx="27" ry="18"/>
<text text-anchor="middle" x="-71.2158" y="167.875" font-family="Times New Roman,serif" font-size="14.00">11</text>
</g>
<!-- 12&#45;&#45;11 -->
<g id="edge17" class="edge"><title>12&#45;&#45;11</title>
<path fill="none" stroke="black" d="M-115.119,147.391C-108.579,149.892 -101.478,152.606 -94.9312,155.109"/>
</g>
<!-- 8 -->
<g id="node10" class="node"><title>8</title>
<ellipse fill="none" stroke="black" stroke-width="2.2" cx="34.1131" cy="101.8" rx="27" ry="18"/>
<text text-anchor="middle" x="34.1131" y="105.5" font-family="Times New Roman,serif" font-size="14.00">8</text>
</g>
<!-- 8&#45;&#45;7 -->
<g id="edge18" class="edge"><title>8&#45;&#45;7</title>
<path fill="none" stroke="black" d="M21.0563,85.9573C12.7006,75.8185 1.89144,62.7027 -6.51338,52.5042"/>
</g>
<!-- 9 -->
<g id="node11" class="node"><title>9</title>
<ellipse fill="none" stroke="black" stroke-width="2.2" cx="5.41282" cy="178.295" rx="27" ry="18"/>
<text text-anchor="middle" x="5.41282" y="181.995" font-family="Times New Roman,serif" font-size="14.00">9</text>
</g>
<!-- 8&#45;&#45;9 -->
<g id="edge7" class="edge"><title>8&#45;&#45;9</title>
<path fill="none" stroke="black" d="M27.4565,119.542C22.8199,131.9 16.662,148.313 12.0333,160.65"/>
</g>
<!-- 9&#45;&#45;11 -->
<g id="edge9" class="edge"><title>9&#45;&#45;11</title>
<path fill="none" stroke="black" d="M-20.9584,173.436C-28.7511,172 -37.2762,170.429 -45.0556,168.996"/>
</g>
<!-- 10 -->
<g id="node12" class="node"><title>10</title>
<ellipse fill="none" stroke="black" stroke-width="2.2" cx="39.9655" cy="247.962" rx="27" ry="18"/>
<text text-anchor="middle" x="39.9655" y="251.662" font-family="Times New Roman,serif" font-size="14.00">10</text>
</g>
<!-- 10&#45;&#45;9 -->
<g id="edge8" class="edge"><title>10&#45;&#45;9</title>
<path fill="none" stroke="black" d="M31.4244,230.741C26.1485,220.104 19.3977,206.492 14.0957,195.802"/>
</g>
<!-- 11&#45;&#45;14 -->
<g id="edge10" class="edge"><title>11&#45;&#45;14</title>
<path fill="none" stroke="black" d="M-74.2997,146.074C-76.4478,133.465 -79.3008,116.719 -81.4452,104.132"/>
</g>
<!-- 1 -->
<g id="node14" class="node"><title>1</title>
<ellipse fill="none" stroke="black" stroke-width="2.2" cx="196.123" cy="-273.4" rx="27" ry="18"/>
<text text-anchor="middle" x="196.123" y="-269.7" font-family="Times New Roman,serif" font-size="14.00">1</text>
</g>
<!-- 1&#45;&#45;2 -->
<g id="edge13" class="edge"><title>1&#45;&#45;2</title>
<path fill="none" stroke="black" d="M184.786,-256.902C178.931,-248.383 171.809,-238.018 165.956,-229.502"/>
</g>
</g>
</svg>
