<?xml version="1.0" encoding="UTF-8" standalone="no"?>
<!DOCTYPE svg PUBLIC "-//W3C//DTD SVG 1.1//EN"
 "http://www.w3.org/Graphics/SVG/1.1/DTD/svg11.dtd">
<!-- Generated by graphviz version 2.41.20170921.1950 (20170921.1950)
 -->
<!-- Title: Tree&#45;Decomposition Pages: 1 -->
<svg width="706pt" height="1029pt"
 viewBox="0.00 0.00 706.00 1029.00" xmlns="http://www.w3.org/2000/svg" xmlns:xlink="http://www.w3.org/1999/xlink">
<g id="graph0" class="graph" transform="scale(1 1) rotate(0) translate(4 1025)">
<title>Tree&#45;Decomposition</title>
<polygon fill="white" stroke="transparent" points="-4,4 -4,-1025 702,-1025 702,4 -4,4"/>
<!-- bag 1 -->
<g id="node1" class="node">
<title>bag 1</title>
<path fill="white" stroke="black" d="M284,-880C284,-880 189,-880 189,-880 183,-880 177,-874 177,-868 177,-868 177,-810 177,-810 177,-804 183,-798 189,-798 189,-798 284,-798 284,-798 290,-798 296,-804 296,-810 296,-810 296,-868 296,-868 296,-874 290,-880 284,-880"/>
<polygon fill="white" stroke="transparent" points="185.5,-860 185.5,-879 288.5,-879 288.5,-860 185.5,-860"/>
<text text-anchor="start" x="221.5" y="-865.8" font-family="Times New Roman,serif" font-size="14.00">bag 1</text>
<text text-anchor="start" x="221.5" y="-842.8" font-family="Times New Roman,serif" font-size="14.00">[2, 3]</text>
<text text-anchor="start" x="195.5" y="-823.8" font-family="Times New Roman,serif" font-size="14.00">dtime=0.0010s</text>
<text text-anchor="start" x="187.5" y="-804.8" font-family="Times New Roman,serif" font-size="14.00">05/21/20 16:13:14</text>
</g>
<!-- sol1 -->
<!-- bag 1&#45;&gt;sol1 -->
<!-- bag 2 -->
<g id="node2" class="node">
<title>bag 2</title>
<path fill="white" stroke="black" d="M172,-758C172,-758 77,-758 77,-758 71,-758 65,-752 65,-746 65,-746 65,-688 65,-688 65,-682 71,-676 77,-676 77,-676 172,-676 172,-676 178,-676 184,-682 184,-688 184,-688 184,-746 184,-746 184,-752 178,-758 172,-758"/>
<polygon fill="white" stroke="transparent" points="73.5,-738 73.5,-757 176.5,-757 176.5,-738 73.5,-738"/>
<text text-anchor="start" x="109.5" y="-743.8" font-family="Times New Roman,serif" font-size="14.00">bag 2</text>
<text text-anchor="start" x="102.5" y="-720.8" font-family="Times New Roman,serif" font-size="14.00">[3, 4, 5]</text>
<text text-anchor="start" x="83.5" y="-701.8" font-family="Times New Roman,serif" font-size="14.00">dtime=0.0010s</text>
<text text-anchor="start" x="75.5" y="-682.8" font-family="Times New Roman,serif" font-size="14.00">05/21/20 16:13:14</text>
</g>
<!-- bag 2&#45;&gt;bag 1 -->
<g id="edge1" class="edge">
<title>bag 2&#45;&gt;bag 1</title>
<path fill="none" stroke="black" d="M162.11,-758.29C171.62,-768.48 181.93,-779.53 191.75,-790.06"/>
<polygon fill="black" stroke="black" points="189.42,-792.69 198.8,-797.61 194.54,-787.91 189.42,-792.69"/>
</g>
<!-- sol2 -->
<!-- bag 2&#45;&gt;sol2 -->
<!-- bag 3 -->
<g id="node3" class="node">
<title>bag 3</title>
<path fill="white" stroke="black" d="M396,-758C396,-758 301,-758 301,-758 295,-758 289,-752 289,-746 289,-746 289,-688 289,-688 289,-682 295,-676 301,-676 301,-676 396,-676 396,-676 402,-676 408,-682 408,-688 408,-688 408,-746 408,-746 408,-752 402,-758 396,-758"/>
<polygon fill="white" stroke="transparent" points="297.5,-738 297.5,-757 400.5,-757 400.5,-738 297.5,-738"/>
<text text-anchor="start" x="333.5" y="-743.8" font-family="Times New Roman,serif" font-size="14.00">bag 3</text>
<text text-anchor="start" x="333.5" y="-720.8" font-family="Times New Roman,serif" font-size="14.00">[1, 2]</text>
<text text-anchor="start" x="307.5" y="-701.8" font-family="Times New Roman,serif" font-size="14.00">dtime=0.0013s</text>
<text text-anchor="start" x="299.5" y="-682.8" font-family="Times New Roman,serif" font-size="14.00">05/21/20 16:13:14</text>
</g>
<!-- bag 3&#45;&gt;bag 1 -->
<g id="edge2" class="edge">
<title>bag 3&#45;&gt;bag 1</title>
<path fill="none" stroke="black" d="M310.89,-758.29C301.38,-768.48 291.07,-779.53 281.25,-790.06"/>
<polygon fill="black" stroke="black" points="278.46,-787.91 274.2,-797.61 283.58,-792.69 278.46,-787.91"/>
</g>
<!-- sol3 -->
<g id="node20" class="node">
<title>sol3</title>
<path fill="white" stroke="black" d="M326.5,-796.5C326.5,-796.5 370.5,-796.5 370.5,-796.5 376.5,-796.5 382.5,-802.5 382.5,-808.5 382.5,-808.5 382.5,-869.5 382.5,-869.5 382.5,-875.5 376.5,-881.5 370.5,-881.5 370.5,-881.5 326.5,-881.5 326.5,-881.5 320.5,-881.5 314.5,-875.5 314.5,-869.5 314.5,-869.5 314.5,-808.5 314.5,-808.5 314.5,-802.5 320.5,-796.5 326.5,-796.5"/>
<text text-anchor="middle" x="348.5" y="-869.3" font-family="Times New Roman,serif" font-size="14.00">sol bag 3</text>
<polyline fill="none" stroke="black" points="314.5,-864.5 382.5,-864.5 "/>
<text text-anchor="middle" x="329.5" y="-852.3" font-family="Times New Roman,serif" font-size="14.00">v2</text>
<polyline fill="none" stroke="black" points="314.5,-847.5 344.5,-847.5 "/>
<text text-anchor="middle" x="329.5" y="-835.3" font-family="Times New Roman,serif" font-size="14.00">0</text>
<polyline fill="none" stroke="black" points="314.5,-830.5 344.5,-830.5 "/>
<text text-anchor="middle" x="329.5" y="-818.3" font-family="Times New Roman,serif" font-size="14.00">1</text>
<polyline fill="none" stroke="black" points="344.5,-813.5 344.5,-864.5 "/>
<text text-anchor="middle" x="363.5" y="-852.3" font-family="Times New Roman,serif" font-size="14.00">size</text>
<polyline fill="none" stroke="black" points="344.5,-847.5 382.5,-847.5 "/>
<text text-anchor="middle" x="363.5" y="-835.3" font-family="Times New Roman,serif" font-size="14.00">1</text>
<polyline fill="none" stroke="black" points="344.5,-830.5 382.5,-830.5 "/>
<text text-anchor="middle" x="363.5" y="-818.3" font-family="Times New Roman,serif" font-size="14.00">1</text>
<polyline fill="none" stroke="black" points="314.5,-813.5 382.5,-813.5 "/>
<text text-anchor="middle" x="348.5" y="-801.3" font-family="Times New Roman,serif" font-size="14.00">sum: 2</text>
</g>
<!-- bag 3&#45;&gt;sol3 -->
<g id="edge19" class="edge">
<title>bag 3&#45;&gt;sol3</title>
<path fill="none" stroke="black" d="M348.5,-758.29C348.5,-767.29 348.5,-776.96 348.5,-786.35"/>
<polygon fill="black" stroke="black" points="345,-786.38 348.5,-796.38 352,-786.38 345,-786.38"/>
</g>
<!-- bag 4 -->
<g id="node4" class="node">
<title>bag 4</title>
<path fill="yellow" stroke="black" stroke-width="2.5" d="M228,-636C228,-636 133,-636 133,-636 127,-636 121,-630 121,-624 121,-624 121,-566 121,-566 121,-560 127,-554 133,-554 133,-554 228,-554 228,-554 234,-554 240,-560 240,-566 240,-566 240,-624 240,-624 240,-630 234,-636 228,-636"/>
<polygon fill="white" stroke="transparent" points="129.5,-616 129.5,-635 232.5,-635 232.5,-616 129.5,-616"/>
<text text-anchor="start" x="165.5" y="-621.8" font-family="Times New Roman,serif" font-size="14.00">bag 4</text>
<text text-anchor="start" x="165.5" y="-598.8" font-family="Times New Roman,serif" font-size="14.00">[4, 6]</text>
<text text-anchor="start" x="139.5" y="-579.8" font-family="Times New Roman,serif" font-size="14.00">dtime=0.0012s</text>
<text text-anchor="start" x="131.5" y="-560.8" font-family="Times New Roman,serif" font-size="14.00">05/21/20 16:13:14</text>
</g>
<!-- bag 4&#45;&gt;bag 2 -->
<g id="edge3" class="edge">
<title>bag 4&#45;&gt;bag 2</title>
<path fill="none" stroke="black" d="M161.7,-636.29C157.17,-645.99 152.29,-656.46 147.59,-666.52"/>
<polygon fill="black" stroke="black" points="144.41,-665.07 143.35,-675.61 150.75,-668.03 144.41,-665.07"/>
</g>
<!-- sol4 -->
<g id="node24" class="node">
<title>sol4</title>
<path fill="yellow" stroke="black" stroke-width="2.5" d="M214.5,-674.5C214.5,-674.5 258.5,-674.5 258.5,-674.5 264.5,-674.5 270.5,-680.5 270.5,-686.5 270.5,-686.5 270.5,-747.5 270.5,-747.5 270.5,-753.5 264.5,-759.5 258.5,-759.5 258.5,-759.5 214.5,-759.5 214.5,-759.5 208.5,-759.5 202.5,-753.5 202.5,-747.5 202.5,-747.5 202.5,-686.5 202.5,-686.5 202.5,-680.5 208.5,-674.5 214.5,-674.5"/>
<text text-anchor="middle" x="236.5" y="-747.3" font-family="Times New Roman,serif" font-size="14.00">sol bag 4</text>
<polyline fill="none" stroke="black" stroke-width="2.5" points="202.5,-742.5 270.5,-742.5 "/>
<text text-anchor="middle" x="217.5" y="-730.3" font-family="Times New Roman,serif" font-size="14.00">v4</text>
<polyline fill="none" stroke="black" stroke-width="2.5" points="202.5,-725.5 232.5,-725.5 "/>
<text text-anchor="middle" x="217.5" y="-713.3" font-family="Times New Roman,serif" font-size="14.00">0</text>
<polyline fill="none" stroke="black" stroke-width="2.5" points="202.5,-708.5 232.5,-708.5 "/>
<text text-anchor="middle" x="217.5" y="-696.3" font-family="Times New Roman,serif" font-size="14.00">1</text>
<polyline fill="none" stroke="black" stroke-width="2.5" points="232.5,-691.5 232.5,-742.5 "/>
<text text-anchor="middle" x="251.5" y="-730.3" font-family="Times New Roman,serif" font-size="14.00">size</text>
<polyline fill="none" stroke="black" stroke-width="2.5" points="232.5,-725.5 270.5,-725.5 "/>
<text text-anchor="middle" x="251.5" y="-713.3" font-family="Times New Roman,serif" font-size="14.00">6</text>
<polyline fill="none" stroke="black" stroke-width="2.5" points="232.5,-708.5 270.5,-708.5 "/>
<text text-anchor="middle" x="251.5" y="-696.3" font-family="Times New Roman,serif" font-size="14.00">6</text>
<polyline fill="none" stroke="black" stroke-width="2.5" points="202.5,-691.5 270.5,-691.5 "/>
<text text-anchor="middle" x="236.5" y="-679.3" font-family="Times New Roman,serif" font-size="14.00">sum: 12</text>
</g>
<!-- bag 4&#45;&gt;sol4 -->
<g id="edge23" class="edge">
<title>bag 4&#45;&gt;sol4</title>
<path fill="none" stroke="black" d="M199.3,-636.29C203.64,-645.58 208.3,-655.58 212.81,-665.24"/>
<polygon fill="black" stroke="black" points="209.68,-666.8 217.08,-674.38 216.02,-663.84 209.68,-666.8"/>
</g>
<!-- bag 5 -->
<g id="node5" class="node">
<title>bag 5</title>
<path fill="white" stroke="black" d="M284,-514C284,-514 189,-514 189,-514 183,-514 177,-508 177,-502 177,-502 177,-444 177,-444 177,-438 183,-432 189,-432 189,-432 284,-432 284,-432 290,-432 296,-438 296,-444 296,-444 296,-502 296,-502 296,-508 290,-514 284,-514"/>
<polygon fill="white" stroke="transparent" points="185.5,-494 185.5,-513 288.5,-513 288.5,-494 185.5,-494"/>
<text text-anchor="start" x="221.5" y="-499.8" font-family="Times New Roman,serif" font-size="14.00">bag 5</text>
<text text-anchor="start" x="221.5" y="-476.8" font-family="Times New Roman,serif" font-size="14.00">[6, 7]</text>
<text text-anchor="start" x="195.5" y="-457.8" font-family="Times New Roman,serif" font-size="14.00">dtime=0.0012s</text>
<text text-anchor="start" x="187.5" y="-438.8" font-family="Times New Roman,serif" font-size="14.00">05/21/20 16:13:14</text>
</g>
<!-- bag 5&#45;&gt;bag 4 -->
<g id="edge4" class="edge">
<title>bag 5&#45;&gt;bag 4</title>
<path fill="none" stroke="black" d="M217.7,-514.29C213.17,-523.99 208.29,-534.46 203.59,-544.52"/>
<polygon fill="black" stroke="black" points="200.41,-543.07 199.35,-553.61 206.75,-546.03 200.41,-543.07"/>
</g>
<!-- sol5 -->
<g id="node23" class="node">
<title>sol5</title>
<path fill="white" stroke="black" d="M270.5,-552.5C270.5,-552.5 314.5,-552.5 314.5,-552.5 320.5,-552.5 326.5,-558.5 326.5,-564.5 326.5,-564.5 326.5,-625.5 326.5,-625.5 326.5,-631.5 320.5,-637.5 314.5,-637.5 314.5,-637.5 270.5,-637.5 270.5,-637.5 264.5,-637.5 258.5,-631.5 258.5,-625.5 258.5,-625.5 258.5,-564.5 258.5,-564.5 258.5,-558.5 264.5,-552.5 270.5,-552.5"/>
<text text-anchor="middle" x="292.5" y="-625.3" font-family="Times New Roman,serif" font-size="14.00">sol bag 5</text>
<polyline fill="none" stroke="black" points="258.5,-620.5 326.5,-620.5 "/>
<text text-anchor="middle" x="273.5" y="-608.3" font-family="Times New Roman,serif" font-size="14.00">v6</text>
<polyline fill="none" stroke="black" points="258.5,-603.5 288.5,-603.5 "/>
<text text-anchor="middle" x="273.5" y="-591.3" font-family="Times New Roman,serif" font-size="14.00">0</text>
<polyline fill="none" stroke="black" points="258.5,-586.5 288.5,-586.5 "/>
<text text-anchor="middle" x="273.5" y="-574.3" font-family="Times New Roman,serif" font-size="14.00">1</text>
<polyline fill="none" stroke="black" points="288.5,-569.5 288.5,-620.5 "/>
<text text-anchor="middle" x="307.5" y="-608.3" font-family="Times New Roman,serif" font-size="14.00">size</text>
<polyline fill="none" stroke="black" points="288.5,-603.5 326.5,-603.5 "/>
<text text-anchor="middle" x="307.5" y="-591.3" font-family="Times New Roman,serif" font-size="14.00">5</text>
<polyline fill="none" stroke="black" points="288.5,-586.5 326.5,-586.5 "/>
<text text-anchor="middle" x="307.5" y="-574.3" font-family="Times New Roman,serif" font-size="14.00">6</text>
<polyline fill="none" stroke="black" points="258.5,-569.5 326.5,-569.5 "/>
<text text-anchor="middle" x="292.5" y="-557.3" font-family="Times New Roman,serif" font-size="14.00">sum: 11</text>
</g>
<!-- bag 5&#45;&gt;sol5 -->
<g id="edge22" class="edge">
<title>bag 5&#45;&gt;sol5</title>
<path fill="none" stroke="black" d="M255.3,-514.29C259.64,-523.58 264.3,-533.58 268.81,-543.24"/>
<polygon fill="black" stroke="black" points="265.68,-544.8 273.08,-552.38 272.02,-541.84 265.68,-544.8"/>
</g>
<!-- bag 6 -->
<g id="node6" class="node">
<title>bag 6</title>
<path fill="white" stroke="black" d="M107,-375C107,-375 12,-375 12,-375 6,-375 0,-369 0,-363 0,-363 0,-305 0,-305 0,-299 6,-293 12,-293 12,-293 107,-293 107,-293 113,-293 119,-299 119,-305 119,-305 119,-363 119,-363 119,-369 113,-375 107,-375"/>
<polygon fill="white" stroke="transparent" points="8.5,-355 8.5,-374 111.5,-374 111.5,-355 8.5,-355"/>
<text text-anchor="start" x="44.5" y="-360.8" font-family="Times New Roman,serif" font-size="14.00">bag 6</text>
<text text-anchor="start" x="41.5" y="-337.8" font-family="Times New Roman,serif" font-size="14.00">[6, 15]</text>
<text text-anchor="start" x="18.5" y="-318.8" font-family="Times New Roman,serif" font-size="14.00">dtime=0.0019s</text>
<text text-anchor="start" x="10.5" y="-299.8" font-family="Times New Roman,serif" font-size="14.00">05/21/20 16:13:14</text>
</g>
<!-- bag 6&#45;&gt;bag 5 -->
<g id="edge5" class="edge">
<title>bag 6&#45;&gt;bag 5</title>
<path fill="none" stroke="black" d="M104.73,-375.27C112.24,-381.65 120.01,-388.1 127.5,-394 141.02,-404.66 155.82,-415.68 170.05,-425.95"/>
<polygon fill="black" stroke="black" points="168.17,-428.91 178.34,-431.9 172.26,-423.23 168.17,-428.91"/>
</g>
<!-- sol6 -->
<g id="node18" class="node">
<title>sol6</title>
<path fill="white" stroke="black" d="M37.5,-430.5C37.5,-430.5 81.5,-430.5 81.5,-430.5 87.5,-430.5 93.5,-436.5 93.5,-442.5 93.5,-442.5 93.5,-503.5 93.5,-503.5 93.5,-509.5 87.5,-515.5 81.5,-515.5 81.5,-515.5 37.5,-515.5 37.5,-515.5 31.5,-515.5 25.5,-509.5 25.5,-503.5 25.5,-503.5 25.5,-442.5 25.5,-442.5 25.5,-436.5 31.5,-430.5 37.5,-430.5"/>
<text text-anchor="middle" x="59.5" y="-503.3" font-family="Times New Roman,serif" font-size="14.00">sol bag 6</text>
<polyline fill="none" stroke="black" points="25.5,-498.5 93.5,-498.5 "/>
<text text-anchor="middle" x="40.5" y="-486.3" font-family="Times New Roman,serif" font-size="14.00">v6</text>
<polyline fill="none" stroke="black" points="25.5,-481.5 55.5,-481.5 "/>
<text text-anchor="middle" x="40.5" y="-469.3" font-family="Times New Roman,serif" font-size="14.00">0</text>
<polyline fill="none" stroke="black" points="25.5,-464.5 55.5,-464.5 "/>
<text text-anchor="middle" x="40.5" y="-452.3" font-family="Times New Roman,serif" font-size="14.00">1</text>
<polyline fill="none" stroke="black" points="55.5,-447.5 55.5,-498.5 "/>
<text text-anchor="middle" x="74.5" y="-486.3" font-family="Times New Roman,serif" font-size="14.00">size</text>
<polyline fill="none" stroke="black" points="55.5,-481.5 93.5,-481.5 "/>
<text text-anchor="middle" x="74.5" y="-469.3" font-family="Times New Roman,serif" font-size="14.00">1</text>
<polyline fill="none" stroke="black" points="55.5,-464.5 93.5,-464.5 "/>
<text text-anchor="middle" x="74.5" y="-452.3" font-family="Times New Roman,serif" font-size="14.00">2</text>
<polyline fill="none" stroke="black" points="25.5,-447.5 93.5,-447.5 "/>
<text text-anchor="middle" x="59.5" y="-435.3" font-family="Times New Roman,serif" font-size="14.00">sum: 3</text>
</g>
<!-- bag 6&#45;&gt;sol6 -->
<g id="edge17" class="edge">
<title>bag 6&#45;&gt;sol6</title>
<path fill="none" stroke="black" d="M59.5,-375.36C59.5,-389.34 59.5,-405.22 59.5,-420"/>
<polygon fill="black" stroke="black" points="56,-420.02 59.5,-430.02 63,-420.02 56,-420.02"/>
</g>
<!-- bag 7 -->
<g id="node7" class="node">
<title>bag 7</title>
<path fill="white" stroke="black" d="M460,-375C460,-375 365,-375 365,-375 359,-375 353,-369 353,-363 353,-363 353,-305 353,-305 353,-299 359,-293 365,-293 365,-293 460,-293 460,-293 466,-293 472,-299 472,-305 472,-305 472,-363 472,-363 472,-369 466,-375 460,-375"/>
<polygon fill="white" stroke="transparent" points="361.5,-355 361.5,-374 464.5,-374 464.5,-355 361.5,-355"/>
<text text-anchor="start" x="397.5" y="-360.8" font-family="Times New Roman,serif" font-size="14.00">bag 7</text>
<text text-anchor="start" x="384" y="-337.8" font-family="Times New Roman,serif" font-size="14.00">[7, 11, 14]</text>
<text text-anchor="start" x="371.5" y="-318.8" font-family="Times New Roman,serif" font-size="14.00">dtime=0.0033s</text>
<text text-anchor="start" x="363.5" y="-299.8" font-family="Times New Roman,serif" font-size="14.00">05/21/20 16:13:14</text>
</g>
<!-- bag 7&#45;&gt;bag 5 -->
<g id="edge6" class="edge">
<title>bag 7&#45;&gt;bag 5</title>
<path fill="none" stroke="black" d="M367.25,-375.24C359.75,-381.63 351.97,-388.08 344.5,-394 331.09,-404.63 316.41,-415.63 302.32,-425.89"/>
<polygon fill="black" stroke="black" points="300.14,-423.15 294.1,-431.85 304.25,-428.81 300.14,-423.15"/>
</g>
<!-- sol7 -->
<g id="node22" class="node">
<title>sol7</title>
<path fill="white" stroke="black" d="M390.5,-430.5C390.5,-430.5 434.5,-430.5 434.5,-430.5 440.5,-430.5 446.5,-436.5 446.5,-442.5 446.5,-442.5 446.5,-503.5 446.5,-503.5 446.5,-509.5 440.5,-515.5 434.5,-515.5 434.5,-515.5 390.5,-515.5 390.5,-515.5 384.5,-515.5 378.5,-509.5 378.5,-503.5 378.5,-503.5 378.5,-442.5 378.5,-442.5 378.5,-436.5 384.5,-430.5 390.5,-430.5"/>
<text text-anchor="middle" x="412.5" y="-503.3" font-family="Times New Roman,serif" font-size="14.00">sol bag 7</text>
<polyline fill="none" stroke="black" points="378.5,-498.5 446.5,-498.5 "/>
<text text-anchor="middle" x="393.5" y="-486.3" font-family="Times New Roman,serif" font-size="14.00">v7</text>
<polyline fill="none" stroke="black" points="378.5,-481.5 408.5,-481.5 "/>
<text text-anchor="middle" x="393.5" y="-469.3" font-family="Times New Roman,serif" font-size="14.00">0</text>
<polyline fill="none" stroke="black" points="378.5,-464.5 408.5,-464.5 "/>
<text text-anchor="middle" x="393.5" y="-452.3" font-family="Times New Roman,serif" font-size="14.00">1</text>
<polyline fill="none" stroke="black" points="408.5,-447.5 408.5,-498.5 "/>
<text text-anchor="middle" x="427.5" y="-486.3" font-family="Times New Roman,serif" font-size="14.00">size</text>
<polyline fill="none" stroke="black" points="408.5,-481.5 446.5,-481.5 "/>
<text text-anchor="middle" x="427.5" y="-469.3" font-family="Times New Roman,serif" font-size="14.00">4</text>
<polyline fill="none" stroke="black" points="408.5,-464.5 446.5,-464.5 "/>
<text text-anchor="middle" x="427.5" y="-452.3" font-family="Times New Roman,serif" font-size="14.00">4</text>
<polyline fill="none" stroke="black" points="378.5,-447.5 446.5,-447.5 "/>
<text text-anchor="middle" x="412.5" y="-435.3" font-family="Times New Roman,serif" font-size="14.00">sum: 8</text>
</g>
<!-- bag 7&#45;&gt;sol7 -->
<g id="edge21" class="edge">
<title>bag 7&#45;&gt;sol7</title>
<path fill="none" stroke="black" d="M412.5,-375.36C412.5,-389.34 412.5,-405.22 412.5,-420"/>
<polygon fill="black" stroke="black" points="409,-420.02 412.5,-430.02 416,-420.02 409,-420.02"/>
</g>
<!-- bag 8 -->
<g id="node8" class="node">
<title>bag 8</title>
<path fill="white" stroke="black" d="M108,-219C108,-219 13,-219 13,-219 7,-219 1,-213 1,-207 1,-207 1,-149 1,-149 1,-143 7,-137 13,-137 13,-137 108,-137 108,-137 114,-137 120,-143 120,-149 120,-149 120,-207 120,-207 120,-213 114,-219 108,-219"/>
<polygon fill="white" stroke="transparent" points="9.5,-199 9.5,-218 112.5,-218 112.5,-199 9.5,-199"/>
<text text-anchor="start" x="45.5" y="-204.8" font-family="Times New Roman,serif" font-size="14.00">bag 8</text>
<text text-anchor="start" x="39" y="-181.8" font-family="Times New Roman,serif" font-size="14.00">[15, 16]</text>
<text text-anchor="start" x="19.5" y="-162.8" font-family="Times New Roman,serif" font-size="14.00">dtime=0.0036s</text>
<text text-anchor="start" x="11.5" y="-143.8" font-family="Times New Roman,serif" font-size="14.00">05/21/20 16:13:14</text>
</g>
<!-- bag 8&#45;&gt;bag 6 -->
<g id="edge7" class="edge">
<title>bag 8&#45;&gt;bag 6</title>
<path fill="none" stroke="black" d="M60.24,-219.06C60.11,-238.5 59.96,-262.06 59.83,-282.7"/>
<polygon fill="black" stroke="black" points="56.33,-282.85 59.76,-292.87 63.33,-282.9 56.33,-282.85"/>
</g>
<!-- sol8 -->
<g id="node14" class="node">
<title>sol8</title>
<path fill="white" stroke="black" d="M149,-291.5C149,-291.5 200,-291.5 200,-291.5 206,-291.5 212,-297.5 212,-303.5 212,-303.5 212,-364.5 212,-364.5 212,-370.5 206,-376.5 200,-376.5 200,-376.5 149,-376.5 149,-376.5 143,-376.5 137,-370.5 137,-364.5 137,-364.5 137,-303.5 137,-303.5 137,-297.5 143,-291.5 149,-291.5"/>
<text text-anchor="middle" x="174.5" y="-364.3" font-family="Times New Roman,serif" font-size="14.00">sol bag 8</text>
<polyline fill="none" stroke="black" points="137,-359.5 212,-359.5 "/>
<text text-anchor="middle" x="155.5" y="-347.3" font-family="Times New Roman,serif" font-size="14.00">v15</text>
<polyline fill="none" stroke="black" points="137,-342.5 174,-342.5 "/>
<text text-anchor="middle" x="155.5" y="-330.3" font-family="Times New Roman,serif" font-size="14.00">0</text>
<polyline fill="none" stroke="black" points="137,-325.5 174,-325.5 "/>
<text text-anchor="middle" x="155.5" y="-313.3" font-family="Times New Roman,serif" font-size="14.00">1</text>
<polyline fill="none" stroke="black" points="174,-308.5 174,-359.5 "/>
<text text-anchor="middle" x="193" y="-347.3" font-family="Times New Roman,serif" font-size="14.00">size</text>
<polyline fill="none" stroke="black" points="174,-342.5 212,-342.5 "/>
<text text-anchor="middle" x="193" y="-330.3" font-family="Times New Roman,serif" font-size="14.00">1</text>
<polyline fill="none" stroke="black" points="174,-325.5 212,-325.5 "/>
<text text-anchor="middle" x="193" y="-313.3" font-family="Times New Roman,serif" font-size="14.00">1</text>
<polyline fill="none" stroke="black" points="137,-308.5 212,-308.5 "/>
<text text-anchor="middle" x="174.5" y="-296.3" font-family="Times New Roman,serif" font-size="14.00">sum: 2</text>
</g>
<!-- bag 8&#45;&gt;sol8 -->
<g id="edge13" class="edge">
<title>bag 8&#45;&gt;sol8</title>
<path fill="none" stroke="black" d="M90.15,-219.06C104.66,-238.65 122.25,-262.42 137.61,-283.17"/>
<polygon fill="black" stroke="black" points="134.84,-285.3 143.6,-291.26 140.46,-281.14 134.84,-285.3"/>
</g>
<!-- bag 9 -->
<g id="node9" class="node">
<title>bag 9</title>
<path fill="white" stroke="black" d="M339,-219C339,-219 244,-219 244,-219 238,-219 232,-213 232,-207 232,-207 232,-149 232,-149 232,-143 238,-137 244,-137 244,-137 339,-137 339,-137 345,-137 351,-143 351,-149 351,-149 351,-207 351,-207 351,-213 345,-219 339,-219"/>
<polygon fill="white" stroke="transparent" points="240.5,-199 240.5,-218 343.5,-218 343.5,-199 240.5,-199"/>
<text text-anchor="start" x="276.5" y="-204.8" font-family="Times New Roman,serif" font-size="14.00">bag 9</text>
<text text-anchor="start" x="266" y="-181.8" font-family="Times New Roman,serif" font-size="14.00">[7, 9, 11]</text>
<text text-anchor="start" x="250.5" y="-162.8" font-family="Times New Roman,serif" font-size="14.00">dtime=0.0052s</text>
<text text-anchor="start" x="242.5" y="-143.8" font-family="Times New Roman,serif" font-size="14.00">05/21/20 16:13:14</text>
</g>
<!-- bag 9&#45;&gt;bag 7 -->
<g id="edge8" class="edge">
<title>bag 9&#45;&gt;bag 7</title>
<path fill="none" stroke="black" d="M322.98,-219.06C338.81,-239.21 358.12,-263.79 374.74,-284.95"/>
<polygon fill="black" stroke="black" points="372.04,-287.17 380.97,-292.87 377.55,-282.85 372.04,-287.17"/>
</g>
<!-- sol9 -->
<g id="node19" class="node">
<title>sol9</title>
<path fill="white" stroke="black" d="M242,-274.5C242,-274.5 323,-274.5 323,-274.5 329,-274.5 335,-280.5 335,-286.5 335,-286.5 335,-381.5 335,-381.5 335,-387.5 329,-393.5 323,-393.5 323,-393.5 242,-393.5 242,-393.5 236,-393.5 230,-387.5 230,-381.5 230,-381.5 230,-286.5 230,-286.5 230,-280.5 236,-274.5 242,-274.5"/>
<text text-anchor="middle" x="282.5" y="-381.3" font-family="Times New Roman,serif" font-size="14.00">sol bag 9</text>
<polyline fill="none" stroke="black" points="230,-376.5 335,-376.5 "/>
<text text-anchor="middle" x="245" y="-364.3" font-family="Times New Roman,serif" font-size="14.00">v7</text>
<polyline fill="none" stroke="black" points="230,-359.5 260,-359.5 "/>
<text text-anchor="middle" x="245" y="-347.3" font-family="Times New Roman,serif" font-size="14.00">0</text>
<polyline fill="none" stroke="black" points="230,-342.5 260,-342.5 "/>
<text text-anchor="middle" x="245" y="-330.3" font-family="Times New Roman,serif" font-size="14.00">1</text>
<polyline fill="none" stroke="black" points="230,-325.5 260,-325.5 "/>
<text text-anchor="middle" x="245" y="-313.3" font-family="Times New Roman,serif" font-size="14.00">1</text>
<polyline fill="none" stroke="black" points="230,-308.5 260,-308.5 "/>
<text text-anchor="middle" x="245" y="-296.3" font-family="Times New Roman,serif" font-size="14.00">0</text>
<polyline fill="none" stroke="black" points="260,-291.5 260,-376.5 "/>
<text text-anchor="middle" x="278.5" y="-364.3" font-family="Times New Roman,serif" font-size="14.00">v11</text>
<polyline fill="none" stroke="black" points="260,-359.5 297,-359.5 "/>
<text text-anchor="middle" x="278.5" y="-347.3" font-family="Times New Roman,serif" font-size="14.00">0</text>
<polyline fill="none" stroke="black" points="260,-342.5 297,-342.5 "/>
<text text-anchor="middle" x="278.5" y="-330.3" font-family="Times New Roman,serif" font-size="14.00">1</text>
<polyline fill="none" stroke="black" points="260,-325.5 297,-325.5 "/>
<text text-anchor="middle" x="278.5" y="-313.3" font-family="Times New Roman,serif" font-size="14.00">0</text>
<polyline fill="none" stroke="black" points="260,-308.5 297,-308.5 "/>
<text text-anchor="middle" x="278.5" y="-296.3" font-family="Times New Roman,serif" font-size="14.00">1</text>
<polyline fill="none" stroke="black" points="297,-291.5 297,-376.5 "/>
<text text-anchor="middle" x="316" y="-364.3" font-family="Times New Roman,serif" font-size="14.00">size</text>
<polyline fill="none" stroke="black" points="297,-359.5 335,-359.5 "/>
<text text-anchor="middle" x="316" y="-347.3" font-family="Times New Roman,serif" font-size="14.00">2</text>
<polyline fill="none" stroke="black" points="297,-342.5 335,-342.5 "/>
<text text-anchor="middle" x="316" y="-330.3" font-family="Times New Roman,serif" font-size="14.00">3</text>
<polyline fill="none" stroke="black" points="297,-325.5 335,-325.5 "/>
<text text-anchor="middle" x="316" y="-313.3" font-family="Times New Roman,serif" font-size="14.00">2</text>
<polyline fill="none" stroke="black" points="297,-308.5 335,-308.5 "/>
<text text-anchor="middle" x="316" y="-296.3" font-family="Times New Roman,serif" font-size="14.00">3</text>
<polyline fill="none" stroke="black" points="230,-291.5 335,-291.5 "/>
<text text-anchor="middle" x="282.5" y="-279.3" font-family="Times New Roman,serif" font-size="14.00">sum: 10</text>
</g>
<!-- bag 9&#45;&gt;sol9 -->
<g id="edge18" class="edge">
<title>bag 9&#45;&gt;sol9</title>
<path fill="none" stroke="black" d="M289.16,-219.06C288.35,-232.88 287.42,-248.77 286.52,-264.22"/>
<polygon fill="black" stroke="black" points="283.02,-264.1 285.93,-274.29 290.01,-264.51 283.02,-264.1"/>
</g>
<!-- bag 10 -->
<g id="node10" class="node">
<title>bag 10</title>
<path fill="white" stroke="black" d="M593,-219C593,-219 498,-219 498,-219 492,-219 486,-213 486,-207 486,-207 486,-149 486,-149 486,-143 492,-137 498,-137 498,-137 593,-137 593,-137 599,-137 605,-143 605,-149 605,-149 605,-207 605,-207 605,-213 599,-219 593,-219"/>
<polygon fill="white" stroke="transparent" points="494.5,-199 494.5,-218 597.5,-218 597.5,-199 494.5,-199"/>
<text text-anchor="start" x="527" y="-204.8" font-family="Times New Roman,serif" font-size="14.00">bag 10</text>
<text text-anchor="start" x="513.5" y="-181.8" font-family="Times New Roman,serif" font-size="14.00">[11, 12, 14]</text>
<text text-anchor="start" x="504.5" y="-162.8" font-family="Times New Roman,serif" font-size="14.00">dtime=0.0039s</text>
<text text-anchor="start" x="496.5" y="-143.8" font-family="Times New Roman,serif" font-size="14.00">05/21/20 16:13:14</text>
</g>
<!-- bag 10&#45;&gt;bag 7 -->
<g id="edge9" class="edge">
<title>bag 10&#45;&gt;bag 7</title>
<path fill="none" stroke="black" d="M510.9,-219.06C493.42,-239.3 472.09,-264 453.76,-285.23"/>
<polygon fill="black" stroke="black" points="451.04,-283.02 447.15,-292.87 456.34,-287.59 451.04,-283.02"/>
</g>
<!-- sol10 -->
<g id="node21" class="node">
<title>sol10</title>
<path fill="white" stroke="black" d="M502.5,-283C502.5,-283 590.5,-283 590.5,-283 596.5,-283 602.5,-289 602.5,-295 602.5,-295 602.5,-373 602.5,-373 602.5,-379 596.5,-385 590.5,-385 590.5,-385 502.5,-385 502.5,-385 496.5,-385 490.5,-379 490.5,-373 490.5,-373 490.5,-295 490.5,-295 490.5,-289 496.5,-283 502.5,-283"/>
<text text-anchor="middle" x="546.5" y="-372.8" font-family="Times New Roman,serif" font-size="14.00">sol bag 10</text>
<polyline fill="none" stroke="black" points="490.5,-368 602.5,-368 "/>
<text text-anchor="middle" x="509" y="-355.8" font-family="Times New Roman,serif" font-size="14.00">v11</text>
<polyline fill="none" stroke="black" points="490.5,-351 527.5,-351 "/>
<text text-anchor="middle" x="509" y="-338.8" font-family="Times New Roman,serif" font-size="14.00">1</text>
<polyline fill="none" stroke="black" points="490.5,-334 527.5,-334 "/>
<text text-anchor="middle" x="509" y="-321.8" font-family="Times New Roman,serif" font-size="14.00">1</text>
<polyline fill="none" stroke="black" points="490.5,-317 527.5,-317 "/>
<text text-anchor="middle" x="509" y="-304.8" font-family="Times New Roman,serif" font-size="14.00">0</text>
<polyline fill="none" stroke="black" points="527.5,-300 527.5,-368 "/>
<text text-anchor="middle" x="546" y="-355.8" font-family="Times New Roman,serif" font-size="14.00">v14</text>
<polyline fill="none" stroke="black" points="527.5,-351 564.5,-351 "/>
<text text-anchor="middle" x="546" y="-338.8" font-family="Times New Roman,serif" font-size="14.00">1</text>
<polyline fill="none" stroke="black" points="527.5,-334 564.5,-334 "/>
<text text-anchor="middle" x="546" y="-321.8" font-family="Times New Roman,serif" font-size="14.00">0</text>
<polyline fill="none" stroke="black" points="527.5,-317 564.5,-317 "/>
<text text-anchor="middle" x="546" y="-304.8" font-family="Times New Roman,serif" font-size="14.00">1</text>
<polyline fill="none" stroke="black" points="564.5,-300 564.5,-368 "/>
<text text-anchor="middle" x="583.5" y="-355.8" font-family="Times New Roman,serif" font-size="14.00">size</text>
<polyline fill="none" stroke="black" points="564.5,-351 602.5,-351 "/>
<text text-anchor="middle" x="583.5" y="-338.8" font-family="Times New Roman,serif" font-size="14.00">3</text>
<polyline fill="none" stroke="black" points="564.5,-334 602.5,-334 "/>
<text text-anchor="middle" x="583.5" y="-321.8" font-family="Times New Roman,serif" font-size="14.00">2</text>
<polyline fill="none" stroke="black" points="564.5,-317 602.5,-317 "/>
<text text-anchor="middle" x="583.5" y="-304.8" font-family="Times New Roman,serif" font-size="14.00">2</text>
<polyline fill="none" stroke="black" points="490.5,-300 602.5,-300 "/>
<text text-anchor="middle" x="546.5" y="-287.8" font-family="Times New Roman,serif" font-size="14.00">sum: 7</text>
</g>
<!-- bag 10&#45;&gt;sol10 -->
<g id="edge20" class="edge">
<title>bag 10&#45;&gt;sol10</title>
<path fill="none" stroke="black" d="M545.76,-219.06C545.87,-235.45 545.99,-254.77 546.11,-272.8"/>
<polygon fill="black" stroke="black" points="542.61,-272.96 546.17,-282.94 549.61,-272.92 542.61,-272.96"/>
</g>
<!-- bag 11 -->
<g id="node11" class="node">
<title>bag 11</title>
<path fill="white" stroke="black" d="M265,-82C265,-82 170,-82 170,-82 164,-82 158,-76 158,-70 158,-70 158,-12 158,-12 158,-6 164,0 170,0 170,0 265,0 265,0 271,0 277,-6 277,-12 277,-12 277,-70 277,-70 277,-76 271,-82 265,-82"/>
<polygon fill="white" stroke="transparent" points="166.5,-62 166.5,-81 269.5,-81 269.5,-62 166.5,-62"/>
<text text-anchor="start" x="199" y="-67.8" font-family="Times New Roman,serif" font-size="14.00">bag 11</text>
<text text-anchor="start" x="199.5" y="-44.8" font-family="Times New Roman,serif" font-size="14.00">[9, 10]</text>
<text text-anchor="start" x="176.5" y="-25.8" font-family="Times New Roman,serif" font-size="14.00">dtime=0.0023s</text>
<text text-anchor="start" x="168.5" y="-6.8" font-family="Times New Roman,serif" font-size="14.00">05/21/20 16:13:14</text>
</g>
<!-- bag 11&#45;&gt;bag 9 -->
<g id="edge10" class="edge">
<title>bag 11&#45;&gt;bag 9</title>
<path fill="none" stroke="black" d="M239.5,-82.14C247.33,-96.43 256.25,-112.69 264.45,-127.66"/>
<polygon fill="black" stroke="black" points="261.58,-129.7 269.45,-136.78 267.72,-126.33 261.58,-129.7"/>
</g>
<!-- sol11 -->
<g id="node15" class="node">
<title>sol11</title>
<path fill="white" stroke="black" d="M151.5,-135.5C151.5,-135.5 201.5,-135.5 201.5,-135.5 207.5,-135.5 213.5,-141.5 213.5,-147.5 213.5,-147.5 213.5,-208.5 213.5,-208.5 213.5,-214.5 207.5,-220.5 201.5,-220.5 201.5,-220.5 151.5,-220.5 151.5,-220.5 145.5,-220.5 139.5,-214.5 139.5,-208.5 139.5,-208.5 139.5,-147.5 139.5,-147.5 139.5,-141.5 145.5,-135.5 151.5,-135.5"/>
<text text-anchor="middle" x="176.5" y="-208.3" font-family="Times New Roman,serif" font-size="14.00">sol bag 11</text>
<polyline fill="none" stroke="black" points="139.5,-203.5 213.5,-203.5 "/>
<text text-anchor="middle" x="156" y="-191.3" font-family="Times New Roman,serif" font-size="14.00">v9</text>
<polyline fill="none" stroke="black" points="139.5,-186.5 172.5,-186.5 "/>
<text text-anchor="middle" x="156" y="-174.3" font-family="Times New Roman,serif" font-size="14.00">0</text>
<polyline fill="none" stroke="black" points="139.5,-169.5 172.5,-169.5 "/>
<text text-anchor="middle" x="156" y="-157.3" font-family="Times New Roman,serif" font-size="14.00">1</text>
<polyline fill="none" stroke="black" points="172.5,-152.5 172.5,-203.5 "/>
<text text-anchor="middle" x="193" y="-191.3" font-family="Times New Roman,serif" font-size="14.00">size</text>
<polyline fill="none" stroke="black" points="172.5,-186.5 213.5,-186.5 "/>
<text text-anchor="middle" x="193" y="-174.3" font-family="Times New Roman,serif" font-size="14.00">1</text>
<polyline fill="none" stroke="black" points="172.5,-169.5 213.5,-169.5 "/>
<text text-anchor="middle" x="193" y="-157.3" font-family="Times New Roman,serif" font-size="14.00">1</text>
<polyline fill="none" stroke="black" points="139.5,-152.5 213.5,-152.5 "/>
<text text-anchor="middle" x="176.5" y="-140.3" font-family="Times New Roman,serif" font-size="14.00">sum: 2</text>
</g>
<!-- bag 11&#45;&gt;sol11 -->
<g id="edge14" class="edge">
<title>bag 11&#45;&gt;sol11</title>
<path fill="none" stroke="black" d="M205.31,-82.14C201.17,-95.78 196.48,-111.21 192.11,-125.61"/>
<polygon fill="black" stroke="black" points="188.7,-124.79 189.14,-135.38 195.4,-126.83 188.7,-124.79"/>
</g>
<!-- bag 12 -->
<g id="node12" class="node">
<title>bag 12</title>
<path fill="white" stroke="black" d="M449,-82C449,-82 354,-82 354,-82 348,-82 342,-76 342,-70 342,-70 342,-12 342,-12 342,-6 348,0 354,0 354,0 449,0 449,0 455,0 461,-6 461,-12 461,-12 461,-70 461,-70 461,-76 455,-82 449,-82"/>
<polygon fill="white" stroke="transparent" points="350.5,-62 350.5,-81 453.5,-81 453.5,-62 350.5,-62"/>
<text text-anchor="start" x="383" y="-67.8" font-family="Times New Roman,serif" font-size="14.00">bag 12</text>
<text text-anchor="start" x="379.5" y="-44.8" font-family="Times New Roman,serif" font-size="14.00">[7, 8, 9]</text>
<text text-anchor="start" x="360.5" y="-25.8" font-family="Times New Roman,serif" font-size="14.00">dtime=0.0026s</text>
<text text-anchor="start" x="352.5" y="-6.8" font-family="Times New Roman,serif" font-size="14.00">05/21/20 16:13:14</text>
</g>
<!-- bag 12&#45;&gt;bag 9 -->
<g id="edge11" class="edge">
<title>bag 12&#45;&gt;bag 9</title>
<path fill="none" stroke="black" d="M368.79,-82.14C356.82,-96.83 343.15,-113.61 330.67,-128.92"/>
<polygon fill="black" stroke="black" points="327.87,-126.82 324.27,-136.78 333.3,-131.24 327.87,-126.82"/>
</g>
<!-- sol12 -->
<g id="node16" class="node">
<title>sol12</title>
<path fill="white" stroke="black" d="M381.5,-118.5C381.5,-118.5 455.5,-118.5 455.5,-118.5 461.5,-118.5 467.5,-124.5 467.5,-130.5 467.5,-130.5 467.5,-225.5 467.5,-225.5 467.5,-231.5 461.5,-237.5 455.5,-237.5 455.5,-237.5 381.5,-237.5 381.5,-237.5 375.5,-237.5 369.5,-231.5 369.5,-225.5 369.5,-225.5 369.5,-130.5 369.5,-130.5 369.5,-124.5 375.5,-118.5 381.5,-118.5"/>
<text text-anchor="middle" x="418.5" y="-225.3" font-family="Times New Roman,serif" font-size="14.00">sol bag 12</text>
<polyline fill="none" stroke="black" points="369.5,-220.5 467.5,-220.5 "/>
<text text-anchor="middle" x="384.5" y="-208.3" font-family="Times New Roman,serif" font-size="14.00">v7</text>
<polyline fill="none" stroke="black" points="369.5,-203.5 399.5,-203.5 "/>
<text text-anchor="middle" x="384.5" y="-191.3" font-family="Times New Roman,serif" font-size="14.00">0</text>
<polyline fill="none" stroke="black" points="369.5,-186.5 399.5,-186.5 "/>
<text text-anchor="middle" x="384.5" y="-174.3" font-family="Times New Roman,serif" font-size="14.00">1</text>
<polyline fill="none" stroke="black" points="369.5,-169.5 399.5,-169.5 "/>
<text text-anchor="middle" x="384.5" y="-157.3" font-family="Times New Roman,serif" font-size="14.00">1</text>
<polyline fill="none" stroke="black" points="369.5,-152.5 399.5,-152.5 "/>
<text text-anchor="middle" x="384.5" y="-140.3" font-family="Times New Roman,serif" font-size="14.00">0</text>
<polyline fill="none" stroke="black" points="399.5,-135.5 399.5,-220.5 "/>
<text text-anchor="middle" x="414.5" y="-208.3" font-family="Times New Roman,serif" font-size="14.00">v9</text>
<polyline fill="none" stroke="black" points="399.5,-203.5 429.5,-203.5 "/>
<text text-anchor="middle" x="414.5" y="-191.3" font-family="Times New Roman,serif" font-size="14.00">0</text>
<polyline fill="none" stroke="black" points="399.5,-186.5 429.5,-186.5 "/>
<text text-anchor="middle" x="414.5" y="-174.3" font-family="Times New Roman,serif" font-size="14.00">1</text>
<polyline fill="none" stroke="black" points="399.5,-169.5 429.5,-169.5 "/>
<text text-anchor="middle" x="414.5" y="-157.3" font-family="Times New Roman,serif" font-size="14.00">0</text>
<polyline fill="none" stroke="black" points="399.5,-152.5 429.5,-152.5 "/>
<text text-anchor="middle" x="414.5" y="-140.3" font-family="Times New Roman,serif" font-size="14.00">1</text>
<polyline fill="none" stroke="black" points="429.5,-135.5 429.5,-220.5 "/>
<text text-anchor="middle" x="448.5" y="-208.3" font-family="Times New Roman,serif" font-size="14.00">size</text>
<polyline fill="none" stroke="black" points="429.5,-203.5 467.5,-203.5 "/>
<text text-anchor="middle" x="448.5" y="-191.3" font-family="Times New Roman,serif" font-size="14.00">1</text>
<polyline fill="none" stroke="black" points="429.5,-186.5 467.5,-186.5 "/>
<text text-anchor="middle" x="448.5" y="-174.3" font-family="Times New Roman,serif" font-size="14.00">2</text>
<polyline fill="none" stroke="black" points="429.5,-169.5 467.5,-169.5 "/>
<text text-anchor="middle" x="448.5" y="-157.3" font-family="Times New Roman,serif" font-size="14.00">2</text>
<polyline fill="none" stroke="black" points="429.5,-152.5 467.5,-152.5 "/>
<text text-anchor="middle" x="448.5" y="-140.3" font-family="Times New Roman,serif" font-size="14.00">2</text>
<polyline fill="none" stroke="black" points="369.5,-135.5 467.5,-135.5 "/>
<text text-anchor="middle" x="418.5" y="-123.3" font-family="Times New Roman,serif" font-size="14.00">sum: 7</text>
</g>
<!-- bag 12&#45;&gt;sol12 -->
<g id="edge15" class="edge">
<title>bag 12&#45;&gt;sol12</title>
<path fill="none" stroke="black" d="M406.55,-82.14C407.59,-90.38 408.71,-99.28 409.84,-108.21"/>
<polygon fill="black" stroke="black" points="406.38,-108.79 411.11,-118.28 413.33,-107.92 406.38,-108.79"/>
</g>
<!-- bag 13 -->
<g id="node13" class="node">
<title>bag 13</title>
<path fill="white" stroke="black" d="M610,-82C610,-82 515,-82 515,-82 509,-82 503,-76 503,-70 503,-70 503,-12 503,-12 503,-6 509,0 515,0 515,0 610,0 610,0 616,0 622,-6 622,-12 622,-12 622,-70 622,-70 622,-76 616,-82 610,-82"/>
<polygon fill="white" stroke="transparent" points="511.5,-62 511.5,-81 614.5,-81 614.5,-62 511.5,-62"/>
<text text-anchor="start" x="544" y="-67.8" font-family="Times New Roman,serif" font-size="14.00">bag 13</text>
<text text-anchor="start" x="541" y="-44.8" font-family="Times New Roman,serif" font-size="14.00">[12, 13]</text>
<text text-anchor="start" x="521.5" y="-25.8" font-family="Times New Roman,serif" font-size="14.00">dtime=0.0033s</text>
<text text-anchor="start" x="513.5" y="-6.8" font-family="Times New Roman,serif" font-size="14.00">05/21/20 16:13:14</text>
</g>
<!-- bag 13&#45;&gt;bag 10 -->
<g id="edge12" class="edge">
<title>bag 13&#45;&gt;bag 10</title>
<path fill="none" stroke="black" d="M557.45,-82.14C555.68,-96.16 553.68,-112.07 551.82,-126.81"/>
<polygon fill="black" stroke="black" points="548.34,-126.42 550.56,-136.78 555.29,-127.3 548.34,-126.42"/>
</g>
<!-- sol13 -->
<g id="node17" class="node">
<title>sol13</title>
<path fill="white" stroke="black" d="M635,-135.5C635,-135.5 686,-135.5 686,-135.5 692,-135.5 698,-141.5 698,-147.5 698,-147.5 698,-208.5 698,-208.5 698,-214.5 692,-220.5 686,-220.5 686,-220.5 635,-220.5 635,-220.5 629,-220.5 623,-214.5 623,-208.5 623,-208.5 623,-147.5 623,-147.5 623,-141.5 629,-135.5 635,-135.5"/>
<text text-anchor="middle" x="660.5" y="-208.3" font-family="Times New Roman,serif" font-size="14.00">sol bag 13</text>
<polyline fill="none" stroke="black" points="623,-203.5 698,-203.5 "/>
<text text-anchor="middle" x="641.5" y="-191.3" font-family="Times New Roman,serif" font-size="14.00">v12</text>
<polyline fill="none" stroke="black" points="623,-186.5 660,-186.5 "/>
<text text-anchor="middle" x="641.5" y="-174.3" font-family="Times New Roman,serif" font-size="14.00">0</text>
<polyline fill="none" stroke="black" points="623,-169.5 660,-169.5 "/>
<text text-anchor="middle" x="641.5" y="-157.3" font-family="Times New Roman,serif" font-size="14.00">1</text>
<polyline fill="none" stroke="black" points="660,-152.5 660,-203.5 "/>
<text text-anchor="middle" x="679" y="-191.3" font-family="Times New Roman,serif" font-size="14.00">size</text>
<polyline fill="none" stroke="black" points="660,-186.5 698,-186.5 "/>
<text text-anchor="middle" x="679" y="-174.3" font-family="Times New Roman,serif" font-size="14.00">1</text>
<polyline fill="none" stroke="black" points="660,-169.5 698,-169.5 "/>
<text text-anchor="middle" x="679" y="-157.3" font-family="Times New Roman,serif" font-size="14.00">1</text>
<polyline fill="none" stroke="black" points="623,-152.5 698,-152.5 "/>
<text text-anchor="middle" x="660.5" y="-140.3" font-family="Times New Roman,serif" font-size="14.00">sum: 2</text>
</g>
<!-- bag 13&#45;&gt;sol13 -->
<g id="edge16" class="edge">
<title>bag 13&#45;&gt;sol13</title>
<path fill="none" stroke="black" d="M591.64,-82.14C601.92,-96.3 613.61,-112.4 624.4,-127.27"/>
<polygon fill="black" stroke="black" points="621.58,-129.34 630.28,-135.38 627.24,-125.23 621.58,-129.34"/>
</g>
</g>
</svg>
