<?xml version="1.0" encoding="UTF-8" standalone="no"?>
<!DOCTYPE svg PUBLIC "-//W3C//DTD SVG 1.1//EN"
 "http://www.w3.org/Graphics/SVG/1.1/DTD/svg11.dtd">
<!-- Generated by graphviz version 2.41.20170921.1950 (20170921.1950)
 -->
<!-- Title: Tree&#45;Decomposition Pages: 1 -->
<svg width="706pt" height="1029pt"
 viewBox="0.00 0.00 706.00 1029.00" xmlns="http://www.w3.org/2000/svg" xmlns:xlink="http://www.w3.org/1999/xlink">
<g id="graph0" class="graph" transform="scale(1 1) rotate(0) translate(4 1025)">
<title>Tree&#45;Decomposition</title>
<polygon fill="white" stroke="transparent" points="-4,4 -4,-1025 702,-1025 702,4 -4,4"/>
<!-- bag 1 -->
<g id="node1" class="node">
<title>bag 1</title>
<path fill="white" stroke="black" d="M284,-880C284,-880 189,-880 189,-880 183,-880 177,-874 177,-868 177,-868 177,-810 177,-810 177,-804 183,-798 189,-798 189,-798 284,-798 284,-798 290,-798 296,-804 296,-810 296,-810 296,-868 296,-868 296,-874 290,-880 284,-880"/>
<polygon fill="white" stroke="transparent" points="185.5,-860 185.5,-879 288.5,-879 288.5,-860 185.5,-860"/>
<text text-anchor="start" x="221.5" y="-865.8" font-family="Times New Roman,serif" font-size="14.00">bag 1</text>
<text text-anchor="start" x="221.5" y="-842.8" font-family="Times New Roman,serif" font-size="14.00">[2, 3]</text>
<text text-anchor="start" x="195.5" y="-823.8" font-family="Times New Roman,serif" font-size="14.00">dtime=0.0010s</text>
<text text-anchor="start" x="187.5" y="-804.8" font-family="Times New Roman,serif" font-size="14.00">05/21/20 16:13:14</text>
</g>
<!-- sol1 -->
<!-- bag 1&#45;&gt;sol1 -->
<!-- bag 2 -->
<g id="node2" class="node">
<title>bag 2</title>
<path fill="white" stroke="black" d="M172,-758C172,-758 77,-758 77,-758 71,-758 65,-752 65,-746 65,-746 65,-688 65,-688 65,-682 71,-676 77,-676 77,-676 172,-676 172,-676 178,-676 184,-682 184,-688 184,-688 184,-746 184,-746 184,-752 178,-758 172,-758"/>
<polygon fill="white" stroke="transparent" points="73.5,-738 73.5,-757 176.5,-757 176.5,-738 73.5,-738"/>
<text text-anchor="start" x="109.5" y="-743.8" font-family="Times New Roman,serif" font-size="14.00">bag 2</text>
<text text-anchor="start" x="102.5" y="-720.8" font-family="Times New Roman,serif" font-size="14.00">[3, 4, 5]</text>
<text text-anchor="start" x="83.5" y="-701.8" font-family="Times New Roman,serif" font-size="14.00">dtime=0.0010s</text>
<text text-anchor="start" x="75.5" y="-682.8" font-family="Times New Roman,serif" font-size="14.00">05/21/20 16:13:14</text>
</g>
<!-- bag 2&#45;&gt;bag 1 -->
<g id="edge1" class="edge">
<title>bag 2&#45;&gt;bag 1</title>
<path fill="none" stroke="black" d="M162.11,-758.29C171.62,-768.48 181.93,-779.53 191.75,-790.06"/>
<polygon fill="black" stroke="black" points="189.42,-792.69 198.8,-797.61 194.54,-787.91 189.42,-792.69"/>
</g>
<!-- sol2 -->
<!-- bag 2&#45;&gt;sol2 -->
<!-- bag 3 -->
<g id="node3" class="node">
<title>bag 3</title>
<path fill="white" stroke="black" d="M396,-758C396,-758 301,-758 301,-758 295,-758 289,-752 289,-746 289,-746 289,-688 289,-688 289,-682 295,-676 301,-676 301,-676 396,-676 396,-676 402,-676 408,-682 408,-688 408,-688 408,-746 408,-746 408,-752 402,-758 396,-758"/>
<polygon fill="white" stroke="transparent" points="297.5,-738 297.5,-757 400.5,-757 400.5,-738 297.5,-738"/>
<text text-anchor="start" x="333.5" y="-743.8" font-family="Times New Roman,serif" font-size="14.00">bag 3</text>
<text text-anchor="start" x="333.5" y="-720.8" font-family="Times New Roman,serif" font-size="14.00">[1, 2]</text>
<text text-anchor="start" x="307.5" y="-701.8" font-family="Times New Roman,serif" font-size="14.00">dtime=0.0013s</text>
<text text-anchor="start" x="299.5" y="-682.8" font-family="Times New Roman,serif" font-size="14.00">05/21/20 16:13:14</text>
</g>
<!-- bag 3&#45;&gt;bag 1 -->
<g id="edge2" class="edge">
<title>bag 3&#45;&gt;bag 1</title>
<path fill="none" stroke="black" d="M310.89,-758.29C301.38,-768.48 291.07,-779.53 281.25,-790.06"/>
<polygon fill="black" stroke="black" points="278.46,-787.91 274.2,-797.61 283.58,-792.69 278.46,-787.91"/>
</g>
<!-- sol3 -->
<!-- bag 3&#45;&gt;sol3 -->
<!-- bag 4 -->
<g id="node4" class="node">
<title>bag 4</title>
<path fill="white" stroke="black" d="M228,-636C228,-636 133,-636 133,-636 127,-636 121,-630 121,-624 121,-624 121,-566 121,-566 121,-560 127,-554 133,-554 133,-554 228,-554 228,-554 234,-554 240,-560 240,-566 240,-566 240,-624 240,-624 240,-630 234,-636 228,-636"/>
<polygon fill="white" stroke="transparent" points="129.5,-616 129.5,-635 232.5,-635 232.5,-616 129.5,-616"/>
<text text-anchor="start" x="165.5" y="-621.8" font-family="Times New Roman,serif" font-size="14.00">bag 4</text>
<text text-anchor="start" x="165.5" y="-598.8" font-family="Times New Roman,serif" font-size="14.00">[4, 6]</text>
<text text-anchor="start" x="139.5" y="-579.8" font-family="Times New Roman,serif" font-size="14.00">dtime=0.0012s</text>
<text text-anchor="start" x="131.5" y="-560.8" font-family="Times New Roman,serif" font-size="14.00">05/21/20 16:13:14</text>
</g>
<!-- bag 4&#45;&gt;bag 2 -->
<g id="edge3" class="edge">
<title>bag 4&#45;&gt;bag 2</title>
<path fill="none" stroke="black" d="M161.7,-636.29C157.17,-645.99 152.29,-656.46 147.59,-666.52"/>
<polygon fill="black" stroke="black" points="144.41,-665.07 143.35,-675.61 150.75,-668.03 144.41,-665.07"/>
</g>
<!-- sol4 -->
<!-- bag 4&#45;&gt;sol4 -->
<!-- bag 5 -->
<g id="node5" class="node">
<title>bag 5</title>
<path fill="white" stroke="black" d="M284,-514C284,-514 189,-514 189,-514 183,-514 177,-508 177,-502 177,-502 177,-444 177,-444 177,-438 183,-432 189,-432 189,-432 284,-432 284,-432 290,-432 296,-438 296,-444 296,-444 296,-502 296,-502 296,-508 290,-514 284,-514"/>
<polygon fill="white" stroke="transparent" points="185.5,-494 185.5,-513 288.5,-513 288.5,-494 185.5,-494"/>
<text text-anchor="start" x="221.5" y="-499.8" font-family="Times New Roman,serif" font-size="14.00">bag 5</text>
<text text-anchor="start" x="221.5" y="-476.8" font-family="Times New Roman,serif" font-size="14.00">[6, 7]</text>
<text text-anchor="start" x="195.5" y="-457.8" font-family="Times New Roman,serif" font-size="14.00">dtime=0.0012s</text>
<text text-anchor="start" x="187.5" y="-438.8" font-family="Times New Roman,serif" font-size="14.00">05/21/20 16:13:14</text>
</g>
<!-- bag 5&#45;&gt;bag 4 -->
<g id="edge4" class="edge">
<title>bag 5&#45;&gt;bag 4</title>
<path fill="none" stroke="black" d="M217.7,-514.29C213.17,-523.99 208.29,-534.46 203.59,-544.52"/>
<polygon fill="black" stroke="black" points="200.41,-543.07 199.35,-553.61 206.75,-546.03 200.41,-543.07"/>
</g>
<!-- sol5 -->
<!-- bag 5&#45;&gt;sol5 -->
<!-- bag 6 -->
<g id="node6" class="node">
<title>bag 6</title>
<path fill="white" stroke="black" d="M107,-375C107,-375 12,-375 12,-375 6,-375 0,-369 0,-363 0,-363 0,-305 0,-305 0,-299 6,-293 12,-293 12,-293 107,-293 107,-293 113,-293 119,-299 119,-305 119,-305 119,-363 119,-363 119,-369 113,-375 107,-375"/>
<polygon fill="white" stroke="transparent" points="8.5,-355 8.5,-374 111.5,-374 111.5,-355 8.5,-355"/>
<text text-anchor="start" x="44.5" y="-360.8" font-family="Times New Roman,serif" font-size="14.00">bag 6</text>
<text text-anchor="start" x="41.5" y="-337.8" font-family="Times New Roman,serif" font-size="14.00">[6, 15]</text>
<text text-anchor="start" x="18.5" y="-318.8" font-family="Times New Roman,serif" font-size="14.00">dtime=0.0019s</text>
<text text-anchor="start" x="10.5" y="-299.8" font-family="Times New Roman,serif" font-size="14.00">05/21/20 16:13:14</text>
</g>
<!-- bag 6&#45;&gt;bag 5 -->
<g id="edge5" class="edge">
<title>bag 6&#45;&gt;bag 5</title>
<path fill="none" stroke="black" d="M104.73,-375.27C112.24,-381.65 120.01,-388.1 127.5,-394 141.02,-404.66 155.82,-415.68 170.05,-425.95"/>
<polygon fill="black" stroke="black" points="168.17,-428.91 178.34,-431.9 172.26,-423.23 168.17,-428.91"/>
</g>
<!-- sol6 -->
<!-- bag 6&#45;&gt;sol6 -->
<!-- bag 7 -->
<g id="node7" class="node">
<title>bag 7</title>
<path fill="white" stroke="black" d="M460,-375C460,-375 365,-375 365,-375 359,-375 353,-369 353,-363 353,-363 353,-305 353,-305 353,-299 359,-293 365,-293 365,-293 460,-293 460,-293 466,-293 472,-299 472,-305 472,-305 472,-363 472,-363 472,-369 466,-375 460,-375"/>
<polygon fill="white" stroke="transparent" points="361.5,-355 361.5,-374 464.5,-374 464.5,-355 361.5,-355"/>
<text text-anchor="start" x="397.5" y="-360.8" font-family="Times New Roman,serif" font-size="14.00">bag 7</text>
<text text-anchor="start" x="384" y="-337.8" font-family="Times New Roman,serif" font-size="14.00">[7, 11, 14]</text>
<text text-anchor="start" x="371.5" y="-318.8" font-family="Times New Roman,serif" font-size="14.00">dtime=0.0033s</text>
<text text-anchor="start" x="363.5" y="-299.8" font-family="Times New Roman,serif" font-size="14.00">05/21/20 16:13:14</text>
</g>
<!-- bag 7&#45;&gt;bag 5 -->
<g id="edge6" class="edge">
<title>bag 7&#45;&gt;bag 5</title>
<path fill="none" stroke="black" d="M367.25,-375.24C359.75,-381.63 351.97,-388.08 344.5,-394 331.09,-404.63 316.41,-415.63 302.32,-425.89"/>
<polygon fill="black" stroke="black" points="300.14,-423.15 294.1,-431.85 304.25,-428.81 300.14,-423.15"/>
</g>
<!-- sol7 -->
<!-- bag 7&#45;&gt;sol7 -->
<!-- bag 8 -->
<g id="node8" class="node">
<title>bag 8</title>
<path fill="yellow" stroke="black" stroke-width="2.5" d="M108,-219C108,-219 13,-219 13,-219 7,-219 1,-213 1,-207 1,-207 1,-149 1,-149 1,-143 7,-137 13,-137 13,-137 108,-137 108,-137 114,-137 120,-143 120,-149 120,-149 120,-207 120,-207 120,-213 114,-219 108,-219"/>
<polygon fill="white" stroke="transparent" points="9.5,-199 9.5,-218 112.5,-218 112.5,-199 9.5,-199"/>
<text text-anchor="start" x="45.5" y="-204.8" font-family="Times New Roman,serif" font-size="14.00">bag 8</text>
<text text-anchor="start" x="39" y="-181.8" font-family="Times New Roman,serif" font-size="14.00">[15, 16]</text>
<text text-anchor="start" x="19.5" y="-162.8" font-family="Times New Roman,serif" font-size="14.00">dtime=0.0036s</text>
<text text-anchor="start" x="11.5" y="-143.8" font-family="Times New Roman,serif" font-size="14.00">05/21/20 16:13:14</text>
</g>
<!-- bag 8&#45;&gt;bag 6 -->
<g id="edge7" class="edge">
<title>bag 8&#45;&gt;bag 6</title>
<path fill="none" stroke="black" d="M60.24,-219.06C60.11,-238.5 59.96,-262.06 59.83,-282.7"/>
<polygon fill="black" stroke="black" points="56.33,-282.85 59.76,-292.87 63.33,-282.9 56.33,-282.85"/>
</g>
<!-- sol8 -->
<!-- bag 8&#45;&gt;sol8 -->
<!-- bag 9 -->
<g id="node9" class="node">
<title>bag 9</title>
<path fill="white" stroke="black" d="M339,-219C339,-219 244,-219 244,-219 238,-219 232,-213 232,-207 232,-207 232,-149 232,-149 232,-143 238,-137 244,-137 244,-137 339,-137 339,-137 345,-137 351,-143 351,-149 351,-149 351,-207 351,-207 351,-213 345,-219 339,-219"/>
<polygon fill="white" stroke="transparent" points="240.5,-199 240.5,-218 343.5,-218 343.5,-199 240.5,-199"/>
<text text-anchor="start" x="276.5" y="-204.8" font-family="Times New Roman,serif" font-size="14.00">bag 9</text>
<text text-anchor="start" x="266" y="-181.8" font-family="Times New Roman,serif" font-size="14.00">[7, 9, 11]</text>
<text text-anchor="start" x="250.5" y="-162.8" font-family="Times New Roman,serif" font-size="14.00">dtime=0.0052s</text>
<text text-anchor="start" x="242.5" y="-143.8" font-family="Times New Roman,serif" font-size="14.00">05/21/20 16:13:14</text>
</g>
<!-- bag 9&#45;&gt;bag 7 -->
<g id="edge8" class="edge">
<title>bag 9&#45;&gt;bag 7</title>
<path fill="none" stroke="black" d="M322.98,-219.06C338.81,-239.21 358.12,-263.79 374.74,-284.95"/>
<polygon fill="black" stroke="black" points="372.04,-287.17 380.97,-292.87 377.55,-282.85 372.04,-287.17"/>
</g>
<!-- sol9 -->
<!-- bag 9&#45;&gt;sol9 -->
<!-- bag 10 -->
<g id="node10" class="node">
<title>bag 10</title>
<path fill="white" stroke="black" d="M593,-219C593,-219 498,-219 498,-219 492,-219 486,-213 486,-207 486,-207 486,-149 486,-149 486,-143 492,-137 498,-137 498,-137 593,-137 593,-137 599,-137 605,-143 605,-149 605,-149 605,-207 605,-207 605,-213 599,-219 593,-219"/>
<polygon fill="white" stroke="transparent" points="494.5,-199 494.5,-218 597.5,-218 597.5,-199 494.5,-199"/>
<text text-anchor="start" x="527" y="-204.8" font-family="Times New Roman,serif" font-size="14.00">bag 10</text>
<text text-anchor="start" x="513.5" y="-181.8" font-family="Times New Roman,serif" font-size="14.00">[11, 12, 14]</text>
<text text-anchor="start" x="504.5" y="-162.8" font-family="Times New Roman,serif" font-size="14.00">dtime=0.0039s</text>
<text text-anchor="start" x="496.5" y="-143.8" font-family="Times New Roman,serif" font-size="14.00">05/21/20 16:13:14</text>
</g>
<!-- bag 10&#45;&gt;bag 7 -->
<g id="edge9" class="edge">
<title>bag 10&#45;&gt;bag 7</title>
<path fill="none" stroke="black" d="M510.9,-219.06C493.42,-239.3 472.09,-264 453.76,-285.23"/>
<polygon fill="black" stroke="black" points="451.04,-283.02 447.15,-292.87 456.34,-287.59 451.04,-283.02"/>
</g>
<!-- sol10 -->
<!-- bag 10&#45;&gt;sol10 -->
<!-- bag 11 -->
<g id="node11" class="node">
<title>bag 11</title>
<path fill="white" stroke="black" d="M265,-82C265,-82 170,-82 170,-82 164,-82 158,-76 158,-70 158,-70 158,-12 158,-12 158,-6 164,0 170,0 170,0 265,0 265,0 271,0 277,-6 277,-12 277,-12 277,-70 277,-70 277,-76 271,-82 265,-82"/>
<polygon fill="white" stroke="transparent" points="166.5,-62 166.5,-81 269.5,-81 269.5,-62 166.5,-62"/>
<text text-anchor="start" x="199" y="-67.8" font-family="Times New Roman,serif" font-size="14.00">bag 11</text>
<text text-anchor="start" x="199.5" y="-44.8" font-family="Times New Roman,serif" font-size="14.00">[9, 10]</text>
<text text-anchor="start" x="176.5" y="-25.8" font-family="Times New Roman,serif" font-size="14.00">dtime=0.0023s</text>
<text text-anchor="start" x="168.5" y="-6.8" font-family="Times New Roman,serif" font-size="14.00">05/21/20 16:13:14</text>
</g>
<!-- bag 11&#45;&gt;bag 9 -->
<g id="edge10" class="edge">
<title>bag 11&#45;&gt;bag 9</title>
<path fill="none" stroke="black" d="M239.5,-82.14C247.33,-96.43 256.25,-112.69 264.45,-127.66"/>
<polygon fill="black" stroke="black" points="261.58,-129.7 269.45,-136.78 267.72,-126.33 261.58,-129.7"/>
</g>
<!-- sol11 -->
<!-- bag 11&#45;&gt;sol11 -->
<!-- bag 12 -->
<g id="node12" class="node">
<title>bag 12</title>
<path fill="white" stroke="black" d="M449,-82C449,-82 354,-82 354,-82 348,-82 342,-76 342,-70 342,-70 342,-12 342,-12 342,-6 348,0 354,0 354,0 449,0 449,0 455,0 461,-6 461,-12 461,-12 461,-70 461,-70 461,-76 455,-82 449,-82"/>
<polygon fill="white" stroke="transparent" points="350.5,-62 350.5,-81 453.5,-81 453.5,-62 350.5,-62"/>
<text text-anchor="start" x="383" y="-67.8" font-family="Times New Roman,serif" font-size="14.00">bag 12</text>
<text text-anchor="start" x="379.5" y="-44.8" font-family="Times New Roman,serif" font-size="14.00">[7, 8, 9]</text>
<text text-anchor="start" x="360.5" y="-25.8" font-family="Times New Roman,serif" font-size="14.00">dtime=0.0026s</text>
<text text-anchor="start" x="352.5" y="-6.8" font-family="Times New Roman,serif" font-size="14.00">05/21/20 16:13:14</text>
</g>
<!-- bag 12&#45;&gt;bag 9 -->
<g id="edge11" class="edge">
<title>bag 12&#45;&gt;bag 9</title>
<path fill="none" stroke="black" d="M368.79,-82.14C356.82,-96.83 343.15,-113.61 330.67,-128.92"/>
<polygon fill="black" stroke="black" points="327.87,-126.82 324.27,-136.78 333.3,-131.24 327.87,-126.82"/>
</g>
<!-- sol12 -->
<!-- bag 12&#45;&gt;sol12 -->
<!-- bag 13 -->
<g id="node13" class="node">
<title>bag 13</title>
<path fill="white" stroke="black" d="M610,-82C610,-82 515,-82 515,-82 509,-82 503,-76 503,-70 503,-70 503,-12 503,-12 503,-6 509,0 515,0 515,0 610,0 610,0 616,0 622,-6 622,-12 622,-12 622,-70 622,-70 622,-76 616,-82 610,-82"/>
<polygon fill="white" stroke="transparent" points="511.5,-62 511.5,-81 614.5,-81 614.5,-62 511.5,-62"/>
<text text-anchor="start" x="544" y="-67.8" font-family="Times New Roman,serif" font-size="14.00">bag 13</text>
<text text-anchor="start" x="541" y="-44.8" font-family="Times New Roman,serif" font-size="14.00">[12, 13]</text>
<text text-anchor="start" x="521.5" y="-25.8" font-family="Times New Roman,serif" font-size="14.00">dtime=0.0033s</text>
<text text-anchor="start" x="513.5" y="-6.8" font-family="Times New Roman,serif" font-size="14.00">05/21/20 16:13:14</text>
</g>
<!-- bag 13&#45;&gt;bag 10 -->
<g id="edge12" class="edge">
<title>bag 13&#45;&gt;bag 10</title>
<path fill="none" stroke="black" d="M557.45,-82.14C555.68,-96.16 553.68,-112.07 551.82,-126.81"/>
<polygon fill="black" stroke="black" points="548.34,-126.42 550.56,-136.78 555.29,-127.3 548.34,-126.42"/>
</g>
<!-- sol13 -->
<!-- bag 13&#45;&gt;sol13 -->
</g>
</svg>
