<?xml version="1.0" encoding="UTF-8" standalone="no"?>
<!DOCTYPE svg PUBLIC "-//W3C//DTD SVG 1.1//EN"
 "http://www.w3.org/Graphics/SVG/1.1/DTD/svg11.dtd">
<!-- Generated by graphviz version 2.41.20170921.1950 (20170921.1950)
 -->
<!-- Title: structs Pages: 1 -->
<svg width="462pt" height="960pt"
 viewBox="0.00 0.00 462.00 960.00" xmlns="http://www.w3.org/2000/svg" xmlns:xlink="http://www.w3.org/1999/xlink">
<g id="graph0" class="graph" transform="scale(1 1) rotate(0) translate(4 956)">
<title>structs</title>
<polygon fill="white" stroke="transparent" points="-4,4 -4,-956 458,-956 458,4 -4,4"/>
<!-- bag 0 -->
<g id="node1" class="node">
<title>bag 0</title>
<path fill="white" stroke="black" d="M117.5,-686C117.5,-686 45.5,-686 45.5,-686 39.5,-686 33.5,-680 33.5,-674 33.5,-674 33.5,-662 33.5,-662 33.5,-656 39.5,-650 45.5,-650 45.5,-650 117.5,-650 117.5,-650 123.5,-650 129.5,-656 129.5,-662 129.5,-662 129.5,-674 129.5,-674 129.5,-680 123.5,-686 117.5,-686"/>
<polygon fill="white" stroke="transparent" points="41.5,-658 41.5,-677 76.5,-677 76.5,-658 41.5,-658"/>
<text text-anchor="start" x="43.5" y="-663.8" font-family="Times New Roman,serif" font-size="14.00">bag 0</text>
<text text-anchor="start" x="82.5" y="-663.8" font-family="Times New Roman,serif" font-size="14.00">[1 4 7]</text>
</g>
<!-- sol0 -->
<!-- bag 0&#45;&gt;sol0 -->
<!-- bag 1 -->
<g id="node2" class="node">
<title>bag 1</title>
<path fill="yellow" stroke="black" stroke-width="2.5" d="M189,-496C189,-496 106,-496 106,-496 100,-496 94,-490 94,-484 94,-484 94,-472 94,-472 94,-466 100,-460 106,-460 106,-460 189,-460 189,-460 195,-460 201,-466 201,-472 201,-472 201,-484 201,-484 201,-490 195,-496 189,-496"/>
<polygon fill="white" stroke="transparent" points="102.5,-468 102.5,-487 137.5,-487 137.5,-468 102.5,-468"/>
<text text-anchor="start" x="104.5" y="-473.8" font-family="Times New Roman,serif" font-size="14.00">bag 1</text>
<text text-anchor="start" x="143.5" y="-473.8" font-family="Times New Roman,serif" font-size="14.00">[1 2 4 6]</text>
</g>
<!-- bag 1&#45;&gt;bag 0 -->
<g id="edge1" class="edge">
<title>bag 1&#45;&gt;bag 0</title>
<path fill="none" stroke="black" d="M141.53,-496.02C130,-528.86 104.6,-601.21 90.82,-640.44"/>
<polygon fill="black" stroke="black" points="87.52,-639.29 87.51,-649.89 94.12,-641.61 87.52,-639.29"/>
</g>
<!-- sol1 -->
<g id="node11" class="node">
<title>sol1</title>
<path fill="yellow" stroke="black" stroke-width="2.5" d="M160,-608.5C160,-608.5 269,-608.5 269,-608.5 275,-608.5 281,-614.5 281,-620.5 281,-620.5 281,-715.5 281,-715.5 281,-721.5 275,-727.5 269,-727.5 269,-727.5 160,-727.5 160,-727.5 154,-727.5 148,-721.5 148,-715.5 148,-715.5 148,-620.5 148,-620.5 148,-614.5 154,-608.5 160,-608.5"/>
<text text-anchor="middle" x="214.5" y="-715.3" font-family="Times New Roman,serif" font-size="14.00">sol bag 1</text>
<polyline fill="none" stroke="black" stroke-width="2.5" points="148,-710.5 281,-710.5 "/>
<text text-anchor="middle" x="161.5" y="-698.3" font-family="Times New Roman,serif" font-size="14.00">id</text>
<polyline fill="none" stroke="black" stroke-width="2.5" points="148,-693.5 175,-693.5 "/>
<text text-anchor="middle" x="161.5" y="-681.3" font-family="Times New Roman,serif" font-size="14.00">0</text>
<polyline fill="none" stroke="black" stroke-width="2.5" points="148,-676.5 175,-676.5 "/>
<text text-anchor="middle" x="161.5" y="-664.3" font-family="Times New Roman,serif" font-size="14.00">1</text>
<polyline fill="none" stroke="black" stroke-width="2.5" points="148,-659.5 175,-659.5 "/>
<text text-anchor="middle" x="161.5" y="-647.3" font-family="Times New Roman,serif" font-size="14.00">2</text>
<polyline fill="none" stroke="black" stroke-width="2.5" points="148,-642.5 175,-642.5 "/>
<text text-anchor="middle" x="161.5" y="-630.3" font-family="Times New Roman,serif" font-size="14.00">3</text>
<polyline fill="none" stroke="black" stroke-width="2.5" points="175,-625.5 175,-710.5 "/>
<text text-anchor="middle" x="190" y="-698.3" font-family="Times New Roman,serif" font-size="14.00">v1</text>
<polyline fill="none" stroke="black" stroke-width="2.5" points="175,-693.5 205,-693.5 "/>
<text text-anchor="middle" x="190" y="-681.3" font-family="Times New Roman,serif" font-size="14.00">0</text>
<polyline fill="none" stroke="black" stroke-width="2.5" points="175,-676.5 205,-676.5 "/>
<text text-anchor="middle" x="190" y="-664.3" font-family="Times New Roman,serif" font-size="14.00">1</text>
<polyline fill="none" stroke="black" stroke-width="2.5" points="175,-659.5 205,-659.5 "/>
<text text-anchor="middle" x="190" y="-647.3" font-family="Times New Roman,serif" font-size="14.00">0</text>
<polyline fill="none" stroke="black" stroke-width="2.5" points="175,-642.5 205,-642.5 "/>
<text text-anchor="middle" x="190" y="-630.3" font-family="Times New Roman,serif" font-size="14.00">1</text>
<polyline fill="none" stroke="black" stroke-width="2.5" points="205,-625.5 205,-710.5 "/>
<text text-anchor="middle" x="220" y="-698.3" font-family="Times New Roman,serif" font-size="14.00">v4</text>
<polyline fill="none" stroke="black" stroke-width="2.5" points="205,-693.5 235,-693.5 "/>
<text text-anchor="middle" x="220" y="-681.3" font-family="Times New Roman,serif" font-size="14.00">0</text>
<polyline fill="none" stroke="black" stroke-width="2.5" points="205,-676.5 235,-676.5 "/>
<text text-anchor="middle" x="220" y="-664.3" font-family="Times New Roman,serif" font-size="14.00">0</text>
<polyline fill="none" stroke="black" stroke-width="2.5" points="205,-659.5 235,-659.5 "/>
<text text-anchor="middle" x="220" y="-647.3" font-family="Times New Roman,serif" font-size="14.00">1</text>
<polyline fill="none" stroke="black" stroke-width="2.5" points="205,-642.5 235,-642.5 "/>
<text text-anchor="middle" x="220" y="-630.3" font-family="Times New Roman,serif" font-size="14.00">1</text>
<polyline fill="none" stroke="black" stroke-width="2.5" points="235,-625.5 235,-710.5 "/>
<text text-anchor="middle" x="258" y="-698.3" font-family="Times New Roman,serif" font-size="14.00">n Sol</text>
<polyline fill="none" stroke="black" stroke-width="2.5" points="235,-693.5 281,-693.5 "/>
<text text-anchor="middle" x="258" y="-681.3" font-family="Times New Roman,serif" font-size="14.00">2</text>
<polyline fill="none" stroke="black" stroke-width="2.5" points="235,-676.5 281,-676.5 "/>
<text text-anchor="middle" x="258" y="-664.3" font-family="Times New Roman,serif" font-size="14.00">9</text>
<polyline fill="none" stroke="black" stroke-width="2.5" points="235,-659.5 281,-659.5 "/>
<text text-anchor="middle" x="258" y="-647.3" font-family="Times New Roman,serif" font-size="14.00">3</text>
<polyline fill="none" stroke="black" stroke-width="2.5" points="235,-642.5 281,-642.5 "/>
<text text-anchor="middle" x="258" y="-630.3" font-family="Times New Roman,serif" font-size="14.00">6</text>
<polyline fill="none" stroke="black" stroke-width="2.5" points="148,-625.5 281,-625.5 "/>
<text text-anchor="middle" x="214.5" y="-613.3" font-family="Times New Roman,serif" font-size="14.00">sum: 20</text>
</g>
<!-- bag 1&#45;&gt;sol1 -->
<g id="edge12" class="edge">
<title>bag 1&#45;&gt;sol1</title>
<path fill="none" stroke="black" d="M153.56,-496.02C161.78,-519.08 176.95,-561.63 190.09,-598.51"/>
<polygon fill="black" stroke="black" points="186.91,-600 193.56,-608.25 193.5,-597.65 186.91,-600"/>
</g>
<!-- bag 2 -->
<g id="node3" class="node">
<title>bag 2</title>
<path fill="white" stroke="black" d="M175.5,-150C175.5,-150 103.5,-150 103.5,-150 97.5,-150 91.5,-144 91.5,-138 91.5,-138 91.5,-126 91.5,-126 91.5,-120 97.5,-114 103.5,-114 103.5,-114 175.5,-114 175.5,-114 181.5,-114 187.5,-120 187.5,-126 187.5,-126 187.5,-138 187.5,-138 187.5,-144 181.5,-150 175.5,-150"/>
<polygon fill="white" stroke="transparent" points="99.5,-122 99.5,-141 134.5,-141 134.5,-122 99.5,-122"/>
<text text-anchor="start" x="101.5" y="-127.8" font-family="Times New Roman,serif" font-size="14.00">bag 2</text>
<text text-anchor="start" x="140.5" y="-127.8" font-family="Times New Roman,serif" font-size="14.00">[1 2 5]</text>
</g>
<!-- bag 2&#45;&gt;bag 1 -->
<!-- sol2 -->
<g id="node6" class="node">
<title>sol2</title>
<path fill="white" stroke="black" d="M53,-228.5C53,-228.5 162,-228.5 162,-228.5 168,-228.5 174,-234.5 174,-240.5 174,-240.5 174,-335.5 174,-335.5 174,-341.5 168,-347.5 162,-347.5 162,-347.5 53,-347.5 53,-347.5 47,-347.5 41,-341.5 41,-335.5 41,-335.5 41,-240.5 41,-240.5 41,-234.5 47,-228.5 53,-228.5"/>
<text text-anchor="middle" x="107.5" y="-335.3" font-family="Times New Roman,serif" font-size="14.00">sol bag 2</text>
<polyline fill="none" stroke="black" points="41,-330.5 174,-330.5 "/>
<text text-anchor="middle" x="54.5" y="-318.3" font-family="Times New Roman,serif" font-size="14.00">id</text>
<polyline fill="none" stroke="black" points="41,-313.5 68,-313.5 "/>
<text text-anchor="middle" x="54.5" y="-301.3" font-family="Times New Roman,serif" font-size="14.00">0</text>
<polyline fill="none" stroke="black" points="41,-296.5 68,-296.5 "/>
<text text-anchor="middle" x="54.5" y="-284.3" font-family="Times New Roman,serif" font-size="14.00">1</text>
<polyline fill="none" stroke="black" points="41,-279.5 68,-279.5 "/>
<text text-anchor="middle" x="54.5" y="-267.3" font-family="Times New Roman,serif" font-size="14.00">2</text>
<polyline fill="none" stroke="black" points="41,-262.5 68,-262.5 "/>
<text text-anchor="middle" x="54.5" y="-250.3" font-family="Times New Roman,serif" font-size="14.00">3</text>
<polyline fill="none" stroke="black" points="68,-245.5 68,-330.5 "/>
<text text-anchor="middle" x="83" y="-318.3" font-family="Times New Roman,serif" font-size="14.00">v1</text>
<polyline fill="none" stroke="black" points="68,-313.5 98,-313.5 "/>
<text text-anchor="middle" x="83" y="-301.3" font-family="Times New Roman,serif" font-size="14.00">0</text>
<polyline fill="none" stroke="black" points="68,-296.5 98,-296.5 "/>
<text text-anchor="middle" x="83" y="-284.3" font-family="Times New Roman,serif" font-size="14.00">1</text>
<polyline fill="none" stroke="black" points="68,-279.5 98,-279.5 "/>
<text text-anchor="middle" x="83" y="-267.3" font-family="Times New Roman,serif" font-size="14.00">0</text>
<polyline fill="none" stroke="black" points="68,-262.5 98,-262.5 "/>
<text text-anchor="middle" x="83" y="-250.3" font-family="Times New Roman,serif" font-size="14.00">1</text>
<polyline fill="none" stroke="black" points="98,-245.5 98,-330.5 "/>
<text text-anchor="middle" x="113" y="-318.3" font-family="Times New Roman,serif" font-size="14.00">v2</text>
<polyline fill="none" stroke="black" points="98,-313.5 128,-313.5 "/>
<text text-anchor="middle" x="113" y="-301.3" font-family="Times New Roman,serif" font-size="14.00">0</text>
<polyline fill="none" stroke="black" points="98,-296.5 128,-296.5 "/>
<text text-anchor="middle" x="113" y="-284.3" font-family="Times New Roman,serif" font-size="14.00">0</text>
<polyline fill="none" stroke="black" points="98,-279.5 128,-279.5 "/>
<text text-anchor="middle" x="113" y="-267.3" font-family="Times New Roman,serif" font-size="14.00">1</text>
<polyline fill="none" stroke="black" points="98,-262.5 128,-262.5 "/>
<text text-anchor="middle" x="113" y="-250.3" font-family="Times New Roman,serif" font-size="14.00">1</text>
<polyline fill="none" stroke="black" points="128,-245.5 128,-330.5 "/>
<text text-anchor="middle" x="151" y="-318.3" font-family="Times New Roman,serif" font-size="14.00">n Sol</text>
<polyline fill="none" stroke="black" points="128,-313.5 174,-313.5 "/>
<text text-anchor="middle" x="151" y="-301.3" font-family="Times New Roman,serif" font-size="14.00">0</text>
<polyline fill="none" stroke="black" points="128,-296.5 174,-296.5 "/>
<text text-anchor="middle" x="151" y="-284.3" font-family="Times New Roman,serif" font-size="14.00">1</text>
<polyline fill="none" stroke="black" points="128,-279.5 174,-279.5 "/>
<text text-anchor="middle" x="151" y="-267.3" font-family="Times New Roman,serif" font-size="14.00">1</text>
<polyline fill="none" stroke="black" points="128,-262.5 174,-262.5 "/>
<text text-anchor="middle" x="151" y="-250.3" font-family="Times New Roman,serif" font-size="14.00">2</text>
<polyline fill="none" stroke="black" points="41,-245.5 174,-245.5 "/>
<text text-anchor="middle" x="107.5" y="-233.3" font-family="Times New Roman,serif" font-size="14.00">sum: 4</text>
</g>
<!-- bag 2&#45;&gt;sol2 -->
<g id="edge5" class="edge">
<title>bag 2&#45;&gt;sol2</title>
<path fill="none" stroke="black" d="M135.95,-150.07C132.49,-166.73 126.99,-193.19 121.75,-218.43"/>
<polygon fill="black" stroke="black" points="118.29,-217.88 119.68,-228.39 125.14,-219.31 118.29,-217.88"/>
</g>
<!-- Join 2~3 -->
<g id="node10" class="node">
<title>Join 2~3</title>
<path fill="white" stroke="black" d="M244.5,-306C244.5,-306 204.5,-306 204.5,-306 198.5,-306 192.5,-300 192.5,-294 192.5,-294 192.5,-282 192.5,-282 192.5,-276 198.5,-270 204.5,-270 204.5,-270 244.5,-270 244.5,-270 250.5,-270 256.5,-276 256.5,-282 256.5,-282 256.5,-294 256.5,-294 256.5,-300 250.5,-306 244.5,-306"/>
<text text-anchor="middle" x="224.5" y="-284.3" font-family="Times New Roman,serif" font-size="14.00">Join 2~3</text>
</g>
<!-- bag 2&#45;&gt;Join 2~3 -->
<g id="edge9" class="edge">
<title>bag 2&#45;&gt;Join 2~3</title>
<path fill="none" stroke="black" d="M148.92,-150.07C163.73,-176.9 192.55,-229.12 210.01,-260.75"/>
<polygon fill="black" stroke="black" points="207.14,-262.79 215.04,-269.85 213.27,-259.41 207.14,-262.79"/>
</g>
<!-- bag 3 -->
<g id="node4" class="node">
<title>bag 3</title>
<path fill="white" stroke="black" d="M290.5,-150C290.5,-150 218.5,-150 218.5,-150 212.5,-150 206.5,-144 206.5,-138 206.5,-138 206.5,-126 206.5,-126 206.5,-120 212.5,-114 218.5,-114 218.5,-114 290.5,-114 290.5,-114 296.5,-114 302.5,-120 302.5,-126 302.5,-126 302.5,-138 302.5,-138 302.5,-144 296.5,-150 290.5,-150"/>
<polygon fill="white" stroke="transparent" points="214.5,-122 214.5,-141 249.5,-141 249.5,-122 214.5,-122"/>
<text text-anchor="start" x="216.5" y="-127.8" font-family="Times New Roman,serif" font-size="14.00">bag 3</text>
<text text-anchor="start" x="255.5" y="-127.8" font-family="Times New Roman,serif" font-size="14.00">[2 4 8]</text>
</g>
<!-- bag 3&#45;&gt;bag 1 -->
<!-- sol3 -->
<g id="node8" class="node">
<title>sol3</title>
<path fill="white" stroke="black" d="M325,-228.5C325,-228.5 434,-228.5 434,-228.5 440,-228.5 446,-234.5 446,-240.5 446,-240.5 446,-335.5 446,-335.5 446,-341.5 440,-347.5 434,-347.5 434,-347.5 325,-347.5 325,-347.5 319,-347.5 313,-341.5 313,-335.5 313,-335.5 313,-240.5 313,-240.5 313,-234.5 319,-228.5 325,-228.5"/>
<text text-anchor="middle" x="379.5" y="-335.3" font-family="Times New Roman,serif" font-size="14.00">sol bag 3</text>
<polyline fill="none" stroke="black" points="313,-330.5 446,-330.5 "/>
<text text-anchor="middle" x="326.5" y="-318.3" font-family="Times New Roman,serif" font-size="14.00">id</text>
<polyline fill="none" stroke="black" points="313,-313.5 340,-313.5 "/>
<text text-anchor="middle" x="326.5" y="-301.3" font-family="Times New Roman,serif" font-size="14.00">0</text>
<polyline fill="none" stroke="black" points="313,-296.5 340,-296.5 "/>
<text text-anchor="middle" x="326.5" y="-284.3" font-family="Times New Roman,serif" font-size="14.00">1</text>
<polyline fill="none" stroke="black" points="313,-279.5 340,-279.5 "/>
<text text-anchor="middle" x="326.5" y="-267.3" font-family="Times New Roman,serif" font-size="14.00">2</text>
<polyline fill="none" stroke="black" points="313,-262.5 340,-262.5 "/>
<text text-anchor="middle" x="326.5" y="-250.3" font-family="Times New Roman,serif" font-size="14.00">3</text>
<polyline fill="none" stroke="black" points="340,-245.5 340,-330.5 "/>
<text text-anchor="middle" x="355" y="-318.3" font-family="Times New Roman,serif" font-size="14.00">v2</text>
<polyline fill="none" stroke="black" points="340,-313.5 370,-313.5 "/>
<text text-anchor="middle" x="355" y="-301.3" font-family="Times New Roman,serif" font-size="14.00">0</text>
<polyline fill="none" stroke="black" points="340,-296.5 370,-296.5 "/>
<text text-anchor="middle" x="355" y="-284.3" font-family="Times New Roman,serif" font-size="14.00">1</text>
<polyline fill="none" stroke="black" points="340,-279.5 370,-279.5 "/>
<text text-anchor="middle" x="355" y="-267.3" font-family="Times New Roman,serif" font-size="14.00">0</text>
<polyline fill="none" stroke="black" points="340,-262.5 370,-262.5 "/>
<text text-anchor="middle" x="355" y="-250.3" font-family="Times New Roman,serif" font-size="14.00">1</text>
<polyline fill="none" stroke="black" points="370,-245.5 370,-330.5 "/>
<text text-anchor="middle" x="385" y="-318.3" font-family="Times New Roman,serif" font-size="14.00">v4</text>
<polyline fill="none" stroke="black" points="370,-313.5 400,-313.5 "/>
<text text-anchor="middle" x="385" y="-301.3" font-family="Times New Roman,serif" font-size="14.00">0</text>
<polyline fill="none" stroke="black" points="370,-296.5 400,-296.5 "/>
<text text-anchor="middle" x="385" y="-284.3" font-family="Times New Roman,serif" font-size="14.00">0</text>
<polyline fill="none" stroke="black" points="370,-279.5 400,-279.5 "/>
<text text-anchor="middle" x="385" y="-267.3" font-family="Times New Roman,serif" font-size="14.00">1</text>
<polyline fill="none" stroke="black" points="370,-262.5 400,-262.5 "/>
<text text-anchor="middle" x="385" y="-250.3" font-family="Times New Roman,serif" font-size="14.00">1</text>
<polyline fill="none" stroke="black" points="400,-245.5 400,-330.5 "/>
<text text-anchor="middle" x="423" y="-318.3" font-family="Times New Roman,serif" font-size="14.00">n Sol</text>
<polyline fill="none" stroke="black" points="400,-313.5 446,-313.5 "/>
<text text-anchor="middle" x="423" y="-301.3" font-family="Times New Roman,serif" font-size="14.00">1</text>
<polyline fill="none" stroke="black" points="400,-296.5 446,-296.5 "/>
<text text-anchor="middle" x="423" y="-284.3" font-family="Times New Roman,serif" font-size="14.00">2</text>
<polyline fill="none" stroke="black" points="400,-279.5 446,-279.5 "/>
<text text-anchor="middle" x="423" y="-267.3" font-family="Times New Roman,serif" font-size="14.00">2</text>
<polyline fill="none" stroke="black" points="400,-262.5 446,-262.5 "/>
<text text-anchor="middle" x="423" y="-250.3" font-family="Times New Roman,serif" font-size="14.00">3</text>
<polyline fill="none" stroke="black" points="313,-245.5 446,-245.5 "/>
<text text-anchor="middle" x="379.5" y="-233.3" font-family="Times New Roman,serif" font-size="14.00">sum: 8</text>
</g>
<!-- bag 3&#45;&gt;sol3 -->
<g id="edge7" class="edge">
<title>bag 3&#45;&gt;sol3</title>
<path fill="none" stroke="black" d="M268.35,-150.07C282.24,-167.17 304.5,-194.6 325.47,-220.43"/>
<polygon fill="black" stroke="black" points="322.9,-222.83 331.92,-228.39 328.34,-218.42 322.9,-222.83"/>
</g>
<!-- bag 3&#45;&gt;Join 2~3 -->
<g id="edge10" class="edge">
<title>bag 3&#45;&gt;Join 2~3</title>
<path fill="none" stroke="black" d="M251.17,-150.07C245.99,-176.66 235.95,-228.22 229.77,-259.93"/>
<polygon fill="black" stroke="black" points="226.32,-259.37 227.84,-269.85 233.19,-260.71 226.32,-259.37"/>
</g>
<!-- bag 4 -->
<g id="node5" class="node">
<title>bag 4</title>
<path fill="white" stroke="black" d="M356.5,-36C356.5,-36 284.5,-36 284.5,-36 278.5,-36 272.5,-30 272.5,-24 272.5,-24 272.5,-12 272.5,-12 272.5,-6 278.5,0 284.5,0 284.5,0 356.5,0 356.5,0 362.5,0 368.5,-6 368.5,-12 368.5,-12 368.5,-24 368.5,-24 368.5,-30 362.5,-36 356.5,-36"/>
<polygon fill="white" stroke="transparent" points="280.5,-8 280.5,-27 315.5,-27 315.5,-8 280.5,-8"/>
<text text-anchor="start" x="282.5" y="-13.8" font-family="Times New Roman,serif" font-size="14.00">bag 4</text>
<text text-anchor="start" x="321.5" y="-13.8" font-family="Times New Roman,serif" font-size="14.00">[2 3 8]</text>
</g>
<!-- bag 4&#45;&gt;bag 3 -->
<g id="edge4" class="edge">
<title>bag 4&#45;&gt;bag 3</title>
<path fill="none" stroke="black" d="M310.48,-36.01C299.67,-54.35 282.34,-83.76 269.82,-105"/>
<polygon fill="black" stroke="black" points="266.68,-103.44 264.62,-113.83 272.71,-106.99 266.68,-103.44"/>
</g>
<!-- sol4 -->
<g id="node7" class="node">
<title>sol4</title>
<path fill="white" stroke="black" d="M333,-72.5C333,-72.5 442,-72.5 442,-72.5 448,-72.5 454,-78.5 454,-84.5 454,-84.5 454,-179.5 454,-179.5 454,-185.5 448,-191.5 442,-191.5 442,-191.5 333,-191.5 333,-191.5 327,-191.5 321,-185.5 321,-179.5 321,-179.5 321,-84.5 321,-84.5 321,-78.5 327,-72.5 333,-72.5"/>
<text text-anchor="middle" x="387.5" y="-179.3" font-family="Times New Roman,serif" font-size="14.00">sol bag 4</text>
<polyline fill="none" stroke="black" points="321,-174.5 454,-174.5 "/>
<text text-anchor="middle" x="334.5" y="-162.3" font-family="Times New Roman,serif" font-size="14.00">id</text>
<polyline fill="none" stroke="black" points="321,-157.5 348,-157.5 "/>
<text text-anchor="middle" x="334.5" y="-145.3" font-family="Times New Roman,serif" font-size="14.00">0</text>
<polyline fill="none" stroke="black" points="321,-140.5 348,-140.5 "/>
<text text-anchor="middle" x="334.5" y="-128.3" font-family="Times New Roman,serif" font-size="14.00">1</text>
<polyline fill="none" stroke="black" points="321,-123.5 348,-123.5 "/>
<text text-anchor="middle" x="334.5" y="-111.3" font-family="Times New Roman,serif" font-size="14.00">2</text>
<polyline fill="none" stroke="black" points="321,-106.5 348,-106.5 "/>
<text text-anchor="middle" x="334.5" y="-94.3" font-family="Times New Roman,serif" font-size="14.00">3</text>
<polyline fill="none" stroke="black" points="348,-89.5 348,-174.5 "/>
<text text-anchor="middle" x="363" y="-162.3" font-family="Times New Roman,serif" font-size="14.00">v2</text>
<polyline fill="none" stroke="black" points="348,-157.5 378,-157.5 "/>
<text text-anchor="middle" x="363" y="-145.3" font-family="Times New Roman,serif" font-size="14.00">0</text>
<polyline fill="none" stroke="black" points="348,-140.5 378,-140.5 "/>
<text text-anchor="middle" x="363" y="-128.3" font-family="Times New Roman,serif" font-size="14.00">1</text>
<polyline fill="none" stroke="black" points="348,-123.5 378,-123.5 "/>
<text text-anchor="middle" x="363" y="-111.3" font-family="Times New Roman,serif" font-size="14.00">0</text>
<polyline fill="none" stroke="black" points="348,-106.5 378,-106.5 "/>
<text text-anchor="middle" x="363" y="-94.3" font-family="Times New Roman,serif" font-size="14.00">1</text>
<polyline fill="none" stroke="black" points="378,-89.5 378,-174.5 "/>
<text text-anchor="middle" x="393" y="-162.3" font-family="Times New Roman,serif" font-size="14.00">v8</text>
<polyline fill="none" stroke="black" points="378,-157.5 408,-157.5 "/>
<text text-anchor="middle" x="393" y="-145.3" font-family="Times New Roman,serif" font-size="14.00">0</text>
<polyline fill="none" stroke="black" points="378,-140.5 408,-140.5 "/>
<text text-anchor="middle" x="393" y="-128.3" font-family="Times New Roman,serif" font-size="14.00">0</text>
<polyline fill="none" stroke="black" points="378,-123.5 408,-123.5 "/>
<text text-anchor="middle" x="393" y="-111.3" font-family="Times New Roman,serif" font-size="14.00">1</text>
<polyline fill="none" stroke="black" points="378,-106.5 408,-106.5 "/>
<text text-anchor="middle" x="393" y="-94.3" font-family="Times New Roman,serif" font-size="14.00">1</text>
<polyline fill="none" stroke="black" points="408,-89.5 408,-174.5 "/>
<text text-anchor="middle" x="431" y="-162.3" font-family="Times New Roman,serif" font-size="14.00">n Sol</text>
<polyline fill="none" stroke="black" points="408,-157.5 454,-157.5 "/>
<text text-anchor="middle" x="431" y="-145.3" font-family="Times New Roman,serif" font-size="14.00">1</text>
<polyline fill="none" stroke="black" points="408,-140.5 454,-140.5 "/>
<text text-anchor="middle" x="431" y="-128.3" font-family="Times New Roman,serif" font-size="14.00">2</text>
<polyline fill="none" stroke="black" points="408,-123.5 454,-123.5 "/>
<text text-anchor="middle" x="431" y="-111.3" font-family="Times New Roman,serif" font-size="14.00">1</text>
<polyline fill="none" stroke="black" points="408,-106.5 454,-106.5 "/>
<text text-anchor="middle" x="431" y="-94.3" font-family="Times New Roman,serif" font-size="14.00">1</text>
<polyline fill="none" stroke="black" points="321,-89.5 454,-89.5 "/>
<text text-anchor="middle" x="387.5" y="-77.3" font-family="Times New Roman,serif" font-size="14.00">sum: 5</text>
</g>
<!-- bag 4&#45;&gt;sol4 -->
<g id="edge6" class="edge">
<title>bag 4&#45;&gt;sol4</title>
<path fill="none" stroke="black" d="M330.68,-36.01C335.31,-43.76 341.12,-53.48 347.25,-63.72"/>
<polygon fill="black" stroke="black" points="344.32,-65.63 352.46,-72.42 350.33,-62.04 344.32,-65.63"/>
</g>
<!-- solJoin2~3 -->
<g id="node9" class="node">
<title>solJoin2~3</title>
<path fill="white" stroke="black" d="M231,-384.5C231,-384.5 370,-384.5 370,-384.5 376,-384.5 382,-390.5 382,-396.5 382,-396.5 382,-559.5 382,-559.5 382,-565.5 376,-571.5 370,-571.5 370,-571.5 231,-571.5 231,-571.5 225,-571.5 219,-565.5 219,-559.5 219,-559.5 219,-396.5 219,-396.5 219,-390.5 225,-384.5 231,-384.5"/>
<text text-anchor="middle" x="300.5" y="-559.3" font-family="Times New Roman,serif" font-size="14.00">sol Join 2~3</text>
<polyline fill="none" stroke="black" points="219,-554.5 382,-554.5 "/>
<text text-anchor="middle" x="232.5" y="-542.3" font-family="Times New Roman,serif" font-size="14.00">id</text>
<polyline fill="none" stroke="black" points="219,-537.5 246,-537.5 "/>
<text text-anchor="middle" x="232.5" y="-525.3" font-family="Times New Roman,serif" font-size="14.00">0</text>
<polyline fill="none" stroke="black" points="219,-520.5 246,-520.5 "/>
<text text-anchor="middle" x="232.5" y="-508.3" font-family="Times New Roman,serif" font-size="14.00">1</text>
<polyline fill="none" stroke="black" points="219,-503.5 246,-503.5 "/>
<text text-anchor="middle" x="232.5" y="-491.3" font-family="Times New Roman,serif" font-size="14.00">2</text>
<polyline fill="none" stroke="black" points="219,-486.5 246,-486.5 "/>
<text text-anchor="middle" x="232.5" y="-474.3" font-family="Times New Roman,serif" font-size="14.00">3</text>
<polyline fill="none" stroke="black" points="219,-469.5 246,-469.5 "/>
<text text-anchor="middle" x="232.5" y="-457.3" font-family="Times New Roman,serif" font-size="14.00">4</text>
<polyline fill="none" stroke="black" points="219,-452.5 246,-452.5 "/>
<text text-anchor="middle" x="232.5" y="-440.3" font-family="Times New Roman,serif" font-size="14.00">5</text>
<polyline fill="none" stroke="black" points="219,-435.5 246,-435.5 "/>
<text text-anchor="middle" x="232.5" y="-423.3" font-family="Times New Roman,serif" font-size="14.00">6</text>
<polyline fill="none" stroke="black" points="219,-418.5 246,-418.5 "/>
<text text-anchor="middle" x="232.5" y="-406.3" font-family="Times New Roman,serif" font-size="14.00">7</text>
<polyline fill="none" stroke="black" points="246,-401.5 246,-554.5 "/>
<text text-anchor="middle" x="261" y="-542.3" font-family="Times New Roman,serif" font-size="14.00">v1</text>
<polyline fill="none" stroke="black" points="246,-537.5 276,-537.5 "/>
<text text-anchor="middle" x="261" y="-525.3" font-family="Times New Roman,serif" font-size="14.00">0</text>
<polyline fill="none" stroke="black" points="246,-520.5 276,-520.5 "/>
<text text-anchor="middle" x="261" y="-508.3" font-family="Times New Roman,serif" font-size="14.00">1</text>
<polyline fill="none" stroke="black" points="246,-503.5 276,-503.5 "/>
<text text-anchor="middle" x="261" y="-491.3" font-family="Times New Roman,serif" font-size="14.00">0</text>
<polyline fill="none" stroke="black" points="246,-486.5 276,-486.5 "/>
<text text-anchor="middle" x="261" y="-474.3" font-family="Times New Roman,serif" font-size="14.00">1</text>
<polyline fill="none" stroke="black" points="246,-469.5 276,-469.5 "/>
<text text-anchor="middle" x="261" y="-457.3" font-family="Times New Roman,serif" font-size="14.00">0</text>
<polyline fill="none" stroke="black" points="246,-452.5 276,-452.5 "/>
<text text-anchor="middle" x="261" y="-440.3" font-family="Times New Roman,serif" font-size="14.00">1</text>
<polyline fill="none" stroke="black" points="246,-435.5 276,-435.5 "/>
<text text-anchor="middle" x="261" y="-423.3" font-family="Times New Roman,serif" font-size="14.00">0</text>
<polyline fill="none" stroke="black" points="246,-418.5 276,-418.5 "/>
<text text-anchor="middle" x="261" y="-406.3" font-family="Times New Roman,serif" font-size="14.00">1</text>
<polyline fill="none" stroke="black" points="276,-401.5 276,-554.5 "/>
<text text-anchor="middle" x="291" y="-542.3" font-family="Times New Roman,serif" font-size="14.00">v2</text>
<polyline fill="none" stroke="black" points="276,-537.5 306,-537.5 "/>
<text text-anchor="middle" x="291" y="-525.3" font-family="Times New Roman,serif" font-size="14.00">0</text>
<polyline fill="none" stroke="black" points="276,-520.5 306,-520.5 "/>
<text text-anchor="middle" x="291" y="-508.3" font-family="Times New Roman,serif" font-size="14.00">0</text>
<polyline fill="none" stroke="black" points="276,-503.5 306,-503.5 "/>
<text text-anchor="middle" x="291" y="-491.3" font-family="Times New Roman,serif" font-size="14.00">1</text>
<polyline fill="none" stroke="black" points="276,-486.5 306,-486.5 "/>
<text text-anchor="middle" x="291" y="-474.3" font-family="Times New Roman,serif" font-size="14.00">1</text>
<polyline fill="none" stroke="black" points="276,-469.5 306,-469.5 "/>
<text text-anchor="middle" x="291" y="-457.3" font-family="Times New Roman,serif" font-size="14.00">0</text>
<polyline fill="none" stroke="black" points="276,-452.5 306,-452.5 "/>
<text text-anchor="middle" x="291" y="-440.3" font-family="Times New Roman,serif" font-size="14.00">0</text>
<polyline fill="none" stroke="black" points="276,-435.5 306,-435.5 "/>
<text text-anchor="middle" x="291" y="-423.3" font-family="Times New Roman,serif" font-size="14.00">1</text>
<polyline fill="none" stroke="black" points="276,-418.5 306,-418.5 "/>
<text text-anchor="middle" x="291" y="-406.3" font-family="Times New Roman,serif" font-size="14.00">1</text>
<polyline fill="none" stroke="black" points="306,-401.5 306,-554.5 "/>
<text text-anchor="middle" x="321" y="-542.3" font-family="Times New Roman,serif" font-size="14.00">v4</text>
<polyline fill="none" stroke="black" points="306,-537.5 336,-537.5 "/>
<text text-anchor="middle" x="321" y="-525.3" font-family="Times New Roman,serif" font-size="14.00">0</text>
<polyline fill="none" stroke="black" points="306,-520.5 336,-520.5 "/>
<text text-anchor="middle" x="321" y="-508.3" font-family="Times New Roman,serif" font-size="14.00">0</text>
<polyline fill="none" stroke="black" points="306,-503.5 336,-503.5 "/>
<text text-anchor="middle" x="321" y="-491.3" font-family="Times New Roman,serif" font-size="14.00">0</text>
<polyline fill="none" stroke="black" points="306,-486.5 336,-486.5 "/>
<text text-anchor="middle" x="321" y="-474.3" font-family="Times New Roman,serif" font-size="14.00">0</text>
<polyline fill="none" stroke="black" points="306,-469.5 336,-469.5 "/>
<text text-anchor="middle" x="321" y="-457.3" font-family="Times New Roman,serif" font-size="14.00">1</text>
<polyline fill="none" stroke="black" points="306,-452.5 336,-452.5 "/>
<text text-anchor="middle" x="321" y="-440.3" font-family="Times New Roman,serif" font-size="14.00">1</text>
<polyline fill="none" stroke="black" points="306,-435.5 336,-435.5 "/>
<text text-anchor="middle" x="321" y="-423.3" font-family="Times New Roman,serif" font-size="14.00">1</text>
<polyline fill="none" stroke="black" points="306,-418.5 336,-418.5 "/>
<text text-anchor="middle" x="321" y="-406.3" font-family="Times New Roman,serif" font-size="14.00">1</text>
<polyline fill="none" stroke="black" points="336,-401.5 336,-554.5 "/>
<text text-anchor="middle" x="359" y="-542.3" font-family="Times New Roman,serif" font-size="14.00">n Sol</text>
<polyline fill="none" stroke="black" points="336,-537.5 382,-537.5 "/>
<text text-anchor="middle" x="359" y="-525.3" font-family="Times New Roman,serif" font-size="14.00">0</text>
<polyline fill="none" stroke="black" points="336,-520.5 382,-520.5 "/>
<text text-anchor="middle" x="359" y="-508.3" font-family="Times New Roman,serif" font-size="14.00">1</text>
<polyline fill="none" stroke="black" points="336,-503.5 382,-503.5 "/>
<text text-anchor="middle" x="359" y="-491.3" font-family="Times New Roman,serif" font-size="14.00">2</text>
<polyline fill="none" stroke="black" points="336,-486.5 382,-486.5 "/>
<text text-anchor="middle" x="359" y="-474.3" font-family="Times New Roman,serif" font-size="14.00">4</text>
<polyline fill="none" stroke="black" points="336,-469.5 382,-469.5 "/>
<text text-anchor="middle" x="359" y="-457.3" font-family="Times New Roman,serif" font-size="14.00">0</text>
<polyline fill="none" stroke="black" points="336,-452.5 382,-452.5 "/>
<text text-anchor="middle" x="359" y="-440.3" font-family="Times New Roman,serif" font-size="14.00">2</text>
<polyline fill="none" stroke="black" points="336,-435.5 382,-435.5 "/>
<text text-anchor="middle" x="359" y="-423.3" font-family="Times New Roman,serif" font-size="14.00">3</text>
<polyline fill="none" stroke="black" points="336,-418.5 382,-418.5 "/>
<text text-anchor="middle" x="359" y="-406.3" font-family="Times New Roman,serif" font-size="14.00">6</text>
<polyline fill="none" stroke="black" points="219,-401.5 382,-401.5 "/>
<text text-anchor="middle" x="300.5" y="-389.3" font-family="Times New Roman,serif" font-size="14.00">sum: 18</text>
</g>
<!-- Join 2~3&#45;&gt;bag 1 -->
<g id="edge11" class="edge">
<title>Join 2~3&#45;&gt;bag 1</title>
<path fill="none" stroke="black" d="M217.53,-306.02C204.08,-338.86 174.45,-411.21 158.38,-450.44"/>
<polygon fill="black" stroke="black" points="155.06,-449.31 154.51,-459.89 161.54,-451.96 155.06,-449.31"/>
</g>
<!-- Join 2~3&#45;&gt;solJoin2~3 -->
<g id="edge8" class="edge">
<title>Join 2~3&#45;&gt;solJoin2~3</title>
<path fill="none" stroke="black" d="M231.38,-306.02C237.95,-322.27 248.43,-348.19 259.26,-374.99"/>
<polygon fill="black" stroke="black" points="256.11,-376.53 263.1,-384.49 262.6,-373.91 256.11,-376.53"/>
</g>
</g>
</svg>
