<?xml version="1.0" encoding="UTF-8" standalone="no"?>
<!DOCTYPE svg PUBLIC "-//W3C//DTD SVG 1.1//EN"
 "http://www.w3.org/Graphics/SVG/1.1/DTD/svg11.dtd">
<!-- Generated by graphviz version 2.41.20170921.1950 (20170921.1950)
 -->
<!-- Title: structs Pages: 1 -->
<svg width="462pt" height="960pt"
 viewBox="0.00 0.00 462.00 960.00" xmlns="http://www.w3.org/2000/svg" xmlns:xlink="http://www.w3.org/1999/xlink">
<g id="graph0" class="graph" transform="scale(1 1) rotate(0) translate(4 956)">
<title>structs</title>
<polygon fill="white" stroke="transparent" points="-4,4 -4,-956 458,-956 458,4 -4,4"/>
<!-- bag 0 -->
<g id="node1" class="node">
<title>bag 0</title>
<path fill="white" stroke="black" d="M117.5,-686C117.5,-686 45.5,-686 45.5,-686 39.5,-686 33.5,-680 33.5,-674 33.5,-674 33.5,-662 33.5,-662 33.5,-656 39.5,-650 45.5,-650 45.5,-650 117.5,-650 117.5,-650 123.5,-650 129.5,-656 129.5,-662 129.5,-662 129.5,-674 129.5,-674 129.5,-680 123.5,-686 117.5,-686"/>
<polygon fill="white" stroke="transparent" points="41.5,-658 41.5,-677 76.5,-677 76.5,-658 41.5,-658"/>
<text text-anchor="start" x="43.5" y="-663.8" font-family="Times New Roman,serif" font-size="14.00">bag 0</text>
<text text-anchor="start" x="82.5" y="-663.8" font-family="Times New Roman,serif" font-size="14.00">[1 4 7]</text>
</g>
<!-- sol0 -->
<!-- bag 0&#45;&gt;sol0 -->
<!-- bag 1 -->
<g id="node2" class="node">
<title>bag 1</title>
<path fill="white" stroke="black" d="M189,-496C189,-496 106,-496 106,-496 100,-496 94,-490 94,-484 94,-484 94,-472 94,-472 94,-466 100,-460 106,-460 106,-460 189,-460 189,-460 195,-460 201,-466 201,-472 201,-472 201,-484 201,-484 201,-490 195,-496 189,-496"/>
<polygon fill="white" stroke="transparent" points="102.5,-468 102.5,-487 137.5,-487 137.5,-468 102.5,-468"/>
<text text-anchor="start" x="104.5" y="-473.8" font-family="Times New Roman,serif" font-size="14.00">bag 1</text>
<text text-anchor="start" x="143.5" y="-473.8" font-family="Times New Roman,serif" font-size="14.00">[1 2 4 6]</text>
</g>
<!-- bag 1&#45;&gt;bag 0 -->
<g id="edge1" class="edge">
<title>bag 1&#45;&gt;bag 0</title>
<path fill="none" stroke="black" d="M141.53,-496.02C130,-528.86 104.6,-601.21 90.82,-640.44"/>
<polygon fill="black" stroke="black" points="87.52,-639.29 87.51,-649.89 94.12,-641.61 87.52,-639.29"/>
</g>
<!-- sol1 -->
<!-- bag 1&#45;&gt;sol1 -->
<!-- bag 2 -->
<g id="node3" class="node">
<title>bag 2</title>
<path fill="white" stroke="black" d="M175.5,-150C175.5,-150 103.5,-150 103.5,-150 97.5,-150 91.5,-144 91.5,-138 91.5,-138 91.5,-126 91.5,-126 91.5,-120 97.5,-114 103.5,-114 103.5,-114 175.5,-114 175.5,-114 181.5,-114 187.5,-120 187.5,-126 187.5,-126 187.5,-138 187.5,-138 187.5,-144 181.5,-150 175.5,-150"/>
<polygon fill="white" stroke="transparent" points="99.5,-122 99.5,-141 134.5,-141 134.5,-122 99.5,-122"/>
<text text-anchor="start" x="101.5" y="-127.8" font-family="Times New Roman,serif" font-size="14.00">bag 2</text>
<text text-anchor="start" x="140.5" y="-127.8" font-family="Times New Roman,serif" font-size="14.00">[1 2 5]</text>
</g>
<!-- bag 2&#45;&gt;bag 1 -->
<!-- sol2 -->
<g id="node6" class="node">
<title>sol2</title>
<path fill="white" stroke="black" d="M53,-228.5C53,-228.5 162,-228.5 162,-228.5 168,-228.5 174,-234.5 174,-240.5 174,-240.5 174,-335.5 174,-335.5 174,-341.5 168,-347.5 162,-347.5 162,-347.5 53,-347.5 53,-347.5 47,-347.5 41,-341.5 41,-335.5 41,-335.5 41,-240.5 41,-240.5 41,-234.5 47,-228.5 53,-228.5"/>
<text text-anchor="middle" x="107.5" y="-335.3" font-family="Times New Roman,serif" font-size="14.00">sol bag 2</text>
<polyline fill="none" stroke="black" points="41,-330.5 174,-330.5 "/>
<text text-anchor="middle" x="54.5" y="-318.3" font-family="Times New Roman,serif" font-size="14.00">id</text>
<polyline fill="none" stroke="black" points="41,-313.5 68,-313.5 "/>
<text text-anchor="middle" x="54.5" y="-301.3" font-family="Times New Roman,serif" font-size="14.00">0</text>
<polyline fill="none" stroke="black" points="41,-296.5 68,-296.5 "/>
<text text-anchor="middle" x="54.5" y="-284.3" font-family="Times New Roman,serif" font-size="14.00">1</text>
<polyline fill="none" stroke="black" points="41,-279.5 68,-279.5 "/>
<text text-anchor="middle" x="54.5" y="-267.3" font-family="Times New Roman,serif" font-size="14.00">2</text>
<polyline fill="none" stroke="black" points="41,-262.5 68,-262.5 "/>
<text text-anchor="middle" x="54.5" y="-250.3" font-family="Times New Roman,serif" font-size="14.00">3</text>
<polyline fill="none" stroke="black" points="68,-245.5 68,-330.5 "/>
<text text-anchor="middle" x="83" y="-318.3" font-family="Times New Roman,serif" font-size="14.00">v1</text>
<polyline fill="none" stroke="black" points="68,-313.5 98,-313.5 "/>
<text text-anchor="middle" x="83" y="-301.3" font-family="Times New Roman,serif" font-size="14.00">0</text>
<polyline fill="none" stroke="black" points="68,-296.5 98,-296.5 "/>
<text text-anchor="middle" x="83" y="-284.3" font-family="Times New Roman,serif" font-size="14.00">1</text>
<polyline fill="none" stroke="black" points="68,-279.5 98,-279.5 "/>
<text text-anchor="middle" x="83" y="-267.3" font-family="Times New Roman,serif" font-size="14.00">0</text>
<polyline fill="none" stroke="black" points="68,-262.5 98,-262.5 "/>
<text text-anchor="middle" x="83" y="-250.3" font-family="Times New Roman,serif" font-size="14.00">1</text>
<polyline fill="none" stroke="black" points="98,-245.5 98,-330.5 "/>
<text text-anchor="middle" x="113" y="-318.3" font-family="Times New Roman,serif" font-size="14.00">v2</text>
<polyline fill="none" stroke="black" points="98,-313.5 128,-313.5 "/>
<text text-anchor="middle" x="113" y="-301.3" font-family="Times New Roman,serif" font-size="14.00">0</text>
<polyline fill="none" stroke="black" points="98,-296.5 128,-296.5 "/>
<text text-anchor="middle" x="113" y="-284.3" font-family="Times New Roman,serif" font-size="14.00">0</text>
<polyline fill="none" stroke="black" points="98,-279.5 128,-279.5 "/>
<text text-anchor="middle" x="113" y="-267.3" font-family="Times New Roman,serif" font-size="14.00">1</text>
<polyline fill="none" stroke="black" points="98,-262.5 128,-262.5 "/>
<text text-anchor="middle" x="113" y="-250.3" font-family="Times New Roman,serif" font-size="14.00">1</text>
<polyline fill="none" stroke="black" points="128,-245.5 128,-330.5 "/>
<text text-anchor="middle" x="151" y="-318.3" font-family="Times New Roman,serif" font-size="14.00">n Sol</text>
<polyline fill="none" stroke="black" points="128,-313.5 174,-313.5 "/>
<text text-anchor="middle" x="151" y="-301.3" font-family="Times New Roman,serif" font-size="14.00">0</text>
<polyline fill="none" stroke="black" points="128,-296.5 174,-296.5 "/>
<text text-anchor="middle" x="151" y="-284.3" font-family="Times New Roman,serif" font-size="14.00">1</text>
<polyline fill="none" stroke="black" points="128,-279.5 174,-279.5 "/>
<text text-anchor="middle" x="151" y="-267.3" font-family="Times New Roman,serif" font-size="14.00">1</text>
<polyline fill="none" stroke="black" points="128,-262.5 174,-262.5 "/>
<text text-anchor="middle" x="151" y="-250.3" font-family="Times New Roman,serif" font-size="14.00">2</text>
<polyline fill="none" stroke="black" points="41,-245.5 174,-245.5 "/>
<text text-anchor="middle" x="107.5" y="-233.3" font-family="Times New Roman,serif" font-size="14.00">sum: 4</text>
</g>
<!-- bag 2&#45;&gt;sol2 -->
<g id="edge5" class="edge">
<title>bag 2&#45;&gt;sol2</title>
<path fill="none" stroke="black" d="M135.95,-150.07C132.49,-166.73 126.99,-193.19 121.75,-218.43"/>
<polygon fill="black" stroke="black" points="118.29,-217.88 119.68,-228.39 125.14,-219.31 118.29,-217.88"/>
</g>
<!-- Join 2~3 -->
<g id="node10" class="node">
<title>Join 2~3</title>
<path fill="white" stroke="black" d="M244.5,-306C244.5,-306 204.5,-306 204.5,-306 198.5,-306 192.5,-300 192.5,-294 192.5,-294 192.5,-282 192.5,-282 192.5,-276 198.5,-270 204.5,-270 204.5,-270 244.5,-270 244.5,-270 250.5,-270 256.5,-276 256.5,-282 256.5,-282 256.5,-294 256.5,-294 256.5,-300 250.5,-306 244.5,-306"/>
<text text-anchor="middle" x="224.5" y="-284.3" font-family="Times New Roman,serif" font-size="14.00">Join 2~3</text>
</g>
<!-- bag 2&#45;&gt;Join 2~3 -->
<g id="edge9" class="edge">
<title>bag 2&#45;&gt;Join 2~3</title>
<path fill="none" stroke="black" d="M148.92,-150.07C163.73,-176.9 192.55,-229.12 210.01,-260.75"/>
<polygon fill="black" stroke="black" points="207.14,-262.79 215.04,-269.85 213.27,-259.41 207.14,-262.79"/>
</g>
<!-- bag 3 -->
<g id="node4" class="node">
<title>bag 3</title>
<path fill="white" stroke="black" d="M290.5,-150C290.5,-150 218.5,-150 218.5,-150 212.5,-150 206.5,-144 206.5,-138 206.5,-138 206.5,-126 206.5,-126 206.5,-120 212.5,-114 218.5,-114 218.5,-114 290.5,-114 290.5,-114 296.5,-114 302.5,-120 302.5,-126 302.5,-126 302.5,-138 302.5,-138 302.5,-144 296.5,-150 290.5,-150"/>
<polygon fill="white" stroke="transparent" points="214.5,-122 214.5,-141 249.5,-141 249.5,-122 214.5,-122"/>
<text text-anchor="start" x="216.5" y="-127.8" font-family="Times New Roman,serif" font-size="14.00">bag 3</text>
<text text-anchor="start" x="255.5" y="-127.8" font-family="Times New Roman,serif" font-size="14.00">[2 4 8]</text>
</g>
<!-- bag 3&#45;&gt;bag 1 -->
<!-- sol3 -->
<!-- bag 3&#45;&gt;sol3 -->
<!-- bag 3&#45;&gt;Join 2~3 -->
<g id="edge10" class="edge">
<title>bag 3&#45;&gt;Join 2~3</title>
<path fill="none" stroke="black" d="M251.17,-150.07C245.99,-176.66 235.95,-228.22 229.77,-259.93"/>
<polygon fill="black" stroke="black" points="226.32,-259.37 227.84,-269.85 233.19,-260.71 226.32,-259.37"/>
</g>
<!-- bag 4 -->
<g id="node5" class="node">
<title>bag 4</title>
<path fill="yellow" stroke="black" stroke-width="2.5" d="M356.5,-36C356.5,-36 284.5,-36 284.5,-36 278.5,-36 272.5,-30 272.5,-24 272.5,-24 272.5,-12 272.5,-12 272.5,-6 278.5,0 284.5,0 284.5,0 356.5,0 356.5,0 362.5,0 368.5,-6 368.5,-12 368.5,-12 368.5,-24 368.5,-24 368.5,-30 362.5,-36 356.5,-36"/>
<polygon fill="white" stroke="transparent" points="280.5,-8 280.5,-27 315.5,-27 315.5,-8 280.5,-8"/>
<text text-anchor="start" x="282.5" y="-13.8" font-family="Times New Roman,serif" font-size="14.00">bag 4</text>
<text text-anchor="start" x="321.5" y="-13.8" font-family="Times New Roman,serif" font-size="14.00">[2 3 8]</text>
</g>
<!-- bag 4&#45;&gt;bag 3 -->
<g id="edge4" class="edge">
<title>bag 4&#45;&gt;bag 3</title>
<path fill="none" stroke="black" d="M310.48,-36.01C299.67,-54.35 282.34,-83.76 269.82,-105"/>
<polygon fill="black" stroke="black" points="266.68,-103.44 264.62,-113.83 272.71,-106.99 266.68,-103.44"/>
</g>
<!-- sol4 -->
<!-- bag 4&#45;&gt;sol4 -->
<!-- solJoin2~3 -->
<!-- Join 2~3&#45;&gt;bag 1 -->
<g id="edge11" class="edge">
<title>Join 2~3&#45;&gt;bag 1</title>
<path fill="none" stroke="black" d="M217.53,-306.02C204.08,-338.86 174.45,-411.21 158.38,-450.44"/>
<polygon fill="black" stroke="black" points="155.06,-449.31 154.51,-459.89 161.54,-451.96 155.06,-449.31"/>
</g>
<!-- Join 2~3&#45;&gt;solJoin2~3 -->
</g>
</svg>
