<?xml version="1.0" encoding="UTF-8" standalone="no"?>
<!DOCTYPE svg PUBLIC "-//W3C//DTD SVG 1.1//EN"
 "http://www.w3.org/Graphics/SVG/1.1/DTD/svg11.dtd">
<!-- Generated by graphviz version 2.41.20170921.1950 (20170921.1950)
 -->
<!-- Title: %3 Pages: 1 -->
<svg width="288pt" height="188pt"
 viewBox="0.00 0.00 288.00 188.00" xmlns="http://www.w3.org/2000/svg" xmlns:xlink="http://www.w3.org/1999/xlink">
<g id="graph0" class="graph" transform="scale(1 1) rotate(0) translate(4 184)">
<title>%3</title>
<polygon fill="white" stroke="transparent" points="-4,4 -4,-184 284,-184 284,4 -4,4"/>
<!-- v_1 -->
<g id="node1" class="node">
<title>v_1</title>
<ellipse fill="yellow" stroke="black" stroke-width="2.2" cx="68" cy="-162" rx="27" ry="18"/>
<text text-anchor="middle" x="68" y="-158.3" font-family="Times New Roman,serif" font-size="14.00">v_1</text>
</g>
<!-- v_4 -->
<g id="node2" class="node">
<title>v_4</title>
<ellipse fill="yellow" stroke="black" stroke-width="2.2" cx="109" cy="-90" rx="27" ry="18"/>
<text text-anchor="middle" x="109" y="-86.3" font-family="Times New Roman,serif" font-size="14.00">v_4</text>
</g>
<!-- v_1&#45;&#45;v_4 -->
<g id="edge1" class="edge">
<title>v_1&#45;&#45;v_4</title>
<path fill="none" stroke="black" d="M86.33,-148.46C86.33,-134.28 86.33,-112.37 86.33,-99.79"/>
</g>
<!-- v_6 -->
<g id="node3" class="node">
<title>v_6</title>
<ellipse fill="yellow" stroke="black" stroke-width="2.2" cx="109" cy="-18" rx="27" ry="18"/>
<text text-anchor="middle" x="109" y="-14.3" font-family="Times New Roman,serif" font-size="14.00">v_6</text>
</g>
<!-- v_1&#45;&#45;v_6 -->
<g id="edge2" class="edge">
<title>v_1&#45;&#45;v_6</title>
<path fill="none" stroke="black" d="M68,-143.76C68,-105.01 68,-18 68,-18 68,-18 74.26,-18 81.88,-18"/>
</g>
<!-- v_5 -->
<g id="node4" class="node">
<title>v_5</title>
<ellipse fill="green" stroke="green" stroke-width="2.2" stroke-dasharray="1,5" cx="181" cy="-90" rx="27" ry="18"/>
<text text-anchor="middle" x="181" y="-86.3" font-family="Times New Roman,serif" font-size="14.00">v_5</text>
</g>
<!-- v_1&#45;&#45;v_5 -->
<g id="edge4" class="edge">
<title>v_1&#45;&#45;v_5</title>
<path fill="none" stroke="black" d="M90.67,-152.16C90.67,-141.5 90.67,-126 90.67,-126 90.67,-126 174,-126 174,-126 174,-126 174,-116.72 174,-107.58"/>
</g>
<!-- v_7 -->
<g id="node5" class="node">
<title>v_7</title>
<ellipse fill="green" stroke="green" stroke-width="2.2" stroke-dasharray="1,5" cx="27" cy="-18" rx="27" ry="18"/>
<text text-anchor="middle" x="27" y="-14.3" font-family="Times New Roman,serif" font-size="14.00">v_7</text>
</g>
<!-- v_1&#45;&#45;v_7 -->
<g id="edge5" class="edge">
<title>v_1&#45;&#45;v_7</title>
<path fill="none" stroke="black" d="M45.33,-152.1C45.33,-126.81 45.33,-59.81 45.33,-31.22"/>
</g>
<!-- v_4&#45;&#45;v_6 -->
<g id="edge3" class="edge">
<title>v_4&#45;&#45;v_6</title>
<path fill="none" stroke="black" d="M109,-71.83C109,-61 109,-47.29 109,-36.41"/>
</g>
<!-- v_4&#45;&#45;v_7 -->
<g id="edge11" class="edge">
<title>v_4&#45;&#45;v_7</title>
<path fill="none" stroke="black" d="M81.76,-90C66.17,-90 49.67,-90 49.67,-90 49.67,-90 49.67,-47.79 49.67,-28.01"/>
</g>
<!-- v_2 -->
<g id="node6" class="node">
<title>v_2</title>
<ellipse fill="yellow" stroke="black" stroke-width="2.2" cx="253" cy="-162" rx="27" ry="18"/>
<text text-anchor="middle" x="253" y="-158.3" font-family="Times New Roman,serif" font-size="14.00">v_2</text>
</g>
<!-- v_2&#45;&#45;v_6 -->
<g id="edge8" class="edge">
<title>v_2&#45;&#45;v_6</title>
<path fill="none" stroke="black" d="M229.41,-171C221.2,-171 214,-171 214,-171 214,-171 214,-18 214,-18 214,-18 167.15,-18 136.04,-18"/>
</g>
<!-- v_2&#45;&#45;v_5 -->
<g id="edge7" class="edge">
<title>v_2&#45;&#45;v_5</title>
<path fill="none" stroke="black" d="M229.43,-153C215.68,-153 201,-153 201,-153 201,-153 201,-120.45 201,-102.15"/>
</g>
<!-- v_3 -->
<g id="node7" class="node">
<title>v_3</title>
<ellipse fill="green" stroke="green" stroke-width="2.2" stroke-dasharray="1,5" cx="253" cy="-90" rx="27" ry="18"/>
<text text-anchor="middle" x="253" y="-86.3" font-family="Times New Roman,serif" font-size="14.00">v_3</text>
</g>
<!-- v_2&#45;&#45;v_3 -->
<g id="edge6" class="edge">
<title>v_2&#45;&#45;v_3</title>
<path fill="none" stroke="black" d="M253,-143.83C253,-133 253,-119.29 253,-108.41"/>
</g>
<!-- v_8 -->
<g id="node8" class="node">
<title>v_8</title>
<ellipse fill="green" stroke="green" stroke-width="2.2" stroke-dasharray="1,5" cx="167" cy="-162" rx="27" ry="18"/>
<text text-anchor="middle" x="167" y="-158.3" font-family="Times New Roman,serif" font-size="14.00">v_8</text>
</g>
<!-- v_8&#45;&#45;v_4 -->
<g id="edge10" class="edge">
<title>v_8&#45;&#45;v_4</title>
<path fill="none" stroke="black" d="M147,-149.79C147,-129.24 147,-90 147,-90 147,-90 142.3,-90 136.21,-90"/>
</g>
<!-- v_8&#45;&#45;v_3 -->
<g id="edge9" class="edge">
<title>v_8&#45;&#45;v_3</title>
<path fill="none" stroke="black" d="M194.12,-162C207.16,-162 220,-162 220,-162 220,-162 220,-90 220,-90 220,-90 222.33,-90 225.75,-90"/>
</g>
</g>
</svg>
