<?xml version="1.0" encoding="UTF-8" standalone="no"?>
<!DOCTYPE svg PUBLIC "-//W3C//DTD SVG 1.1//EN"
 "http://www.w3.org/Graphics/SVG/1.1/DTD/svg11.dtd">
<!-- Generated by graphviz version 2.38.0 (20140413.2041)
 -->
<!-- Title: IncidenceGraphStep Pages: 1 -->
<svg width="350pt" height="554pt"
 viewBox="0.00 0.00 350.00 554.00" xmlns="http://www.w3.org/2000/svg" xmlns:xlink="http://www.w3.org/1999/xlink">
<g id="graph0" class="graph" transform="scale(1 1) rotate(0) translate(4 550)">
<title>IncidenceGraphStep</title>
<polygon fill="white" stroke="none" points="-4,4 -4,-550 346,-550 346,4 -4,4"/>
<g id="clust1" class="cluster"><title>cluster_clause</title>
<polygon fill="none" stroke="black" points="8,-8 8,-538 82,-538 82,-8 8,-8"/>
<text text-anchor="middle" x="45" y="-521.2" font-family="Times New Roman,serif" font-size="16.00">clauses</text>
</g>
<g id="clust2" class="cluster"><title>cluster_ivar</title>
<polygon fill="none" stroke="black" points="248,-110 248,-538 334,-538 334,-110 248,-110"/>
<text text-anchor="middle" x="291" y="-521.2" font-family="Times New Roman,serif" font-size="16.00">variables</text>
</g>
<!-- c_1 -->
<g id="node1" class="node"><title>c_1</title>
<ellipse fill="yellow" stroke="black" cx="45" cy="-486" rx="27" ry="18"/>
<text text-anchor="middle" x="45" y="-482.3" font-family="Times New Roman,serif" font-size="14.00">c_1</text>
</g>
<!-- c_2 -->
<g id="node2" class="node"><title>c_2</title>
<ellipse fill="yellow" stroke="black" cx="45" cy="-436" rx="27" ry="18"/>
<text text-anchor="middle" x="45" y="-432.3" font-family="Times New Roman,serif" font-size="14.00">c_2</text>
</g>
<!-- c_1&#45;&#45;c_2 -->
<!-- v_1 -->
<g id="node11" class="node"><title>v_1</title>
<polygon fill="yellow" stroke="#b14923" stroke-width="2.2" points="291,-504 256.144,-486 291,-468 325.856,-486 291,-504"/>
<text text-anchor="middle" x="291" y="-482.3" font-family="Times New Roman,serif" font-size="14.00">v_1</text>
</g>
<!-- c_1&#45;&#45;v_1 -->
<g id="edge17" class="edge"><title>c_1&#45;&#45;v_1</title>
<path fill="none" stroke="#b14923" stroke-width="2.2" d="M72.3867,-486C133.587,-486 194.787,-486 255.988,-486"/>
</g>
<!-- v_4 -->
<g id="node14" class="node"><title>v_4</title>
<polygon fill="yellow" stroke="#a682ff" stroke-width="2.2" stroke-dasharray="1,5" points="291,-354 256.144,-336 291,-318 325.856,-336 291,-354"/>
<text text-anchor="middle" x="291" y="-332.3" font-family="Times New Roman,serif" font-size="14.00">v_4</text>
</g>
<!-- c_1&#45;&#45;v_4 -->
<g id="edge18" class="edge"><title>c_1&#45;&#45;v_4</title>
<path fill="none" stroke="#a682ff" stroke-width="2.2" d="M65.1312,-473.725C112.752,-444.688 231.568,-372.239 274.879,-345.83"/>
</g>
<!-- v_6 -->
<g id="node16" class="node"><title>v_6</title>
<polygon fill="yellow" stroke="#0d1321" stroke-width="2.2" stroke-dasharray="1,5" points="291,-254 256.144,-236 291,-218 325.856,-236 291,-254"/>
<text text-anchor="middle" x="291" y="-232.3" font-family="Times New Roman,serif" font-size="14.00">v_6</text>
</g>
<!-- c_1&#45;&#45;v_6 -->
<g id="edge19" class="edge"><title>c_1&#45;&#45;v_6</title>
<path fill="none" stroke="#0d1321" stroke-width="2.2" d="M60.0181,-470.738C105.083,-424.94 238.54,-289.313 279.145,-248.047"/>
</g>
<!-- c_3 -->
<g id="node3" class="node"><title>c_3</title>
<ellipse fill="yellow" stroke="black" cx="45" cy="-386" rx="27" ry="18"/>
<text text-anchor="middle" x="45" y="-382.3" font-family="Times New Roman,serif" font-size="14.00">c_3</text>
</g>
<!-- c_2&#45;&#45;c_3 -->
<!-- c_2&#45;&#45;v_1 -->
<g id="edge20" class="edge"><title>c_2&#45;&#45;v_1</title>
<path fill="none" stroke="#b14923" stroke-width="2.2" d="M70.604,-441.996C118.367,-451.316 220.419,-471.228 266.965,-480.31"/>
</g>
<!-- v_5 -->
<g id="node15" class="node"><title>v_5</title>
<polygon fill="yellow" stroke="#004066" stroke-width="2.2" points="291,-304 256.144,-286 291,-268 325.856,-286 291,-304"/>
<text text-anchor="middle" x="291" y="-282.3" font-family="Times New Roman,serif" font-size="14.00">v_5</text>
</g>
<!-- c_2&#45;&#45;v_5 -->
<g id="edge21" class="edge"><title>c_2&#45;&#45;v_5</title>
<path fill="none" stroke="#004066" stroke-width="2.2" d="M71.9666,-419.557C123.275,-388.271 233.513,-321.053 274.879,-295.83"/>
<ellipse fill="none" stroke="#004066" stroke-width="2.2" cx="68.5464" cy="-421.642" rx="4.00002" ry="4.00002"/>
</g>
<!-- c_4 -->
<g id="node4" class="node"><title>c_4</title>
<ellipse fill="yellow" stroke="black" cx="45" cy="-336" rx="27" ry="18"/>
<text text-anchor="middle" x="45" y="-332.3" font-family="Times New Roman,serif" font-size="14.00">c_4</text>
</g>
<!-- c_3&#45;&#45;c_4 -->
<!-- c_3&#45;&#45;v_1 -->
<g id="edge22" class="edge"><title>c_3&#45;&#45;v_1</title>
<path fill="none" stroke="#b14923" stroke-width="2.2" d="M75.8485,-398.54C127.144,-419.392 228.557,-460.617 271.285,-477.986"/>
<ellipse fill="none" stroke="#b14923" stroke-width="2.2" cx="72.0652" cy="-397.002" rx="4.00001" ry="4.00001"/>
</g>
<!-- v_7 -->
<g id="node17" class="node"><title>v_7</title>
<polygon fill="yellow" stroke="#da1167" stroke-width="2.2" stroke-dasharray="1,5" points="291,-204 256.144,-186 291,-168 325.856,-186 291,-204"/>
<text text-anchor="middle" x="291" y="-182.3" font-family="Times New Roman,serif" font-size="14.00">v_7</text>
</g>
<!-- c_3&#45;&#45;v_7 -->
<g id="edge23" class="edge"><title>c_3&#45;&#45;v_7</title>
<path fill="none" stroke="#da1167" stroke-width="2.2" d="M62.2982,-371.936C108.778,-334.148 235.677,-230.978 277.46,-197.008"/>
</g>
<!-- c_5 -->
<g id="node5" class="node"><title>c_5</title>
<ellipse fill="yellow" stroke="black" cx="45" cy="-286" rx="27" ry="18"/>
<text text-anchor="middle" x="45" y="-282.3" font-family="Times New Roman,serif" font-size="14.00">c_5</text>
</g>
<!-- c_4&#45;&#45;c_5 -->
<!-- v_2 -->
<g id="node12" class="node"><title>v_2</title>
<polygon fill="yellow" stroke="#244320" stroke-width="2.2" points="291,-454 256.144,-436 291,-418 325.856,-436 291,-454"/>
<text text-anchor="middle" x="291" y="-432.3" font-family="Times New Roman,serif" font-size="14.00">v_2</text>
</g>
<!-- c_4&#45;&#45;v_2 -->
<g id="edge24" class="edge"><title>c_4&#45;&#45;v_2</title>
<path fill="none" stroke="#244320" stroke-width="2.2" d="M68.3597,-345.496C116.578,-365.097 226.363,-409.725 271.285,-427.986"/>
</g>
<!-- v_3 -->
<g id="node13" class="node"><title>v_3</title>
<polygon fill="yellow" stroke="#b1740f" stroke-width="2.2" stroke-dasharray="1,5" points="291,-404 256.144,-386 291,-368 325.856,-386 291,-404"/>
<text text-anchor="middle" x="291" y="-382.3" font-family="Times New Roman,serif" font-size="14.00">v_3</text>
</g>
<!-- c_4&#45;&#45;v_3 -->
<g id="edge25" class="edge"><title>c_4&#45;&#45;v_3</title>
<path fill="none" stroke="#b1740f" stroke-width="2.2" d="M70.604,-341.996C118.367,-351.316 220.419,-371.228 266.965,-380.31"/>
</g>
<!-- c_6 -->
<g id="node6" class="node"><title>c_6</title>
<ellipse fill="yellow" stroke="black" cx="45" cy="-236" rx="27" ry="18"/>
<text text-anchor="middle" x="45" y="-232.3" font-family="Times New Roman,serif" font-size="14.00">c_6</text>
</g>
<!-- c_5&#45;&#45;c_6 -->
<!-- c_5&#45;&#45;v_2 -->
<g id="edge26" class="edge"><title>c_5&#45;&#45;v_2</title>
<path fill="none" stroke="#244320" stroke-width="2.2" d="M65.2488,-298.347C112.941,-327.427 231.568,-399.761 274.859,-426.158"/>
</g>
<!-- c_5&#45;&#45;v_5 -->
<g id="edge27" class="edge"><title>c_5&#45;&#45;v_5</title>
<path fill="none" stroke="#004066" stroke-width="2.2" d="M72.3867,-286C133.587,-286 194.787,-286 255.988,-286"/>
</g>
<!-- c_7 -->
<g id="node7" class="node"><title>c_7</title>
<ellipse fill="white" stroke="black" cx="45" cy="-186" rx="27" ry="18"/>
<text text-anchor="middle" x="45" y="-182.3" font-family="Times New Roman,serif" font-size="14.00">c_7</text>
</g>
<!-- c_6&#45;&#45;c_7 -->
<!-- c_6&#45;&#45;v_2 -->
<g id="edge28" class="edge"><title>c_6&#45;&#45;v_2</title>
<path fill="none" stroke="#244320" stroke-width="2.2" d="M62.3648,-250.118C108.886,-287.94 235.623,-390.978 277.424,-424.962"/>
</g>
<!-- c_6&#45;&#45;v_6 -->
<g id="edge29" class="edge"><title>c_6&#45;&#45;v_6</title>
<path fill="none" stroke="#0d1321" stroke-width="2.2" d="M80.6344,-236C139.086,-236 197.537,-236 255.988,-236"/>
<ellipse fill="none" stroke="#0d1321" stroke-width="2.2" cx="76.3867" cy="-236" rx="4" ry="4"/>
</g>
<!-- c_8 -->
<g id="node8" class="node"><title>c_8</title>
<ellipse fill="white" stroke="black" cx="45" cy="-136" rx="27" ry="18"/>
<text text-anchor="middle" x="45" y="-132.3" font-family="Times New Roman,serif" font-size="14.00">c_8</text>
</g>
<!-- c_7&#45;&#45;c_8 -->
<!-- c_7&#45;&#45;v_3 -->
<g id="edge30" class="edge"><title>c_7&#45;&#45;v_3</title>
<path fill="none" stroke="#b1740f" stroke-width="2.2" stroke-dasharray="1,5" d="M62.3648,-200.118C108.886,-237.94 235.623,-340.978 277.424,-374.962"/>
</g>
<!-- v_8 -->
<g id="node18" class="node"><title>v_8</title>
<polygon fill="none" stroke="#604909" stroke-width="2.2" stroke-dasharray="1,5" points="291,-154 256.144,-136 291,-118 325.856,-136 291,-154"/>
<text text-anchor="middle" x="291" y="-132.3" font-family="Times New Roman,serif" font-size="14.00">v_8</text>
</g>
<!-- c_7&#45;&#45;v_8 -->
<g id="edge31" class="edge"><title>c_7&#45;&#45;v_8</title>
<path fill="none" stroke="#604909" stroke-width="2.2" stroke-dasharray="1,5" d="M78.8669,-178.392C129.301,-168.551 222.917,-150.284 266.94,-141.695"/>
<ellipse fill="none" stroke="#604909" stroke-width="2.2" cx="74.7873" cy="-179.188" rx="4.00001" ry="4.00001"/>
</g>
<!-- c_9 -->
<g id="node9" class="node"><title>c_9</title>
<ellipse fill="white" stroke="black" cx="45" cy="-84" rx="27" ry="18"/>
<text text-anchor="middle" x="45" y="-80.3" font-family="Times New Roman,serif" font-size="14.00">c_9</text>
</g>
<!-- c_8&#45;&#45;c_9 -->
<!-- c_8&#45;&#45;v_4 -->
<g id="edge32" class="edge"><title>c_8&#45;&#45;v_4</title>
<path fill="none" stroke="#a682ff" stroke-width="2.2" stroke-dasharray="1,5" d="M62.3648,-150.118C108.886,-187.94 235.623,-290.978 277.424,-324.962"/>
</g>
<!-- c_8&#45;&#45;v_8 -->
<g id="edge33" class="edge"><title>c_8&#45;&#45;v_8</title>
<path fill="none" stroke="#604909" stroke-width="2.2" stroke-dasharray="1,5" d="M80.6344,-136C139.086,-136 197.537,-136 255.988,-136"/>
<ellipse fill="none" stroke="#604909" stroke-width="2.2" cx="76.3867" cy="-136" rx="4" ry="4"/>
</g>
<!-- c_10 -->
<g id="node10" class="node"><title>c_10</title>
<ellipse fill="white" stroke="black" cx="45" cy="-34" rx="28.6953" ry="18"/>
<text text-anchor="middle" x="45" y="-30.3" font-family="Times New Roman,serif" font-size="14.00">c_10</text>
</g>
<!-- c_9&#45;&#45;c_10 -->
<!-- c_9&#45;&#45;v_4 -->
<g id="edge34" class="edge"><title>c_9&#45;&#45;v_4</title>
<path fill="none" stroke="#a682ff" stroke-width="2.2" stroke-dasharray="1,5" d="M65.4141,-104.912C114.895,-155.599 240.031,-283.788 279.135,-323.846"/>
<ellipse fill="none" stroke="#a682ff" stroke-width="2.2" cx="62.5599" cy="-101.988" rx="4.00002" ry="4.00002"/>
</g>
<!-- c_9&#45;&#45;v_6 -->
<g id="edge35" class="edge"><title>c_9&#45;&#45;v_6</title>
<path fill="none" stroke="#0d1321" stroke-width="2.2" stroke-dasharray="1,5" d="M64.8969,-96.294C112.354,-125.617 231.461,-199.212 274.859,-226.027"/>
</g>
<!-- c_10&#45;&#45;v_4 -->
<g id="edge36" class="edge"><title>c_10&#45;&#45;v_4</title>
<path fill="none" stroke="#a682ff" stroke-width="2.2" stroke-dasharray="1,5" d="M63.3743,-56.557C111.898,-116.127 242.352,-276.278 280.43,-323.023"/>
<ellipse fill="none" stroke="#a682ff" stroke-width="2.2" cx="60.6653" cy="-53.2314" rx="4.00002" ry="4.00002"/>
</g>
<!-- c_10&#45;&#45;v_7 -->
<g id="edge37" class="edge"><title>c_10&#45;&#45;v_7</title>
<path fill="none" stroke="#da1167" stroke-width="2.2" stroke-dasharray="1,5" d="M65.6034,-46.7306C113.526,-76.3413 231.675,-149.344 274.859,-176.027"/>
</g>
<!-- v_1&#45;&#45;v_2 -->
<!-- v_2&#45;&#45;v_3 -->
<!-- v_3&#45;&#45;v_4 -->
<!-- v_4&#45;&#45;v_5 -->
<!-- v_5&#45;&#45;v_6 -->
<!-- v_6&#45;&#45;v_7 -->
<!-- v_7&#45;&#45;v_8 -->
</g>
</svg>
