<?xml version="1.0" encoding="UTF-8" standalone="no"?>
<!DOCTYPE svg PUBLIC "-//W3C//DTD SVG 1.1//EN"
 "http://www.w3.org/Graphics/SVG/1.1/DTD/svg11.dtd">
<!-- Generated by graphviz version 2.38.0 (20140413.2041)
 -->
<!-- Title: Tree&#45;Decomposition Pages: 1 -->
<svg width="345pt" height="678pt"
 viewBox="0.00 0.00 345.00 678.00" xmlns="http://www.w3.org/2000/svg" xmlns:xlink="http://www.w3.org/1999/xlink">
<g id="graph0" class="graph" transform="scale(1 1) rotate(0) translate(4 674)">
<title>Tree&#45;Decomposition</title>
<polygon fill="white" stroke="none" points="-4,4 -4,-674 341,-674 341,4 -4,4"/>
<!-- bag 1 -->
<g id="node1" class="node"><title>bag 1</title>
<path fill="yellow" stroke="black" stroke-width="2.5" d="M150,-494C150,-494 71,-494 71,-494 65,-494 59,-488 59,-482 59,-482 59,-443 59,-443 59,-437 65,-431 71,-431 71,-431 150,-431 150,-431 156,-431 162,-437 162,-443 162,-443 162,-482 162,-482 162,-488 156,-494 150,-494"/>
<polygon fill="white" stroke="none" points="67.5,-473.5 67.5,-492.5 154.5,-492.5 154.5,-473.5 67.5,-473.5"/>
<text text-anchor="start" x="95.5" y="-479.3" font-family="Times New Roman,serif" font-size="14.00">bag 1</text>
<text text-anchor="start" x="88.5" y="-456.3" font-family="Times New Roman,serif" font-size="14.00">[1, 2, 5]</text>
<text text-anchor="start" x="69.5" y="-437.3" font-family="Times New Roman,serif" font-size="14.00">dtime=0.0007s</text>
</g>
<!-- sol1 -->
<g id="node10" class="node"><title>sol1</title>
<path fill="yellow" stroke="black" stroke-width="2.5" d="M60.5,-550.5C60.5,-550.5 160.5,-550.5 160.5,-550.5 166.5,-550.5 172.5,-556.5 172.5,-562.5 172.5,-562.5 172.5,-657.5 172.5,-657.5 172.5,-663.5 166.5,-669.5 160.5,-669.5 160.5,-669.5 60.5,-669.5 60.5,-669.5 54.5,-669.5 48.5,-663.5 48.5,-657.5 48.5,-657.5 48.5,-562.5 48.5,-562.5 48.5,-556.5 54.5,-550.5 60.5,-550.5"/>
<text text-anchor="middle" x="110.5" y="-657.3" font-family="Times New Roman,serif" font-size="14.00">sol bag 1</text>
<polyline fill="none" stroke="black" stroke-width="2.5" points="48.5,-652.5 172.5,-652.5 "/>
<text text-anchor="middle" x="63.5" y="-640.3" font-family="Times New Roman,serif" font-size="14.00">v1</text>
<polyline fill="none" stroke="black" stroke-width="2.5" points="48.5,-635.5 78.5,-635.5 "/>
<text text-anchor="middle" x="63.5" y="-623.3" font-family="Times New Roman,serif" font-size="14.00">0</text>
<polyline fill="none" stroke="black" stroke-width="2.5" points="48.5,-618.5 78.5,-618.5 "/>
<text text-anchor="middle" x="63.5" y="-606.3" font-family="Times New Roman,serif" font-size="14.00">1</text>
<polyline fill="none" stroke="black" stroke-width="2.5" points="48.5,-601.5 78.5,-601.5 "/>
<text text-anchor="middle" x="63.5" y="-589.3" font-family="Times New Roman,serif" font-size="14.00">1</text>
<polyline fill="none" stroke="black" stroke-width="2.5" points="48.5,-584.5 78.5,-584.5 "/>
<text text-anchor="middle" x="63.5" y="-572.3" font-family="Times New Roman,serif" font-size="14.00">1</text>
<polyline fill="none" stroke="black" stroke-width="2.5" points="78.5,-567.5 78.5,-652.5 "/>
<text text-anchor="middle" x="93.5" y="-640.3" font-family="Times New Roman,serif" font-size="14.00">v2</text>
<polyline fill="none" stroke="black" stroke-width="2.5" points="78.5,-635.5 108.5,-635.5 "/>
<text text-anchor="middle" x="93.5" y="-623.3" font-family="Times New Roman,serif" font-size="14.00">1</text>
<polyline fill="none" stroke="black" stroke-width="2.5" points="78.5,-618.5 108.5,-618.5 "/>
<text text-anchor="middle" x="93.5" y="-606.3" font-family="Times New Roman,serif" font-size="14.00">1</text>
<polyline fill="none" stroke="black" stroke-width="2.5" points="78.5,-601.5 108.5,-601.5 "/>
<text text-anchor="middle" x="93.5" y="-589.3" font-family="Times New Roman,serif" font-size="14.00">0</text>
<polyline fill="none" stroke="black" stroke-width="2.5" points="78.5,-584.5 108.5,-584.5 "/>
<text text-anchor="middle" x="93.5" y="-572.3" font-family="Times New Roman,serif" font-size="14.00">1</text>
<polyline fill="none" stroke="black" stroke-width="2.5" points="108.5,-567.5 108.5,-652.5 "/>
<text text-anchor="middle" x="123.5" y="-640.3" font-family="Times New Roman,serif" font-size="14.00">v5</text>
<polyline fill="none" stroke="black" stroke-width="2.5" points="108.5,-635.5 138.5,-635.5 "/>
<text text-anchor="middle" x="123.5" y="-623.3" font-family="Times New Roman,serif" font-size="14.00">0</text>
<polyline fill="none" stroke="black" stroke-width="2.5" points="108.5,-618.5 138.5,-618.5 "/>
<text text-anchor="middle" x="123.5" y="-606.3" font-family="Times New Roman,serif" font-size="14.00">0</text>
<polyline fill="none" stroke="black" stroke-width="2.5" points="108.5,-601.5 138.5,-601.5 "/>
<text text-anchor="middle" x="123.5" y="-589.3" font-family="Times New Roman,serif" font-size="14.00">1</text>
<polyline fill="none" stroke="black" stroke-width="2.5" points="108.5,-584.5 138.5,-584.5 "/>
<text text-anchor="middle" x="123.5" y="-572.3" font-family="Times New Roman,serif" font-size="14.00">1</text>
<polyline fill="none" stroke="black" stroke-width="2.5" points="138.5,-567.5 138.5,-652.5 "/>
<text text-anchor="middle" x="155.5" y="-640.3" font-family="Times New Roman,serif" font-size="14.00">mc</text>
<polyline fill="none" stroke="black" stroke-width="2.5" points="138.5,-635.5 172.5,-635.5 "/>
<text text-anchor="middle" x="155.5" y="-623.3" font-family="Times New Roman,serif" font-size="14.00">7</text>
<polyline fill="none" stroke="black" stroke-width="2.5" points="138.5,-618.5 172.5,-618.5 "/>
<text text-anchor="middle" x="155.5" y="-606.3" font-family="Times New Roman,serif" font-size="14.00">7</text>
<polyline fill="none" stroke="black" stroke-width="2.5" points="138.5,-601.5 172.5,-601.5 "/>
<text text-anchor="middle" x="155.5" y="-589.3" font-family="Times New Roman,serif" font-size="14.00">1</text>
<polyline fill="none" stroke="black" stroke-width="2.5" points="138.5,-584.5 172.5,-584.5 "/>
<text text-anchor="middle" x="155.5" y="-572.3" font-family="Times New Roman,serif" font-size="14.00">7</text>
<polyline fill="none" stroke="black" stroke-width="2.5" points="48.5,-567.5 172.5,-567.5 "/>
<text text-anchor="middle" x="110.5" y="-555.3" font-family="Times New Roman,serif" font-size="14.00">sum: 22</text>
</g>
<!-- bag 1&#45;&gt;sol1 -->
<g id="edge9" class="edge"><title>bag 1&#45;&gt;sol1</title>
<path fill="none" stroke="black" d="M110.5,-494.002C110.5,-507.527 110.5,-524.034 110.5,-540.273"/>
<polygon fill="black" stroke="black" points="107,-540.321 110.5,-550.321 114,-540.321 107,-540.321"/>
</g>
<!-- bag 2 -->
<g id="node2" class="node"><title>bag 2</title>
<path fill="white" stroke="black" d="M208,-346.5C208,-346.5 129,-346.5 129,-346.5 123,-346.5 117,-340.5 117,-334.5 117,-334.5 117,-295.5 117,-295.5 117,-289.5 123,-283.5 129,-283.5 129,-283.5 208,-283.5 208,-283.5 214,-283.5 220,-289.5 220,-295.5 220,-295.5 220,-334.5 220,-334.5 220,-340.5 214,-346.5 208,-346.5"/>
<polygon fill="white" stroke="none" points="125.5,-326 125.5,-345 212.5,-345 212.5,-326 125.5,-326"/>
<text text-anchor="start" x="153.5" y="-331.8" font-family="Times New Roman,serif" font-size="14.00">bag 2</text>
<text text-anchor="start" x="139.5" y="-308.8" font-family="Times New Roman,serif" font-size="14.00">[1, 2, 4, 6]</text>
<text text-anchor="start" x="127.5" y="-289.8" font-family="Times New Roman,serif" font-size="14.00">dtime=0.0017s</text>
</g>
<!-- bag 2&#45;&gt;bag 1 -->
<g id="edge1" class="edge"><title>bag 2&#45;&gt;bag 1</title>
<path fill="none" stroke="black" d="M156.341,-346.502C147.7,-368.181 136.004,-397.519 126.59,-421.137"/>
<polygon fill="black" stroke="black" points="123.294,-419.952 122.842,-430.537 129.797,-422.544 123.294,-419.952"/>
</g>
<!-- sol2 -->
<g id="node9" class="node"><title>sol2</title>
<path fill="white" stroke="black" d="M192.5,-411.5C192.5,-411.5 262.5,-411.5 262.5,-411.5 268.5,-411.5 274.5,-417.5 274.5,-423.5 274.5,-423.5 274.5,-501.5 274.5,-501.5 274.5,-507.5 268.5,-513.5 262.5,-513.5 262.5,-513.5 192.5,-513.5 192.5,-513.5 186.5,-513.5 180.5,-507.5 180.5,-501.5 180.5,-501.5 180.5,-423.5 180.5,-423.5 180.5,-417.5 186.5,-411.5 192.5,-411.5"/>
<text text-anchor="middle" x="227.5" y="-501.3" font-family="Times New Roman,serif" font-size="14.00">sol bag 2</text>
<polyline fill="none" stroke="black" points="180.5,-496.5 274.5,-496.5 "/>
<text text-anchor="middle" x="195.5" y="-484.3" font-family="Times New Roman,serif" font-size="14.00">v1</text>
<polyline fill="none" stroke="black" points="180.5,-479.5 210.5,-479.5 "/>
<text text-anchor="middle" x="195.5" y="-467.3" font-family="Times New Roman,serif" font-size="14.00">1</text>
<polyline fill="none" stroke="black" points="180.5,-462.5 210.5,-462.5 "/>
<text text-anchor="middle" x="195.5" y="-450.3" font-family="Times New Roman,serif" font-size="14.00">1</text>
<polyline fill="none" stroke="black" points="180.5,-445.5 210.5,-445.5 "/>
<text text-anchor="middle" x="195.5" y="-433.3" font-family="Times New Roman,serif" font-size="14.00">0</text>
<polyline fill="none" stroke="black" points="210.5,-428.5 210.5,-496.5 "/>
<text text-anchor="middle" x="225.5" y="-484.3" font-family="Times New Roman,serif" font-size="14.00">v2</text>
<polyline fill="none" stroke="black" points="210.5,-479.5 240.5,-479.5 "/>
<text text-anchor="middle" x="225.5" y="-467.3" font-family="Times New Roman,serif" font-size="14.00">1</text>
<polyline fill="none" stroke="black" points="210.5,-462.5 240.5,-462.5 "/>
<text text-anchor="middle" x="225.5" y="-450.3" font-family="Times New Roman,serif" font-size="14.00">0</text>
<polyline fill="none" stroke="black" points="210.5,-445.5 240.5,-445.5 "/>
<text text-anchor="middle" x="225.5" y="-433.3" font-family="Times New Roman,serif" font-size="14.00">1</text>
<polyline fill="none" stroke="black" points="240.5,-428.5 240.5,-496.5 "/>
<text text-anchor="middle" x="257.5" y="-484.3" font-family="Times New Roman,serif" font-size="14.00">mc</text>
<polyline fill="none" stroke="black" points="240.5,-479.5 274.5,-479.5 "/>
<text text-anchor="middle" x="257.5" y="-467.3" font-family="Times New Roman,serif" font-size="14.00">7</text>
<polyline fill="none" stroke="black" points="240.5,-462.5 274.5,-462.5 "/>
<text text-anchor="middle" x="257.5" y="-450.3" font-family="Times New Roman,serif" font-size="14.00">1</text>
<polyline fill="none" stroke="black" points="240.5,-445.5 274.5,-445.5 "/>
<text text-anchor="middle" x="257.5" y="-433.3" font-family="Times New Roman,serif" font-size="14.00">7</text>
<polyline fill="none" stroke="black" points="180.5,-428.5 274.5,-428.5 "/>
<text text-anchor="middle" x="227.5" y="-416.3" font-family="Times New Roman,serif" font-size="14.00">sum: 15</text>
</g>
<!-- bag 2&#45;&gt;sol2 -->
<g id="edge8" class="edge"><title>bag 2&#45;&gt;sol2</title>
<path fill="none" stroke="black" d="M180.868,-346.502C187.372,-362.541 195.577,-382.774 203.283,-401.78"/>
<polygon fill="black" stroke="black" points="200.135,-403.33 207.136,-411.282 206.622,-400.699 200.135,-403.33"/>
</g>
<!-- bag 3 -->
<g id="node3" class="node"><title>bag 3</title>
<path fill="white" stroke="black" d="M91,-190.5C91,-190.5 12,-190.5 12,-190.5 6,-190.5 0,-184.5 0,-178.5 0,-178.5 0,-139.5 0,-139.5 0,-133.5 6,-127.5 12,-127.5 12,-127.5 91,-127.5 91,-127.5 97,-127.5 103,-133.5 103,-139.5 103,-139.5 103,-178.5 103,-178.5 103,-184.5 97,-190.5 91,-190.5"/>
<polygon fill="white" stroke="none" points="8.5,-170 8.5,-189 95.5,-189 95.5,-170 8.5,-170"/>
<text text-anchor="start" x="36.5" y="-175.8" font-family="Times New Roman,serif" font-size="14.00">bag 3</text>
<text text-anchor="start" x="29.5" y="-152.8" font-family="Times New Roman,serif" font-size="14.00">[2, 4, 8]</text>
<text text-anchor="start" x="10.5" y="-133.8" font-family="Times New Roman,serif" font-size="14.00">dtime=0.0009s</text>
</g>
<!-- bag 3&#45;&gt;bag 2 -->
<g id="edge2" class="edge"><title>bag 3&#45;&gt;bag 2</title>
<path fill="none" stroke="black" d="M74.8955,-190.794C93.3088,-215.03 119.085,-248.958 138.928,-275.076"/>
<polygon fill="black" stroke="black" points="136.309,-277.414 145.145,-283.259 141.882,-273.179 136.309,-277.414"/>
</g>
<!-- sol3 -->
<g id="node8" class="node"><title>sol3</title>
<path fill="white" stroke="black" d="M16.5,-255.5C16.5,-255.5 86.5,-255.5 86.5,-255.5 92.5,-255.5 98.5,-261.5 98.5,-267.5 98.5,-267.5 98.5,-362.5 98.5,-362.5 98.5,-368.5 92.5,-374.5 86.5,-374.5 86.5,-374.5 16.5,-374.5 16.5,-374.5 10.5,-374.5 4.5,-368.5 4.5,-362.5 4.5,-362.5 4.5,-267.5 4.5,-267.5 4.5,-261.5 10.5,-255.5 16.5,-255.5"/>
<text text-anchor="middle" x="51.5" y="-362.3" font-family="Times New Roman,serif" font-size="14.00">sol bag 3</text>
<polyline fill="none" stroke="black" points="4.5,-357.5 98.5,-357.5 "/>
<text text-anchor="middle" x="19.5" y="-345.3" font-family="Times New Roman,serif" font-size="14.00">v2</text>
<polyline fill="none" stroke="black" points="4.5,-340.5 34.5,-340.5 "/>
<text text-anchor="middle" x="19.5" y="-328.3" font-family="Times New Roman,serif" font-size="14.00">1</text>
<polyline fill="none" stroke="black" points="4.5,-323.5 34.5,-323.5 "/>
<text text-anchor="middle" x="19.5" y="-311.3" font-family="Times New Roman,serif" font-size="14.00">0</text>
<polyline fill="none" stroke="black" points="4.5,-306.5 34.5,-306.5 "/>
<text text-anchor="middle" x="19.5" y="-294.3" font-family="Times New Roman,serif" font-size="14.00">1</text>
<polyline fill="none" stroke="black" points="4.5,-289.5 34.5,-289.5 "/>
<text text-anchor="middle" x="19.5" y="-277.3" font-family="Times New Roman,serif" font-size="14.00">0</text>
<polyline fill="none" stroke="black" points="34.5,-272.5 34.5,-357.5 "/>
<text text-anchor="middle" x="49.5" y="-345.3" font-family="Times New Roman,serif" font-size="14.00">v4</text>
<polyline fill="none" stroke="black" points="34.5,-340.5 64.5,-340.5 "/>
<text text-anchor="middle" x="49.5" y="-328.3" font-family="Times New Roman,serif" font-size="14.00">1</text>
<polyline fill="none" stroke="black" points="34.5,-323.5 64.5,-323.5 "/>
<text text-anchor="middle" x="49.5" y="-311.3" font-family="Times New Roman,serif" font-size="14.00">0</text>
<polyline fill="none" stroke="black" points="34.5,-306.5 64.5,-306.5 "/>
<text text-anchor="middle" x="49.5" y="-294.3" font-family="Times New Roman,serif" font-size="14.00">0</text>
<polyline fill="none" stroke="black" points="34.5,-289.5 64.5,-289.5 "/>
<text text-anchor="middle" x="49.5" y="-277.3" font-family="Times New Roman,serif" font-size="14.00">1</text>
<polyline fill="none" stroke="black" points="64.5,-272.5 64.5,-357.5 "/>
<text text-anchor="middle" x="81.5" y="-345.3" font-family="Times New Roman,serif" font-size="14.00">mc</text>
<polyline fill="none" stroke="black" points="64.5,-340.5 98.5,-340.5 "/>
<text text-anchor="middle" x="81.5" y="-328.3" font-family="Times New Roman,serif" font-size="14.00">3</text>
<polyline fill="none" stroke="black" points="64.5,-323.5 98.5,-323.5 "/>
<text text-anchor="middle" x="81.5" y="-311.3" font-family="Times New Roman,serif" font-size="14.00">1</text>
<polyline fill="none" stroke="black" points="64.5,-306.5 98.5,-306.5 "/>
<text text-anchor="middle" x="81.5" y="-294.3" font-family="Times New Roman,serif" font-size="14.00">2</text>
<polyline fill="none" stroke="black" points="64.5,-289.5 98.5,-289.5 "/>
<text text-anchor="middle" x="81.5" y="-277.3" font-family="Times New Roman,serif" font-size="14.00">2</text>
<polyline fill="none" stroke="black" points="4.5,-272.5 98.5,-272.5 "/>
<text text-anchor="middle" x="51.5" y="-260.3" font-family="Times New Roman,serif" font-size="14.00">sum: 8</text>
</g>
<!-- bag 3&#45;&gt;sol3 -->
<g id="edge7" class="edge"><title>bag 3&#45;&gt;sol3</title>
<path fill="none" stroke="black" d="M51.5,-190.794C51.5,-206.419 51.5,-226.072 51.5,-245.063"/>
<polygon fill="black" stroke="black" points="48.0001,-245.211 51.5,-255.211 55.0001,-245.211 48.0001,-245.211"/>
</g>
<!-- bag 4 -->
<g id="node4" class="node"><title>bag 4</title>
<path fill="white" stroke="black" d="M325,-190.5C325,-190.5 246,-190.5 246,-190.5 240,-190.5 234,-184.5 234,-178.5 234,-178.5 234,-139.5 234,-139.5 234,-133.5 240,-127.5 246,-127.5 246,-127.5 325,-127.5 325,-127.5 331,-127.5 337,-133.5 337,-139.5 337,-139.5 337,-178.5 337,-178.5 337,-184.5 331,-190.5 325,-190.5"/>
<polygon fill="white" stroke="none" points="242.5,-170 242.5,-189 329.5,-189 329.5,-170 242.5,-170"/>
<text text-anchor="start" x="270.5" y="-175.8" font-family="Times New Roman,serif" font-size="14.00">bag 4</text>
<text text-anchor="start" x="263.5" y="-152.8" font-family="Times New Roman,serif" font-size="14.00">[1, 4, 7]</text>
<text text-anchor="start" x="244.5" y="-133.8" font-family="Times New Roman,serif" font-size="14.00">dtime=0.0018s</text>
</g>
<!-- bag 4&#45;&gt;bag 2 -->
<g id="edge3" class="edge"><title>bag 4&#45;&gt;bag 2</title>
<path fill="none" stroke="black" d="M262.105,-190.794C243.691,-215.03 217.915,-248.958 198.072,-275.076"/>
<polygon fill="black" stroke="black" points="195.118,-273.179 191.855,-283.259 200.691,-277.414 195.118,-273.179"/>
</g>
<!-- sol4 -->
<g id="node7" class="node"><title>sol4</title>
<path fill="white" stroke="black" d="M250.5,-255.5C250.5,-255.5 320.5,-255.5 320.5,-255.5 326.5,-255.5 332.5,-261.5 332.5,-267.5 332.5,-267.5 332.5,-362.5 332.5,-362.5 332.5,-368.5 326.5,-374.5 320.5,-374.5 320.5,-374.5 250.5,-374.5 250.5,-374.5 244.5,-374.5 238.5,-368.5 238.5,-362.5 238.5,-362.5 238.5,-267.5 238.5,-267.5 238.5,-261.5 244.5,-255.5 250.5,-255.5"/>
<text text-anchor="middle" x="285.5" y="-362.3" font-family="Times New Roman,serif" font-size="14.00">sol bag 4</text>
<polyline fill="none" stroke="black" points="238.5,-357.5 332.5,-357.5 "/>
<text text-anchor="middle" x="253.5" y="-345.3" font-family="Times New Roman,serif" font-size="14.00">v1</text>
<polyline fill="none" stroke="black" points="238.5,-340.5 268.5,-340.5 "/>
<text text-anchor="middle" x="253.5" y="-328.3" font-family="Times New Roman,serif" font-size="14.00">0</text>
<polyline fill="none" stroke="black" points="238.5,-323.5 268.5,-323.5 "/>
<text text-anchor="middle" x="253.5" y="-311.3" font-family="Times New Roman,serif" font-size="14.00">1</text>
<polyline fill="none" stroke="black" points="238.5,-306.5 268.5,-306.5 "/>
<text text-anchor="middle" x="253.5" y="-294.3" font-family="Times New Roman,serif" font-size="14.00">1</text>
<polyline fill="none" stroke="black" points="238.5,-289.5 268.5,-289.5 "/>
<text text-anchor="middle" x="253.5" y="-277.3" font-family="Times New Roman,serif" font-size="14.00">0</text>
<polyline fill="none" stroke="black" points="268.5,-272.5 268.5,-357.5 "/>
<text text-anchor="middle" x="283.5" y="-345.3" font-family="Times New Roman,serif" font-size="14.00">v4</text>
<polyline fill="none" stroke="black" points="268.5,-340.5 298.5,-340.5 "/>
<text text-anchor="middle" x="283.5" y="-328.3" font-family="Times New Roman,serif" font-size="14.00">0</text>
<polyline fill="none" stroke="black" points="268.5,-323.5 298.5,-323.5 "/>
<text text-anchor="middle" x="283.5" y="-311.3" font-family="Times New Roman,serif" font-size="14.00">1</text>
<polyline fill="none" stroke="black" points="268.5,-306.5 298.5,-306.5 "/>
<text text-anchor="middle" x="283.5" y="-294.3" font-family="Times New Roman,serif" font-size="14.00">0</text>
<polyline fill="none" stroke="black" points="268.5,-289.5 298.5,-289.5 "/>
<text text-anchor="middle" x="283.5" y="-277.3" font-family="Times New Roman,serif" font-size="14.00">1</text>
<polyline fill="none" stroke="black" points="298.5,-272.5 298.5,-357.5 "/>
<text text-anchor="middle" x="315.5" y="-345.3" font-family="Times New Roman,serif" font-size="14.00">mc</text>
<polyline fill="none" stroke="black" points="298.5,-340.5 332.5,-340.5 "/>
<text text-anchor="middle" x="315.5" y="-328.3" font-family="Times New Roman,serif" font-size="14.00">2</text>
<polyline fill="none" stroke="black" points="298.5,-323.5 332.5,-323.5 "/>
<text text-anchor="middle" x="315.5" y="-311.3" font-family="Times New Roman,serif" font-size="14.00">1</text>
<polyline fill="none" stroke="black" points="298.5,-306.5 332.5,-306.5 "/>
<text text-anchor="middle" x="315.5" y="-294.3" font-family="Times New Roman,serif" font-size="14.00">1</text>
<polyline fill="none" stroke="black" points="298.5,-289.5 332.5,-289.5 "/>
<text text-anchor="middle" x="315.5" y="-277.3" font-family="Times New Roman,serif" font-size="14.00">1</text>
<polyline fill="none" stroke="black" points="238.5,-272.5 332.5,-272.5 "/>
<text text-anchor="middle" x="285.5" y="-260.3" font-family="Times New Roman,serif" font-size="14.00">sum: 5</text>
</g>
<!-- bag 4&#45;&gt;sol4 -->
<g id="edge6" class="edge"><title>bag 4&#45;&gt;sol4</title>
<path fill="none" stroke="black" d="M285.5,-190.794C285.5,-206.419 285.5,-226.072 285.5,-245.063"/>
<polygon fill="black" stroke="black" points="282,-245.211 285.5,-255.211 289,-245.211 282,-245.211"/>
</g>
<!-- bag 5 -->
<g id="node5" class="node"><title>bag 5</title>
<path fill="white" stroke="black" d="M149,-63C149,-63 70,-63 70,-63 64,-63 58,-57 58,-51 58,-51 58,-12 58,-12 58,-6 64,-0 70,-0 70,-0 149,-0 149,-0 155,-0 161,-6 161,-12 161,-12 161,-51 161,-51 161,-57 155,-63 149,-63"/>
<polygon fill="white" stroke="none" points="66.5,-42.5 66.5,-61.5 153.5,-61.5 153.5,-42.5 66.5,-42.5"/>
<text text-anchor="start" x="94.5" y="-48.3" font-family="Times New Roman,serif" font-size="14.00">bag 5</text>
<text text-anchor="start" x="87.5" y="-25.3" font-family="Times New Roman,serif" font-size="14.00">[2, 3, 8]</text>
<text text-anchor="start" x="68.5" y="-6.3" font-family="Times New Roman,serif" font-size="14.00">dtime=0.0027s</text>
</g>
<!-- bag 5&#45;&gt;bag 3 -->
<g id="edge4" class="edge"><title>bag 5&#45;&gt;bag 3</title>
<path fill="none" stroke="black" d="M95.3116,-63.2008C87.7281,-79.6099 78.2974,-100.016 70.1304,-117.688"/>
<polygon fill="black" stroke="black" points="66.761,-116.635 65.7429,-127.181 73.1153,-119.572 66.761,-116.635"/>
</g>
<!-- sol5 -->
<g id="node6" class="node"><title>sol5</title>
<path fill="white" stroke="black" d="M133.5,-99.5C133.5,-99.5 203.5,-99.5 203.5,-99.5 209.5,-99.5 215.5,-105.5 215.5,-111.5 215.5,-111.5 215.5,-206.5 215.5,-206.5 215.5,-212.5 209.5,-218.5 203.5,-218.5 203.5,-218.5 133.5,-218.5 133.5,-218.5 127.5,-218.5 121.5,-212.5 121.5,-206.5 121.5,-206.5 121.5,-111.5 121.5,-111.5 121.5,-105.5 127.5,-99.5 133.5,-99.5"/>
<text text-anchor="middle" x="168.5" y="-206.3" font-family="Times New Roman,serif" font-size="14.00">sol bag 5</text>
<polyline fill="none" stroke="black" points="121.5,-201.5 215.5,-201.5 "/>
<text text-anchor="middle" x="136.5" y="-189.3" font-family="Times New Roman,serif" font-size="14.00">v2</text>
<polyline fill="none" stroke="black" points="121.5,-184.5 151.5,-184.5 "/>
<text text-anchor="middle" x="136.5" y="-172.3" font-family="Times New Roman,serif" font-size="14.00">0</text>
<polyline fill="none" stroke="black" points="121.5,-167.5 151.5,-167.5 "/>
<text text-anchor="middle" x="136.5" y="-155.3" font-family="Times New Roman,serif" font-size="14.00">1</text>
<polyline fill="none" stroke="black" points="121.5,-150.5 151.5,-150.5 "/>
<text text-anchor="middle" x="136.5" y="-138.3" font-family="Times New Roman,serif" font-size="14.00">0</text>
<polyline fill="none" stroke="black" points="121.5,-133.5 151.5,-133.5 "/>
<text text-anchor="middle" x="136.5" y="-121.3" font-family="Times New Roman,serif" font-size="14.00">1</text>
<polyline fill="none" stroke="black" points="151.5,-116.5 151.5,-201.5 "/>
<text text-anchor="middle" x="166.5" y="-189.3" font-family="Times New Roman,serif" font-size="14.00">v8</text>
<polyline fill="none" stroke="black" points="151.5,-184.5 181.5,-184.5 "/>
<text text-anchor="middle" x="166.5" y="-172.3" font-family="Times New Roman,serif" font-size="14.00">0</text>
<polyline fill="none" stroke="black" points="151.5,-167.5 181.5,-167.5 "/>
<text text-anchor="middle" x="166.5" y="-155.3" font-family="Times New Roman,serif" font-size="14.00">1</text>
<polyline fill="none" stroke="black" points="151.5,-150.5 181.5,-150.5 "/>
<text text-anchor="middle" x="166.5" y="-138.3" font-family="Times New Roman,serif" font-size="14.00">1</text>
<polyline fill="none" stroke="black" points="151.5,-133.5 181.5,-133.5 "/>
<text text-anchor="middle" x="166.5" y="-121.3" font-family="Times New Roman,serif" font-size="14.00">0</text>
<polyline fill="none" stroke="black" points="181.5,-116.5 181.5,-201.5 "/>
<text text-anchor="middle" x="198.5" y="-189.3" font-family="Times New Roman,serif" font-size="14.00">mc</text>
<polyline fill="none" stroke="black" points="181.5,-184.5 215.5,-184.5 "/>
<text text-anchor="middle" x="198.5" y="-172.3" font-family="Times New Roman,serif" font-size="14.00">1</text>
<polyline fill="none" stroke="black" points="181.5,-167.5 215.5,-167.5 "/>
<text text-anchor="middle" x="198.5" y="-155.3" font-family="Times New Roman,serif" font-size="14.00">1</text>
<polyline fill="none" stroke="black" points="181.5,-150.5 215.5,-150.5 "/>
<text text-anchor="middle" x="198.5" y="-138.3" font-family="Times New Roman,serif" font-size="14.00">1</text>
<polyline fill="none" stroke="black" points="181.5,-133.5 215.5,-133.5 "/>
<text text-anchor="middle" x="198.5" y="-121.3" font-family="Times New Roman,serif" font-size="14.00">2</text>
<polyline fill="none" stroke="black" points="121.5,-116.5 215.5,-116.5 "/>
<text text-anchor="middle" x="168.5" y="-104.3" font-family="Times New Roman,serif" font-size="14.00">sum: 5</text>
</g>
<!-- bag 5&#45;&gt;sol5 -->
<g id="edge5" class="edge"><title>bag 5&#45;&gt;sol5</title>
<path fill="none" stroke="black" d="M123.933,-63.2008C127.771,-71.3645 132.074,-80.5175 136.452,-89.831"/>
<polygon fill="black" stroke="black" points="133.42,-91.6065 140.842,-99.1672 139.754,-88.6283 133.42,-91.6065"/>
</g>
</g>
</svg>
