<?xml version="1.0" encoding="UTF-8" standalone="no"?>
<!DOCTYPE svg PUBLIC "-//W3C//DTD SVG 1.1//EN"
 "http://www.w3.org/Graphics/SVG/1.1/DTD/svg11.dtd">
<!-- Generated by graphviz version 2.38.0 (20140413.2041)
 -->
<!-- Title: Tree&#45;Decomposition Pages: 1 -->
<svg width="345pt" height="678pt"
 viewBox="0.00 0.00 345.00 678.00" xmlns="http://www.w3.org/2000/svg" xmlns:xlink="http://www.w3.org/1999/xlink">
<g id="graph0" class="graph" transform="scale(1 1) rotate(0) translate(4 674)">
<title>Tree&#45;Decomposition</title>
<polygon fill="white" stroke="none" points="-4,4 -4,-674 341,-674 341,4 -4,4"/>
<!-- bag 1 -->
<g id="node1" class="node"><title>bag 1</title>
<path fill="white" stroke="black" d="M150,-494C150,-494 71,-494 71,-494 65,-494 59,-488 59,-482 59,-482 59,-443 59,-443 59,-437 65,-431 71,-431 71,-431 150,-431 150,-431 156,-431 162,-437 162,-443 162,-443 162,-482 162,-482 162,-488 156,-494 150,-494"/>
<polygon fill="white" stroke="none" points="67.5,-473.5 67.5,-492.5 154.5,-492.5 154.5,-473.5 67.5,-473.5"/>
<text text-anchor="start" x="95.5" y="-479.3" font-family="Times New Roman,serif" font-size="14.00">bag 1</text>
<text text-anchor="start" x="88.5" y="-456.3" font-family="Times New Roman,serif" font-size="14.00">[1, 2, 5]</text>
<text text-anchor="start" x="69.5" y="-437.3" font-family="Times New Roman,serif" font-size="14.00">dtime=0.0007s</text>
</g>
<!-- sol1 -->
<!-- bag 1&#45;&gt;sol1 -->
<!-- bag 2 -->
<g id="node2" class="node"><title>bag 2</title>
<path fill="white" stroke="black" d="M208,-346.5C208,-346.5 129,-346.5 129,-346.5 123,-346.5 117,-340.5 117,-334.5 117,-334.5 117,-295.5 117,-295.5 117,-289.5 123,-283.5 129,-283.5 129,-283.5 208,-283.5 208,-283.5 214,-283.5 220,-289.5 220,-295.5 220,-295.5 220,-334.5 220,-334.5 220,-340.5 214,-346.5 208,-346.5"/>
<polygon fill="white" stroke="none" points="125.5,-326 125.5,-345 212.5,-345 212.5,-326 125.5,-326"/>
<text text-anchor="start" x="153.5" y="-331.8" font-family="Times New Roman,serif" font-size="14.00">bag 2</text>
<text text-anchor="start" x="139.5" y="-308.8" font-family="Times New Roman,serif" font-size="14.00">[1, 2, 4, 6]</text>
<text text-anchor="start" x="127.5" y="-289.8" font-family="Times New Roman,serif" font-size="14.00">dtime=0.0017s</text>
</g>
<!-- bag 2&#45;&gt;bag 1 -->
<g id="edge1" class="edge"><title>bag 2&#45;&gt;bag 1</title>
<path fill="none" stroke="black" d="M156.341,-346.502C147.7,-368.181 136.004,-397.519 126.59,-421.137"/>
<polygon fill="black" stroke="black" points="123.294,-419.952 122.842,-430.537 129.797,-422.544 123.294,-419.952"/>
</g>
<!-- sol2 -->
<!-- bag 2&#45;&gt;sol2 -->
<!-- bag 3 -->
<g id="node3" class="node"><title>bag 3</title>
<path fill="white" stroke="black" d="M91,-190.5C91,-190.5 12,-190.5 12,-190.5 6,-190.5 0,-184.5 0,-178.5 0,-178.5 0,-139.5 0,-139.5 0,-133.5 6,-127.5 12,-127.5 12,-127.5 91,-127.5 91,-127.5 97,-127.5 103,-133.5 103,-139.5 103,-139.5 103,-178.5 103,-178.5 103,-184.5 97,-190.5 91,-190.5"/>
<polygon fill="white" stroke="none" points="8.5,-170 8.5,-189 95.5,-189 95.5,-170 8.5,-170"/>
<text text-anchor="start" x="36.5" y="-175.8" font-family="Times New Roman,serif" font-size="14.00">bag 3</text>
<text text-anchor="start" x="29.5" y="-152.8" font-family="Times New Roman,serif" font-size="14.00">[2, 4, 8]</text>
<text text-anchor="start" x="10.5" y="-133.8" font-family="Times New Roman,serif" font-size="14.00">dtime=0.0009s</text>
</g>
<!-- bag 3&#45;&gt;bag 2 -->
<g id="edge2" class="edge"><title>bag 3&#45;&gt;bag 2</title>
<path fill="none" stroke="black" d="M74.8955,-190.794C93.3088,-215.03 119.085,-248.958 138.928,-275.076"/>
<polygon fill="black" stroke="black" points="136.309,-277.414 145.145,-283.259 141.882,-273.179 136.309,-277.414"/>
</g>
<!-- sol3 -->
<!-- bag 3&#45;&gt;sol3 -->
<!-- bag 4 -->
<g id="node4" class="node"><title>bag 4</title>
<path fill="white" stroke="black" d="M325,-190.5C325,-190.5 246,-190.5 246,-190.5 240,-190.5 234,-184.5 234,-178.5 234,-178.5 234,-139.5 234,-139.5 234,-133.5 240,-127.5 246,-127.5 246,-127.5 325,-127.5 325,-127.5 331,-127.5 337,-133.5 337,-139.5 337,-139.5 337,-178.5 337,-178.5 337,-184.5 331,-190.5 325,-190.5"/>
<polygon fill="white" stroke="none" points="242.5,-170 242.5,-189 329.5,-189 329.5,-170 242.5,-170"/>
<text text-anchor="start" x="270.5" y="-175.8" font-family="Times New Roman,serif" font-size="14.00">bag 4</text>
<text text-anchor="start" x="263.5" y="-152.8" font-family="Times New Roman,serif" font-size="14.00">[1, 4, 7]</text>
<text text-anchor="start" x="244.5" y="-133.8" font-family="Times New Roman,serif" font-size="14.00">dtime=0.0018s</text>
</g>
<!-- bag 4&#45;&gt;bag 2 -->
<g id="edge3" class="edge"><title>bag 4&#45;&gt;bag 2</title>
<path fill="none" stroke="black" d="M262.105,-190.794C243.691,-215.03 217.915,-248.958 198.072,-275.076"/>
<polygon fill="black" stroke="black" points="195.118,-273.179 191.855,-283.259 200.691,-277.414 195.118,-273.179"/>
</g>
<!-- sol4 -->
<!-- bag 4&#45;&gt;sol4 -->
<!-- bag 5 -->
<g id="node5" class="node"><title>bag 5</title>
<path fill="yellow" stroke="black" stroke-width="2.5" d="M149,-63C149,-63 70,-63 70,-63 64,-63 58,-57 58,-51 58,-51 58,-12 58,-12 58,-6 64,-0 70,-0 70,-0 149,-0 149,-0 155,-0 161,-6 161,-12 161,-12 161,-51 161,-51 161,-57 155,-63 149,-63"/>
<polygon fill="white" stroke="none" points="66.5,-42.5 66.5,-61.5 153.5,-61.5 153.5,-42.5 66.5,-42.5"/>
<text text-anchor="start" x="94.5" y="-48.3" font-family="Times New Roman,serif" font-size="14.00">bag 5</text>
<text text-anchor="start" x="87.5" y="-25.3" font-family="Times New Roman,serif" font-size="14.00">[2, 3, 8]</text>
<text text-anchor="start" x="68.5" y="-6.3" font-family="Times New Roman,serif" font-size="14.00">dtime=0.0027s</text>
</g>
<!-- bag 5&#45;&gt;bag 3 -->
<g id="edge4" class="edge"><title>bag 5&#45;&gt;bag 3</title>
<path fill="none" stroke="black" d="M95.3116,-63.2008C87.7281,-79.6099 78.2974,-100.016 70.1304,-117.688"/>
<polygon fill="black" stroke="black" points="66.761,-116.635 65.7429,-127.181 73.1153,-119.572 66.761,-116.635"/>
</g>
<!-- sol5 -->
<g id="node6" class="node"><title>sol5</title>
<path fill="yellow" stroke="black" stroke-width="2.5" d="M133.5,-99.5C133.5,-99.5 203.5,-99.5 203.5,-99.5 209.5,-99.5 215.5,-105.5 215.5,-111.5 215.5,-111.5 215.5,-206.5 215.5,-206.5 215.5,-212.5 209.5,-218.5 203.5,-218.5 203.5,-218.5 133.5,-218.5 133.5,-218.5 127.5,-218.5 121.5,-212.5 121.5,-206.5 121.5,-206.5 121.5,-111.5 121.5,-111.5 121.5,-105.5 127.5,-99.5 133.5,-99.5"/>
<text text-anchor="middle" x="168.5" y="-206.3" font-family="Times New Roman,serif" font-size="14.00">sol bag 5</text>
<polyline fill="none" stroke="black" stroke-width="2.5" points="121.5,-201.5 215.5,-201.5 "/>
<text text-anchor="middle" x="136.5" y="-189.3" font-family="Times New Roman,serif" font-size="14.00">v2</text>
<polyline fill="none" stroke="black" stroke-width="2.5" points="121.5,-184.5 151.5,-184.5 "/>
<text text-anchor="middle" x="136.5" y="-172.3" font-family="Times New Roman,serif" font-size="14.00">0</text>
<polyline fill="none" stroke="black" stroke-width="2.5" points="121.5,-167.5 151.5,-167.5 "/>
<text text-anchor="middle" x="136.5" y="-155.3" font-family="Times New Roman,serif" font-size="14.00">1</text>
<polyline fill="none" stroke="black" stroke-width="2.5" points="121.5,-150.5 151.5,-150.5 "/>
<text text-anchor="middle" x="136.5" y="-138.3" font-family="Times New Roman,serif" font-size="14.00">0</text>
<polyline fill="none" stroke="black" stroke-width="2.5" points="121.5,-133.5 151.5,-133.5 "/>
<text text-anchor="middle" x="136.5" y="-121.3" font-family="Times New Roman,serif" font-size="14.00">1</text>
<polyline fill="none" stroke="black" stroke-width="2.5" points="151.5,-116.5 151.5,-201.5 "/>
<text text-anchor="middle" x="166.5" y="-189.3" font-family="Times New Roman,serif" font-size="14.00">v8</text>
<polyline fill="none" stroke="black" stroke-width="2.5" points="151.5,-184.5 181.5,-184.5 "/>
<text text-anchor="middle" x="166.5" y="-172.3" font-family="Times New Roman,serif" font-size="14.00">0</text>
<polyline fill="none" stroke="black" stroke-width="2.5" points="151.5,-167.5 181.5,-167.5 "/>
<text text-anchor="middle" x="166.5" y="-155.3" font-family="Times New Roman,serif" font-size="14.00">1</text>
<polyline fill="none" stroke="black" stroke-width="2.5" points="151.5,-150.5 181.5,-150.5 "/>
<text text-anchor="middle" x="166.5" y="-138.3" font-family="Times New Roman,serif" font-size="14.00">1</text>
<polyline fill="none" stroke="black" stroke-width="2.5" points="151.5,-133.5 181.5,-133.5 "/>
<text text-anchor="middle" x="166.5" y="-121.3" font-family="Times New Roman,serif" font-size="14.00">0</text>
<polyline fill="none" stroke="black" stroke-width="2.5" points="181.5,-116.5 181.5,-201.5 "/>
<text text-anchor="middle" x="198.5" y="-189.3" font-family="Times New Roman,serif" font-size="14.00">mc</text>
<polyline fill="none" stroke="black" stroke-width="2.5" points="181.5,-184.5 215.5,-184.5 "/>
<text text-anchor="middle" x="198.5" y="-172.3" font-family="Times New Roman,serif" font-size="14.00">1</text>
<polyline fill="none" stroke="black" stroke-width="2.5" points="181.5,-167.5 215.5,-167.5 "/>
<text text-anchor="middle" x="198.5" y="-155.3" font-family="Times New Roman,serif" font-size="14.00">1</text>
<polyline fill="none" stroke="black" stroke-width="2.5" points="181.5,-150.5 215.5,-150.5 "/>
<text text-anchor="middle" x="198.5" y="-138.3" font-family="Times New Roman,serif" font-size="14.00">1</text>
<polyline fill="none" stroke="black" stroke-width="2.5" points="181.5,-133.5 215.5,-133.5 "/>
<text text-anchor="middle" x="198.5" y="-121.3" font-family="Times New Roman,serif" font-size="14.00">2</text>
<polyline fill="none" stroke="black" stroke-width="2.5" points="121.5,-116.5 215.5,-116.5 "/>
<text text-anchor="middle" x="168.5" y="-104.3" font-family="Times New Roman,serif" font-size="14.00">sum: 5</text>
</g>
<!-- bag 5&#45;&gt;sol5 -->
<g id="edge5" class="edge"><title>bag 5&#45;&gt;sol5</title>
<path fill="none" stroke="black" d="M123.933,-63.2008C127.771,-71.3645 132.074,-80.5175 136.452,-89.831"/>
<polygon fill="black" stroke="black" points="133.42,-91.6065 140.842,-99.1672 139.754,-88.6283 133.42,-91.6065"/>
</g>
</g>
</svg>
