<?xml version="1.0" encoding="UTF-8" standalone="no"?>
<!DOCTYPE svg PUBLIC "-//W3C//DTD SVG 1.1//EN"
 "http://www.w3.org/Graphics/SVG/1.1/DTD/svg11.dtd">
<!-- Generated by graphviz version 2.41.20170921.1950 (20170921.1950)
 -->
<!-- Title: structs Pages: 1 -->
<svg width="698pt" height="1708pt"
 viewBox="0.00 0.00 697.50 1708.00" xmlns="http://www.w3.org/2000/svg" xmlns:xlink="http://www.w3.org/1999/xlink">
<g id="graph0" class="graph" transform="scale(1 1) rotate(0) translate(4 1704)">
<title>structs</title>
<polygon fill="white" stroke="transparent" points="-4,4 -4,-1704 693.5,-1704 693.5,4 -4,4"/>
<!-- bag 0 -->
<g id="node1" class="node">
<title>bag 0</title>
<path fill="white" stroke="black" d="M166.5,-992C166.5,-992 66.5,-992 66.5,-992 60.5,-992 54.5,-986 54.5,-980 54.5,-980 54.5,-968 54.5,-968 54.5,-962 60.5,-956 66.5,-956 66.5,-956 166.5,-956 166.5,-956 172.5,-956 178.5,-962 178.5,-968 178.5,-968 178.5,-980 178.5,-980 178.5,-986 172.5,-992 166.5,-992"/>
<polygon fill="white" stroke="transparent" points="62.5,-964 62.5,-983 97.5,-983 97.5,-964 62.5,-964"/>
<text text-anchor="start" x="64.5" y="-969.8" font-family="Times New Roman,serif" font-size="14.00">bag 0</text>
<text text-anchor="start" x="103.5" y="-969.8" font-family="Times New Roman,serif" font-size="14.00">[2 3 8 9 10]</text>
</g>
<!-- sol0 -->
<!-- bag 0&#45;&gt;sol0 -->
<!-- bag 1 -->
<g id="node2" class="node">
<title>bag 1</title>
<path fill="white" stroke="black" d="M248.5,-700C248.5,-700 148.5,-700 148.5,-700 142.5,-700 136.5,-694 136.5,-688 136.5,-688 136.5,-676 136.5,-676 136.5,-670 142.5,-664 148.5,-664 148.5,-664 248.5,-664 248.5,-664 254.5,-664 260.5,-670 260.5,-676 260.5,-676 260.5,-688 260.5,-688 260.5,-694 254.5,-700 248.5,-700"/>
<polygon fill="white" stroke="transparent" points="144.5,-672 144.5,-691 179.5,-691 179.5,-672 144.5,-672"/>
<text text-anchor="start" x="146.5" y="-677.8" font-family="Times New Roman,serif" font-size="14.00">bag 1</text>
<text text-anchor="start" x="185.5" y="-677.8" font-family="Times New Roman,serif" font-size="14.00">[1 2 4 9 10]</text>
</g>
<!-- bag 1&#45;&gt;bag 0 -->
<g id="edge1" class="edge">
<title>bag 1&#45;&gt;bag 0</title>
<path fill="none" stroke="black" d="M193.62,-700.27C179.86,-748.93 140.7,-887.4 124.1,-946.14"/>
<polygon fill="black" stroke="black" points="120.71,-945.24 121.36,-955.82 127.45,-947.15 120.71,-945.24"/>
</g>
<!-- sol1 -->
<!-- bag 1&#45;&gt;sol1 -->
<!-- bag 2 -->
<g id="node3" class="node">
<title>bag 2</title>
<path fill="white" stroke="black" d="M339.5,-408C339.5,-408 239.5,-408 239.5,-408 233.5,-408 227.5,-402 227.5,-396 227.5,-396 227.5,-384 227.5,-384 227.5,-378 233.5,-372 239.5,-372 239.5,-372 339.5,-372 339.5,-372 345.5,-372 351.5,-378 351.5,-384 351.5,-384 351.5,-396 351.5,-396 351.5,-402 345.5,-408 339.5,-408"/>
<polygon fill="white" stroke="transparent" points="235.5,-380 235.5,-399 270.5,-399 270.5,-380 235.5,-380"/>
<text text-anchor="start" x="237.5" y="-385.8" font-family="Times New Roman,serif" font-size="14.00">bag 2</text>
<text text-anchor="start" x="276.5" y="-385.8" font-family="Times New Roman,serif" font-size="14.00">[1 4 5 9 10]</text>
</g>
<!-- bag 2&#45;&gt;bag 1 -->
<g id="edge2" class="edge">
<title>bag 2&#45;&gt;bag 1</title>
<path fill="none" stroke="black" d="M284.08,-408.27C268.81,-456.93 225.36,-595.4 206.93,-654.14"/>
<polygon fill="black" stroke="black" points="203.55,-653.23 203.89,-663.82 210.23,-655.32 203.55,-653.23"/>
</g>
<!-- sol2 -->
<!-- bag 2&#45;&gt;sol2 -->
<!-- bag 3 -->
<g id="node4" class="node">
<title>bag 3</title>
<path fill="white" stroke="black" d="M387,-36C387,-36 336,-36 336,-36 330,-36 324,-30 324,-24 324,-24 324,-12 324,-12 324,-6 330,0 336,0 336,0 387,0 387,0 393,0 399,-6 399,-12 399,-12 399,-24 399,-24 399,-30 393,-36 387,-36"/>
<polygon fill="white" stroke="transparent" points="332.5,-8 332.5,-27 367.5,-27 367.5,-8 332.5,-8"/>
<text text-anchor="start" x="334.5" y="-13.8" font-family="Times New Roman,serif" font-size="14.00">bag 3</text>
<text text-anchor="start" x="373.5" y="-13.8" font-family="Times New Roman,serif" font-size="14.00">[6]</text>
</g>
<!-- bag 3&#45;&gt;bag 2 -->
<!-- sol3 -->
<g id="node6" class="node">
<title>sol3</title>
<path fill="white" stroke="black" d="M320,-132C320,-132 369,-132 369,-132 375,-132 381,-138 381,-144 381,-144 381,-188 381,-188 381,-194 375,-200 369,-200 369,-200 320,-200 320,-200 314,-200 308,-194 308,-188 308,-188 308,-144 308,-144 308,-138 314,-132 320,-132"/>
<text text-anchor="middle" x="344.5" y="-187.8" font-family="Times New Roman,serif" font-size="14.00">sol bag 3</text>
<polyline fill="none" stroke="black" points="308,-183 381,-183 "/>
<text text-anchor="middle" x="321.5" y="-170.8" font-family="Times New Roman,serif" font-size="14.00">id</text>
<polyline fill="none" stroke="black" points="308,-166 335,-166 "/>
<text text-anchor="middle" x="321.5" y="-153.8" font-family="Times New Roman,serif" font-size="14.00">0</text>
<polyline fill="none" stroke="black" points="335,-149 335,-183 "/>
<text text-anchor="middle" x="358" y="-170.8" font-family="Times New Roman,serif" font-size="14.00">n Sol</text>
<polyline fill="none" stroke="black" points="335,-166 381,-166 "/>
<text text-anchor="middle" x="358" y="-153.8" font-family="Times New Roman,serif" font-size="14.00">2</text>
<polyline fill="none" stroke="black" points="308,-149 381,-149 "/>
<text text-anchor="middle" x="344.5" y="-136.8" font-family="Times New Roman,serif" font-size="14.00">sum: 2</text>
</g>
<!-- bag 3&#45;&gt;sol3 -->
<g id="edge5" class="edge">
<title>bag 3&#45;&gt;sol3</title>
<path fill="none" stroke="black" d="M359.52,-36.03C357.09,-56.87 352.89,-92.9 349.55,-121.6"/>
<polygon fill="black" stroke="black" points="346.05,-121.46 348.37,-131.79 353,-122.27 346.05,-121.46"/>
</g>
<!-- Join 3~4 -->
<g id="node9" class="node">
<title>Join 3~4</title>
<path fill="white" stroke="black" d="M451.5,-184C451.5,-184 411.5,-184 411.5,-184 405.5,-184 399.5,-178 399.5,-172 399.5,-172 399.5,-160 399.5,-160 399.5,-154 405.5,-148 411.5,-148 411.5,-148 451.5,-148 451.5,-148 457.5,-148 463.5,-154 463.5,-160 463.5,-160 463.5,-172 463.5,-172 463.5,-178 457.5,-184 451.5,-184"/>
<text text-anchor="middle" x="431.5" y="-162.3" font-family="Times New Roman,serif" font-size="14.00">Join 3~4</text>
</g>
<!-- bag 3&#45;&gt;Join 3~4 -->
<g id="edge8" class="edge">
<title>bag 3&#45;&gt;Join 3~4</title>
<path fill="none" stroke="black" d="M370.85,-36.05C376.43,-46.37 383.55,-59.85 389.5,-72 400.33,-94.12 411.78,-119.64 419.99,-138.35"/>
<polygon fill="black" stroke="black" points="416.87,-139.95 424.07,-147.71 423.28,-137.15 416.87,-139.95"/>
</g>
<!-- bag 4 -->
<g id="node5" class="node">
<title>bag 4</title>
<path fill="yellow" stroke="black" stroke-width="2.5" d="M527.5,-36C527.5,-36 437.5,-36 437.5,-36 431.5,-36 425.5,-30 425.5,-24 425.5,-24 425.5,-12 425.5,-12 425.5,-6 431.5,0 437.5,0 437.5,0 527.5,0 527.5,0 533.5,0 539.5,-6 539.5,-12 539.5,-12 539.5,-24 539.5,-24 539.5,-30 533.5,-36 527.5,-36"/>
<polygon fill="white" stroke="transparent" points="433.5,-8 433.5,-27 468.5,-27 468.5,-8 433.5,-8"/>
<text text-anchor="start" x="435.5" y="-13.8" font-family="Times New Roman,serif" font-size="14.00">bag 4</text>
<text text-anchor="start" x="474.5" y="-13.8" font-family="Times New Roman,serif" font-size="14.00">[1 5 7 10]</text>
</g>
<!-- bag 4&#45;&gt;bag 2 -->
<!-- sol4 -->
<g id="node7" class="node">
<title>sol4</title>
<path fill="yellow" stroke="black" stroke-width="2.5" d="M531.5,-72.5C531.5,-72.5 677.5,-72.5 677.5,-72.5 683.5,-72.5 689.5,-78.5 689.5,-84.5 689.5,-84.5 689.5,-247.5 689.5,-247.5 689.5,-253.5 683.5,-259.5 677.5,-259.5 677.5,-259.5 531.5,-259.5 531.5,-259.5 525.5,-259.5 519.5,-253.5 519.5,-247.5 519.5,-247.5 519.5,-84.5 519.5,-84.5 519.5,-78.5 525.5,-72.5 531.5,-72.5"/>
<text text-anchor="middle" x="604.5" y="-247.3" font-family="Times New Roman,serif" font-size="14.00">sol bag 4</text>
<polyline fill="none" stroke="black" stroke-width="2.5" points="519.5,-242.5 689.5,-242.5 "/>
<text text-anchor="middle" x="533" y="-230.3" font-family="Times New Roman,serif" font-size="14.00">id</text>
<polyline fill="none" stroke="black" stroke-width="2.5" points="519.5,-225.5 546.5,-225.5 "/>
<text text-anchor="middle" x="533" y="-213.3" font-family="Times New Roman,serif" font-size="14.00">0</text>
<polyline fill="none" stroke="black" stroke-width="2.5" points="519.5,-208.5 546.5,-208.5 "/>
<text text-anchor="middle" x="533" y="-196.3" font-family="Times New Roman,serif" font-size="14.00">1</text>
<polyline fill="none" stroke="black" stroke-width="2.5" points="519.5,-191.5 546.5,-191.5 "/>
<text text-anchor="middle" x="533" y="-179.3" font-family="Times New Roman,serif" font-size="14.00">2</text>
<polyline fill="none" stroke="black" stroke-width="2.5" points="519.5,-174.5 546.5,-174.5 "/>
<text text-anchor="middle" x="533" y="-162.3" font-family="Times New Roman,serif" font-size="14.00">3</text>
<polyline fill="none" stroke="black" stroke-width="2.5" points="519.5,-157.5 546.5,-157.5 "/>
<text text-anchor="middle" x="533" y="-145.3" font-family="Times New Roman,serif" font-size="14.00">4</text>
<polyline fill="none" stroke="black" stroke-width="2.5" points="519.5,-140.5 546.5,-140.5 "/>
<text text-anchor="middle" x="533" y="-128.3" font-family="Times New Roman,serif" font-size="14.00">5</text>
<polyline fill="none" stroke="black" stroke-width="2.5" points="519.5,-123.5 546.5,-123.5 "/>
<text text-anchor="middle" x="533" y="-111.3" font-family="Times New Roman,serif" font-size="14.00">6</text>
<polyline fill="none" stroke="black" stroke-width="2.5" points="519.5,-106.5 546.5,-106.5 "/>
<text text-anchor="middle" x="533" y="-94.3" font-family="Times New Roman,serif" font-size="14.00">7</text>
<polyline fill="none" stroke="black" stroke-width="2.5" points="546.5,-89.5 546.5,-242.5 "/>
<text text-anchor="middle" x="561.5" y="-230.3" font-family="Times New Roman,serif" font-size="14.00">v1</text>
<polyline fill="none" stroke="black" stroke-width="2.5" points="546.5,-225.5 576.5,-225.5 "/>
<text text-anchor="middle" x="561.5" y="-213.3" font-family="Times New Roman,serif" font-size="14.00">0</text>
<polyline fill="none" stroke="black" stroke-width="2.5" points="546.5,-208.5 576.5,-208.5 "/>
<text text-anchor="middle" x="561.5" y="-196.3" font-family="Times New Roman,serif" font-size="14.00">1</text>
<polyline fill="none" stroke="black" stroke-width="2.5" points="546.5,-191.5 576.5,-191.5 "/>
<text text-anchor="middle" x="561.5" y="-179.3" font-family="Times New Roman,serif" font-size="14.00">0</text>
<polyline fill="none" stroke="black" stroke-width="2.5" points="546.5,-174.5 576.5,-174.5 "/>
<text text-anchor="middle" x="561.5" y="-162.3" font-family="Times New Roman,serif" font-size="14.00">1</text>
<polyline fill="none" stroke="black" stroke-width="2.5" points="546.5,-157.5 576.5,-157.5 "/>
<text text-anchor="middle" x="561.5" y="-145.3" font-family="Times New Roman,serif" font-size="14.00">0</text>
<polyline fill="none" stroke="black" stroke-width="2.5" points="546.5,-140.5 576.5,-140.5 "/>
<text text-anchor="middle" x="561.5" y="-128.3" font-family="Times New Roman,serif" font-size="14.00">1</text>
<polyline fill="none" stroke="black" stroke-width="2.5" points="546.5,-123.5 576.5,-123.5 "/>
<text text-anchor="middle" x="561.5" y="-111.3" font-family="Times New Roman,serif" font-size="14.00">0</text>
<polyline fill="none" stroke="black" stroke-width="2.5" points="546.5,-106.5 576.5,-106.5 "/>
<text text-anchor="middle" x="561.5" y="-94.3" font-family="Times New Roman,serif" font-size="14.00">1</text>
<polyline fill="none" stroke="black" stroke-width="2.5" points="576.5,-89.5 576.5,-242.5 "/>
<text text-anchor="middle" x="591.5" y="-230.3" font-family="Times New Roman,serif" font-size="14.00">v5</text>
<polyline fill="none" stroke="black" stroke-width="2.5" points="576.5,-225.5 606.5,-225.5 "/>
<text text-anchor="middle" x="591.5" y="-213.3" font-family="Times New Roman,serif" font-size="14.00">0</text>
<polyline fill="none" stroke="black" stroke-width="2.5" points="576.5,-208.5 606.5,-208.5 "/>
<text text-anchor="middle" x="591.5" y="-196.3" font-family="Times New Roman,serif" font-size="14.00">0</text>
<polyline fill="none" stroke="black" stroke-width="2.5" points="576.5,-191.5 606.5,-191.5 "/>
<text text-anchor="middle" x="591.5" y="-179.3" font-family="Times New Roman,serif" font-size="14.00">1</text>
<polyline fill="none" stroke="black" stroke-width="2.5" points="576.5,-174.5 606.5,-174.5 "/>
<text text-anchor="middle" x="591.5" y="-162.3" font-family="Times New Roman,serif" font-size="14.00">1</text>
<polyline fill="none" stroke="black" stroke-width="2.5" points="576.5,-157.5 606.5,-157.5 "/>
<text text-anchor="middle" x="591.5" y="-145.3" font-family="Times New Roman,serif" font-size="14.00">0</text>
<polyline fill="none" stroke="black" stroke-width="2.5" points="576.5,-140.5 606.5,-140.5 "/>
<text text-anchor="middle" x="591.5" y="-128.3" font-family="Times New Roman,serif" font-size="14.00">0</text>
<polyline fill="none" stroke="black" stroke-width="2.5" points="576.5,-123.5 606.5,-123.5 "/>
<text text-anchor="middle" x="591.5" y="-111.3" font-family="Times New Roman,serif" font-size="14.00">1</text>
<polyline fill="none" stroke="black" stroke-width="2.5" points="576.5,-106.5 606.5,-106.5 "/>
<text text-anchor="middle" x="591.5" y="-94.3" font-family="Times New Roman,serif" font-size="14.00">1</text>
<polyline fill="none" stroke="black" stroke-width="2.5" points="606.5,-89.5 606.5,-242.5 "/>
<text text-anchor="middle" x="625" y="-230.3" font-family="Times New Roman,serif" font-size="14.00">v10</text>
<polyline fill="none" stroke="black" stroke-width="2.5" points="606.5,-225.5 643.5,-225.5 "/>
<text text-anchor="middle" x="625" y="-213.3" font-family="Times New Roman,serif" font-size="14.00">0</text>
<polyline fill="none" stroke="black" stroke-width="2.5" points="606.5,-208.5 643.5,-208.5 "/>
<text text-anchor="middle" x="625" y="-196.3" font-family="Times New Roman,serif" font-size="14.00">0</text>
<polyline fill="none" stroke="black" stroke-width="2.5" points="606.5,-191.5 643.5,-191.5 "/>
<text text-anchor="middle" x="625" y="-179.3" font-family="Times New Roman,serif" font-size="14.00">0</text>
<polyline fill="none" stroke="black" stroke-width="2.5" points="606.5,-174.5 643.5,-174.5 "/>
<text text-anchor="middle" x="625" y="-162.3" font-family="Times New Roman,serif" font-size="14.00">0</text>
<polyline fill="none" stroke="black" stroke-width="2.5" points="606.5,-157.5 643.5,-157.5 "/>
<text text-anchor="middle" x="625" y="-145.3" font-family="Times New Roman,serif" font-size="14.00">1</text>
<polyline fill="none" stroke="black" stroke-width="2.5" points="606.5,-140.5 643.5,-140.5 "/>
<text text-anchor="middle" x="625" y="-128.3" font-family="Times New Roman,serif" font-size="14.00">1</text>
<polyline fill="none" stroke="black" stroke-width="2.5" points="606.5,-123.5 643.5,-123.5 "/>
<text text-anchor="middle" x="625" y="-111.3" font-family="Times New Roman,serif" font-size="14.00">1</text>
<polyline fill="none" stroke="black" stroke-width="2.5" points="606.5,-106.5 643.5,-106.5 "/>
<text text-anchor="middle" x="625" y="-94.3" font-family="Times New Roman,serif" font-size="14.00">1</text>
<polyline fill="none" stroke="black" stroke-width="2.5" points="643.5,-89.5 643.5,-242.5 "/>
<text text-anchor="middle" x="666.5" y="-230.3" font-family="Times New Roman,serif" font-size="14.00">n Sol</text>
<polyline fill="none" stroke="black" stroke-width="2.5" points="643.5,-225.5 689.5,-225.5 "/>
<text text-anchor="middle" x="666.5" y="-213.3" font-family="Times New Roman,serif" font-size="14.00">1</text>
<polyline fill="none" stroke="black" stroke-width="2.5" points="643.5,-208.5 689.5,-208.5 "/>
<text text-anchor="middle" x="666.5" y="-196.3" font-family="Times New Roman,serif" font-size="14.00">0</text>
<polyline fill="none" stroke="black" stroke-width="2.5" points="643.5,-191.5 689.5,-191.5 "/>
<text text-anchor="middle" x="666.5" y="-179.3" font-family="Times New Roman,serif" font-size="14.00">1</text>
<polyline fill="none" stroke="black" stroke-width="2.5" points="643.5,-174.5 689.5,-174.5 "/>
<text text-anchor="middle" x="666.5" y="-162.3" font-family="Times New Roman,serif" font-size="14.00">1</text>
<polyline fill="none" stroke="black" stroke-width="2.5" points="643.5,-157.5 689.5,-157.5 "/>
<text text-anchor="middle" x="666.5" y="-145.3" font-family="Times New Roman,serif" font-size="14.00">2</text>
<polyline fill="none" stroke="black" stroke-width="2.5" points="643.5,-140.5 689.5,-140.5 "/>
<text text-anchor="middle" x="666.5" y="-128.3" font-family="Times New Roman,serif" font-size="14.00">1</text>
<polyline fill="none" stroke="black" stroke-width="2.5" points="643.5,-123.5 689.5,-123.5 "/>
<text text-anchor="middle" x="666.5" y="-111.3" font-family="Times New Roman,serif" font-size="14.00">2</text>
<polyline fill="none" stroke="black" stroke-width="2.5" points="643.5,-106.5 689.5,-106.5 "/>
<text text-anchor="middle" x="666.5" y="-94.3" font-family="Times New Roman,serif" font-size="14.00">2</text>
<polyline fill="none" stroke="black" stroke-width="2.5" points="519.5,-89.5 689.5,-89.5 "/>
<text text-anchor="middle" x="604.5" y="-77.3" font-family="Times New Roman,serif" font-size="14.00">sum: 10</text>
</g>
<!-- bag 4&#45;&gt;sol4 -->
<g id="edge6" class="edge">
<title>bag 4&#45;&gt;sol4</title>
<path fill="none" stroke="black" d="M496.73,-36.03C503.27,-43.86 511.6,-53.82 520.72,-64.74"/>
<polygon fill="black" stroke="black" points="518.05,-67 527.15,-72.43 523.42,-62.51 518.05,-67"/>
</g>
<!-- bag 4&#45;&gt;Join 3~4 -->
<g id="edge9" class="edge">
<title>bag 4&#45;&gt;Join 3~4</title>
<path fill="none" stroke="black" d="M476.55,-36.03C467.81,-61.06 451.4,-108.04 440.98,-137.85"/>
<polygon fill="black" stroke="black" points="437.56,-137.03 437.57,-147.62 444.17,-139.34 437.56,-137.03"/>
</g>
<!-- solJoin3~4 -->
<!-- Join 3~4&#45;&gt;bag 2 -->
<g id="edge10" class="edge">
<title>Join 3~4&#45;&gt;bag 2</title>
<path fill="none" stroke="black" d="M425.29,-184.11C417.99,-203.28 404.9,-234.95 389.5,-260 378.74,-277.5 373.18,-279.83 360.5,-296 342.67,-318.73 322.74,-344.91 308.54,-363.69"/>
<polygon fill="black" stroke="black" points="305.68,-361.67 302.45,-371.76 311.27,-365.88 305.68,-361.67"/>
</g>
<!-- Join 3~4&#45;&gt;solJoin3~4 -->
</g>
</svg>
