<?xml version="1.0" encoding="utf-8"?>
<svg viewBox="0.00 0.00 1352.85 731.0" xmlns="http://www.w3.org/2000/svg" xmlns:xlink="http://www.w3.org/1999/xlink" preserveAspectRatio="xMinYMin">
	<g id="graph0" class="graph" transform="scale(1 1) rotate(0) translate(4 727)">
		<title>Tree-Decomposition</title>
		<polygon fill="white" stroke="none" points="-4,4 -4,-727 536,-727 536,4 -4,4"></polygon>
		<g id="node1" class="node">
			<title>bag 1</title>
			<path fill="yellow" stroke="black" stroke-width="2.5" d="M199.5,-531C199.5,-531 104.5,-531 104.5,-531 98.5,-531 92.5,-525 92.5,-519 92.5,-519 92.5,-461 92.5,-461 92.5,-455 98.5,-449 104.5,-449 104.5,-449 199.5,-449 199.5,-449 205.5,-449 211.5,-455 211.5,-461 211.5,-461 211.5,-519 211.5,-519 211.5,-525 205.5,-531 199.5,-531"></path>
			<polygon fill="white" stroke="none" points="101,-511 101,-530 204,-530 204,-511 101,-511"></polygon>
			<text text-anchor="start" x="137" y="-516.8" font-family="Times New Roman,serif" font-size="14.00">bag 1</text>
			<text text-anchor="start" x="130" y="-493.8" font-family="Times New Roman,serif" font-size="14.00">[1, 4, 7]</text>
			<text text-anchor="start" x="111" y="-474.8" font-family="Times New Roman,serif" font-size="14.00">dtime=0.0009s</text>
			<text text-anchor="start" x="103" y="-455.8" font-family="Times New Roman,serif" font-size="14.00">04/08/20 14:36:32</text>
		</g>
		<g id="node2" class="node">
			<title>bag 2</title>
			<path fill="white" stroke="black" d="M275.5,-375C275.5,-375 180.5,-375 180.5,-375 174.5,-375 168.5,-369 168.5,-363 168.5,-363 168.5,-305 168.5,-305 168.5,-299 174.5,-293 180.5,-293 180.5,-293 275.5,-293 275.5,-293 281.5,-293 287.5,-299 287.5,-305 287.5,-305 287.5,-363 287.5,-363 287.5,-369 281.5,-375 275.5,-375"></path>
			<polygon fill="white" stroke="none" points="177,-355 177,-374 280,-374 280,-355 177,-355"></polygon>
			<text text-anchor="start" x="213" y="-360.8" font-family="Times New Roman,serif" font-size="14.00">bag 2</text>
			<text text-anchor="start" x="199" y="-337.8" font-family="Times New Roman,serif" font-size="14.00">[1, 2, 4, 6]</text>
			<text text-anchor="start" x="187" y="-318.8" font-family="Times New Roman,serif" font-size="14.00">dtime=0.0010s</text>
			<text text-anchor="start" x="179" y="-299.8" font-family="Times New Roman,serif" font-size="14.00">04/08/20 14:36:32</text>
		</g>
		<g id="edge1" class="edge">
			<title>bag 2-&gt;bag 1</title>
			<path fill="none" stroke="black" d="M208.23,-375.06C198.461,-394.856 186.584,-418.921 176.268,-439.825"></path>
			<polygon fill="black" stroke="black" points="173.09,-438.357 171.803,-448.874 179.367,-441.455 173.09,-438.357"></polygon>
		</g>
		<g id="node3" class="node">
			<title>bag 3</title>
			<path fill="white" stroke="black" d="M130.5,-219C130.5,-219 35.5,-219 35.5,-219 29.5,-219 23.5,-213 23.5,-207 23.5,-207 23.5,-149 23.5,-149 23.5,-143 29.5,-137 35.5,-137 35.5,-137 130.5,-137 130.5,-137 136.5,-137 142.5,-143 142.5,-149 142.5,-149 142.5,-207 142.5,-207 142.5,-213 136.5,-219 130.5,-219"></path>
			<polygon fill="white" stroke="none" points="32,-199 32,-218 135,-218 135,-199 32,-199"></polygon>
			<text text-anchor="start" x="68" y="-204.8" font-family="Times New Roman,serif" font-size="14.00">bag 3</text>
			<text text-anchor="start" x="61" y="-181.8" font-family="Times New Roman,serif" font-size="14.00">[1, 2, 5]</text>
			<text text-anchor="start" x="42" y="-162.8" font-family="Times New Roman,serif" font-size="14.00">dtime=0.0033s</text>
			<text text-anchor="start" x="34" y="-143.8" font-family="Times New Roman,serif" font-size="14.00">04/08/20 14:36:32</text>
		</g>
		<g id="edge2" class="edge">
			<title>bag 3-&gt;bag 2</title>
			<path fill="none" stroke="black" d="M120.719,-219.06C139.859,-239.388 163.239,-264.219 183.281,-285.505"></path>
			<polygon fill="black" stroke="black" points="180.815,-287.992 190.219,-292.874 185.912,-283.194 180.815,-287.992"></polygon>
		</g>
		<g id="node4" class="node">
			<title>bag 4</title>
			<path fill="white" stroke="black" d="M351.5,-219C351.5,-219 256.5,-219 256.5,-219 250.5,-219 244.5,-213 244.5,-207 244.5,-207 244.5,-149 244.5,-149 244.5,-143 250.5,-137 256.5,-137 256.5,-137 351.5,-137 351.5,-137 357.5,-137 363.5,-143 363.5,-149 363.5,-149 363.5,-207 363.5,-207 363.5,-213 357.5,-219 351.5,-219"></path>
			<polygon fill="white" stroke="none" points="253,-199 253,-218 356,-218 356,-199 253,-199"></polygon>
			<text text-anchor="start" x="289" y="-204.8" font-family="Times New Roman,serif" font-size="14.00">bag 4</text>
			<text text-anchor="start" x="282" y="-181.8" font-family="Times New Roman,serif" font-size="14.00">[2, 4, 8]</text>
			<text text-anchor="start" x="263" y="-162.8" font-family="Times New Roman,serif" font-size="14.00">dtime=0.0022s</text>
			<text text-anchor="start" x="255" y="-143.8" font-family="Times New Roman,serif" font-size="14.00">04/08/20 14:36:32</text>
		</g>
		<g id="edge3" class="edge">
			<title>bag 4-&gt;bag 2</title>
			<path fill="none" stroke="black" d="M284.23,-219.06C274.461,-238.856 262.584,-262.921 252.268,-283.825"></path>
			<polygon fill="black" stroke="black" points="249.09,-282.357 247.803,-292.874 255.367,-285.455 249.09,-282.357"></polygon>
		</g>
		<g id="node5" class="node">
			<title>bag 5</title>
			<path fill="white" stroke="black" d="M427.5,-82C427.5,-82 332.5,-82 332.5,-82 326.5,-82 320.5,-76 320.5,-70 320.5,-70 320.5,-12 320.5,-12 320.5,-6 326.5,-0 332.5,-0 332.5,-0 427.5,-0 427.5,-0 433.5,-0 439.5,-6 439.5,-12 439.5,-12 439.5,-70 439.5,-70 439.5,-76 433.5,-82 427.5,-82"></path>
			<polygon fill="white" stroke="none" points="329,-62 329,-81 432,-81 432,-62 329,-62"></polygon>
			<text text-anchor="start" x="365" y="-67.8" font-family="Times New Roman,serif" font-size="14.00">bag 5</text>
			<text text-anchor="start" x="358" y="-44.8" font-family="Times New Roman,serif" font-size="14.00">[2, 3, 8]</text>
			<text text-anchor="start" x="339" y="-25.8" font-family="Times New Roman,serif" font-size="14.00">dtime=0.0021s</text>
			<text text-anchor="start" x="331" y="-6.8" font-family="Times New Roman,serif" font-size="14.00">04/08/20 14:36:32</text>
		</g>
		<g id="edge4" class="edge">
			<title>bag 5-&gt;bag 4</title>
			<path fill="none" stroke="black" d="M357.403,-82.1389C349.359,-96.4279 340.206,-112.686 331.778,-127.657"></path>
			<polygon fill="black" stroke="black" points="328.497,-126.352 326.641,-136.783 334.597,-129.786 328.497,-126.352"></polygon>
		</g>
	</g>
	<g id="graph0" class="graph" transform="scale(1 1) rotate(0) translate(4 550) translate(580.000000 0.000000)">
		<title>incidence graph</title>
		<polygon fill="white" stroke="none" points="-4,4 -4,-550 346,-550 346,4 -4,4"></polygon>
		<g id="clust1" class="cluster">
			<title>cluster_clause</title>
			<polygon fill="none" stroke="black" points="8,-8 8,-538 82,-538 82,-8 8,-8"></polygon>
			<text text-anchor="middle" x="45" y="-521.2" font-family="Times New Roman,serif" font-size="16.00">clauses</text>
		</g>
		<g id="clust2" class="cluster">
			<title>cluster_ivar</title>
			<polygon fill="none" stroke="black" points="248,-110 248,-538 334,-538 334,-110 248,-110"></polygon>
			<text text-anchor="middle" x="291" y="-521.2" font-family="Times New Roman,serif" font-size="16.00">variables</text>
		</g>
		<g id="node1" class="node">
			<title>c_1</title>
			<ellipse fill="white" stroke="black" cx="45" cy="-486" rx="27" ry="18"></ellipse>
			<text text-anchor="middle" x="45" y="-482.3" font-family="Times New Roman,serif" font-size="14.00">c_1</text>
		</g>
		<g id="node2" class="node">
			<title>c_2</title>
			<ellipse fill="white" stroke="black" cx="45" cy="-436" rx="27" ry="18"></ellipse>
			<text text-anchor="middle" x="45" y="-432.3" font-family="Times New Roman,serif" font-size="14.00">c_2</text>
		</g>
		<g id="node11" class="node">
			<title>v_1</title>
			<polygon fill="none" stroke="#b14923" stroke-width="2.2" stroke-dasharray="1,5" points="291,-504 256.144,-486 291,-468 325.856,-486 291,-504"></polygon>
			<text text-anchor="middle" x="291" y="-482.3" font-family="Times New Roman,serif" font-size="14.00">v_1</text>
		</g>
		<g id="edge17" class="edge">
			<title>c_1--v_1</title>
			<path fill="none" stroke="#b14923" stroke-width="2.2" d="M72.3867,-486C133.587,-486 194.787,-486 255.988,-486"></path>
		</g>
		<g id="node14" class="node">
			<title>v_4</title>
			<polygon fill="none" stroke="#a682ff" stroke-width="2.2" stroke-dasharray="1,5" points="291,-354 256.144,-336 291,-318 325.856,-336 291,-354"></polygon>
			<text text-anchor="middle" x="291" y="-332.3" font-family="Times New Roman,serif" font-size="14.00">v_4</text>
		</g>
		<g id="edge18" class="edge">
			<title>c_1--v_4</title>
			<path fill="none" stroke="#a682ff" stroke-width="2.2" d="M65.1312,-473.725C112.752,-444.688 231.568,-372.239 274.879,-345.83"></path>
		</g>
		<g id="node16" class="node">
			<title>v_6</title>
			<polygon fill="none" stroke="#0d1321" stroke-width="2.2" stroke-dasharray="1,5" points="291,-254 256.144,-236 291,-218 325.856,-236 291,-254"></polygon>
			<text text-anchor="middle" x="291" y="-232.3" font-family="Times New Roman,serif" font-size="14.00">v_6</text>
		</g>
		<g id="edge19" class="edge">
			<title>c_1--v_6</title>
			<path fill="none" stroke="#0d1321" stroke-width="2.2" d="M60.0181,-470.738C105.083,-424.94 238.54,-289.313 279.145,-248.047"></path>
		</g>
		<g id="node3" class="node">
			<title>c_3</title>
			<ellipse fill="white" stroke="black" cx="45" cy="-386" rx="27" ry="18"></ellipse>
			<text text-anchor="middle" x="45" y="-382.3" font-family="Times New Roman,serif" font-size="14.00">c_3</text>
		</g>
		<g id="edge20" class="edge">
			<title>c_2--v_1</title>
			<path fill="none" stroke="#b14923" stroke-width="2.2" d="M70.604,-441.996C118.367,-451.316 220.419,-471.228 266.965,-480.31"></path>
		</g>
		<g id="node15" class="node">
			<title>v_5</title>
			<polygon fill="none" stroke="#004066" stroke-width="2.2" stroke-dasharray="1,5" points="291,-304 256.144,-286 291,-268 325.856,-286 291,-304"></polygon>
			<text text-anchor="middle" x="291" y="-282.3" font-family="Times New Roman,serif" font-size="14.00">v_5</text>
		</g>
		<g id="edge21" class="edge">
			<title>c_2--v_5</title>
			<path fill="none" stroke="#004066" stroke-width="2.2" d="M71.9666,-419.557C123.275,-388.271 233.513,-321.053 274.879,-295.83"></path>
			<ellipse fill="none" stroke="#004066" stroke-width="2.2" cx="68.5464" cy="-421.642" rx="4.00002" ry="4.00002"></ellipse>
		</g>
		<g id="node4" class="node">
			<title>c_4</title>
			<ellipse fill="white" stroke="black" cx="45" cy="-336" rx="27" ry="18"></ellipse>
			<text text-anchor="middle" x="45" y="-332.3" font-family="Times New Roman,serif" font-size="14.00">c_4</text>
		</g>
		<g id="edge22" class="edge">
			<title>c_3--v_1</title>
			<path fill="none" stroke="#b14923" stroke-width="2.2" d="M75.8485,-398.54C127.144,-419.392 228.557,-460.617 271.285,-477.986"></path>
			<ellipse fill="none" stroke="#b14923" stroke-width="2.2" cx="72.0652" cy="-397.002" rx="4.00001" ry="4.00001"></ellipse>
		</g>
		<g id="node17" class="node">
			<title>v_7</title>
			<polygon fill="none" stroke="#da1167" stroke-width="2.2" stroke-dasharray="1,5" points="291,-204 256.144,-186 291,-168 325.856,-186 291,-204"></polygon>
			<text text-anchor="middle" x="291" y="-182.3" font-family="Times New Roman,serif" font-size="14.00">v_7</text>
		</g>
		<g id="edge23" class="edge">
			<title>c_3--v_7</title>
			<path fill="none" stroke="#da1167" stroke-width="2.2" d="M62.2982,-371.936C108.778,-334.148 235.677,-230.978 277.46,-197.008"></path>
		</g>
		<g id="node5" class="node">
			<title>c_5</title>
			<ellipse fill="white" stroke="black" cx="45" cy="-286" rx="27" ry="18"></ellipse>
			<text text-anchor="middle" x="45" y="-282.3" font-family="Times New Roman,serif" font-size="14.00">c_5</text>
		</g>
		<g id="node12" class="node">
			<title>v_2</title>
			<polygon fill="none" stroke="#244320" stroke-width="2.2" stroke-dasharray="1,5" points="291,-454 256.144,-436 291,-418 325.856,-436 291,-454"></polygon>
			<text text-anchor="middle" x="291" y="-432.3" font-family="Times New Roman,serif" font-size="14.00">v_2</text>
		</g>
		<g id="edge24" class="edge">
			<title>c_4--v_2</title>
			<path fill="none" stroke="#244320" stroke-width="2.2" d="M68.3597,-345.496C116.578,-365.097 226.363,-409.725 271.285,-427.986"></path>
		</g>
		<g id="node13" class="node">
			<title>v_3</title>
			<polygon fill="none" stroke="#b1740f" stroke-width="2.2" stroke-dasharray="1,5" points="291,-404 256.144,-386 291,-368 325.856,-386 291,-404"></polygon>
			<text text-anchor="middle" x="291" y="-382.3" font-family="Times New Roman,serif" font-size="14.00">v_3</text>
		</g>
		<g id="edge25" class="edge">
			<title>c_4--v_3</title>
			<path fill="none" stroke="#b1740f" stroke-width="2.2" d="M70.604,-341.996C118.367,-351.316 220.419,-371.228 266.965,-380.31"></path>
		</g>
		<g id="node6" class="node">
			<title>c_6</title>
			<ellipse fill="white" stroke="black" cx="45" cy="-236" rx="27" ry="18"></ellipse>
			<text text-anchor="middle" x="45" y="-232.3" font-family="Times New Roman,serif" font-size="14.00">c_6</text>
		</g>
		<g id="edge26" class="edge">
			<title>c_5--v_2</title>
			<path fill="none" stroke="#244320" stroke-width="2.2" d="M65.2488,-298.347C112.941,-327.427 231.568,-399.761 274.859,-426.158"></path>
		</g>
		<g id="edge27" class="edge">
			<title>c_5--v_5</title>
			<path fill="none" stroke="#004066" stroke-width="2.2" d="M72.3867,-286C133.587,-286 194.787,-286 255.988,-286"></path>
		</g>
		<g id="node7" class="node">
			<title>c_7</title>
			<ellipse fill="white" stroke="black" cx="45" cy="-186" rx="27" ry="18"></ellipse>
			<text text-anchor="middle" x="45" y="-182.3" font-family="Times New Roman,serif" font-size="14.00">c_7</text>
		</g>
		<g id="edge28" class="edge">
			<title>c_6--v_2</title>
			<path fill="none" stroke="#244320" stroke-width="2.2" d="M62.3648,-250.118C108.886,-287.94 235.623,-390.978 277.424,-424.962"></path>
		</g>
		<g id="edge29" class="edge">
			<title>c_6--v_6</title>
			<path fill="none" stroke="#0d1321" stroke-width="2.2" d="M80.6344,-236C139.086,-236 197.537,-236 255.988,-236"></path>
			<ellipse fill="none" stroke="#0d1321" stroke-width="2.2" cx="76.3867" cy="-236" rx="4" ry="4"></ellipse>
		</g>
		<g id="node8" class="node">
			<title>c_8</title>
			<ellipse fill="white" stroke="black" cx="45" cy="-136" rx="27" ry="18"></ellipse>
			<text text-anchor="middle" x="45" y="-132.3" font-family="Times New Roman,serif" font-size="14.00">c_8</text>
		</g>
		<g id="edge30" class="edge">
			<title>c_7--v_3</title>
			<path fill="none" stroke="#b1740f" stroke-width="2.2" d="M62.3648,-200.118C108.886,-237.94 235.623,-340.978 277.424,-374.962"></path>
		</g>
		<g id="node18" class="node">
			<title>v_8</title>
			<polygon fill="none" stroke="#604909" stroke-width="2.2" stroke-dasharray="1,5" points="291,-154 256.144,-136 291,-118 325.856,-136 291,-154"></polygon>
			<text text-anchor="middle" x="291" y="-132.3" font-family="Times New Roman,serif" font-size="14.00">v_8</text>
		</g>
		<g id="edge31" class="edge">
			<title>c_7--v_8</title>
			<path fill="none" stroke="#604909" stroke-width="2.2" d="M78.8669,-178.392C129.301,-168.551 222.917,-150.284 266.94,-141.695"></path>
			<ellipse fill="none" stroke="#604909" stroke-width="2.2" cx="74.7873" cy="-179.188" rx="4.00001" ry="4.00001"></ellipse>
		</g>
		<g id="node9" class="node">
			<title>c_9</title>
			<ellipse fill="white" stroke="black" cx="45" cy="-84" rx="27" ry="18"></ellipse>
			<text text-anchor="middle" x="45" y="-80.3" font-family="Times New Roman,serif" font-size="14.00">c_9</text>
		</g>
		<g id="edge32" class="edge">
			<title>c_8--v_4</title>
			<path fill="none" stroke="#a682ff" stroke-width="2.2" d="M62.3648,-150.118C108.886,-187.94 235.623,-290.978 277.424,-324.962"></path>
		</g>
		<g id="edge33" class="edge">
			<title>c_8--v_8</title>
			<path fill="none" stroke="#604909" stroke-width="2.2" d="M80.6344,-136C139.086,-136 197.537,-136 255.988,-136"></path>
			<ellipse fill="none" stroke="#604909" stroke-width="2.2" cx="76.3867" cy="-136" rx="4" ry="4"></ellipse>
		</g>
		<g id="node10" class="node">
			<title>c_10</title>
			<ellipse fill="white" stroke="black" cx="45" cy="-34" rx="28.6953" ry="18"></ellipse>
			<text text-anchor="middle" x="45" y="-30.3" font-family="Times New Roman,serif" font-size="14.00">c_10</text>
		</g>
		<g id="edge34" class="edge">
			<title>c_9--v_4</title>
			<path fill="none" stroke="#a682ff" stroke-width="2.2" d="M65.4141,-104.912C114.895,-155.599 240.031,-283.788 279.135,-323.846"></path>
			<ellipse fill="none" stroke="#a682ff" stroke-width="2.2" cx="62.5599" cy="-101.988" rx="4.00002" ry="4.00002"></ellipse>
		</g>
		<g id="edge35" class="edge">
			<title>c_9--v_6</title>
			<path fill="none" stroke="#0d1321" stroke-width="2.2" d="M64.8969,-96.294C112.354,-125.617 231.461,-199.212 274.859,-226.027"></path>
		</g>
		<g id="edge36" class="edge">
			<title>c_10--v_4</title>
			<path fill="none" stroke="#a682ff" stroke-width="2.2" d="M63.3743,-56.557C111.898,-116.127 242.352,-276.278 280.43,-323.023"></path>
			<ellipse fill="none" stroke="#a682ff" stroke-width="2.2" cx="60.6653" cy="-53.2314" rx="4.00002" ry="4.00002"></ellipse>
		</g>
		<g id="edge37" class="edge">
			<title>c_10--v_7</title>
			<path fill="none" stroke="#da1167" stroke-width="2.2" d="M65.6034,-46.7306C113.526,-76.3413 231.675,-149.344 274.859,-176.027"></path>
		</g>
	</g>
	<g id="graph0" class="graph" transform="scale(1 1) rotate(0) translate(191.428 182.426) translate(970.000000 0.000000)">
		<title>primal graph</title>
		<polygon fill="white" stroke="none" points="-191.428,182.428 -191.428,-182.426 191.426,-182.426 191.426,182.428 -191.428,182.428"></polygon>
		<g id="node1" class="node">
			<title>v_1</title>
			<ellipse fill="none" stroke="black" stroke-width="2.2" cx="-160.428" cy="-0.00234" rx="27" ry="18"></ellipse>
			<text text-anchor="middle" x="-160.428" y="3.69766" font-family="Times New Roman,serif" font-size="14.00">v_1</text>
		</g>
		<g id="node2" class="node">
			<title>v_4</title>
			<ellipse fill="none" stroke="black" stroke-width="2.2" cx="113.439" cy="-113.438" rx="27" ry="18"></ellipse>
			<text text-anchor="middle" x="113.439" y="-109.738" font-family="Times New Roman,serif" font-size="14.00">v_4</text>
		</g>
		<g id="edge1" class="edge">
			<title>v_1--v_4</title>
			<path fill="none" stroke="black" d="M-137.078,-9.67383C-85.3369,-31.1051 38.462,-82.3828 90.1481,-103.791"></path>
		</g>
		<g id="node3" class="node">
			<title>v_6</title>
			<ellipse fill="none" stroke="black" stroke-width="2.2" cx="113.439" cy="113.439" rx="27" ry="18"></ellipse>
			<text text-anchor="middle" x="113.439" y="117.139" font-family="Times New Roman,serif" font-size="14.00">v_6</text>
		</g>
		<g id="edge2" class="edge">
			<title>v_1--v_6</title>
			<path fill="none" stroke="black" d="M-137.078,9.66964C-85.3369,31.102 38.462,82.3823 90.1481,103.792"></path>
		</g>
		<g id="node4" class="node">
			<title>v_5</title>
			<ellipse fill="none" stroke="black" stroke-width="2.2" cx="160.426" cy="-0.00234" rx="27" ry="18"></ellipse>
			<text text-anchor="middle" x="160.426" y="3.69766" font-family="Times New Roman,serif" font-size="14.00">v_5</text>
		</g>
		<g id="edge4" class="edge">
			<title>v_1--v_5</title>
			<path fill="none" stroke="black" d="M-133.348,-0.00234C-72.916,-0.00234 72.3964,-0.00234 133.079,-0.00234"></path>
		</g>
		<g id="node5" class="node">
			<title>v_7</title>
			<ellipse fill="none" stroke="black" stroke-width="2.2" cx="0.0027" cy="160.428" rx="27" ry="18"></ellipse>
			<text text-anchor="middle" x="0.0027" y="164.128" font-family="Times New Roman,serif" font-size="14.00">v_7</text>
		</g>
		<g id="edge5" class="edge">
			<title>v_1--v_7</title>
			<path fill="none" stroke="black" d="M-145.335,15.0906C-114.758,45.6673 -45.8078,114.618 -15.167,145.258"></path>
		</g>
		<g id="edge3" class="edge">
			<title>v_4--v_6</title>
			<path fill="none" stroke="black" d="M113.439,-95.2555C113.439,-52.7746 113.439,52.6037 113.439,95.17"></path>
		</g>
		<g id="edge11" class="edge">
			<title>v_4--v_7</title>
			<path fill="none" stroke="black" d="M106.17,-95.8902C85.6813,-46.4243 27.6253,93.7393 7.21066,143.026"></path>
		</g>
		<g id="node6" class="node">
			<title>v_2</title>
			<ellipse fill="none" stroke="black" stroke-width="2.2" cx="-113.44" cy="-113.438" rx="27" ry="18"></ellipse>
			<text text-anchor="middle" x="-113.44" y="-109.738" font-family="Times New Roman,serif" font-size="14.00">v_2</text>
		</g>
		<g id="edge8" class="edge">
			<title>v_2--v_6</title>
			<path fill="none" stroke="black" d="M-98.202,-98.2C-56.8709,-56.8691 57.0131,57.0142 98.2665,98.2674"></path>
		</g>
		<g id="edge7" class="edge">
			<title>v_2--v_5</title>
			<path fill="none" stroke="black" d="M-90.0908,-103.767C-38.3497,-82.3356 85.4492,-31.0578 137.135,-9.64935"></path>
		</g>
		<g id="node7" class="node">
			<title>v_3</title>
			<ellipse fill="none" stroke="black" stroke-width="2.2" cx="0.0027" cy="-160.426" rx="27" ry="18"></ellipse>
			<text text-anchor="middle" x="0.0027" y="-156.726" font-family="Times New Roman,serif" font-size="14.00">v_3</text>
		</g>
		<g id="edge6" class="edge">
			<title>v_2--v_3</title>
			<path fill="none" stroke="black" d="M-90.4836,-122.947C-70.9312,-131.045 -42.9629,-142.63 -23.3094,-150.77"></path>
		</g>
		<g id="node8" class="node">
			<title>v_8</title>
			<ellipse fill="none" stroke="black" stroke-width="2.2" cx="-113.44" cy="113.439" rx="27" ry="18"></ellipse>
			<text text-anchor="middle" x="-113.44" y="117.139" font-family="Times New Roman,serif" font-size="14.00">v_8</text>
		</g>
		<g id="edge10" class="edge">
			<title>v_8--v_4</title>
			<path fill="none" stroke="black" d="M-98.202,98.201C-56.8709,56.8701 57.0131,-57.0131 98.2665,-98.2663"></path>
		</g>
		<g id="edge9" class="edge">
			<title>v_8--v_3</title>
			<path fill="none" stroke="black" d="M-106.172,95.8913C-85.6814,46.4257 -27.6217,-93.7371 -7.20572,-143.024"></path>
		</g>
	</g>
</svg>