<?xml version="1.0" encoding="utf-8"?>
<svg viewBox="0.00 0.00 1348.85 731.0" xmlns="http://www.w3.org/2000/svg" xmlns:xlink="http://www.w3.org/1999/xlink" preserveAspectRatio="xMinYMin"><g id="graph0" class="graph" transform="scale(1 1) rotate(0) translate(4 727)"><title>Tree-Decomposition</title><polygon fill="white" stroke="transparent" points="-4,4 -4,-727 532,-727 532,4 -4,4"></polygon><g id="node1" class="node"><title>bag 1</title><path fill="yellow" stroke="black" stroke-width="2.5" d="M199.5,-531C199.5,-531 104.5,-531 104.5,-531 98.5,-531 92.5,-525 92.5,-519 92.5,-519 92.5,-461 92.5,-461 92.5,-455 98.5,-449 104.5,-449 104.5,-449 199.5,-449 199.5,-449 205.5,-449 211.5,-455 211.5,-461 211.5,-461 211.5,-519 211.5,-519 211.5,-525 205.5,-531 199.5,-531"></path><polygon fill="white" stroke="transparent" points="101,-511 101,-530 204,-530 204,-511 101,-511"></polygon><text text-anchor="start" x="137" y="-516.8" font-family="Times New Roman,serif" font-size="14.00">bag 1</text><text text-anchor="start" x="130" y="-493.8" font-family="Times New Roman,serif" font-size="14.00">[1, 4, 7]</text><text text-anchor="start" x="111" y="-474.8" font-family="Times New Roman,serif" font-size="14.00">dtime=0.0009s</text><text text-anchor="start" x="103" y="-455.8" font-family="Times New Roman,serif" font-size="14.00">04/08/20 14:36:32</text></g><g id="node2" class="node"><title>bag 2</title><path fill="white" stroke="black" d="M275.5,-375C275.5,-375 180.5,-375 180.5,-375 174.5,-375 168.5,-369 168.5,-363 168.5,-363 168.5,-305 168.5,-305 168.5,-299 174.5,-293 180.5,-293 180.5,-293 275.5,-293 275.5,-293 281.5,-293 287.5,-299 287.5,-305 287.5,-305 287.5,-363 287.5,-363 287.5,-369 281.5,-375 275.5,-375"></path><polygon fill="white" stroke="transparent" points="177,-355 177,-374 280,-374 280,-355 177,-355"></polygon><text text-anchor="start" x="213" y="-360.8" font-family="Times New Roman,serif" font-size="14.00">bag 2</text><text text-anchor="start" x="199" y="-337.8" font-family="Times New Roman,serif" font-size="14.00">[1, 2, 4, 6]</text><text text-anchor="start" x="187" y="-318.8" font-family="Times New Roman,serif" font-size="14.00">dtime=0.0010s</text><text text-anchor="start" x="179" y="-299.8" font-family="Times New Roman,serif" font-size="14.00">04/08/20 14:36:32</text></g><g id="edge1" class="edge"><title>bag 2-&gt;bag 1</title><path fill="none" stroke="black" d="M208.23,-375.06C198.46,-394.86 186.58,-418.92 176.27,-439.83"></path><polygon fill="black" stroke="black" points="173.09,-438.36 171.8,-448.87 179.37,-441.46 173.09,-438.36"></polygon></g><g id="node3" class="node"><title>bag 3</title><path fill="white" stroke="black" d="M202.5,-219C202.5,-219 107.5,-219 107.5,-219 101.5,-219 95.5,-213 95.5,-207 95.5,-207 95.5,-149 95.5,-149 95.5,-143 101.5,-137 107.5,-137 107.5,-137 202.5,-137 202.5,-137 208.5,-137 214.5,-143 214.5,-149 214.5,-149 214.5,-207 214.5,-207 214.5,-213 208.5,-219 202.5,-219"></path><polygon fill="white" stroke="transparent" points="104,-199 104,-218 207,-218 207,-199 104,-199"></polygon><text text-anchor="start" x="140" y="-204.8" font-family="Times New Roman,serif" font-size="14.00">bag 3</text><text text-anchor="start" x="133" y="-181.8" font-family="Times New Roman,serif" font-size="14.00">[1, 2, 5]</text><text text-anchor="start" x="114" y="-162.8" font-family="Times New Roman,serif" font-size="14.00">dtime=0.0033s</text><text text-anchor="start" x="106" y="-143.8" font-family="Times New Roman,serif" font-size="14.00">04/08/20 14:36:32</text></g><g id="edge2" class="edge"><title>bag 3-&gt;bag 2</title><path fill="none" stroke="black" d="M173.99,-219.06C183.37,-238.86 194.78,-262.92 204.69,-283.83"></path><polygon fill="black" stroke="black" points="201.53,-285.34 208.98,-292.87 207.86,-282.34 201.53,-285.34"></polygon></g><g id="node4" class="node"><title>bag 4</title><path fill="white" stroke="black" d="M347.5,-219C347.5,-219 252.5,-219 252.5,-219 246.5,-219 240.5,-213 240.5,-207 240.5,-207 240.5,-149 240.5,-149 240.5,-143 246.5,-137 252.5,-137 252.5,-137 347.5,-137 347.5,-137 353.5,-137 359.5,-143 359.5,-149 359.5,-149 359.5,-207 359.5,-207 359.5,-213 353.5,-219 347.5,-219"></path><polygon fill="white" stroke="transparent" points="249,-199 249,-218 352,-218 352,-199 249,-199"></polygon><text text-anchor="start" x="285" y="-204.8" font-family="Times New Roman,serif" font-size="14.00">bag 4</text><text text-anchor="start" x="278" y="-181.8" font-family="Times New Roman,serif" font-size="14.00">[2, 4, 8]</text><text text-anchor="start" x="259" y="-162.8" font-family="Times New Roman,serif" font-size="14.00">dtime=0.0022s</text><text text-anchor="start" x="251" y="-143.8" font-family="Times New Roman,serif" font-size="14.00">04/08/20 14:36:32</text></g><g id="edge3" class="edge"><title>bag 4-&gt;bag 2</title><path fill="none" stroke="black" d="M281.27,-219.06C272.06,-238.77 260.87,-262.71 251.12,-283.54"></path><polygon fill="black" stroke="black" points="247.83,-282.33 246.76,-292.87 254.17,-285.3 247.83,-282.33"></polygon></g><g id="node5" class="node"><title>bag 5</title><path fill="white" stroke="black" d="M423.5,-82C423.5,-82 328.5,-82 328.5,-82 322.5,-82 316.5,-76 316.5,-70 316.5,-70 316.5,-12 316.5,-12 316.5,-6 322.5,0 328.5,0 328.5,0 423.5,0 423.5,0 429.5,0 435.5,-6 435.5,-12 435.5,-12 435.5,-70 435.5,-70 435.5,-76 429.5,-82 423.5,-82"></path><polygon fill="white" stroke="transparent" points="325,-62 325,-81 428,-81 428,-62 325,-62"></polygon><text text-anchor="start" x="361" y="-67.8" font-family="Times New Roman,serif" font-size="14.00">bag 5</text><text text-anchor="start" x="354" y="-44.8" font-family="Times New Roman,serif" font-size="14.00">[2, 3, 8]</text><text text-anchor="start" x="335" y="-25.8" font-family="Times New Roman,serif" font-size="14.00">dtime=0.0021s</text><text text-anchor="start" x="327" y="-6.8" font-family="Times New Roman,serif" font-size="14.00">04/08/20 14:36:32</text></g><g id="edge4" class="edge"><title>bag 5-&gt;bag 4</title><path fill="none" stroke="black" d="M353.4,-82.14C345.36,-96.43 336.21,-112.69 327.78,-127.66"></path><polygon fill="black" stroke="black" points="324.5,-126.35 322.64,-136.78 330.6,-129.79 324.5,-126.35"></polygon></g></g><g id="graph0" class="graph" transform="scale(1 1) rotate(0) translate(4 550) translate(576.000000)"><title>incidence graph</title><polygon fill="white" stroke="transparent" points="-4,4 -4,-550 346,-550 346,4 -4,4"></polygon><g id="clust1" class="cluster"><title>cluster_clause</title><polygon fill="none" stroke="black" points="8,-8 8,-538 82,-538 82,-8 8,-8"></polygon><text text-anchor="middle" x="45" y="-521.2" font-family="Times New Roman,serif" font-size="16.00">clauses</text></g><g id="clust2" class="cluster"><title>cluster_ivar</title><polygon fill="none" stroke="black" points="248,-110 248,-538 334,-538 334,-110 248,-110"></polygon><text text-anchor="middle" x="291" y="-521.2" font-family="Times New Roman,serif" font-size="16.00">variables</text></g><g id="node1" class="node"><title>c_1</title><ellipse fill="white" stroke="black" cx="45" cy="-486" rx="27" ry="18"></ellipse><text text-anchor="middle" x="45" y="-482.3" font-family="Times New Roman,serif" font-size="14.00">c_1</text></g><g id="node2" class="node"><title>c_2</title><ellipse fill="white" stroke="black" cx="45" cy="-436" rx="27" ry="18"></ellipse><text text-anchor="middle" x="45" y="-432.3" font-family="Times New Roman,serif" font-size="14.00">c_2</text></g><g id="node11" class="node"><title>v_1</title><polygon fill="none" stroke="#b14923" stroke-width="2.2" stroke-dasharray="1,5" points="291,-504 256.14,-486 291,-468 325.86,-486 291,-504"></polygon><text text-anchor="middle" x="291" y="-482.3" font-family="Times New Roman,serif" font-size="14.00">v_1</text></g><g id="edge17" class="edge"><title>c_1--v_1</title><path fill="none" stroke="#b14923" stroke-width="2.2" d="M72.39,-486C133.59,-486 194.79,-486 255.99,-486"></path></g><g id="node14" class="node"><title>v_4</title><polygon fill="none" stroke="#a682ff" stroke-width="2.2" stroke-dasharray="1,5" points="291,-354 256.14,-336 291,-318 325.86,-336 291,-354"></polygon><text text-anchor="middle" x="291" y="-332.3" font-family="Times New Roman,serif" font-size="14.00">v_4</text></g><g id="edge18" class="edge"><title>c_1--v_4</title><path fill="none" stroke="#a682ff" stroke-width="2.2" d="M65.13,-473.72C112.75,-444.69 231.57,-372.24 274.88,-345.83"></path></g><g id="node16" class="node"><title>v_6</title><polygon fill="none" stroke="#0d1321" stroke-width="2.2" stroke-dasharray="1,5" points="291,-254 256.14,-236 291,-218 325.86,-236 291,-254"></polygon><text text-anchor="middle" x="291" y="-232.3" font-family="Times New Roman,serif" font-size="14.00">v_6</text></g><g id="edge19" class="edge"><title>c_1--v_6</title><path fill="none" stroke="#0d1321" stroke-width="2.2" d="M60.02,-470.74C105.08,-424.94 238.54,-289.31 279.15,-248.05"></path></g><g id="node3" class="node"><title>c_3</title><ellipse fill="white" stroke="black" cx="45" cy="-386" rx="27" ry="18"></ellipse><text text-anchor="middle" x="45" y="-382.3" font-family="Times New Roman,serif" font-size="14.00">c_3</text></g><g id="edge20" class="edge"><title>c_2--v_1</title><path fill="none" stroke="#b14923" stroke-width="2.2" d="M70.6,-442C118.37,-451.32 220.42,-471.23 266.96,-480.31"></path></g><g id="node15" class="node"><title>v_5</title><polygon fill="none" stroke="#004066" stroke-width="2.2" stroke-dasharray="1,5" points="291,-304 256.14,-286 291,-268 325.86,-286 291,-304"></polygon><text text-anchor="middle" x="291" y="-282.3" font-family="Times New Roman,serif" font-size="14.00">v_5</text></g><g id="edge21" class="edge"><title>c_2--v_5</title><path fill="none" stroke="#004066" stroke-width="2.2" d="M71.97,-419.56C123.27,-388.27 233.51,-321.05 274.88,-295.83"></path><ellipse fill="none" stroke="#004066" stroke-width="2.2" cx="68.55" cy="-421.64" rx="4" ry="4"></ellipse></g><g id="node4" class="node"><title>c_4</title><ellipse fill="white" stroke="black" cx="45" cy="-336" rx="27" ry="18"></ellipse><text text-anchor="middle" x="45" y="-332.3" font-family="Times New Roman,serif" font-size="14.00">c_4</text></g><g id="edge22" class="edge"><title>c_3--v_1</title><path fill="none" stroke="#b14923" stroke-width="2.2" d="M75.85,-398.54C127.14,-419.39 228.56,-460.62 271.28,-477.99"></path><ellipse fill="none" stroke="#b14923" stroke-width="2.2" cx="72.07" cy="-397" rx="4" ry="4"></ellipse></g><g id="node17" class="node"><title>v_7</title><polygon fill="none" stroke="#da1167" stroke-width="2.2" stroke-dasharray="1,5" points="291,-204 256.14,-186 291,-168 325.86,-186 291,-204"></polygon><text text-anchor="middle" x="291" y="-182.3" font-family="Times New Roman,serif" font-size="14.00">v_7</text></g><g id="edge23" class="edge"><title>c_3--v_7</title><path fill="none" stroke="#da1167" stroke-width="2.2" d="M62.3,-371.94C108.78,-334.15 235.68,-230.98 277.46,-197.01"></path></g><g id="node5" class="node"><title>c_5</title><ellipse fill="white" stroke="black" cx="45" cy="-286" rx="27" ry="18"></ellipse><text text-anchor="middle" x="45" y="-282.3" font-family="Times New Roman,serif" font-size="14.00">c_5</text></g><g id="node12" class="node"><title>v_2</title><polygon fill="none" stroke="#244320" stroke-width="2.2" stroke-dasharray="1,5" points="291,-454 256.14,-436 291,-418 325.86,-436 291,-454"></polygon><text text-anchor="middle" x="291" y="-432.3" font-family="Times New Roman,serif" font-size="14.00">v_2</text></g><g id="edge24" class="edge"><title>c_4--v_2</title><path fill="none" stroke="#244320" stroke-width="2.2" d="M68.36,-345.5C116.58,-365.1 226.36,-409.72 271.28,-427.99"></path></g><g id="node13" class="node"><title>v_3</title><polygon fill="none" stroke="#b1740f" stroke-width="2.2" stroke-dasharray="1,5" points="291,-404 256.14,-386 291,-368 325.86,-386 291,-404"></polygon><text text-anchor="middle" x="291" y="-382.3" font-family="Times New Roman,serif" font-size="14.00">v_3</text></g><g id="edge25" class="edge"><title>c_4--v_3</title><path fill="none" stroke="#b1740f" stroke-width="2.2" d="M70.6,-342C118.37,-351.32 220.42,-371.23 266.96,-380.31"></path></g><g id="node6" class="node"><title>c_6</title><ellipse fill="white" stroke="black" cx="45" cy="-236" rx="27" ry="18"></ellipse><text text-anchor="middle" x="45" y="-232.3" font-family="Times New Roman,serif" font-size="14.00">c_6</text></g><g id="edge26" class="edge"><title>c_5--v_2</title><path fill="none" stroke="#244320" stroke-width="2.2" d="M65.25,-298.35C112.94,-327.43 231.57,-399.76 274.86,-426.16"></path></g><g id="edge27" class="edge"><title>c_5--v_5</title><path fill="none" stroke="#004066" stroke-width="2.2" d="M72.39,-286C133.59,-286 194.79,-286 255.99,-286"></path></g><g id="node7" class="node"><title>c_7</title><ellipse fill="white" stroke="black" cx="45" cy="-186" rx="27" ry="18"></ellipse><text text-anchor="middle" x="45" y="-182.3" font-family="Times New Roman,serif" font-size="14.00">c_7</text></g><g id="edge28" class="edge"><title>c_6--v_2</title><path fill="none" stroke="#244320" stroke-width="2.2" d="M62.36,-250.12C108.89,-287.94 235.62,-390.98 277.42,-424.96"></path></g><g id="edge29" class="edge"><title>c_6--v_6</title><path fill="none" stroke="#0d1321" stroke-width="2.2" d="M80.63,-236C139.09,-236 197.54,-236 255.99,-236"></path><ellipse fill="none" stroke="#0d1321" stroke-width="2.2" cx="76.39" cy="-236" rx="4" ry="4"></ellipse></g><g id="node8" class="node"><title>c_8</title><ellipse fill="white" stroke="black" cx="45" cy="-136" rx="27" ry="18"></ellipse><text text-anchor="middle" x="45" y="-132.3" font-family="Times New Roman,serif" font-size="14.00">c_8</text></g><g id="edge30" class="edge"><title>c_7--v_3</title><path fill="none" stroke="#b1740f" stroke-width="2.2" d="M62.36,-200.12C108.89,-237.94 235.62,-340.98 277.42,-374.96"></path></g><g id="node18" class="node"><title>v_8</title><polygon fill="none" stroke="#604909" stroke-width="2.2" stroke-dasharray="1,5" points="291,-154 256.14,-136 291,-118 325.86,-136 291,-154"></polygon><text text-anchor="middle" x="291" y="-132.3" font-family="Times New Roman,serif" font-size="14.00">v_8</text></g><g id="edge31" class="edge"><title>c_7--v_8</title><path fill="none" stroke="#604909" stroke-width="2.2" d="M78.87,-178.39C129.3,-168.55 222.92,-150.28 266.94,-141.69"></path><ellipse fill="none" stroke="#604909" stroke-width="2.2" cx="74.79" cy="-179.19" rx="4" ry="4"></ellipse></g><g id="node9" class="node"><title>c_9</title><ellipse fill="white" stroke="black" cx="45" cy="-84" rx="27" ry="18"></ellipse><text text-anchor="middle" x="45" y="-80.3" font-family="Times New Roman,serif" font-size="14.00">c_9</text></g><g id="edge32" class="edge"><title>c_8--v_4</title><path fill="none" stroke="#a682ff" stroke-width="2.2" d="M62.36,-150.12C108.89,-187.94 235.62,-290.98 277.42,-324.96"></path></g><g id="edge33" class="edge"><title>c_8--v_8</title><path fill="none" stroke="#604909" stroke-width="2.2" d="M80.63,-136C139.09,-136 197.54,-136 255.99,-136"></path><ellipse fill="none" stroke="#604909" stroke-width="2.2" cx="76.39" cy="-136" rx="4" ry="4"></ellipse></g><g id="node10" class="node"><title>c_10</title><ellipse fill="white" stroke="black" cx="45" cy="-34" rx="28.7" ry="18"></ellipse><text text-anchor="middle" x="45" y="-30.3" font-family="Times New Roman,serif" font-size="14.00">c_10</text></g><g id="edge34" class="edge"><title>c_9--v_4</title><path fill="none" stroke="#a682ff" stroke-width="2.2" d="M65.41,-104.91C114.89,-155.6 240.03,-283.79 279.13,-323.85"></path><ellipse fill="none" stroke="#a682ff" stroke-width="2.2" cx="62.56" cy="-101.99" rx="4" ry="4"></ellipse></g><g id="edge35" class="edge"><title>c_9--v_6</title><path fill="none" stroke="#0d1321" stroke-width="2.2" d="M64.9,-96.29C112.35,-125.62 231.46,-199.21 274.86,-226.03"></path></g><g id="edge36" class="edge"><title>c_10--v_4</title><path fill="none" stroke="#a682ff" stroke-width="2.2" d="M63.37,-56.56C111.9,-116.13 242.35,-276.28 280.43,-323.02"></path><ellipse fill="none" stroke="#a682ff" stroke-width="2.2" cx="60.67" cy="-53.23" rx="4" ry="4"></ellipse></g><g id="edge37" class="edge"><title>c_10--v_7</title><path fill="none" stroke="#da1167" stroke-width="2.2" d="M65.6,-46.73C113.53,-76.34 231.68,-149.34 274.86,-176.03"></path></g></g><g id="graph0" class="graph" transform="scale(1 1) rotate(0) translate(191.428 182.426) translate(966.000000)"><title>primal graph</title><polygon fill="white" stroke="none" points="-191.428,182.428 -191.428,-182.426 191.426,-182.426 191.426,182.428 -191.428,182.428"></polygon><g id="node1" class="node"><title>v_1</title><ellipse fill="none" stroke="black" stroke-width="2.2" cx="-160.428" cy="-0.00234" rx="27" ry="18"></ellipse><text text-anchor="middle" x="-160.428" y="3.69766" font-family="Times New Roman,serif" font-size="14.00">v_1</text></g><g id="node2" class="node"><title>v_4</title><ellipse fill="none" stroke="black" stroke-width="2.2" cx="113.439" cy="-113.438" rx="27" ry="18"></ellipse><text text-anchor="middle" x="113.439" y="-109.738" font-family="Times New Roman,serif" font-size="14.00">v_4</text></g><g id="edge1" class="edge"><title>v_1--v_4</title><path fill="none" stroke="black" d="M-137.078,-9.67383C-85.3369,-31.1051 38.462,-82.3828 90.1481,-103.791"></path></g><g id="node3" class="node"><title>v_6</title><ellipse fill="none" stroke="black" stroke-width="2.2" cx="113.439" cy="113.439" rx="27" ry="18"></ellipse><text text-anchor="middle" x="113.439" y="117.139" font-family="Times New Roman,serif" font-size="14.00">v_6</text></g><g id="edge2" class="edge"><title>v_1--v_6</title><path fill="none" stroke="black" d="M-137.078,9.66964C-85.3369,31.102 38.462,82.3823 90.1481,103.792"></path></g><g id="node4" class="node"><title>v_5</title><ellipse fill="none" stroke="black" stroke-width="2.2" cx="160.426" cy="-0.00234" rx="27" ry="18"></ellipse><text text-anchor="middle" x="160.426" y="3.69766" font-family="Times New Roman,serif" font-size="14.00">v_5</text></g><g id="edge4" class="edge"><title>v_1--v_5</title><path fill="none" stroke="black" d="M-133.348,-0.00234C-72.916,-0.00234 72.3964,-0.00234 133.079,-0.00234"></path></g><g id="node5" class="node"><title>v_7</title><ellipse fill="none" stroke="black" stroke-width="2.2" cx="0.0027" cy="160.428" rx="27" ry="18"></ellipse><text text-anchor="middle" x="0.0027" y="164.128" font-family="Times New Roman,serif" font-size="14.00">v_7</text></g><g id="edge5" class="edge"><title>v_1--v_7</title><path fill="none" stroke="black" d="M-145.335,15.0906C-114.758,45.6673 -45.8078,114.618 -15.167,145.258"></path></g><g id="edge3" class="edge"><title>v_4--v_6</title><path fill="none" stroke="black" d="M113.439,-95.2555C113.439,-52.7746 113.439,52.6037 113.439,95.17"></path></g><g id="edge11" class="edge"><title>v_4--v_7</title><path fill="none" stroke="black" d="M106.17,-95.8902C85.6813,-46.4243 27.6253,93.7393 7.21066,143.026"></path></g><g id="node6" class="node"><title>v_2</title><ellipse fill="none" stroke="black" stroke-width="2.2" cx="-113.44" cy="-113.438" rx="27" ry="18"></ellipse><text text-anchor="middle" x="-113.44" y="-109.738" font-family="Times New Roman,serif" font-size="14.00">v_2</text></g><g id="edge8" class="edge"><title>v_2--v_6</title><path fill="none" stroke="black" d="M-98.202,-98.2C-56.8709,-56.8691 57.0131,57.0142 98.2665,98.2674"></path></g><g id="edge7" class="edge"><title>v_2--v_5</title><path fill="none" stroke="black" d="M-90.0908,-103.767C-38.3497,-82.3356 85.4492,-31.0578 137.135,-9.64935"></path></g><g id="node7" class="node"><title>v_3</title><ellipse fill="none" stroke="black" stroke-width="2.2" cx="0.0027" cy="-160.426" rx="27" ry="18"></ellipse><text text-anchor="middle" x="0.0027" y="-156.726" font-family="Times New Roman,serif" font-size="14.00">v_3</text></g><g id="edge6" class="edge"><title>v_2--v_3</title><path fill="none" stroke="black" d="M-90.4836,-122.947C-70.9312,-131.045 -42.9629,-142.63 -23.3094,-150.77"></path></g><g id="node8" class="node"><title>v_8</title><ellipse fill="none" stroke="black" stroke-width="2.2" cx="-113.44" cy="113.439" rx="27" ry="18"></ellipse><text text-anchor="middle" x="-113.44" y="117.139" font-family="Times New Roman,serif" font-size="14.00">v_8</text></g><g id="edge10" class="edge"><title>v_8--v_4</title><path fill="none" stroke="black" d="M-98.202,98.201C-56.8709,56.8701 57.0131,-57.0131 98.2665,-98.2663"></path></g><g id="edge9" class="edge"><title>v_8--v_3</title><path fill="none" stroke="black" d="M-106.172,95.8913C-85.6814,46.4257 -27.6217,-93.7371 -7.20572,-143.024"></path></g></g></svg>