<?xml version="1.0" encoding="UTF-8" standalone="no"?>
<!DOCTYPE svg PUBLIC "-//W3C//DTD SVG 1.1//EN"
 "http://www.w3.org/Graphics/SVG/1.1/DTD/svg11.dtd">
<!-- Generated by graphviz version 2.38.0 (20140413.2041)
 -->
<!-- Title: graph Pages: 1 -->
<svg width="732pt" height="274pt"
 viewBox="0.00 0.00 731.54 273.90" xmlns="http://www.w3.org/2000/svg" xmlns:xlink="http://www.w3.org/1999/xlink">
<g id="graph0" class="graph" transform="scale(1 1) rotate(0) translate(4 269.898)">
<title>graph</title>
<polygon fill="white" stroke="none" points="-4,4 -4,-269.898 727.543,-269.898 727.543,4 -4,4"/>
<!-- 9&#45;&#45;10 -->
<g id="edge1" class="edge"><title>9&#45;&#45;10</title>
<path fill="none" stroke="black" d="M91.857,-48.3432C85.0763,-43.0918 77.3387,-37.0994 70.5408,-31.8346"/>
</g>
<!-- 9&#45;&#45;11 -->
<g id="edge16" class="edge"><title>9&#45;&#45;11</title>
<path fill="none" stroke="black" d="M90.3928,-74.9719C77.059,-83.9834 59.35,-95.9517 46.039,-104.948"/>
</g>
<!-- 1&#45;&#45;2 -->
<g id="edge2" class="edge"><title>1&#45;&#45;2</title>
<path fill="none" stroke="red" stroke-width="2.2" d="M673.097,-128.359C668.158,-130.3 662.946,-132.348 658.005,-134.289"/>
</g>
<!-- 2&#45;&#45;3 -->
<g id="edge8" class="edge"><title>2&#45;&#45;3</title>
<path fill="none" stroke="black" d="M607.865,-147.317C604.975,-147.729 602.035,-148.148 599.146,-148.56"/>
</g>
<!-- 6&#45;&#45;15 -->
<g id="edge3" class="edge"><title>6&#45;&#45;15</title>
<path fill="none" stroke="black" d="M375.418,-109.616C380.208,-117.838 385.966,-127.721 390.782,-135.987"/>
</g>
<!-- 6&#45;&#45;7 -->
<g id="edge9" class="edge"><title>6&#45;&#45;7</title>
<path fill="none" stroke="black" d="M339.871,-98.8492C317.783,-104.016 286.124,-111.421 264.048,-116.585"/>
</g>
<!-- 15&#45;&#45;16 -->
<g id="edge15" class="edge"><title>15&#45;&#45;16</title>
<path fill="none" stroke="black" d="M384.052,-167.517C378.357,-172.43 371.993,-177.919 366.308,-182.822"/>
</g>
<!-- 3&#45;&#45;4 -->
<g id="edge4" class="edge"><title>3&#45;&#45;4</title>
<path fill="none" stroke="black" d="M550.752,-141.688C536.726,-134.808 518.551,-125.893 504.503,-119.002"/>
</g>
<!-- 3&#45;&#45;5 -->
<g id="edge18" class="edge"><title>3&#45;&#45;5</title>
<path fill="none" stroke="black" d="M563.997,-135.126C560.541,-128.127 556.557,-120.059 553.106,-113.071"/>
</g>
<!-- 4&#45;&#45;6 -->
<g id="edge6" class="edge"><title>4&#45;&#45;6</title>
<path fill="none" stroke="black" d="M456.088,-104.77C437.074,-102.259 411.565,-98.8894 392.484,-96.3692"/>
</g>
<!-- 4&#45;&#45;5 -->
<g id="edge10" class="edge"><title>4&#45;&#45;5</title>
<path fill="none" stroke="black" d="M508.577,-103.117C511.895,-102.457 515.294,-101.781 518.614,-101.121"/>
</g>
<!-- 14&#45;&#45;7 -->
<g id="edge5" class="edge"><title>14&#45;&#45;7</title>
<path fill="none" stroke="black" d="M141.824,-154.154C162.814,-147.291 192.898,-137.455 213.877,-130.595"/>
</g>
<!-- 7&#45;&#45;8 -->
<g id="edge14" class="edge"><title>7&#45;&#45;8</title>
<path fill="none" stroke="black" d="M219.715,-109.491C211.866,-103.96 202.747,-97.5349 194.899,-92.005"/>
</g>
<!-- 12&#45;&#45;14 -->
<g id="edge13" class="edge"><title>12&#45;&#45;14</title>
<path fill="none" stroke="black" d="M70.6693,-179.381C78.0259,-176.666 86.1228,-173.679 93.4777,-170.965"/>
</g>
<!-- 12&#45;&#45;13 -->
<g id="edge7" class="edge"><title>12&#45;&#45;13</title>
<path fill="none" stroke="black" d="M49.6311,-206.108C50.8338,-213.665 52.2309,-222.443 53.4333,-229.998"/>
</g>
<!-- 8&#45;&#45;9 -->
<g id="edge11" class="edge"><title>8&#45;&#45;9</title>
<path fill="none" stroke="black" d="M150.681,-72.4296C145.532,-71.1288 140.123,-69.7622 134.98,-68.463"/>
</g>
<!-- 11&#45;&#45;14 -->
<g id="edge17" class="edge"><title>11&#45;&#45;14</title>
<path fill="none" stroke="black" d="M48.8693,-128.549C62.9689,-135.47 81.2396,-144.438 95.3611,-151.37"/>
</g>
<!-- 11&#45;&#45;12 -->
<g id="edge12" class="edge"><title>11&#45;&#45;12</title>
<path fill="none" stroke="black" d="M31.9914,-135.575C34.967,-146.163 38.7342,-159.567 41.7217,-170.196"/>
</g>
<!-- 9 -->
<g id="node1" class="node"><title>9</title>
<ellipse fill="white" stroke="black" stroke-width="2.2" cx="109.536" cy="-62.0346" rx="27" ry="18"/>
<text text-anchor="middle" x="109.536" y="-58.3346" font-family="Times New Roman,serif" font-size="14.00">9</text>
</g>
<!-- 10 -->
<g id="node2" class="node"><title>10</title>
<ellipse fill="white" stroke="black" stroke-width="2.2" cx="52.6773" cy="-18" rx="27" ry="18"/>
<text text-anchor="middle" x="52.6773" y="-14.3" font-family="Times New Roman,serif" font-size="14.00">10</text>
</g>
<!-- 1 -->
<g id="node3" class="node"><title>1</title>
<ellipse fill="yellow" stroke="black" stroke-width="2.2" cx="696.543" cy="-119.146" rx="27" ry="18"/>
<text text-anchor="middle" x="696.543" y="-115.446" font-family="Times New Roman,serif" font-size="14.00">1</text>
</g>
<!-- 2 -->
<g id="node4" class="node"><title>2</title>
<ellipse fill="yellow" stroke="black" stroke-width="2.2" cx="634.526" cy="-143.515" rx="27" ry="18"/>
<text text-anchor="middle" x="634.526" y="-139.815" font-family="Times New Roman,serif" font-size="14.00">2</text>
</g>
<!-- 6 -->
<g id="node5" class="node"><title>6</title>
<ellipse fill="white" stroke="black" stroke-width="2.2" cx="365.634" cy="-92.8229" rx="27" ry="18"/>
<text text-anchor="middle" x="365.634" y="-89.1229" font-family="Times New Roman,serif" font-size="14.00">6</text>
</g>
<!-- 15 -->
<g id="node6" class="node"><title>15</title>
<ellipse fill="white" stroke="black" stroke-width="2.2" cx="400.757" cy="-153.109" rx="27" ry="18"/>
<text text-anchor="middle" x="400.757" y="-149.409" font-family="Times New Roman,serif" font-size="14.00">15</text>
</g>
<!-- 3 -->
<g id="node7" class="node"><title>3</title>
<ellipse fill="white" stroke="black" stroke-width="2.2" cx="572.507" cy="-152.359" rx="27" ry="18"/>
<text text-anchor="middle" x="572.507" y="-148.659" font-family="Times New Roman,serif" font-size="14.00">3</text>
</g>
<!-- 4 -->
<g id="node8" class="node"><title>4</title>
<ellipse fill="white" stroke="black" stroke-width="2.2" cx="482.637" cy="-108.276" rx="27" ry="18"/>
<text text-anchor="middle" x="482.637" y="-104.576" font-family="Times New Roman,serif" font-size="14.00">4</text>
</g>
<!-- 14 -->
<g id="node9" class="node"><title>14</title>
<ellipse fill="white" stroke="black" stroke-width="2.2" cx="117.342" cy="-162.159" rx="27" ry="18"/>
<text text-anchor="middle" x="117.342" y="-158.459" font-family="Times New Roman,serif" font-size="14.00">14</text>
</g>
<!-- 7 -->
<g id="node10" class="node"><title>7</title>
<ellipse fill="white" stroke="black" stroke-width="2.2" cx="238.323" cy="-122.602" rx="27" ry="18"/>
<text text-anchor="middle" x="238.323" y="-118.902" font-family="Times New Roman,serif" font-size="14.00">7</text>
</g>
<!-- 12 -->
<g id="node11" class="node"><title>12</title>
<ellipse fill="white" stroke="black" stroke-width="2.2" cx="46.7803" cy="-188.195" rx="27" ry="18"/>
<text text-anchor="middle" x="46.7803" y="-184.495" font-family="Times New Roman,serif" font-size="14.00">12</text>
</g>
<!-- 13 -->
<g id="node12" class="node"><title>13</title>
<ellipse fill="white" stroke="black" stroke-width="2.2" cx="56.2821" cy="-247.898" rx="27" ry="18"/>
<text text-anchor="middle" x="56.2821" y="-244.198" font-family="Times New Roman,serif" font-size="14.00">13</text>
</g>
<!-- 5 -->
<g id="node13" class="node"><title>5</title>
<ellipse fill="white" stroke="black" stroke-width="2.2" cx="544.649" cy="-95.943" rx="27" ry="18"/>
<text text-anchor="middle" x="544.649" y="-92.243" font-family="Times New Roman,serif" font-size="14.00">5</text>
</g>
<!-- 8 -->
<g id="node14" class="node"><title>8</title>
<ellipse fill="white" stroke="black" stroke-width="2.2" cx="176.305" cy="-78.9031" rx="27" ry="18"/>
<text text-anchor="middle" x="176.305" y="-75.2031" font-family="Times New Roman,serif" font-size="14.00">8</text>
</g>
<!-- 11 -->
<g id="node15" class="node"><title>11</title>
<ellipse fill="white" stroke="black" stroke-width="2.2" cx="27" cy="-117.815" rx="27" ry="18"/>
<text text-anchor="middle" x="27" y="-114.115" font-family="Times New Roman,serif" font-size="14.00">11</text>
</g>
<!-- 16 -->
<g id="node16" class="node"><title>16</title>
<ellipse fill="white" stroke="black" stroke-width="2.2" cx="349.741" cy="-197.113" rx="27" ry="18"/>
<text text-anchor="middle" x="349.741" y="-193.413" font-family="Times New Roman,serif" font-size="14.00">16</text>
</g>
</g>
</svg>
