<?xml version="1.0" encoding="UTF-8" standalone="no"?>
<!DOCTYPE svg PUBLIC "-//W3C//DTD SVG 1.1//EN"
 "http://www.w3.org/Graphics/SVG/1.1/DTD/svg11.dtd">
<!-- Generated by graphviz version 2.38.0 (20140413.2041)
 -->
<!-- Title: graph Pages: 1 -->
<svg width="707pt" height="238pt"
 viewBox="0.00 0.00 707.34 238.17" xmlns="http://www.w3.org/2000/svg" xmlns:xlink="http://www.w3.org/1999/xlink">
<g id="graph0" class="graph" transform="scale(1 1) rotate(0) translate(295.054 105.083)">
<title>graph</title>
<polygon fill="white" stroke="none" points="-295.054,133.091 -295.054,-105.083 412.281,-105.083 412.281,133.091 -295.054,133.091"/>
<!-- 6&#45;&#45;15 -->
<g id="edge1" class="edge"><title>6&#45;&#45;15</title>
<path fill="none" stroke="red" stroke-width="2.2" d="M61.1326,33.2471C68.6446,18.6255 79.4115,-2.33132 86.9198,-16.9456"/>
</g>
<!-- 6&#45;&#45;7 -->
<g id="edge14" class="edge"><title>6&#45;&#45;7</title>
<path fill="none" stroke="black" d="M25.2845,48.0908C-0.907163,45.953 -40.3666,42.7322 -66.5092,40.5983"/>
</g>
<!-- 15&#45;&#45;16 -->
<g id="edge15" class="edge"><title>15&#45;&#45;16</title>
<path fill="none" stroke="black" d="M81.8078,-49.7832C76.8909,-55.391 71.3601,-61.6988 66.4453,-67.3041"/>
</g>
<!-- 3&#45;&#45;4 -->
<g id="edge2" class="edge"><title>3&#45;&#45;4</title>
<path fill="none" stroke="black" d="M230.979,40.4347C222.798,38.8338 213.784,37.0701 205.622,35.4731"/>
</g>
<!-- 3&#45;&#45;2 -->
<g id="edge16" class="edge"><title>3&#45;&#45;2</title>
<path fill="none" stroke="black" d="M281.059,36.7929C285.841,35.0279 290.864,33.1734 295.64,31.4105"/>
</g>
<!-- 4&#45;&#45;6 -->
<g id="edge5" class="edge"><title>4&#45;&#45;6</title>
<path fill="none" stroke="black" d="M153.262,34.5137C131.421,37.9314 100.537,42.7644 78.705,46.1807"/>
</g>
<!-- 14&#45;&#45;7 -->
<g id="edge3" class="edge"><title>14&#45;&#45;7</title>
<path fill="none" stroke="black" d="M-122.164,-39.6846C-115.859,-22.5391 -106.31,3.42993 -99.9779,20.648"/>
</g>
<!-- 14&#45;&#45;12 -->
<g id="edge12" class="edge"><title>14&#45;&#45;12</title>
<path fill="none" stroke="black" d="M-152.659,-65.4154C-160.69,-68.1516 -169.643,-71.2019 -177.698,-73.946"/>
</g>
<!-- 5&#45;&#45;3 -->
<g id="edge11" class="edge"><title>5&#45;&#45;3</title>
<path fill="none" stroke="black" d="M247.715,-31.3278C249.823,-14.3486 252.936,10.7297 255.029,27.5868"/>
</g>
<!-- 5&#45;&#45;4 -->
<g id="edge4" class="edge"><title>5&#45;&#45;4</title>
<path fill="none" stroke="black" d="M232.434,-33.8755C220.897,-19.8355 204.132,0.567933 192.604,14.598"/>
</g>
<!-- 12&#45;&#45;13 -->
<g id="edge6" class="edge"><title>12&#45;&#45;13</title>
<path fill="none" stroke="black" d="M-225.844,-73.4253C-230.626,-71.6538 -235.649,-69.7925 -240.425,-68.023"/>
</g>
<!-- 12&#45;&#45;11 -->
<g id="edge17" class="edge"><title>12&#45;&#45;11</title>
<path fill="none" stroke="black" d="M-201.903,-63.9962C-201.833,-55.2375 -201.749,-44.7743 -201.68,-36.0389"/>
</g>
<!-- 8&#45;&#45;7 -->
<g id="edge18" class="edge"><title>8&#45;&#45;7</title>
<path fill="none" stroke="black" d="M-228.648,28.1135C-198.584,30.4007 -150.437,34.0637 -120.446,36.3454"/>
</g>
<!-- 8&#45;&#45;9 -->
<g id="edge7" class="edge"><title>8&#45;&#45;9</title>
<path fill="none" stroke="black" d="M-236.485,38.8054C-229.067,43.6994 -220.602,49.284 -213.165,54.1904"/>
</g>
<!-- 9&#45;&#45;11 -->
<g id="edge9" class="edge"><title>9&#45;&#45;11</title>
<path fill="none" stroke="black" d="M-195.301,49.0458C-196.643,34.612 -198.518,14.4688 -199.86,0.0418532"/>
</g>
<!-- 10&#45;&#45;9 -->
<g id="edge8" class="edge"><title>10&#45;&#45;9</title>
<path fill="none" stroke="black" d="M-227.759,96.6812C-222.093,91.768 -215.762,86.2791 -210.106,81.3752"/>
</g>
<!-- 11&#45;&#45;14 -->
<g id="edge10" class="edge"><title>11&#45;&#45;14</title>
<path fill="none" stroke="black" d="M-180.444,-29.3235C-170.769,-34.5313 -159.327,-40.6903 -149.658,-45.8951"/>
</g>
<!-- 1&#45;&#45;2 -->
<g id="edge13" class="edge"><title>1&#45;&#45;2</title>
<path fill="none" stroke="black" d="M359.593,2.6529C353.586,5.63765 347.064,8.87799 341.052,11.8654"/>
</g>
<!-- 6 -->
<g id="node1" class="node"><title>6</title>
<ellipse fill="yellow" stroke="black" stroke-width="2.2" cx="52.3705" cy="50.3017" rx="27" ry="18"/>
<text text-anchor="middle" x="52.3705" y="54.0017" font-family="Times New Roman,serif" font-size="14.00">6</text>
</g>
<!-- 15 -->
<g id="node2" class="node"><title>15</title>
<ellipse fill="yellow" stroke="black" stroke-width="2.2" cx="95.6689" cy="-33.9748" rx="27" ry="18"/>
<text text-anchor="middle" x="95.6689" y="-30.2748" font-family="Times New Roman,serif" font-size="14.00">15</text>
</g>
<!-- 3 -->
<g id="node3" class="node"><title>3</title>
<ellipse fill="white" stroke="black" stroke-width="2.2" cx="257.262" cy="45.5773" rx="27" ry="18"/>
<text text-anchor="middle" x="257.262" y="49.2773" font-family="Times New Roman,serif" font-size="14.00">3</text>
</g>
<!-- 4 -->
<g id="node4" class="node"><title>4</title>
<ellipse fill="white" stroke="black" stroke-width="2.2" cx="179.63" cy="30.3874" rx="27" ry="18"/>
<text text-anchor="middle" x="179.63" y="34.0874" font-family="Times New Roman,serif" font-size="14.00">4</text>
</g>
<!-- 14 -->
<g id="node5" class="node"><title>14</title>
<ellipse fill="white" stroke="black" stroke-width="2.2" cx="-128.614" cy="-57.2233" rx="27" ry="18"/>
<text text-anchor="middle" x="-128.614" y="-53.5233" font-family="Times New Roman,serif" font-size="14.00">14</text>
</g>
<!-- 7 -->
<g id="node6" class="node"><title>7</title>
<ellipse fill="white" stroke="black" stroke-width="2.2" cx="-93.4502" cy="38.3993" rx="27" ry="18"/>
<text text-anchor="middle" x="-93.4502" y="42.0993" font-family="Times New Roman,serif" font-size="14.00">7</text>
</g>
<!-- 5 -->
<g id="node7" class="node"><title>5</title>
<ellipse fill="white" stroke="black" stroke-width="2.2" cx="245.435" cy="-49.6977" rx="27" ry="18"/>
<text text-anchor="middle" x="245.435" y="-45.9977" font-family="Times New Roman,serif" font-size="14.00">5</text>
</g>
<!-- 12 -->
<g id="node8" class="node"><title>12</title>
<ellipse fill="white" stroke="black" stroke-width="2.2" cx="-202.048" cy="-82.2421" rx="27" ry="18"/>
<text text-anchor="middle" x="-202.048" y="-78.5421" font-family="Times New Roman,serif" font-size="14.00">12</text>
</g>
<!-- 13 -->
<g id="node9" class="node"><title>13</title>
<ellipse fill="white" stroke="black" stroke-width="2.2" cx="-264.054" cy="-59.2678" rx="27" ry="18"/>
<text text-anchor="middle" x="-264.054" y="-55.5678" font-family="Times New Roman,serif" font-size="14.00">13</text>
</g>
<!-- 8 -->
<g id="node10" class="node"><title>8</title>
<ellipse fill="white" stroke="black" stroke-width="2.2" cx="-255.826" cy="26.0458" rx="27" ry="18"/>
<text text-anchor="middle" x="-255.826" y="29.7458" font-family="Times New Roman,serif" font-size="14.00">8</text>
</g>
<!-- 9 -->
<g id="node11" class="node"><title>9</title>
<ellipse fill="white" stroke="black" stroke-width="2.2" cx="-193.622" cy="67.0834" rx="27" ry="18"/>
<text text-anchor="middle" x="-193.622" y="70.7834" font-family="Times New Roman,serif" font-size="14.00">9</text>
</g>
<!-- 10 -->
<g id="node12" class="node"><title>10</title>
<ellipse fill="white" stroke="black" stroke-width="2.2" cx="-244.379" cy="111.091" rx="27" ry="18"/>
<text text-anchor="middle" x="-244.379" y="114.791" font-family="Times New Roman,serif" font-size="14.00">10</text>
</g>
<!-- 11 -->
<g id="node13" class="node"><title>11</title>
<ellipse fill="white" stroke="black" stroke-width="2.2" cx="-201.535" cy="-17.9697" rx="27" ry="18"/>
<text text-anchor="middle" x="-201.535" y="-14.2697" font-family="Times New Roman,serif" font-size="14.00">11</text>
</g>
<!-- 1 -->
<g id="node14" class="node"><title>1</title>
<ellipse fill="white" stroke="black" stroke-width="2.2" cx="381.281" cy="-8.12311" rx="27" ry="18"/>
<text text-anchor="middle" x="381.281" y="-4.42311" font-family="Times New Roman,serif" font-size="14.00">1</text>
</g>
<!-- 2 -->
<g id="node15" class="node"><title>2</title>
<ellipse fill="white" stroke="black" stroke-width="2.2" cx="319.271" cy="22.6874" rx="27" ry="18"/>
<text text-anchor="middle" x="319.271" y="26.3874" font-family="Times New Roman,serif" font-size="14.00">2</text>
</g>
<!-- 16 -->
<g id="node16" class="node"><title>16</title>
<ellipse fill="white" stroke="black" stroke-width="2.2" cx="52.6103" cy="-83.0829" rx="27" ry="18"/>
<text text-anchor="middle" x="52.6103" y="-79.3829" font-family="Times New Roman,serif" font-size="14.00">16</text>
</g>
</g>
</svg>
